<svg width="93" height="32" viewBox="0 0 93 32" fill="none" xmlns="http://www.w3.org/2000/svg">
<g id="image 13 1" clip-path="url(#clip0_1184_3132)">
<path id="Vector" d="M58.5443 6.81529C57.3129 6.02807 56.6304 7.53389 56.6088 8.53055C56.5221 12.4089 56.5245 15.7864 56.616 18.6632C56.634 19.2157 56.7893 20.0896 57.2443 20.4543C57.8293 20.9238 58.7068 20.7324 59.039 20.0463C59.5481 18.9882 59.4506 16.8974 59.3712 15.7563C59.3692 15.7257 59.3734 15.695 59.3836 15.6662C59.3938 15.6373 59.4097 15.6109 59.4304 15.5885C59.451 15.5662 59.476 15.5484 59.5037 15.5362C59.5314 15.5241 59.5613 15.5179 59.5915 15.518L64.8058 15.5144C64.8597 15.5144 64.913 15.5251 64.9628 15.5458C65.0125 15.5665 65.0577 15.5969 65.0956 15.6352C65.1336 15.6734 65.1635 15.7189 65.1838 15.7688C65.2041 15.8187 65.2143 15.8722 65.2138 15.926C65.1741 19.566 64.6614 23.5779 60.4148 24.4229C55.8613 25.3257 51.0622 24.2135 50.6397 18.7463C50.3906 15.518 50.3436 12.1416 50.6325 8.87722C50.9322 5.47197 52.7016 3.15004 56.3596 2.78171C62.8017 2.12811 65.0405 4.49336 65.0297 10.7297C65.0297 10.7872 65.0069 10.8423 64.9662 10.8829C64.9256 10.9235 64.8705 10.9464 64.813 10.9464L59.494 10.95C59.4603 10.9506 59.4269 10.9441 59.3959 10.9309C59.3649 10.9177 59.3369 10.8981 59.3138 10.8733C59.2907 10.8484 59.2729 10.819 59.2617 10.7868C59.2504 10.7546 59.2459 10.7204 59.2484 10.6864C59.3206 9.71499 59.4687 7.40751 58.5443 6.81529Z" fill="#231E20"/>
<path id="Vector_2" d="M3.0647 2.99899L9.34067 2.98816C9.31419 6.41628 9.96297 9.72162 11.287 12.9042C11.8431 14.2379 12.6183 15.4223 13.6125 16.4575C15.7358 18.6747 18.8702 19.0647 21.1957 16.898C21.304 16.7969 21.4316 16.7452 21.5785 16.7428C21.5939 16.7428 21.6091 16.7466 21.6228 16.7539C21.6364 16.7612 21.648 16.7717 21.6566 16.7846C21.6651 16.7974 21.6704 16.8122 21.6719 16.8276C21.6734 16.843 21.6711 16.8585 21.6651 16.8728C20.5096 19.7002 18.101 23.3258 15.0389 24.1419C10.6262 25.3191 7.44849 20.9388 5.93908 17.5228C3.84468 12.785 3.23442 8.18451 3.0647 2.99899Z" fill="#FEDE00"/>
<path id="Vector_3" d="M10.9899 2.97742L24.2496 2.98103C24.2857 6.87377 23.1627 14.3379 19.2664 16.324C16.5906 17.689 14.2832 15.3381 13.1818 13.1246C11.6195 9.98051 10.8888 6.59813 10.9899 2.97742Z" fill="#3AB449"/>
<path id="Vector_4" d="M25.775 2.98108H32.1629C32.1945 2.98108 32.2258 2.98736 32.255 2.99956C32.2841 3.01176 32.3105 3.02964 32.3327 3.05216C32.3549 3.07467 32.3724 3.10137 32.3841 3.13071C32.3959 3.16004 32.4017 3.19142 32.4012 3.22302C32.3748 9.38353 31.3757 14.9927 29.4041 20.0507C27.5263 24.8715 24.5147 29.3817 19.4846 30.9164C17.1085 31.6422 13.9344 30.1942 11.9989 28.6198C9.94062 26.9442 8.28677 24.9196 7.03735 22.5459C7.3792 22.8131 7.70299 23.0936 8.00872 23.3873C12.5406 27.7206 17.8813 26.0776 21.0445 21.2351C24.5147 15.9196 25.8183 9.28964 25.775 2.98108Z" fill="#01529B"/>
<path id="Vector_5" d="M46.1126 13.1965C46.298 13.3265 46.5038 13.4132 46.7301 13.4565C49.0086 13.8826 49.7128 16.7896 49.5828 18.6637C49.3324 22.2363 47.344 24.0683 43.6174 24.1598C41.1739 24.22 38.2177 24.2332 34.7487 24.1995C34.7062 24.1986 34.6658 24.181 34.6361 24.1507C34.6064 24.1203 34.5898 24.0795 34.5898 24.037L34.5862 3.32745C34.5862 3.26295 34.6115 3.20103 34.6568 3.15508C34.7021 3.10914 34.7636 3.08285 34.8281 3.0819C37.5099 3.07949 40.1484 3.0831 42.7435 3.09273C44.8812 3.10357 47.5931 3.68856 48.5609 5.89132C49.6586 8.39019 49.0845 12.0627 46.1595 12.9185C46.1315 12.9263 46.1063 12.9418 46.0869 12.9635C46.0675 12.9851 46.0546 13.0119 46.0497 13.0409C46.0449 13.0698 46.0482 13.0998 46.0593 13.1273C46.0704 13.1548 46.0888 13.1788 46.1126 13.1965ZM40.5227 7.5452L40.501 11.0552C40.501 11.1193 40.5265 11.1809 40.5719 11.2262C40.6173 11.2716 40.6788 11.2971 40.743 11.2971L41.0174 11.3007C41.2959 11.3023 41.5719 11.2559 41.8298 11.1642C42.0876 11.0725 42.3221 10.9373 42.52 10.7663C42.7178 10.5952 42.8751 10.3917 42.9829 10.1675C43.0906 9.94316 43.1467 9.70245 43.1479 9.45907V9.17018C43.1504 8.67909 42.9297 8.20694 42.5343 7.85754C42.1388 7.50813 41.601 7.31006 41.0391 7.30686L40.7647 7.30325C40.7005 7.30325 40.639 7.32874 40.5936 7.37412C40.5482 7.41949 40.5227 7.48103 40.5227 7.5452ZM40.5191 15.4029L40.5119 19.6712C40.5119 19.7335 40.5366 19.7932 40.5806 19.8372C40.6246 19.8812 40.6843 19.9059 40.7466 19.9059L41.0933 19.9095C41.3992 19.9101 41.7021 19.8553 41.9849 19.7483C42.2677 19.6413 42.5248 19.4843 42.7414 19.2861C42.958 19.0879 43.13 18.8525 43.2474 18.5933C43.3649 18.3341 43.4256 18.0562 43.426 17.7754V17.3132C43.4268 16.7463 43.1823 16.2022 42.7462 15.8006C42.3101 15.399 41.7181 15.1728 41.1005 15.1718L40.7538 15.1682C40.6916 15.1682 40.6319 15.1929 40.5879 15.2369C40.5438 15.281 40.5191 15.3407 40.5191 15.4029Z" fill="#231E20"/>
<path id="Vector_6" d="M77.8643 13.6516C77.6068 13.7865 77.6212 13.8791 77.9077 13.9297C80.2079 14.3558 80.6918 16.1036 80.7496 18.1438C80.7905 19.5233 80.8326 20.9268 80.8759 22.3544C80.8976 23.0116 81.1612 23.5424 81.5981 24.0155C81.6143 24.033 81.6249 24.0549 81.6288 24.0784C81.6327 24.1019 81.6297 24.126 81.6202 24.1478C81.6106 24.1696 81.5949 24.1882 81.5749 24.2013C81.555 24.2143 81.5317 24.2213 81.5079 24.2213L75.5605 24.196C75.4756 24.1962 75.3931 24.1679 75.3257 24.1156C75.2584 24.0633 75.2102 23.99 75.1886 23.9071C75.0562 23.3919 74.9839 22.8888 74.9719 22.3977C74.9262 20.5753 74.8672 18.8769 74.795 17.3025C74.7661 16.6886 74.4591 16.2853 73.8742 16.0927C73.578 15.994 73.2807 15.8965 72.9822 15.8002C72.4141 15.6149 72.1312 15.8207 72.1336 16.4177L72.1553 23.9974C72.1553 24.1274 72.0903 24.1924 71.9603 24.1924L66.3813 24.2285C66.3257 24.2285 66.2724 24.2064 66.2332 24.1672C66.1939 24.1279 66.1718 24.0746 66.1718 24.0191L66.1682 3.32756C66.1682 3.16627 66.2489 3.08562 66.4102 3.08562C69.0871 3.07599 71.852 3.08201 74.7047 3.10368C76.326 3.11812 78.2543 3.41784 79.4604 4.54811C81.3815 6.34643 81.544 11.2322 79.3413 12.9042C78.8899 13.2472 78.3627 13.3916 77.8643 13.6516ZM72.1409 7.46948L72.1264 11.6222C72.1264 11.6835 72.1508 11.7423 72.1941 11.7856C72.2374 11.829 72.2962 11.8533 72.3575 11.8533H72.7908C73.0783 11.8544 73.3631 11.8029 73.629 11.702C73.8948 11.6012 74.1366 11.4527 74.3405 11.2653C74.5444 11.0778 74.7064 10.855 74.8172 10.6096C74.928 10.3641 74.9855 10.1008 74.9864 9.83473V9.2714C74.9881 8.73422 74.7593 8.21827 74.3503 7.83701C73.9413 7.45576 73.3856 7.24043 72.8053 7.23837H72.372C72.3107 7.23837 72.2519 7.26271 72.2085 7.30606C72.1652 7.3494 72.1409 7.40818 72.1409 7.46948Z" fill="#231E20"/>
<path id="Vector_7" d="M88.5538 3.08053L82.6317 3.09087C82.53 3.09104 82.4477 3.17364 82.4478 3.27535L82.4841 24.039C82.4842 24.1408 82.5668 24.2231 82.6686 24.2229L88.5906 24.2125C88.6923 24.2124 88.7747 24.1298 88.7745 24.0281L88.7382 3.26437C88.7381 3.16266 88.6555 3.08035 88.5538 3.08053Z" fill="#231E20"/>
</g>
<defs>
<clipPath id="clip0_1184_3132">
<rect width="91.873" height="30.4685" fill="white" transform="translate(0.965088 0.765747)"/>
</clipPath>
</defs>
</svg>
