<svg width="32" height="32" viewBox="0 0 32 32" fill="none" xmlns="http://www.w3.org/2000/svg">
<g id="moculo accordion icons">
<mask id="mask0_1345_1452" style="mask-type:alpha" maskUnits="userSpaceOnUse" x="0" y="0" width="32" height="32">
<rect id="Bounding box" width="32" height="32" fill="#D9D9D9"/>
</mask>
<g mask="url(#mask0_1345_1452)">
<path id="description" d="M10.6663 23.9998H21.333V21.3332H10.6663V23.9998ZM10.6663 18.6665H21.333V15.9998H10.6663V18.6665ZM7.99967 29.3332C7.26634 29.3332 6.63856 29.0721 6.11634 28.5498C5.59412 28.0276 5.33301 27.3998 5.33301 26.6665V5.33317C5.33301 4.59984 5.59412 3.97206 6.11634 3.44984C6.63856 2.92762 7.26634 2.6665 7.99967 2.6665H18.6663L26.6663 10.6665V26.6665C26.6663 27.3998 26.4052 28.0276 25.883 28.5498C25.3608 29.0721 24.733 29.3332 23.9997 29.3332H7.99967ZM17.333 11.9998V5.33317H7.99967V26.6665H23.9997V11.9998H17.333Z" fill="#4242FF"/>
</g>
</g>
</svg>
