<svg width="1440" height="911" viewBox="0 0 1440 911" fill="none" xmlns="http://www.w3.org/2000/svg">
  <g opacity="0.64" clip-path="url(#clip0_1226_2375)">
    <circle cx="1001.5" cy="313.5" r="312.5" stroke="#4242FF" stroke-width="2" />
    <circle cx="1001.5" cy="313.5" r="312.5" stroke="#4242FF" stroke-width="2" />
    <circle cx="1001" cy="314" r="309" stroke="#4242FF" stroke-width="2" />
    <circle cx="1001" cy="314" r="305" stroke="#4242FF" stroke-width="2" />
    <circle cx="1001" cy="314" r="301" stroke="#4242FF" stroke-width="2" />
    <circle cx="1001" cy="314" r="297" stroke="#4242FF" stroke-width="2" />
    <circle cx="1001" cy="314" r="293" stroke="#4242FF" stroke-width="2" />
    <circle cx="1001" cy="314" r="289" stroke="#4242FF" stroke-width="2" />
    <circle cx="1001" cy="314" r="285" stroke="#4242FF" stroke-width="2" />
    <circle cx="1001" cy="314" r="281" stroke="#4242FF" stroke-width="2" />
    <circle cx="1001" cy="314" r="277" stroke="#4242FF" stroke-width="2" />
    <circle cx="1001" cy="314" r="273" stroke="#4242FF" stroke-width="2" />
    <circle cx="1001" cy="314" r="269" stroke="#4242FF" stroke-width="2" />
    <circle cx="1001" cy="314" r="265" stroke="#4242FF" stroke-width="2" />
    <circle cx="1001" cy="314" r="261" stroke="#4242FF" stroke-width="2" />
    <circle cx="1001" cy="314" r="257" stroke="#4242FF" stroke-width="2" />
    <circle cx="1001" cy="314" r="253" stroke="#4242FF" stroke-width="2" />
    <circle cx="1001" cy="314" r="249" stroke="#4242FF" stroke-width="2" />
    <circle cx="1001" cy="314" r="245" stroke="#4242FF" stroke-width="2" />
    <circle cx="1001" cy="314" r="241" stroke="#4242FF" stroke-width="2" />
    <circle cx="1001" cy="314" r="237" stroke="#4242FF" stroke-width="2" />
    <circle cx="1001" cy="314" r="233" stroke="#4242FF" stroke-width="2" />
    <circle cx="1001" cy="314" r="229" stroke="#4242FF" stroke-width="2" />
    <circle cx="1001" cy="314" r="225" stroke="#4242FF" stroke-width="2" />
    <circle cx="1001" cy="314" r="221" stroke="#4242FF" stroke-width="2" />
    <circle cx="1001" cy="314" r="217" stroke="#4242FF" stroke-width="2" />
    <circle cx="1001" cy="314" r="213" stroke="#4242FF" stroke-width="2" />
    <circle cx="1001" cy="314" r="209" stroke="#4242FF" stroke-width="2" />
    <circle cx="1001" cy="314" r="205" stroke="#4242FF" stroke-width="2" />
    <circle cx="1001" cy="314" r="201" stroke="#4242FF" stroke-width="2" />
    <circle cx="1001" cy="314" r="197" stroke="#4242FF" stroke-width="2" />
    <circle cx="1001" cy="314" r="193" stroke="#4242FF" stroke-width="2" />
    <circle cx="1001" cy="314" r="189" stroke="#4242FF" stroke-width="2" />
    <circle cx="1001" cy="314" r="185" stroke="#4242FF" stroke-width="2" />
    <circle cx="1001" cy="314" r="181" stroke="#4242FF" stroke-width="2" />
    <circle cx="1001" cy="314" r="177" stroke="#4242FF" stroke-width="2" />
    <circle cx="1001" cy="314" r="173" stroke="#4242FF" stroke-width="2" />
    <circle cx="1001" cy="314" r="169" stroke="#4242FF" stroke-width="2" />
    <circle cx="1001" cy="314" r="165" stroke="#4242FF" stroke-width="2" />
    <circle cx="1001" cy="314" r="161" stroke="#4242FF" stroke-width="2" />
    <circle cx="1001" cy="314" r="157" stroke="#4242FF" stroke-width="2" />
    <circle cx="1001" cy="314" r="153" stroke="#4242FF" stroke-width="2" />
    <circle cx="1001" cy="314" r="149" stroke="#4242FF" stroke-width="2" />
    <circle cx="1001" cy="314" r="145" stroke="#4242FF" stroke-width="2" />
    <circle cx="1001" cy="314" r="141" stroke="#4242FF" stroke-width="2" />
    <circle cx="1001" cy="314" r="137" stroke="#4242FF" stroke-width="2" />
    <circle cx="1001" cy="314" r="133" stroke="#4242FF" stroke-width="2" />
    <circle cx="1001" cy="314" r="129" stroke="#4242FF" stroke-width="2" />
    <circle cx="1001" cy="314" r="125" stroke="#4242FF" stroke-width="2" />
    <circle cx="1001" cy="314" r="121" stroke="#4242FF" stroke-width="2" />
    <circle cx="1001" cy="314" r="117" stroke="#4242FF" stroke-width="2" />
    <circle cx="1001" cy="314" r="113" stroke="#4242FF" stroke-width="2" />
    <circle cx="1001" cy="314" r="109" stroke="#4242FF" stroke-width="2" />
    <circle cx="1001" cy="314" r="105" stroke="#4242FF" stroke-width="2" />
    <circle cx="1001" cy="314" r="101" stroke="#4242FF" stroke-width="2" />
    <circle cx="1001" cy="314" r="97" stroke="#4242FF" stroke-width="2" />
    <circle cx="1001" cy="314" r="93" stroke="#4242FF" stroke-width="2" />
    <circle cx="1001" cy="314" r="89" stroke="#4242FF" stroke-width="2" />
    <circle cx="1001" cy="314" r="85" stroke="#4242FF" stroke-width="2" />
    <circle cx="1001" cy="314" r="81" stroke="#4242FF" stroke-width="2" />
    <circle cx="1001" cy="314" r="77" stroke="#4242FF" stroke-width="2" />
    <circle cx="1001" cy="314" r="73" stroke="#4242FF" stroke-width="2" />
    <circle cx="1001" cy="314" r="69" stroke="#4242FF" stroke-width="2" />
    <circle cx="1001" cy="314" r="65" stroke="#4242FF" stroke-width="2" />
    <circle cx="1001" cy="314" r="61" stroke="#4242FF" stroke-width="2" />
    <circle cx="1001" cy="314" r="57" stroke="#4242FF" stroke-width="2" />
    <circle cx="1001" cy="314" r="53" stroke="#4242FF" stroke-width="2" />
    <circle cx="1001" cy="314" r="49" stroke="#4242FF" stroke-width="2" />
    <circle cx="1001" cy="314" r="45" stroke="#4242FF" stroke-width="2" />
    <circle cx="1001" cy="314" r="41" stroke="#4242FF" stroke-width="2" />
    <circle cx="1001" cy="314" r="37" stroke="#4242FF" stroke-width="2" />
    <circle cx="1001" cy="314" r="33" stroke="#4242FF" stroke-width="2" />
    <circle cx="1001" cy="314" r="29" stroke="#4242FF" stroke-width="2" />
    <circle cx="1001" cy="314" r="25" stroke="#4242FF" stroke-width="2" />
    <circle cx="1001" cy="314" r="21" stroke="#4242FF" stroke-width="2" />
    <circle cx="1001" cy="314" r="17" stroke="#4242FF" stroke-width="2" />
    <circle cx="1001" cy="314" r="9" stroke="#4242FF" stroke-width="2" />
    <circle cx="1001" cy="314" r="5" stroke="#4242FF" stroke-width="2" />
    <circle cx="1001" cy="314" r="13" stroke="#4242FF" stroke-width="2" />
    <circle cx="1001" cy="314" r="1" stroke="#4242FF" stroke-width="2" />
    <circle cx="1001.5" cy="313.5" r="313.5" fill="url(#paint0_radial_1226_2375)" />
    <path
      d="M1315 313.5C1315 375.504 1296.61 436.116 1262.17 487.671C1227.72 539.226 1178.76 579.408 1121.47 603.136C1064.19 626.864 1001.15 633.073 940.339 620.976C879.526 608.88 823.666 579.022 779.822 535.178C735.978 491.334 706.12 435.474 694.024 374.661C681.927 313.848 688.136 250.813 711.864 193.529C735.592 136.244 775.774 87.2821 827.329 52.8343C878.884 18.3865 939.496 -7.39396e-07 1001.5 0V313.5L1315 313.5Z"
      fill="#000B28" />
  </g>
  <g opacity="0.64" clip-path="url(#clip1_1226_2375)">
    <circle cx="314.5" cy="626.5" r="312.5" stroke="#4242FF" stroke-width="2" />
    <circle cx="314.5" cy="626.5" r="312.5" stroke="#4242FF" stroke-width="2" />
    <circle cx="314" cy="627" r="309" stroke="#4242FF" stroke-width="2" />
    <circle cx="314" cy="627" r="305" stroke="#4242FF" stroke-width="2" />
    <circle cx="314" cy="627" r="301" stroke="#4242FF" stroke-width="2" />
    <circle cx="314" cy="627" r="297" stroke="#4242FF" stroke-width="2" />
    <circle cx="314" cy="627" r="293" stroke="#4242FF" stroke-width="2" />
    <circle cx="314" cy="627" r="289" stroke="#4242FF" stroke-width="2" />
    <circle cx="314" cy="627" r="285" stroke="#4242FF" stroke-width="2" />
    <circle cx="314" cy="627" r="281" stroke="#4242FF" stroke-width="2" />
    <circle cx="314" cy="627" r="277" stroke="#4242FF" stroke-width="2" />
    <circle cx="314" cy="627" r="273" stroke="#4242FF" stroke-width="2" />
    <circle cx="314" cy="627" r="269" stroke="#4242FF" stroke-width="2" />
    <circle cx="314" cy="627" r="265" stroke="#4242FF" stroke-width="2" />
    <circle cx="314" cy="627" r="261" stroke="#4242FF" stroke-width="2" />
    <circle cx="314" cy="627" r="257" stroke="#4242FF" stroke-width="2" />
    <circle cx="314" cy="627" r="253" stroke="#4242FF" stroke-width="2" />
    <circle cx="314" cy="627" r="249" stroke="#4242FF" stroke-width="2" />
    <circle cx="314" cy="627" r="245" stroke="#4242FF" stroke-width="2" />
    <circle cx="314" cy="627" r="241" stroke="#4242FF" stroke-width="2" />
    <circle cx="314" cy="627" r="237" stroke="#4242FF" stroke-width="2" />
    <circle cx="314" cy="627" r="233" stroke="#4242FF" stroke-width="2" />
    <circle cx="314" cy="627" r="229" stroke="#4242FF" stroke-width="2" />
    <circle cx="314" cy="627" r="225" stroke="#4242FF" stroke-width="2" />
    <circle cx="314" cy="627" r="221" stroke="#4242FF" stroke-width="2" />
    <circle cx="314" cy="627" r="217" stroke="#4242FF" stroke-width="2" />
    <circle cx="314" cy="627" r="213" stroke="#4242FF" stroke-width="2" />
    <circle cx="314" cy="627" r="209" stroke="#4242FF" stroke-width="2" />
    <circle cx="314" cy="627" r="205" stroke="#4242FF" stroke-width="2" />
    <circle cx="314" cy="627" r="201" stroke="#4242FF" stroke-width="2" />
    <circle cx="314" cy="627" r="197" stroke="#4242FF" stroke-width="2" />
    <circle cx="314" cy="627" r="193" stroke="#4242FF" stroke-width="2" />
    <circle cx="314" cy="627" r="189" stroke="#4242FF" stroke-width="2" />
    <circle cx="314" cy="627" r="185" stroke="#4242FF" stroke-width="2" />
    <circle cx="314" cy="627" r="181" stroke="#4242FF" stroke-width="2" />
    <circle cx="314" cy="627" r="177" stroke="#4242FF" stroke-width="2" />
    <circle cx="314" cy="627" r="173" stroke="#4242FF" stroke-width="2" />
    <circle cx="314" cy="627" r="169" stroke="#4242FF" stroke-width="2" />
    <circle cx="314" cy="627" r="165" stroke="#4242FF" stroke-width="2" />
    <circle cx="314" cy="627" r="161" stroke="#4242FF" stroke-width="2" />
    <circle cx="314" cy="627" r="157" stroke="#4242FF" stroke-width="2" />
    <circle cx="314" cy="627" r="153" stroke="#4242FF" stroke-width="2" />
    <circle cx="314" cy="627" r="149" stroke="#4242FF" stroke-width="2" />
    <circle cx="314" cy="627" r="145" stroke="#4242FF" stroke-width="2" />
    <circle cx="314" cy="627" r="141" stroke="#4242FF" stroke-width="2" />
    <circle cx="314" cy="627" r="137" stroke="#4242FF" stroke-width="2" />
    <circle cx="314" cy="627" r="133" stroke="#4242FF" stroke-width="2" />
    <circle cx="314" cy="627" r="129" stroke="#4242FF" stroke-width="2" />
    <circle cx="314" cy="627" r="125" stroke="#4242FF" stroke-width="2" />
    <circle cx="314" cy="627" r="121" stroke="#4242FF" stroke-width="2" />
    <circle cx="314" cy="627" r="117" stroke="#4242FF" stroke-width="2" />
    <circle cx="314" cy="627" r="113" stroke="#4242FF" stroke-width="2" />
    <circle cx="314" cy="627" r="109" stroke="#4242FF" stroke-width="2" />
    <circle cx="314" cy="627" r="105" stroke="#4242FF" stroke-width="2" />
    <circle cx="314" cy="627" r="101" stroke="#4242FF" stroke-width="2" />
    <circle cx="314" cy="627" r="97" stroke="#4242FF" stroke-width="2" />
    <circle cx="314" cy="627" r="93" stroke="#4242FF" stroke-width="2" />
    <circle cx="314" cy="627" r="89" stroke="#4242FF" stroke-width="2" />
    <circle cx="314" cy="627" r="85" stroke="#4242FF" stroke-width="2" />
    <circle cx="314" cy="627" r="81" stroke="#4242FF" stroke-width="2" />
    <circle cx="314" cy="627" r="77" stroke="#4242FF" stroke-width="2" />
    <circle cx="314" cy="627" r="73" stroke="#4242FF" stroke-width="2" />
    <circle cx="314" cy="627" r="69" stroke="#4242FF" stroke-width="2" />
    <circle cx="314" cy="627" r="65" stroke="#4242FF" stroke-width="2" />
    <circle cx="314" cy="627" r="61" stroke="#4242FF" stroke-width="2" />
    <circle cx="314" cy="627" r="57" stroke="#4242FF" stroke-width="2" />
    <circle cx="314" cy="627" r="53" stroke="#4242FF" stroke-width="2" />
    <circle cx="314" cy="627" r="49" stroke="#4242FF" stroke-width="2" />
    <circle cx="314" cy="627" r="45" stroke="#4242FF" stroke-width="2" />
    <circle cx="314" cy="627" r="41" stroke="#4242FF" stroke-width="2" />
    <circle cx="314" cy="627" r="37" stroke="#4242FF" stroke-width="2" />
    <circle cx="314" cy="627" r="33" stroke="#4242FF" stroke-width="2" />
    <circle cx="314" cy="627" r="29" stroke="#4242FF" stroke-width="2" />
    <circle cx="314" cy="627" r="25" stroke="#4242FF" stroke-width="2" />
    <circle cx="314" cy="627" r="21" stroke="#4242FF" stroke-width="2" />
    <circle cx="314" cy="627" r="17" stroke="#4242FF" stroke-width="2" />
    <circle cx="314" cy="627" r="9" stroke="#4242FF" stroke-width="2" />
    <circle cx="314" cy="627" r="5" stroke="#4242FF" stroke-width="2" />
    <circle cx="314" cy="627" r="13" stroke="#4242FF" stroke-width="2" />
    <circle cx="314" cy="627" r="1" stroke="#4242FF" stroke-width="2" />
    <circle cx="314.5" cy="626.5" r="313.5" fill="url(#paint1_radial_1226_2375)" />
    <path
      d="M628 626.5C628 688.504 609.614 749.116 575.166 800.671C540.718 852.226 491.756 892.408 434.471 916.136C377.187 939.864 314.152 946.073 253.339 933.976C192.526 921.88 136.666 892.022 92.822 848.178C48.9783 804.334 19.1203 748.474 7.02381 687.661C-5.07265 626.848 1.13569 563.813 24.8638 506.529C48.5918 449.244 88.7739 400.282 140.329 365.834C191.884 331.386 252.496 313 314.5 313V626.5H628Z"
      fill="#000B28" />
  </g>
  <g opacity="0.32" clip-path="url(#clip2_1226_2375)">
    <circle cx="313.5" cy="313.5" r="312.5"
      transform="matrix(1.19249e-08 1 1 -1.19249e-08 1315.5 0)" stroke="#4242FF" stroke-width="2" />
    <circle cx="313.5" cy="313.5" r="312.5"
      transform="matrix(1.19249e-08 1 1 -1.19249e-08 1315.5 0)" stroke="#4242FF" stroke-width="2" />
    <circle cx="310" cy="310" r="309" transform="matrix(1.19249e-08 1 1 -1.19249e-08 1319.5 3)"
      stroke="#4242FF" stroke-width="2" />
    <circle cx="306" cy="306" r="305" transform="matrix(1.19249e-08 1 1 -1.19249e-08 1323.5 7)"
      stroke="#4242FF" stroke-width="2" />
    <circle cx="302" cy="302" r="301" transform="matrix(1.19249e-08 1 1 -1.19249e-08 1327.5 11)"
      stroke="#4242FF" stroke-width="2" />
    <circle cx="298" cy="298" r="297" transform="matrix(1.19249e-08 1 1 -1.19249e-08 1331.5 15)"
      stroke="#4242FF" stroke-width="2" />
    <circle cx="294" cy="294" r="293" transform="matrix(1.19249e-08 1 1 -1.19249e-08 1335.5 19)"
      stroke="#4242FF" stroke-width="2" />
    <circle cx="290" cy="290" r="289" transform="matrix(1.19249e-08 1 1 -1.19249e-08 1339.5 23)"
      stroke="#4242FF" stroke-width="2" />
    <circle cx="286" cy="286" r="285" transform="matrix(1.19249e-08 1 1 -1.19249e-08 1343.5 27)"
      stroke="#4242FF" stroke-width="2" />
    <circle cx="282" cy="282" r="281" transform="matrix(1.19249e-08 1 1 -1.19249e-08 1347.5 31)"
      stroke="#4242FF" stroke-width="2" />
    <circle cx="278" cy="278" r="277" transform="matrix(1.19249e-08 1 1 -1.19249e-08 1351.5 35)"
      stroke="#4242FF" stroke-width="2" />
    <circle cx="274" cy="274" r="273" transform="matrix(1.19249e-08 1 1 -1.19249e-08 1355.5 39)"
      stroke="#4242FF" stroke-width="2" />
    <circle cx="270" cy="270" r="269" transform="matrix(1.19249e-08 1 1 -1.19249e-08 1359.5 43)"
      stroke="#4242FF" stroke-width="2" />
    <circle cx="266" cy="266" r="265" transform="matrix(1.19249e-08 1 1 -1.19249e-08 1363.5 47)"
      stroke="#4242FF" stroke-width="2" />
    <circle cx="262" cy="262" r="261" transform="matrix(1.19249e-08 1 1 -1.19249e-08 1367.5 51)"
      stroke="#4242FF" stroke-width="2" />
    <circle cx="258" cy="258" r="257" transform="matrix(1.19249e-08 1 1 -1.19249e-08 1371.5 55)"
      stroke="#4242FF" stroke-width="2" />
    <circle cx="254" cy="254" r="253" transform="matrix(1.19249e-08 1 1 -1.19249e-08 1375.5 59)"
      stroke="#4242FF" stroke-width="2" />
    <circle cx="250" cy="250" r="249" transform="matrix(1.19249e-08 1 1 -1.19249e-08 1379.5 63)"
      stroke="#4242FF" stroke-width="2" />
    <circle cx="246" cy="246" r="245" transform="matrix(1.19249e-08 1 1 -1.19249e-08 1383.5 67)"
      stroke="#4242FF" stroke-width="2" />
    <circle cx="242" cy="242" r="241" transform="matrix(1.19249e-08 1 1 -1.19249e-08 1387.5 71)"
      stroke="#4242FF" stroke-width="2" />
    <circle cx="238" cy="238" r="237" transform="matrix(1.19249e-08 1 1 -1.19249e-08 1391.5 75)"
      stroke="#4242FF" stroke-width="2" />
    <circle cx="234" cy="234" r="233" transform="matrix(1.19249e-08 1 1 -1.19249e-08 1395.5 79)"
      stroke="#4242FF" stroke-width="2" />
    <circle cx="230" cy="230" r="229" transform="matrix(1.19249e-08 1 1 -1.19249e-08 1399.5 83)"
      stroke="#4242FF" stroke-width="2" />
    <circle cx="226" cy="226" r="225" transform="matrix(1.19249e-08 1 1 -1.19249e-08 1403.5 87)"
      stroke="#4242FF" stroke-width="2" />
    <circle cx="222" cy="222" r="221" transform="matrix(1.19249e-08 1 1 -1.19249e-08 1407.5 91)"
      stroke="#4242FF" stroke-width="2" />
    <circle cx="218" cy="218" r="217" transform="matrix(1.19249e-08 1 1 -1.19249e-08 1411.5 95)"
      stroke="#4242FF" stroke-width="2" />
    <circle cx="214" cy="214" r="213" transform="matrix(1.19249e-08 1 1 -1.19249e-08 1415.5 99)"
      stroke="#4242FF" stroke-width="2" />
    <circle cx="210" cy="210" r="209" transform="matrix(1.19249e-08 1 1 -1.19249e-08 1419.5 103)"
      stroke="#4242FF" stroke-width="2" />
    <circle cx="206" cy="206" r="205" transform="matrix(1.19249e-08 1 1 -1.19249e-08 1423.5 107)"
      stroke="#4242FF" stroke-width="2" />
    <circle cx="202" cy="202" r="201" transform="matrix(1.19249e-08 1 1 -1.19249e-08 1427.5 111)"
      stroke="#4242FF" stroke-width="2" />
    <circle cx="198" cy="198" r="197" transform="matrix(1.19249e-08 1 1 -1.19249e-08 1431.5 115)"
      stroke="#4242FF" stroke-width="2" />
    <circle cx="194" cy="194" r="193" transform="matrix(1.19249e-08 1 1 -1.19249e-08 1435.5 119)"
      stroke="#4242FF" stroke-width="2" />
    <circle cx="190" cy="190" r="189" transform="matrix(1.19249e-08 1 1 -1.19249e-08 1439.5 123)"
      stroke="#4242FF" stroke-width="2" />
    <circle cx="313.5" cy="313.5" r="313.5"
      transform="matrix(1.19249e-08 1 1 -1.19249e-08 1315.5 0)" fill="url(#paint2_radial_1226_2375)" />
    <path
      d="M1629 627C1691 627 1751.62 608.614 1803.17 574.166C1854.73 539.718 1894.91 490.756 1918.64 433.471C1942.36 376.187 1948.57 313.152 1936.48 252.339C1924.38 191.526 1894.52 135.666 1850.68 91.822C1806.83 47.9783 1750.97 18.1203 1690.16 6.02381C1629.35 -6.07266 1566.31 0.135691 1509.03 23.8638C1451.74 47.5918 1402.78 87.7739 1368.33 139.329C1333.89 190.884 1315.5 251.496 1315.5 313.5L1629 313.5L1629 627Z"
      fill="#000B28" />
  </g>
  <g clip-path="url(#clip3_1226_2375)">
    <circle cx="313.5" cy="313.5" r="312.5" transform="matrix(-1 0 0 1 1628 313)" stroke="#4242FF"
      stroke-width="2" />
    <circle cx="313.5" cy="313.5" r="312.5" transform="matrix(-1 0 0 1 1628 313)" stroke="#4242FF"
      stroke-width="2" />
    <circle cx="310" cy="310" r="309" transform="matrix(-1 0 0 1 1625 317)" stroke="#4242FF"
      stroke-width="2" />
    <circle cx="306" cy="306" r="305" transform="matrix(-1 0 0 1 1621 321)" stroke="#4242FF"
      stroke-width="2" />
    <circle cx="302" cy="302" r="301" transform="matrix(-1 0 0 1 1617 325)" stroke="#4242FF"
      stroke-width="2" />
    <circle cx="298" cy="298" r="297" transform="matrix(-1 0 0 1 1613 329)" stroke="#4242FF"
      stroke-width="2" />
    <circle cx="294" cy="294" r="293" transform="matrix(-1 0 0 1 1609 333)" stroke="#4242FF"
      stroke-width="2" />
    <circle cx="290" cy="290" r="289" transform="matrix(-1 0 0 1 1605 337)" stroke="#4242FF"
      stroke-width="2" />
    <circle cx="286" cy="286" r="285" transform="matrix(-1 0 0 1 1601 341)" stroke="#4242FF"
      stroke-width="2" />
    <circle cx="282" cy="282" r="281" transform="matrix(-1 0 0 1 1597 345)" stroke="#4242FF"
      stroke-width="2" />
    <circle cx="278" cy="278" r="277" transform="matrix(-1 0 0 1 1593 349)" stroke="#4242FF"
      stroke-width="2" />
    <circle cx="274" cy="274" r="273" transform="matrix(-1 0 0 1 1589 353)" stroke="#4242FF"
      stroke-width="2" />
    <circle cx="270" cy="270" r="269" transform="matrix(-1 0 0 1 1585 357)" stroke="#4242FF"
      stroke-width="2" />
    <circle cx="266" cy="266" r="265" transform="matrix(-1 0 0 1 1581 361)" stroke="#4242FF"
      stroke-width="2" />
    <circle cx="262" cy="262" r="261" transform="matrix(-1 0 0 1 1577 365)" stroke="#4242FF"
      stroke-width="2" />
    <circle cx="258" cy="258" r="257" transform="matrix(-1 0 0 1 1573 369)" stroke="#4242FF"
      stroke-width="2" />
    <circle cx="254" cy="254" r="253" transform="matrix(-1 0 0 1 1569 373)" stroke="#4242FF"
      stroke-width="2" />
    <circle cx="250" cy="250" r="249" transform="matrix(-1 0 0 1 1565 377)" stroke="#4242FF"
      stroke-width="2" />
    <circle cx="246" cy="246" r="245" transform="matrix(-1 0 0 1 1561 381)" stroke="#4242FF"
      stroke-width="2" />
    <circle cx="242" cy="242" r="241" transform="matrix(-1 0 0 1 1557 385)" stroke="#4242FF"
      stroke-width="2" />
    <circle cx="238" cy="238" r="237" transform="matrix(-1 0 0 1 1553 389)" stroke="#4242FF"
      stroke-width="2" />
    <circle cx="234" cy="234" r="233" transform="matrix(-1 0 0 1 1549 393)" stroke="#4242FF"
      stroke-width="2" />
    <circle cx="230" cy="230" r="229" transform="matrix(-1 0 0 1 1545 397)" stroke="#4242FF"
      stroke-width="2" />
    <circle cx="226" cy="226" r="225" transform="matrix(-1 0 0 1 1541 401)" stroke="#4242FF"
      stroke-width="2" />
    <circle cx="222" cy="222" r="221" transform="matrix(-1 0 0 1 1537 405)" stroke="#4242FF"
      stroke-width="2" />
    <circle cx="218" cy="218" r="217" transform="matrix(-1 0 0 1 1533 409)" stroke="#4242FF"
      stroke-width="2" />
    <circle cx="214" cy="214" r="213" transform="matrix(-1 0 0 1 1529 413)" stroke="#4242FF"
      stroke-width="2" />
    <circle cx="210" cy="210" r="209" transform="matrix(-1 0 0 1 1525 417)" stroke="#4242FF"
      stroke-width="2" />
    <circle cx="206" cy="206" r="205" transform="matrix(-1 0 0 1 1521 421)" stroke="#4242FF"
      stroke-width="2" />
    <circle cx="202" cy="202" r="201" transform="matrix(-1 0 0 1 1517 425)" stroke="#4242FF"
      stroke-width="2" />
    <circle cx="198" cy="198" r="197" transform="matrix(-1 0 0 1 1513 429)" stroke="#4242FF"
      stroke-width="2" />
    <circle cx="194" cy="194" r="193" transform="matrix(-1 0 0 1 1509 433)" stroke="#4242FF"
      stroke-width="2" />
    <circle cx="190" cy="190" r="189" transform="matrix(-1 0 0 1 1505 437)" stroke="#4242FF"
      stroke-width="2" />
    <circle cx="186" cy="186" r="185" transform="matrix(-1 0 0 1 1501 441)" stroke="#4242FF"
      stroke-width="2" />
    <circle cx="182" cy="182" r="181" transform="matrix(-1 0 0 1 1497 445)" stroke="#4242FF"
      stroke-width="2" />
    <circle cx="178" cy="178" r="177" transform="matrix(-1 0 0 1 1493 449)" stroke="#4242FF"
      stroke-width="2" />
    <circle cx="174" cy="174" r="173" transform="matrix(-1 0 0 1 1489 453)" stroke="#4242FF"
      stroke-width="2" />
    <circle cx="170" cy="170" r="169" transform="matrix(-1 0 0 1 1485 457)" stroke="#4242FF"
      stroke-width="2" />
    <circle cx="166" cy="166" r="165" transform="matrix(-1 0 0 1 1481 461)" stroke="#4242FF"
      stroke-width="2" />
    <circle cx="162" cy="162" r="161" transform="matrix(-1 0 0 1 1477 465)" stroke="#4242FF"
      stroke-width="2" />
    <circle cx="158" cy="158" r="157" transform="matrix(-1 0 0 1 1473 469)" stroke="#4242FF"
      stroke-width="2" />
    <circle cx="154" cy="154" r="153" transform="matrix(-1 0 0 1 1469 473)" stroke="#4242FF"
      stroke-width="2" />
    <circle cx="150" cy="150" r="149" transform="matrix(-1 0 0 1 1465 477)" stroke="#4242FF"
      stroke-width="2" />
    <circle cx="146" cy="146" r="145" transform="matrix(-1 0 0 1 1461 481)" stroke="#4242FF"
      stroke-width="2" />
    <circle cx="142" cy="142" r="141" transform="matrix(-1 0 0 1 1457 485)" stroke="#4242FF"
      stroke-width="2" />
    <circle cx="138" cy="138" r="137" transform="matrix(-1 0 0 1 1453 489)" stroke="#4242FF"
      stroke-width="2" />
    <circle cx="134" cy="134" r="133" transform="matrix(-1 0 0 1 1449 493)" stroke="#4242FF"
      stroke-width="2" />
    <circle cx="130" cy="130" r="129" transform="matrix(-1 0 0 1 1445 497)" stroke="#4242FF"
      stroke-width="2" />
    <circle cx="126" cy="126" r="125" transform="matrix(-1 0 0 1 1441 501)" stroke="#4242FF"
      stroke-width="2" />
    <circle cx="122" cy="122" r="121" transform="matrix(-1 0 0 1 1437 505)" stroke="#4242FF"
      stroke-width="2" />
    <circle cx="118" cy="118" r="117" transform="matrix(-1 0 0 1 1433 509)" stroke="#4242FF"
      stroke-width="2" />
    <circle cx="114" cy="114" r="113" transform="matrix(-1 0 0 1 1429 513)" stroke="#4242FF"
      stroke-width="2" />
    <circle cx="110" cy="110" r="109" transform="matrix(-1 0 0 1 1425 517)" stroke="#4242FF"
      stroke-width="2" />
    <circle cx="106" cy="106" r="105" transform="matrix(-1 0 0 1 1421 521)" stroke="#4242FF"
      stroke-width="2" />
    <circle cx="102" cy="102" r="101" transform="matrix(-1 0 0 1 1417 525)" stroke="#4242FF"
      stroke-width="2" />
    <circle cx="98" cy="98" r="97" transform="matrix(-1 0 0 1 1413 529)" stroke="#4242FF"
      stroke-width="2" />
    <circle cx="94" cy="94" r="93" transform="matrix(-1 0 0 1 1409 533)" stroke="#4242FF"
      stroke-width="2" />
    <circle cx="90" cy="90" r="89" transform="matrix(-1 0 0 1 1405 537)" stroke="#4242FF"
      stroke-width="2" />
    <circle cx="86" cy="86" r="85" transform="matrix(-1 0 0 1 1401 541)" stroke="#4242FF"
      stroke-width="2" />
    <circle cx="82" cy="82" r="81" transform="matrix(-1 0 0 1 1397 545)" stroke="#4242FF"
      stroke-width="2" />
    <circle cx="78" cy="78" r="77" transform="matrix(-1 0 0 1 1393 549)" stroke="#4242FF"
      stroke-width="2" />
    <circle cx="74" cy="74" r="73" transform="matrix(-1 0 0 1 1389 553)" stroke="#4242FF"
      stroke-width="2" />
    <circle cx="70" cy="70" r="69" transform="matrix(-1 0 0 1 1385 557)" stroke="#4242FF"
      stroke-width="2" />
    <circle cx="66" cy="66" r="65" transform="matrix(-1 0 0 1 1381 561)" stroke="#4242FF"
      stroke-width="2" />
    <circle cx="62" cy="62" r="61" transform="matrix(-1 0 0 1 1377 565)" stroke="#4242FF"
      stroke-width="2" />
    <circle cx="58" cy="58" r="57" transform="matrix(-1 0 0 1 1373 569)" stroke="#4242FF"
      stroke-width="2" />
    <circle cx="54" cy="54" r="53" transform="matrix(-1 0 0 1 1369 573)" stroke="#4242FF"
      stroke-width="2" />
    <circle cx="50" cy="50" r="49" transform="matrix(-1 0 0 1 1365 577)" stroke="#4242FF"
      stroke-width="2" />
    <circle cx="46" cy="46" r="45" transform="matrix(-1 0 0 1 1361 581)" stroke="#4242FF"
      stroke-width="2" />
    <circle cx="42" cy="42" r="41" transform="matrix(-1 0 0 1 1357 585)" stroke="#4242FF"
      stroke-width="2" />
    <circle cx="38" cy="38" r="37" transform="matrix(-1 0 0 1 1353 589)" stroke="#4242FF"
      stroke-width="2" />
    <circle cx="34" cy="34" r="33" transform="matrix(-1 0 0 1 1349 593)" stroke="#4242FF"
      stroke-width="2" />
    <circle cx="30" cy="30" r="29" transform="matrix(-1 0 0 1 1345 597)" stroke="#4242FF"
      stroke-width="2" />
    <circle cx="26" cy="26" r="25" transform="matrix(-1 0 0 1 1341 601)" stroke="#4242FF"
      stroke-width="2" />
    <circle cx="22" cy="22" r="21" transform="matrix(-1 0 0 1 1337 605)" stroke="#4242FF"
      stroke-width="2" />
    <circle cx="18" cy="18" r="17" transform="matrix(-1 0 0 1 1333 609)" stroke="#4242FF"
      stroke-width="2" />
    <circle cx="10" cy="10" r="9" transform="matrix(-1 0 0 1 1325 617)" stroke="#4242FF"
      stroke-width="2" />
    <circle cx="6" cy="6" r="5" transform="matrix(-1 0 0 1 1321 621)" stroke="#4242FF"
      stroke-width="2" />
    <circle cx="14" cy="14" r="13" transform="matrix(-1 0 0 1 1329 613)" stroke="#4242FF"
      stroke-width="2" />
    <circle cx="2" cy="2" r="1" transform="matrix(-1 0 0 1 1317 625)" stroke="#4242FF"
      stroke-width="2" />
    <circle cx="313.5" cy="313.5" r="313.5" transform="matrix(-1 0 0 1 1628 313)"
      fill="url(#paint3_radial_1226_2375)" />
    <path
      d="M1001 626.5C1001 688.504 1019.39 749.116 1053.83 800.671C1088.28 852.226 1137.24 892.408 1194.53 916.136C1251.81 939.864 1314.85 946.073 1375.66 933.976C1436.47 921.88 1492.33 892.022 1536.18 848.178C1580.02 804.334 1609.88 748.474 1621.98 687.661C1634.07 626.848 1627.86 563.813 1604.14 506.529C1580.41 449.244 1540.23 400.282 1488.67 365.834C1437.12 331.386 1376.5 313 1314.5 313V626.5H1001Z"
      fill="#000B28" />
  </g>
  <g opacity="0.8" clip-path="url(#clip4_1226_2375)">
    <circle cx="1001.5" cy="939.5" r="312.5" stroke="#4242FF" stroke-width="2" />
    <circle cx="1001.5" cy="939.5" r="312.5" stroke="#4242FF" stroke-width="2" />
    <circle cx="1001" cy="940" r="309" stroke="#4242FF" stroke-width="2" />
    <circle cx="1001" cy="940" r="305" stroke="#4242FF" stroke-width="2" />
    <circle cx="1001" cy="940" r="301" stroke="#4242FF" stroke-width="2" />
    <circle cx="1001" cy="940" r="297" stroke="#4242FF" stroke-width="2" />
    <circle cx="1001" cy="940" r="293" stroke="#4242FF" stroke-width="2" />
    <circle cx="1001" cy="940" r="289" stroke="#4242FF" stroke-width="2" />
    <circle cx="1001" cy="940" r="285" stroke="#4242FF" stroke-width="2" />
    <circle cx="1001" cy="940" r="281" stroke="#4242FF" stroke-width="2" />
    <circle cx="1001" cy="940" r="277" stroke="#4242FF" stroke-width="2" />
    <circle cx="1001" cy="940" r="273" stroke="#4242FF" stroke-width="2" />
    <circle cx="1001" cy="940" r="269" stroke="#4242FF" stroke-width="2" />
    <circle cx="1001" cy="940" r="265" stroke="#4242FF" stroke-width="2" />
    <circle cx="1001" cy="940" r="261" stroke="#4242FF" stroke-width="2" />
    <circle cx="1001" cy="940" r="257" stroke="#4242FF" stroke-width="2" />
    <circle cx="1001" cy="940" r="253" stroke="#4242FF" stroke-width="2" />
    <circle cx="1001" cy="940" r="249" stroke="#4242FF" stroke-width="2" />
    <circle cx="1001" cy="940" r="245" stroke="#4242FF" stroke-width="2" />
    <circle cx="1001" cy="940" r="241" stroke="#4242FF" stroke-width="2" />
    <circle cx="1001" cy="940" r="237" stroke="#4242FF" stroke-width="2" />
    <circle cx="1001" cy="940" r="233" stroke="#4242FF" stroke-width="2" />
    <circle cx="1001" cy="940" r="229" stroke="#4242FF" stroke-width="2" />
    <circle cx="1001" cy="940" r="225" stroke="#4242FF" stroke-width="2" />
    <circle cx="1001" cy="940" r="221" stroke="#4242FF" stroke-width="2" />
    <circle cx="1001" cy="940" r="217" stroke="#4242FF" stroke-width="2" />
    <circle cx="1001" cy="940" r="213" stroke="#4242FF" stroke-width="2" />
    <circle cx="1001" cy="940" r="209" stroke="#4242FF" stroke-width="2" />
    <circle cx="1001" cy="940" r="205" stroke="#4242FF" stroke-width="2" />
    <circle cx="1001" cy="940" r="201" stroke="#4242FF" stroke-width="2" />
    <circle cx="1001" cy="940" r="197" stroke="#4242FF" stroke-width="2" />
    <circle cx="1001" cy="940" r="193" stroke="#4242FF" stroke-width="2" />
    <circle cx="1001" cy="940" r="189" stroke="#4242FF" stroke-width="2" />
    <circle cx="1001" cy="940" r="185" stroke="#4242FF" stroke-width="2" />
    <circle cx="1001" cy="940" r="181" stroke="#4242FF" stroke-width="2" />
    <circle cx="1001" cy="940" r="177" stroke="#4242FF" stroke-width="2" />
    <circle cx="1001" cy="940" r="173" stroke="#4242FF" stroke-width="2" />
    <circle cx="1001" cy="940" r="169" stroke="#4242FF" stroke-width="2" />
    <circle cx="1001" cy="940" r="165" stroke="#4242FF" stroke-width="2" />
    <circle cx="1001" cy="940" r="161" stroke="#4242FF" stroke-width="2" />
    <circle cx="1001" cy="940" r="157" stroke="#4242FF" stroke-width="2" />
    <circle cx="1001" cy="940" r="153" stroke="#4242FF" stroke-width="2" />
    <circle cx="1001" cy="940" r="149" stroke="#4242FF" stroke-width="2" />
    <circle cx="1001" cy="940" r="145" stroke="#4242FF" stroke-width="2" />
    <circle cx="1001" cy="940" r="141" stroke="#4242FF" stroke-width="2" />
    <circle cx="1001" cy="940" r="137" stroke="#4242FF" stroke-width="2" />
    <circle cx="1001" cy="940" r="133" stroke="#4242FF" stroke-width="2" />
    <circle cx="1001" cy="940" r="129" stroke="#4242FF" stroke-width="2" />
    <circle cx="1001" cy="940" r="125" stroke="#4242FF" stroke-width="2" />
    <circle cx="1001" cy="940" r="121" stroke="#4242FF" stroke-width="2" />
    <circle cx="1001" cy="940" r="117" stroke="#4242FF" stroke-width="2" />
    <circle cx="1001" cy="940" r="113" stroke="#4242FF" stroke-width="2" />
    <circle cx="1001" cy="940" r="109" stroke="#4242FF" stroke-width="2" />
    <circle cx="1001" cy="940" r="105" stroke="#4242FF" stroke-width="2" />
    <circle cx="1001" cy="940" r="101" stroke="#4242FF" stroke-width="2" />
    <circle cx="1001" cy="940" r="97" stroke="#4242FF" stroke-width="2" />
    <circle cx="1001" cy="940" r="93" stroke="#4242FF" stroke-width="2" />
    <circle cx="1001" cy="940" r="89" stroke="#4242FF" stroke-width="2" />
    <circle cx="1001" cy="940" r="85" stroke="#4242FF" stroke-width="2" />
    <circle cx="1001" cy="940" r="81" stroke="#4242FF" stroke-width="2" />
    <circle cx="1001" cy="940" r="77" stroke="#4242FF" stroke-width="2" />
    <circle cx="1001" cy="940" r="73" stroke="#4242FF" stroke-width="2" />
    <circle cx="1001" cy="940" r="69" stroke="#4242FF" stroke-width="2" />
    <circle cx="1001" cy="940" r="65" stroke="#4242FF" stroke-width="2" />
    <circle cx="1001" cy="940" r="61" stroke="#4242FF" stroke-width="2" />
    <circle cx="1001" cy="940" r="57" stroke="#4242FF" stroke-width="2" />
    <circle cx="1001" cy="940" r="53" stroke="#4242FF" stroke-width="2" />
    <circle cx="1001" cy="940" r="49" stroke="#4242FF" stroke-width="2" />
    <circle cx="1001" cy="940" r="45" stroke="#4242FF" stroke-width="2" />
    <circle cx="1001" cy="940" r="41" stroke="#4242FF" stroke-width="2" />
    <circle cx="1001" cy="940" r="37" stroke="#4242FF" stroke-width="2" />
    <circle cx="1001" cy="940" r="33" stroke="#4242FF" stroke-width="2" />
    <circle cx="1001" cy="940" r="29" stroke="#4242FF" stroke-width="2" />
    <circle cx="1001.5" cy="939.5" r="313.5" fill="url(#paint4_radial_1226_2375)" />
    <path
      d="M1001.5 1253C918.355 1253 838.615 1219.97 779.822 1161.18C721.029 1102.39 688 1022.65 688 939.5C688 856.355 721.029 776.615 779.822 717.822C838.615 659.029 918.355 626 1001.5 626V939.5V1253Z"
      fill="#000B28" />
  </g>
  <g opacity="0.8" clip-path="url(#clip5_1226_2375)">
    <circle cx="313.5" cy="313.5" r="312.5" transform="matrix(-1 0 0 1 627 -314)" stroke="#4242FF"
      stroke-width="2" />
    <circle cx="313.5" cy="313.5" r="312.5" transform="matrix(-1 0 0 1 627 -314)" stroke="#4242FF"
      stroke-width="2" />
    <circle cx="310" cy="310" r="309" transform="matrix(-1 0 0 1 624 -310)" stroke="#4242FF"
      stroke-width="2" />
    <circle cx="306" cy="306" r="305" transform="matrix(-1 0 0 1 620 -306)" stroke="#4242FF"
      stroke-width="2" />
    <circle cx="302" cy="302" r="301" transform="matrix(-1 0 0 1 616 -302)" stroke="#4242FF"
      stroke-width="2" />
    <circle cx="298" cy="298" r="297" transform="matrix(-1 0 0 1 612 -298)" stroke="#4242FF"
      stroke-width="2" />
    <circle cx="294" cy="294" r="293" transform="matrix(-1 0 0 1 608 -294)" stroke="#4242FF"
      stroke-width="2" />
    <circle cx="290" cy="290" r="289" transform="matrix(-1 0 0 1 604 -290)" stroke="#4242FF"
      stroke-width="2" />
    <circle cx="286" cy="286" r="285" transform="matrix(-1 0 0 1 600 -286)" stroke="#4242FF"
      stroke-width="2" />
    <circle cx="282" cy="282" r="281" transform="matrix(-1 0 0 1 596 -282)" stroke="#4242FF"
      stroke-width="2" />
    <circle cx="278" cy="278" r="277" transform="matrix(-1 0 0 1 592 -278)" stroke="#4242FF"
      stroke-width="2" />
    <circle cx="274" cy="274" r="273" transform="matrix(-1 0 0 1 588 -274)" stroke="#4242FF"
      stroke-width="2" />
    <circle cx="270" cy="270" r="269" transform="matrix(-1 0 0 1 584 -270)" stroke="#4242FF"
      stroke-width="2" />
    <circle cx="266" cy="266" r="265" transform="matrix(-1 0 0 1 580 -266)" stroke="#4242FF"
      stroke-width="2" />
    <circle cx="262" cy="262" r="261" transform="matrix(-1 0 0 1 576 -262)" stroke="#4242FF"
      stroke-width="2" />
    <circle cx="258" cy="258" r="257" transform="matrix(-1 0 0 1 572 -258)" stroke="#4242FF"
      stroke-width="2" />
    <circle cx="254" cy="254" r="253" transform="matrix(-1 0 0 1 568 -254)" stroke="#4242FF"
      stroke-width="2" />
    <circle cx="250" cy="250" r="249" transform="matrix(-1 0 0 1 564 -250)" stroke="#4242FF"
      stroke-width="2" />
    <circle cx="246" cy="246" r="245" transform="matrix(-1 0 0 1 560 -246)" stroke="#4242FF"
      stroke-width="2" />
    <circle cx="242" cy="242" r="241" transform="matrix(-1 0 0 1 556 -242)" stroke="#4242FF"
      stroke-width="2" />
    <circle cx="238" cy="238" r="237" transform="matrix(-1 0 0 1 552 -238)" stroke="#4242FF"
      stroke-width="2" />
    <circle cx="234" cy="234" r="233" transform="matrix(-1 0 0 1 548 -234)" stroke="#4242FF"
      stroke-width="2" />
    <circle cx="230" cy="230" r="229" transform="matrix(-1 0 0 1 544 -230)" stroke="#4242FF"
      stroke-width="2" />
    <circle cx="226" cy="226" r="225" transform="matrix(-1 0 0 1 540 -226)" stroke="#4242FF"
      stroke-width="2" />
    <circle cx="222" cy="222" r="221" transform="matrix(-1 0 0 1 536 -222)" stroke="#4242FF"
      stroke-width="2" />
    <circle cx="218" cy="218" r="217" transform="matrix(-1 0 0 1 532 -218)" stroke="#4242FF"
      stroke-width="2" />
    <circle cx="214" cy="214" r="213" transform="matrix(-1 0 0 1 528 -214)" stroke="#4242FF"
      stroke-width="2" />
    <circle cx="210" cy="210" r="209" transform="matrix(-1 0 0 1 524 -210)" stroke="#4242FF"
      stroke-width="2" />
    <circle cx="206" cy="206" r="205" transform="matrix(-1 0 0 1 520 -206)" stroke="#4242FF"
      stroke-width="2" />
    <circle cx="202" cy="202" r="201" transform="matrix(-1 0 0 1 516 -202)" stroke="#4242FF"
      stroke-width="2" />
    <circle cx="198" cy="198" r="197" transform="matrix(-1 0 0 1 512 -198)" stroke="#4242FF"
      stroke-width="2" />
    <circle cx="194" cy="194" r="193" transform="matrix(-1 0 0 1 508 -194)" stroke="#4242FF"
      stroke-width="2" />
    <circle cx="190" cy="190" r="189" transform="matrix(-1 0 0 1 504 -190)" stroke="#4242FF"
      stroke-width="2" />
    <circle cx="186" cy="186" r="185" transform="matrix(-1 0 0 1 500 -186)" stroke="#4242FF"
      stroke-width="2" />
    <circle cx="182" cy="182" r="181" transform="matrix(-1 0 0 1 496 -182)" stroke="#4242FF"
      stroke-width="2" />
    <circle cx="178" cy="178" r="177" transform="matrix(-1 0 0 1 492 -178)" stroke="#4242FF"
      stroke-width="2" />
    <circle cx="174" cy="174" r="173" transform="matrix(-1 0 0 1 488 -174)" stroke="#4242FF"
      stroke-width="2" />
    <circle cx="170" cy="170" r="169" transform="matrix(-1 0 0 1 484 -170)" stroke="#4242FF"
      stroke-width="2" />
    <circle cx="166" cy="166" r="165" transform="matrix(-1 0 0 1 480 -166)" stroke="#4242FF"
      stroke-width="2" />
    <circle cx="162" cy="162" r="161" transform="matrix(-1 0 0 1 476 -162)" stroke="#4242FF"
      stroke-width="2" />
    <circle cx="158" cy="158" r="157" transform="matrix(-1 0 0 1 472 -158)" stroke="#4242FF"
      stroke-width="2" />
    <circle cx="154" cy="154" r="153" transform="matrix(-1 0 0 1 468 -154)" stroke="#4242FF"
      stroke-width="2" />
    <circle cx="150" cy="150" r="149" transform="matrix(-1 0 0 1 464 -150)" stroke="#4242FF"
      stroke-width="2" />
    <circle cx="146" cy="146" r="145" transform="matrix(-1 0 0 1 460 -146)" stroke="#4242FF"
      stroke-width="2" />
    <circle cx="142" cy="142" r="141" transform="matrix(-1 0 0 1 456 -142)" stroke="#4242FF"
      stroke-width="2" />
    <circle cx="138" cy="138" r="137" transform="matrix(-1 0 0 1 452 -138)" stroke="#4242FF"
      stroke-width="2" />
    <circle cx="134" cy="134" r="133" transform="matrix(-1 0 0 1 448 -134)" stroke="#4242FF"
      stroke-width="2" />
    <circle cx="130" cy="130" r="129" transform="matrix(-1 0 0 1 444 -130)" stroke="#4242FF"
      stroke-width="2" />
    <circle cx="126" cy="126" r="125" transform="matrix(-1 0 0 1 440 -126)" stroke="#4242FF"
      stroke-width="2" />
    <circle cx="122" cy="122" r="121" transform="matrix(-1 0 0 1 436 -122)" stroke="#4242FF"
      stroke-width="2" />
    <circle cx="118" cy="118" r="117" transform="matrix(-1 0 0 1 432 -118)" stroke="#4242FF"
      stroke-width="2" />
    <circle cx="114" cy="114" r="113" transform="matrix(-1 0 0 1 428 -114)" stroke="#4242FF"
      stroke-width="2" />
    <circle cx="110" cy="110" r="109" transform="matrix(-1 0 0 1 424 -110)" stroke="#4242FF"
      stroke-width="2" />
    <circle cx="106" cy="106" r="105" transform="matrix(-1 0 0 1 420 -106)" stroke="#4242FF"
      stroke-width="2" />
    <circle cx="102" cy="102" r="101" transform="matrix(-1 0 0 1 416 -102)" stroke="#4242FF"
      stroke-width="2" />
    <circle cx="98" cy="98" r="97" transform="matrix(-1 0 0 1 412 -98)" stroke="#4242FF"
      stroke-width="2" />
    <circle cx="94" cy="94" r="93" transform="matrix(-1 0 0 1 408 -94)" stroke="#4242FF"
      stroke-width="2" />
    <circle cx="90" cy="90" r="89" transform="matrix(-1 0 0 1 404 -90)" stroke="#4242FF"
      stroke-width="2" />
    <circle cx="86" cy="86" r="85" transform="matrix(-1 0 0 1 400 -86)" stroke="#4242FF"
      stroke-width="2" />
    <circle cx="82" cy="82" r="81" transform="matrix(-1 0 0 1 396 -82)" stroke="#4242FF"
      stroke-width="2" />
    <circle cx="78" cy="78" r="77" transform="matrix(-1 0 0 1 392 -78)" stroke="#4242FF"
      stroke-width="2" />
    <circle cx="74" cy="74" r="73" transform="matrix(-1 0 0 1 388 -74)" stroke="#4242FF"
      stroke-width="2" />
    <circle cx="70" cy="70" r="69" transform="matrix(-1 0 0 1 384 -70)" stroke="#4242FF"
      stroke-width="2" />
    <circle cx="66" cy="66" r="65" transform="matrix(-1 0 0 1 380 -66)" stroke="#4242FF"
      stroke-width="2" />
    <circle cx="62" cy="62" r="61" transform="matrix(-1 0 0 1 376 -62)" stroke="#4242FF"
      stroke-width="2" />
    <circle cx="58" cy="58" r="57" transform="matrix(-1 0 0 1 372 -58)" stroke="#4242FF"
      stroke-width="2" />
    <circle cx="54" cy="54" r="53" transform="matrix(-1 0 0 1 368 -54)" stroke="#4242FF"
      stroke-width="2" />
    <circle cx="50" cy="50" r="49" transform="matrix(-1 0 0 1 364 -50)" stroke="#4242FF"
      stroke-width="2" />
    <circle cx="46" cy="46" r="45" transform="matrix(-1 0 0 1 360 -46)" stroke="#4242FF"
      stroke-width="2" />
    <circle cx="42" cy="42" r="41" transform="matrix(-1 0 0 1 356 -42)" stroke="#4242FF"
      stroke-width="2" />
    <circle cx="38" cy="38" r="37" transform="matrix(-1 0 0 1 352 -38)" stroke="#4242FF"
      stroke-width="2" />
    <circle cx="34" cy="34" r="33" transform="matrix(-1 0 0 1 348 -34)" stroke="#4242FF"
      stroke-width="2" />
    <circle cx="30" cy="30" r="29" transform="matrix(-1 0 0 1 344 -30)" stroke="#4242FF"
      stroke-width="2" />
    <circle cx="26" cy="26" r="25" transform="matrix(-1 0 0 1 340 -26)" stroke="#4242FF"
      stroke-width="2" />
    <circle cx="22" cy="22" r="21" transform="matrix(-1 0 0 1 336 -22)" stroke="#4242FF"
      stroke-width="2" />
    <circle cx="18" cy="18" r="17" transform="matrix(-1 0 0 1 332 -18)" stroke="#4242FF"
      stroke-width="2" />
    <circle cx="10" cy="10" r="9" transform="matrix(-1 0 0 1 324 -10)" stroke="#4242FF"
      stroke-width="2" />
    <circle cx="6" cy="6" r="5" transform="matrix(-1 0 0 1 320 -6)" stroke="#4242FF"
      stroke-width="2" />
    <circle cx="14" cy="14" r="13" transform="matrix(-1 0 0 1 328 -14)" stroke="#4242FF"
      stroke-width="2" />
    <circle cx="2" cy="2" r="1" transform="matrix(-1 0 0 1 316 -2)" stroke="#4242FF"
      stroke-width="2" />
    <circle cx="313.5" cy="313.5" r="313.5" transform="matrix(-1 0 0 1 627 -314)"
      fill="url(#paint5_radial_1226_2375)" />
    <path
      d="M313.5 313C396.645 313 476.385 279.971 535.178 221.178C593.971 162.385 627 82.6454 627 -0.5C627 -83.6454 593.971 -163.385 535.178 -222.178C476.385 -280.971 396.645 -314 313.5 -314V-0.5L313.5 313Z"
      fill="#000B28" />
  </g>
  <defs>
    <radialGradient id="paint0_radial_1226_2375" cx="0" cy="0" r="1" gradientUnits="userSpaceOnUse"
      gradientTransform="translate(1001.5 313.5) rotate(-45) scale(336.583)">
      <stop offset="0.431812" stop-color="#000B28" />
      <stop offset="1" stop-color="#000B28" stop-opacity="0" />
    </radialGradient>
    <radialGradient id="paint1_radial_1226_2375" cx="0" cy="0" r="1" gradientUnits="userSpaceOnUse"
      gradientTransform="translate(314.5 626.5) rotate(-45) scale(336.583)">
      <stop offset="0.431812" stop-color="#000B28" />
      <stop offset="1" stop-color="#000B28" stop-opacity="0" />
    </radialGradient>
    <radialGradient id="paint2_radial_1226_2375" cx="0" cy="0" r="1" gradientUnits="userSpaceOnUse"
      gradientTransform="translate(313.5 313.5) rotate(-45) scale(336.583)">
      <stop offset="0.431812" stop-color="#000B28" />
      <stop offset="1" stop-color="#000B28" stop-opacity="0" />
    </radialGradient>
    <radialGradient id="paint3_radial_1226_2375" cx="0" cy="0" r="1" gradientUnits="userSpaceOnUse"
      gradientTransform="translate(313.5 313.5) rotate(-45) scale(336.583)">
      <stop offset="0.431812" stop-color="#000B28" />
      <stop offset="1" stop-color="#000B28" stop-opacity="0" />
    </radialGradient>
    <radialGradient id="paint4_radial_1226_2375" cx="0" cy="0" r="1" gradientUnits="userSpaceOnUse"
      gradientTransform="translate(1001.5 939.5) scale(618.5)">
      <stop offset="0.114912" stop-color="#000B28" />
      <stop offset="1" stop-color="#000B28" stop-opacity="0" />
    </radialGradient>
    <radialGradient id="paint5_radial_1226_2375" cx="0" cy="0" r="1" gradientUnits="userSpaceOnUse"
      gradientTransform="translate(313.5 313.5) scale(618.5)">
      <stop offset="0.114912" stop-color="#000B28" />
      <stop offset="1" stop-color="#000B28" stop-opacity="0" />
    </radialGradient>
    <clipPath id="clip0_1226_2375">
      <rect width="314" height="313" fill="white" transform="translate(1001)" />
    </clipPath>
    <clipPath id="clip1_1226_2375">
      <rect width="314" height="313" fill="white" transform="translate(314 313)" />
    </clipPath>
    <clipPath id="clip2_1226_2375">
      <rect width="314" height="313" fill="white"
        transform="matrix(1.19249e-08 1 1 -1.19249e-08 1315.5 313)" />
    </clipPath>
    <clipPath id="clip3_1226_2375">
      <rect width="314" height="313" fill="white" transform="matrix(-1 0 0 1 1315 313)" />
    </clipPath>
    <clipPath id="clip4_1226_2375">
      <rect width="314" height="627" fill="white" transform="translate(1001 626)" />
    </clipPath>
    <clipPath id="clip5_1226_2375">
      <rect width="314" height="627" fill="white" transform="matrix(-1 0 0 1 314 -314)" />
    </clipPath>
  </defs>
</svg>