<svg width="137" height="33" viewBox="0 0 137 33" fill="none" xmlns="http://www.w3.org/2000/svg">
  <path
    d="M4.18499 8.74774C4.29425 8.46503 4.41898 8.18939 4.55919 7.9208C4.6293 7.78651 4.6837 7.65153 4.7224 7.51587C4.88492 6.93954 5.07338 6.41238 5.40183 5.91185C5.58894 5.62687 5.87574 5.30525 6.26223 4.94698C7.93727 3.39212 10.0036 2.03939 12.188 1.32854C12.5042 1.22611 12.8361 1.19675 13.1352 1.08749C14.1135 0.730588 15.061 0.535975 15.9779 0.503653C17.6113 0.446294 18.8356 1.06837 20.062 2.08924C20.1412 2.15479 20.2302 2.201 20.329 2.22786C21.7029 2.59796 22.9978 3.15335 24.2138 3.89402C24.5743 4.1139 24.8939 4.39728 25.2435 4.60487C25.9391 5.01777 26.5869 5.49667 27.1869 6.04159C28.4017 7.14508 28.6325 8.68696 28.5902 10.2445C28.5893 10.2819 28.5997 10.3153 28.6216 10.3449C28.8292 10.6269 29.0204 10.8857 29.2894 11.1316C30.1956 11.9599 31.0519 12.9486 31.4759 14.1068C32.2708 16.281 31.3107 18.3657 29.9074 20.0216C29.8928 20.0394 29.8869 20.0594 29.8896 20.0817C29.9846 20.8185 29.7701 21.6059 29.0928 21.9951C29.0798 22.0027 29.0685 22.0127 29.0594 22.0247C29.0504 22.0366 29.0439 22.0502 29.0402 22.0647C28.7786 23.0876 28.4932 24.1413 28.0002 25.0843C27.9365 25.2068 27.8875 25.3267 27.8534 25.4442C27.682 26.0328 27.499 26.5757 27.1616 27.0864C26.965 27.3846 26.6613 27.7219 26.2507 28.0984C24.5477 29.6615 22.452 31.021 20.232 31.7162C20.0142 31.7845 19.7739 31.7886 19.5553 31.8671C18.4259 32.2706 17.2391 32.5329 16.0796 32.4967C14.7405 32.4543 13.4472 31.7681 12.438 30.8449C12.3478 30.7629 12.1355 30.7533 12.0344 30.724C10.8335 30.3748 9.69061 29.8889 8.60578 29.2661C8.3636 29.1273 8.13143 28.9743 7.90927 28.8072C7.67483 28.6306 7.46747 28.4874 7.28719 28.3777C6.9312 28.1606 6.58454 27.9293 6.24721 27.6839C6.22944 27.671 6.20823 27.6639 6.18643 27.6634C6.03552 27.6593 5.87027 27.6846 5.74121 27.6798C4.43287 27.6266 4.13241 26.5333 4.25259 25.4326C4.26397 25.326 4.25532 25.2227 4.22664 25.1225C3.99994 24.3373 3.94531 23.5267 3.95897 22.7134C3.95897 22.6912 3.95205 22.6695 3.93916 22.6513C3.71997 22.3515 3.51989 22.0934 3.23173 21.8298C2.00464 20.7099 0.970798 19.3695 0.828765 17.6774C0.814197 17.5044 0.802589 17.3316 0.793939 17.1591C0.792574 17.1354 0.783241 17.1159 0.765942 17.1004C0.246974 16.6347 -0.0125107 16.2277 0.00046354 15.5093C0.0352891 13.5345 0.260631 11.4115 0.92573 9.53848C1.22004 8.71086 1.9343 8.6494 2.69569 8.64462C2.95062 8.64326 3.42975 8.68787 4.13309 8.77846C4.15859 8.78165 4.17589 8.77141 4.18499 8.74774ZM14.6716 1.38385C14.5236 1.41526 14.4176 1.43279 14.3534 1.43643C14.347 1.43689 14.3438 1.4403 14.3438 1.44667C14.3438 1.45305 14.3468 1.45646 14.3527 1.45692C14.3932 1.4601 14.4335 1.45805 14.4735 1.45077C15.2647 1.30555 16.061 1.26003 16.8622 1.3142C17.0527 1.32717 17.2767 1.37019 17.4856 1.38931C17.487 1.38931 17.4879 1.38863 17.4883 1.38726C17.5025 1.34493 17.5022 1.34424 17.4877 1.38522C17.4872 1.38613 17.4865 1.38635 17.4856 1.3859C16.5651 1.11481 15.6064 1.18377 14.6716 1.38385ZM13.8767 2.31731C14.0497 2.37604 14.2052 2.38423 14.3431 2.34189C14.3468 2.34064 14.3501 2.33836 14.3525 2.33533C14.3549 2.33229 14.3565 2.32863 14.3569 2.32476C14.3573 2.32089 14.3566 2.31698 14.3549 2.31348C14.3532 2.30999 14.3505 2.30705 14.3472 2.30502L14.2291 2.23673C14.2163 2.22945 14.2027 2.22763 14.1881 2.23127L13.8774 2.30707C13.8763 2.30738 13.8754 2.30802 13.8747 2.30889C13.874 2.30976 13.8736 2.31083 13.8735 2.31195C13.8734 2.31307 13.8737 2.31418 13.8743 2.31514C13.8748 2.3161 13.8757 2.31686 13.8767 2.31731ZM16.1308 2.66557C16.1108 2.66465 16.1078 2.67148 16.122 2.68605C16.3172 2.88886 16.7051 2.79599 16.9509 2.75365C17.1503 2.71951 17.1501 2.69925 16.9503 2.69288L16.1308 2.66557ZM12.8538 2.86974C12.5183 2.81875 12.1994 2.86723 11.8971 3.01519C11.8964 3.01569 11.8958 3.01644 11.8955 3.01732C11.8952 3.0182 11.8952 3.01916 11.8955 3.02003C11.8958 3.02091 11.8964 3.02165 11.8972 3.02213C11.898 3.02261 11.8989 3.02281 11.8999 3.0227C12.2631 2.93529 12.5622 2.89705 12.9972 2.89091C13.0213 2.89045 13.022 2.8859 12.9993 2.87725C12.9747 2.86769 12.9483 2.86519 12.9201 2.86974C12.8982 2.87292 12.8761 2.87292 12.8538 2.86974ZM11.975 3.73082C11.4314 3.85168 11.1057 4.0142 10.9807 4.60623C10.9748 4.634 10.9823 4.63833 11.0033 4.61921L11.9804 3.74174C11.9923 3.73082 11.9905 3.72717 11.975 3.73082ZM22.2977 3.94045C22.296 3.93936 22.2939 3.93901 22.2919 3.93945C22.2899 3.9399 22.2882 3.94112 22.2871 3.94284C22.286 3.94456 22.2857 3.94664 22.2861 3.94863C22.2865 3.95061 22.2878 3.95234 22.2895 3.95343C22.6077 4.23066 22.9266 4.59326 23.3042 4.78787C23.779 5.03142 24.2406 5.28909 24.689 5.56086C24.73 5.58544 24.7428 5.5752 24.7273 5.53013C24.6651 5.35327 24.5388 5.00638 24.3708 4.9142C23.7435 4.57004 23.0525 4.24546 22.2977 3.94045ZM7.3944 5.97126C7.38166 5.98355 7.37141 5.99584 7.36367 6.00813C7.36302 6.00923 7.36272 6.01051 7.36282 6.01178C7.36293 6.01306 7.36343 6.01427 7.36426 6.01525C7.36509 6.01623 7.3662 6.01693 7.36744 6.01724C7.36868 6.01755 7.36999 6.01747 7.37118 6.01701C7.89562 5.85312 8.52726 5.62915 8.93902 5.26245C9.32824 4.91488 9.63826 4.44781 9.96671 4.0142C9.9831 3.9928 9.97991 3.98916 9.95715 4.00327C9.04577 4.57141 8.19152 5.2274 7.3944 5.97126ZM14.0918 4.23476C13.3892 4.36177 12.804 4.63833 12.1901 4.99273C12.1842 4.99637 12.1826 5.00115 12.1853 5.00707L12.186 5.00775C12.1878 5.01185 12.1946 5.01185 12.2065 5.00775C12.8443 4.77376 13.4729 4.51678 14.0925 4.23681C14.0971 4.23453 14.0968 4.23385 14.0918 4.23476ZM7.55897 10.0561C7.01337 10.7881 6.66238 11.6321 6.42475 12.5068C6.12566 13.6076 5.8771 14.722 5.45305 15.7852C5.4271 15.8503 5.41253 15.9179 5.40935 15.988C5.3579 17.0264 5.24797 18.0589 5.07953 19.0854C5.07543 19.1087 5.08226 19.1282 5.10001 19.1442C5.63742 19.6215 5.94675 20.1268 5.91739 20.8718C5.90191 21.2688 5.84569 21.6639 5.74872 22.0572C5.7452 22.0719 5.74657 22.0872 5.75262 22.1009C5.75867 22.1146 5.76907 22.1259 5.78218 22.133C6.39357 22.4653 6.98128 22.8416 7.54531 23.2618C8.43848 23.9276 9.05442 24.7975 9.6205 25.7371C9.63189 25.7562 9.64805 25.7619 9.66899 25.7542C10.2597 25.5357 10.8517 25.3431 11.4888 25.2741C12.0556 25.2127 12.5263 25.3848 12.9009 25.7904C13.4185 26.351 13.7695 27.0154 14.0761 27.7085C14.0966 27.754 14.1292 27.7882 14.1738 27.8109C14.5903 28.0203 14.9845 28.2657 15.3565 28.5471C15.3764 28.5621 15.4009 28.5702 15.4261 28.5703C15.9007 28.5675 16.4128 28.5969 16.8499 28.5218C17.9479 28.3313 18.9196 27.7413 19.9849 27.3821C20.5864 27.1793 21.1942 27.0045 21.7931 26.7908C21.8632 26.7653 21.9333 26.709 22.0034 26.6221C22.2137 26.3592 22.4684 26.114 22.5039 25.8061C22.5767 25.1706 22.7092 24.5483 22.9013 23.9392C23.2865 22.7189 24.293 22.2819 25.4811 22.092C25.5038 22.0882 25.5252 22.079 25.5433 22.065C25.5614 22.0511 25.5757 22.0329 25.5849 22.0122C26.2514 20.4989 26.4802 18.8751 27.0667 17.3305C27.1173 17.1971 27.1462 17.0601 27.1535 16.9194C27.232 15.4083 27.4368 14.1798 27.6895 12.4713C27.697 12.4222 27.6909 12.3341 27.6635 12.2774C27.4509 11.8349 27.2079 11.4097 26.9343 11.0018C26.8987 10.9486 26.873 10.9178 26.8571 10.9096C25.5733 10.2077 24.4104 9.46405 23.5726 8.22808C23.2878 7.80745 22.6418 7.69478 22.1734 7.70434C21.8247 7.71116 21.476 7.72004 21.1273 7.73097C19.8292 7.77194 18.8889 7.28575 18.2593 6.13924C17.9916 5.65168 17.7257 5.16276 17.4617 4.67247C17.3934 4.54546 17.1906 4.43279 17.0247 4.43142C16.5747 4.42801 16.0987 4.40752 15.6767 4.48332C14.9481 4.61374 14.2482 4.92444 13.5503 5.24538C12.7739 5.60183 11.7858 5.862 10.9329 6.15289C10.9165 6.15844 10.9023 6.16929 10.8927 6.18375C10.883 6.19821 10.8785 6.21546 10.8797 6.23279C10.9143 6.7422 10.9195 7.25388 10.8954 7.76784C10.8704 8.30047 10.7613 8.77095 10.5683 9.1793C10.3161 9.71238 9.8768 10.0046 9.2504 10.0561C8.63765 10.1062 8.09205 10.0984 7.6136 10.0329C7.59084 10.0297 7.57263 10.0374 7.55897 10.0561ZM18.6731 4.53453C19.1736 4.82133 19.9767 4.92581 20.5653 4.94424C20.6632 4.94743 20.6654 4.934 20.5721 4.90396C19.9553 4.70456 19.3241 4.57596 18.6786 4.51814C18.6512 4.51541 18.6494 4.52088 18.6731 4.53453ZM6.50942 7.07338C6.09357 7.22702 5.57255 8.52239 5.42847 8.93688C5.42648 8.94277 5.42578 8.94902 5.4264 8.95519C5.42703 8.96137 5.42896 8.96732 5.43208 8.97264C5.43519 8.97796 5.43941 8.98252 5.44445 8.98602C5.44948 8.98951 5.45521 8.99185 5.46124 8.99288L6.27794 9.13082C6.30598 9.13565 6.33485 9.132 6.36087 9.12032C6.38689 9.10865 6.40889 9.08948 6.42407 9.06526C6.70449 8.61731 7.00085 8.18484 7.31314 7.76784C7.9639 6.89925 8.77445 6.33248 9.74956 5.87224C9.87475 5.81306 10.0122 5.68537 10.162 5.48916C10.1748 5.47277 10.1818 5.45456 10.1832 5.43453L10.2221 4.906C10.2244 4.87277 10.2157 4.86959 10.1961 4.89645C9.5768 5.74796 8.9677 6.25054 7.95298 6.56465C7.68666 6.64705 7.20548 6.81663 6.50942 7.07338ZM18.611 5.31913C18.9647 5.98901 19.3792 6.69508 20.1617 6.91223C20.4553 6.99371 20.6766 7.03286 20.8254 7.02968C21.4728 7.01534 22.1229 6.98188 22.7675 7.0447C22.7925 7.04698 22.7987 7.03719 22.7859 7.01534C22.5055 6.52733 22.2817 6.15859 22.1147 5.90912C22.0368 5.79303 21.916 5.71177 21.763 5.70836C20.7312 5.68446 19.6366 5.6469 18.626 5.30138C18.6059 5.29455 18.6009 5.30047 18.611 5.31913ZM25.6887 6.27376C26.5669 6.99622 27.3337 7.75487 27.7796 8.82695C27.806 8.88977 27.8156 8.88726 27.8083 8.81943C27.75 8.27725 27.5884 7.78013 27.3235 7.32808C26.9274 6.65138 26.1838 6.0689 25.5064 5.61344C25.4905 5.60252 25.4846 5.60661 25.4887 5.62573L25.5863 6.10373C25.6004 6.17247 25.6346 6.22915 25.6887 6.27376ZM9.94213 8.8406C10.1948 8.26154 10.2194 7.50221 10.1839 6.89174C10.182 6.86215 10.1727 6.85942 10.1559 6.88355C9.67786 7.56185 9.17096 8.21739 8.63515 8.85016C8.50267 9.00654 8.31694 9.17042 8.17012 9.34386C8.15556 9.36116 8.15965 9.37095 8.18242 9.37323C8.55753 9.41374 8.93082 9.40259 9.30229 9.33977C9.60594 9.28833 9.81921 9.12194 9.94213 8.8406ZM0.926413 16.1731C1.26169 14.7753 2.07839 13.5332 3.09584 12.4959C3.23377 12.3559 3.24334 12.2842 3.24129 12.0958C3.24038 12.0211 3.26792 11.88 3.32391 11.6724C3.51875 10.9463 3.71678 10.2232 3.91799 9.50297C3.92437 9.47975 3.91549 9.46655 3.89136 9.46336C3.42019 9.39599 2.95335 9.36253 2.49083 9.36298C2.19857 9.36367 1.77861 9.35274 1.63795 9.67915C1.37368 10.2903 1.21663 10.982 1.09781 11.6355C0.854713 12.9671 0.721785 14.3098 0.699023 15.6637C0.696291 15.8471 0.760252 16.0197 0.890905 16.1813C0.908203 16.2027 0.92004 16.1999 0.926413 16.1731ZM5.36428 9.69485C5.35817 9.69388 5.35193 9.69418 5.34596 9.69572C5.33999 9.69726 5.33441 9.70002 5.32959 9.70381C5.32477 9.7076 5.32081 9.71235 5.31796 9.71774C5.31512 9.72314 5.31345 9.72906 5.31306 9.73514L5.27756 10.2364C5.27619 10.2605 5.2837 10.2637 5.30009 10.2459L5.72892 9.78499C5.74713 9.76541 5.74303 9.75358 5.71663 9.74948L5.36428 9.69485ZM6.55039 10.276C6.14819 10.6174 5.95085 11.2559 5.81906 11.755C5.64926 12.3978 5.48446 13.0442 5.32467 13.6943C5.32194 13.7052 5.32627 13.7121 5.33765 13.7148L5.35472 13.7196C5.35692 13.7201 5.35919 13.7202 5.36141 13.7198C5.36364 13.7194 5.36576 13.7186 5.36766 13.7174C5.36957 13.7162 5.37122 13.7146 5.37251 13.7127C5.3738 13.7109 5.37472 13.7088 5.3752 13.7066C5.66678 12.5198 5.96246 11.361 6.55859 10.2828C6.56769 10.2655 6.56496 10.2632 6.55039 10.276ZM29.075 17.5798C29.4305 16.86 29.7025 16.1988 29.891 15.5961C29.9734 15.3338 30.008 15.1456 29.9948 15.0313C29.8892 14.1072 29.6124 13.2436 29.1645 12.4406C29.1544 12.4228 29.1513 12.424 29.1549 12.444C29.3393 13.5379 29.3406 14.6763 29.3256 15.7832C29.3188 16.2835 29.1968 16.7897 28.9596 17.3018C28.951 17.3203 28.9464 17.3404 28.946 17.3607C28.9457 17.3811 28.9496 17.4013 28.9576 17.42L29.0231 17.5777C29.039 17.6164 29.0563 17.6171 29.075 17.5798ZM30.1286 18.5474C30.931 17.2684 31.351 15.8125 30.8054 14.3355C30.8008 14.3232 30.7969 14.3235 30.7937 14.3362C30.7878 14.3594 30.7844 14.3808 30.7835 14.4004C30.7671 14.8074 30.7193 15.1891 30.7173 15.6084C30.7127 16.6235 30.5108 17.6002 30.1116 18.5385C30.1093 18.5439 30.1107 18.548 30.1157 18.5508H30.1164C30.1214 18.5535 30.1255 18.5524 30.1286 18.5474ZM2.42664 14.4721C1.96458 15.1745 1.66663 15.9423 1.53279 16.7754C1.52869 16.8008 1.53734 16.8213 1.55874 16.8368L1.81549 17.0184C1.83871 17.0348 1.85122 17.0287 1.85305 17C1.90767 16.1171 2.11526 15.286 2.44166 14.4653C2.44258 14.463 2.44144 14.4614 2.43825 14.4605C2.43643 14.46 2.43506 14.4596 2.43415 14.4591C2.43188 14.4582 2.43051 14.4589 2.43006 14.4612C2.4296 14.4625 2.42937 14.4637 2.42937 14.4646C2.42892 14.4673 2.42801 14.4698 2.42664 14.4721ZM3.55403 15.2642C3.20236 15.988 2.85479 16.7508 2.64174 17.5265C2.63855 17.5379 2.6422 17.5467 2.65267 17.5531L3.22695 17.8925C3.22873 17.8936 3.23079 17.8942 3.23289 17.8943C3.235 17.8943 3.23708 17.8938 3.2389 17.8927C3.24072 17.8917 3.24223 17.8901 3.24325 17.8883C3.24427 17.8864 3.24477 17.8844 3.2447 17.8823C3.2406 17.5074 3.22012 17.1004 3.28226 16.7467C3.34872 16.3679 3.46094 16.0021 3.6189 15.6493C3.69334 15.4827 3.68241 15.3605 3.65578 15.1898C3.64804 15.142 3.63006 15.1376 3.60183 15.1768C3.59091 15.1914 3.57497 15.2205 3.55403 15.2642ZM1.77725 18.7024C1.77861 18.706 1.77975 18.709 1.78066 18.7112C1.78079 18.7116 1.78096 18.7119 1.78116 18.7123C1.78137 18.7126 1.78159 18.7129 1.78181 18.7131C1.78202 18.7133 1.78223 18.7135 1.78239 18.7135C1.78255 18.7135 1.78266 18.7135 1.78271 18.7133C1.76541 18.4529 1.78066 18.1943 1.82846 17.9376C1.83133 17.9232 1.8298 17.9084 1.82408 17.8949C1.81836 17.8813 1.80871 17.8698 1.79637 17.8618L1.56898 17.7122C1.54303 17.6954 1.53165 17.7022 1.53484 17.7327C1.56989 18.0687 1.65069 18.3919 1.77725 18.7024ZM3.16139 18.6798C2.98977 18.5779 2.82042 18.4761 2.65335 18.3746C2.65055 18.3728 2.6473 18.3719 2.64399 18.372C2.64068 18.3721 2.63746 18.3732 2.63471 18.3751C2.63196 18.3771 2.62981 18.3798 2.62851 18.383C2.62721 18.3862 2.62683 18.3897 2.6274 18.393C2.76443 19.1628 3.02346 19.8885 3.40449 20.57C3.41132 20.5818 3.41359 20.5811 3.41132 20.5679C3.31162 19.9971 3.26132 19.4178 3.26041 18.8301C3.25995 18.7691 3.22695 18.719 3.16139 18.6798ZM27.178 19.3081C26.9541 20.2395 26.7431 21.0548 26.403 21.9084C26.388 21.9457 26.4 21.9593 26.4392 21.9493L26.4665 21.9425C26.5038 21.9329 26.5291 21.9102 26.5423 21.8742C26.8264 21.0862 26.9848 20.2736 27.2013 19.4713C27.2122 19.4303 27.2083 19.3759 27.1896 19.3081C27.1855 19.2926 27.1817 19.2926 27.178 19.3081ZM5.1601 21.2426C5.16212 21.2467 5.1655 21.2501 5.16967 21.2521C5.17385 21.2541 5.17858 21.2547 5.1831 21.2536C5.18761 21.2526 5.19165 21.2501 5.19454 21.2464C5.19743 21.2428 5.19902 21.2383 5.19903 21.2337L5.20586 20.4723C5.20585 20.4692 5.20515 20.4662 5.20381 20.4634L4.98666 20.0216C4.98479 20.0176 4.98165 20.0143 4.97772 20.0122C4.97379 20.0101 4.96928 20.0093 4.96488 20.01C4.96048 20.0107 4.95642 20.0128 4.95333 20.016C4.95024 20.0192 4.94827 20.0234 4.94774 20.0278L4.85965 20.6321C4.85918 20.6361 4.85989 20.6401 4.8617 20.6437L5.1601 21.2426ZM26.9657 24.5128C27.1985 23.9678 27.2572 23.3744 27.2777 22.7954C27.2796 22.754 27.2663 22.7485 27.2381 22.779C26.9304 23.1127 26.6151 23.4452 26.2924 23.7766C26.194 23.877 26.0739 24.0286 25.9851 24.1706C25.7106 24.6113 25.4104 25.0335 25.0844 25.4373C24.5279 26.1277 23.8512 26.6077 23.0652 27.0065C23.0329 27.0225 23.0124 27.048 23.0037 27.083L22.9321 27.3725C22.9243 27.4049 22.9323 27.4094 22.956 27.3862C23.69 26.6672 24.7225 26.3824 25.6771 26.0581C25.9052 25.9802 26.1715 25.931 26.3149 25.7118C26.5821 25.3021 26.7991 24.9024 26.9657 24.5128ZM24.9792 22.9347C23.9714 23.1703 23.6142 23.791 23.4073 24.7401C23.3996 24.7766 23.4075 24.7804 23.4312 24.7518C23.7965 24.3168 24.1434 23.9016 24.5497 23.5008C24.6508 23.4011 24.7992 23.2201 24.995 22.9579C25.0113 22.9361 25.0061 22.9283 24.9792 22.9347ZM8.27392 24.9962C7.8114 24.3657 7.26375 23.8602 6.63097 23.4796C6.6307 23.4793 6.63033 23.4792 6.62995 23.4792C6.62956 23.4792 6.62919 23.4793 6.62892 23.4796C6.62865 23.4799 6.6285 23.4802 6.6285 23.4806C6.6285 23.481 6.62865 23.4814 6.62892 23.4816C6.79008 23.7063 6.94508 23.8804 7.17725 24.0621C7.55647 24.3593 7.91952 24.673 8.26641 25.003C8.26722 25.004 8.26834 25.0046 8.26953 25.0047C8.27073 25.0048 8.27192 25.0044 8.27286 25.0035C8.27381 25.0027 8.27444 25.0014 8.27464 25.0001C8.27483 24.9987 8.27458 24.9974 8.27392 24.9962ZM5.06314 25.3294C5.32058 25.9672 5.81769 26.4466 6.38583 26.8891C6.39051 26.8927 6.39593 26.8953 6.40172 26.8966C6.4075 26.8979 6.4135 26.8979 6.41929 26.8966L6.91026 26.7785C6.91205 26.778 6.91368 26.7771 6.91496 26.7758C6.91623 26.7745 6.9171 26.7728 6.91746 26.771C6.91782 26.7692 6.91766 26.7674 6.91699 26.7657C6.91631 26.7639 6.91516 26.7625 6.91367 26.7614C6.20146 26.1789 5.57118 25.5835 5.10343 24.8091C5.09341 24.7923 5.08454 24.793 5.0768 24.8112C4.99986 24.9887 4.99531 25.1615 5.06314 25.3294ZM13.1679 27.4586C12.9663 27.0589 12.7462 26.7029 12.5076 26.3906C12.2418 26.0423 11.8887 25.9065 11.4485 25.9829C10.9705 26.0658 10.5046 26.1967 10.0507 26.3756C10.0307 26.3833 10.0259 26.3967 10.0364 26.4159C10.1875 26.6967 10.3366 26.9353 10.4836 27.1315C10.5587 27.2319 10.6564 27.2879 10.7909 27.2913C11.5803 27.3125 12.3745 27.3405 13.1515 27.4804C13.172 27.4841 13.1775 27.4768 13.1679 27.4586ZM24.1673 27.3855C23.4783 27.716 23.0113 28.377 22.6111 28.9834C22.6015 28.9984 22.6043 29.0011 22.6193 28.9916C23.5443 28.4075 24.4047 27.7401 25.2005 26.9895C25.211 26.9794 25.2094 26.9767 25.1957 26.9813C24.8465 27.0887 24.5038 27.2235 24.1673 27.3855ZM8.25002 28.1203C8.89326 28.4726 9.57066 28.7833 10.2494 29.0524C10.2776 29.0633 10.2804 29.0585 10.2576 29.038C9.93735 28.7499 9.61914 28.3982 9.22923 28.1995C8.70411 27.9332 8.28484 27.6757 7.85669 27.4313C7.82801 27.4149 7.81868 27.4224 7.8287 27.4538C7.90381 27.6887 8.02263 27.996 8.25002 28.1203ZM20.3099 27.9912L18.4498 28.7505C18.4491 28.751 18.4486 28.7516 18.4484 28.7523C18.4481 28.7531 18.4482 28.7539 18.4484 28.7546C18.4543 28.7696 18.484 28.7747 18.536 28.7695C18.5881 28.7643 18.6613 28.749 18.7515 28.7245C18.8418 28.6999 18.9473 28.6666 19.062 28.6264C19.1768 28.5863 19.2984 28.54 19.4201 28.4904L19.4352 28.4842C19.5567 28.4346 19.6759 28.3826 19.7859 28.331C19.8959 28.2795 19.9946 28.2295 20.0763 28.1839C20.1579 28.1383 20.221 28.098 20.2619 28.0653C20.3029 28.0326 20.3208 28.0081 20.3147 27.9933C20.3145 27.9928 20.3143 27.9923 20.3139 27.992C20.3136 27.9916 20.3132 27.9913 20.3128 27.9911C20.3123 27.9909 20.3118 27.9908 20.3113 27.9909C20.3108 27.9909 20.3103 27.991 20.3099 27.9912ZM11.9688 28.0882C12.496 28.2657 13.0364 28.3845 13.5899 28.4446C13.6118 28.4474 13.6218 28.4376 13.62 28.4153C13.6154 28.3652 13.5902 28.3329 13.5442 28.3183C13.0207 28.1499 12.4971 28.0638 11.9736 28.0602C11.9131 28.0597 11.9115 28.0691 11.9688 28.0882ZM20.0081 30.1436C20.693 30.1381 21.1655 29.6628 21.5759 29.1842C21.6073 29.1473 21.6012 29.1391 21.5575 29.1596C21.0166 29.417 20.4868 29.7844 19.9985 30.1149C19.9694 30.1345 19.9726 30.144 20.0081 30.1436ZM19.1948 29.3767L18.0278 29.7496C17.9764 29.7659 17.9775 29.7782 18.0312 29.7864C18.1213 29.8008 18.288 29.88 18.3842 29.8329C18.6733 29.6917 18.9446 29.542 19.1982 29.3835C19.2151 29.3731 19.2139 29.3708 19.1948 29.3767ZM16.4122 30.3327C16.419 30.3359 16.4254 30.3373 16.4313 30.3368C16.4486 30.3359 16.4515 30.3291 16.4402 30.3163C16.2442 30.0923 15.7273 30.2269 15.461 30.2665C15.4578 30.2669 15.4578 30.2674 15.461 30.2678C15.5231 30.2767 15.575 30.302 15.6358 30.3054C15.8875 30.3213 16.1395 30.3288 16.3917 30.3279C16.399 30.3279 16.4058 30.3295 16.4122 30.3327ZM16.6751 31.7599C16.6396 31.7667 16.6036 31.7701 16.5672 31.7701C16.5663 31.7701 16.5658 31.7701 16.5658 31.7701C16.5663 31.7688 16.5669 31.7681 16.5679 31.7681C17.0841 31.8097 17.7144 31.6629 18.2169 31.553C18.242 31.5475 18.2418 31.5441 18.2163 31.5427C18.0537 31.5332 17.8605 31.5844 17.7424 31.598C17.385 31.6395 17.0292 31.6934 16.6751 31.7599ZM15.9636 31.7653C15.9642 31.7619 15.9535 31.7566 15.9321 31.7497C15.9107 31.7428 15.879 31.7346 15.8389 31.7253C15.7988 31.7161 15.751 31.7061 15.6983 31.696C15.6455 31.6858 15.5889 31.6756 15.5316 31.666C15.4743 31.6564 15.4174 31.6476 15.3642 31.6401C15.3111 31.6325 15.2626 31.6264 15.2217 31.6221C15.1807 31.6177 15.1481 31.6152 15.1257 31.6147C15.1032 31.6143 15.0913 31.6158 15.0908 31.6192C15.0902 31.6227 15.1009 31.628 15.1223 31.6349C15.1437 31.6417 15.1753 31.65 15.2155 31.6592C15.2556 31.6684 15.3034 31.6784 15.3561 31.6886C15.4088 31.6988 15.4655 31.7089 15.5228 31.7185C15.5801 31.7281 15.637 31.7369 15.6902 31.7445C15.7433 31.752 15.7918 31.7582 15.8327 31.7625C15.8736 31.7668 15.9063 31.7693 15.9287 31.7698C15.9512 31.7703 15.963 31.7688 15.9636 31.7653Z"
    fill="white" />
  <line x1="48.2635" y1="7" x2="48.2635" y2="26" stroke="white" />
  <g opacity="0.8" clip-path="url(#clip0_1400_7684)">
    <path
      d="M109.117 9.26558C108.147 8.64549 107.609 9.83163 107.592 10.6167C107.524 13.6716 107.526 16.3321 107.598 18.5982C107.612 19.0334 107.735 19.7218 108.093 20.009C108.554 20.3788 109.245 20.2281 109.507 19.6876C109.908 18.8542 109.831 17.2073 109.768 16.3084C109.767 16.2843 109.77 16.2601 109.778 16.2374C109.786 16.2147 109.799 16.1938 109.815 16.1762C109.831 16.1586 109.851 16.1446 109.873 16.1351C109.895 16.1255 109.918 16.1206 109.942 16.1207L114.049 16.1178C114.092 16.1178 114.134 16.1263 114.173 16.1426C114.212 16.1589 114.248 16.1828 114.277 16.213C114.307 16.2431 114.331 16.2789 114.347 16.3182C114.363 16.3576 114.371 16.3997 114.371 16.4421C114.339 19.3093 113.935 22.4695 110.59 23.1351C107.004 23.8462 103.223 22.9701 102.891 18.6636C102.694 16.1207 102.657 13.4611 102.885 10.8898C103.121 8.20745 104.515 6.37847 107.396 6.08834C112.471 5.57349 114.234 7.4366 114.226 12.349C114.226 12.3942 114.208 12.4376 114.176 12.4696C114.144 12.5016 114.1 12.5196 114.055 12.5196L109.865 12.5225C109.839 12.523 109.812 12.5179 109.788 12.5075C109.763 12.497 109.741 12.4816 109.723 12.462C109.705 12.4425 109.691 12.4193 109.682 12.394C109.673 12.3686 109.67 12.3417 109.672 12.3148C109.729 11.5497 109.845 9.73207 109.117 9.26558Z"
      fill="white" />
    <path
      d="M65.4156 6.25962L70.3591 6.25108C70.3383 8.95141 70.8493 11.555 71.8923 14.0619C72.3303 15.1125 72.9409 16.0455 73.7241 16.8609C75.3966 18.6074 77.8655 18.9146 79.6973 17.2079C79.7826 17.1282 79.8832 17.0875 79.9988 17.0856C80.011 17.0856 80.023 17.0886 80.0337 17.0943C80.0445 17.1001 80.0536 17.1084 80.0604 17.1185C80.0671 17.1286 80.0713 17.1403 80.0724 17.1524C80.0736 17.1645 80.0718 17.1767 80.0671 17.188C79.1569 19.4152 77.2597 22.271 74.8476 22.9138C71.3717 23.8411 68.8687 20.3908 67.6797 17.7C66.0299 13.9681 65.5492 10.3442 65.4156 6.25962Z"
      fill="white" />
    <path
      d="M71.6619 6.24237L82.1065 6.24522C82.135 9.31153 81.2504 15.191 78.1812 16.7554C76.0735 17.8306 74.256 15.9789 73.3884 14.2353C72.1577 11.7587 71.5822 9.0944 71.6619 6.24237Z"
      fill="white" />
    <path
      d="M83.3069 6.24493H88.3386C88.3635 6.24493 88.3881 6.24988 88.4111 6.25949C88.4341 6.2691 88.4549 6.28319 88.4724 6.30092C88.4898 6.31866 88.5036 6.33969 88.5129 6.3628C88.5221 6.3859 88.5267 6.41062 88.5263 6.43551C88.5055 11.2881 87.7185 15.7065 86.1655 19.6906C84.6864 23.488 82.3142 27.0407 78.3519 28.2496C76.4803 28.8213 73.9801 27.6807 72.4555 26.4405C70.8341 25.1207 69.5314 23.5259 68.5472 21.6561C68.8165 21.8666 69.0716 22.0875 69.3124 22.3189C72.8821 25.7322 77.089 24.438 79.5807 20.6236C82.3142 16.4366 83.341 11.2142 83.3069 6.24493Z"
      fill="white" />
    <path
      d="M99.3237 14.292C99.4697 14.3944 99.6319 14.4627 99.8101 14.4968C101.605 14.8325 102.16 17.1222 102.057 18.5985C101.86 21.4126 100.294 22.8557 97.3582 22.9278C95.4335 22.9752 93.1049 22.9856 90.3724 22.959C90.3389 22.9583 90.3071 22.9445 90.2837 22.9206C90.2603 22.8966 90.2472 22.8645 90.2472 22.831L90.2444 6.51816C90.2444 6.46735 90.2644 6.41858 90.3 6.38238C90.3357 6.34619 90.3842 6.32548 90.435 6.32473C92.5474 6.32284 94.6257 6.32568 96.6699 6.33327C98.3538 6.3418 100.49 6.8026 101.252 8.53771C102.117 10.5061 101.665 13.3989 99.3607 14.073C99.3386 14.0791 99.3188 14.0914 99.3035 14.1084C99.2882 14.1255 99.2781 14.1466 99.2742 14.1694C99.2704 14.1922 99.273 14.2158 99.2817 14.2375C99.2905 14.2592 99.305 14.278 99.3237 14.292ZM94.9206 9.84047L94.9035 12.6053C94.9035 12.6558 94.9236 12.7043 94.9593 12.74C94.9951 12.7758 95.0436 12.7958 95.0941 12.7958L95.3103 12.7987C95.5296 12.7999 95.7471 12.7634 95.9501 12.6912C96.1532 12.6189 96.338 12.5124 96.4938 12.3777C96.6497 12.243 96.7736 12.0827 96.8584 11.906C96.9433 11.7293 96.9875 11.5397 96.9885 11.348V11.1205C96.9904 10.7336 96.8166 10.3617 96.5051 10.0865C96.1936 9.81127 95.77 9.65525 95.3273 9.65273L95.1112 9.64989C95.0606 9.64989 95.0121 9.66997 94.9764 9.70571C94.9407 9.74145 94.9206 9.78992 94.9206 9.84047ZM94.9177 16.03L94.9121 19.3921C94.9121 19.4411 94.9315 19.4882 94.9662 19.5228C95.0009 19.5575 95.0479 19.577 95.0969 19.577L95.37 19.5798C95.611 19.5803 95.8496 19.5371 96.0724 19.4528C96.2951 19.3686 96.4976 19.2449 96.6682 19.0887C96.8389 18.9326 96.9743 18.7472 97.0668 18.543C97.1594 18.3389 97.2072 18.1199 97.2075 17.8988V17.5347C97.2082 17.0881 97.0156 16.6596 96.672 16.3432C96.3285 16.0269 95.8622 15.8488 95.3757 15.8479L95.1026 15.8451C95.0536 15.8451 95.0066 15.8646 94.9719 15.8992C94.9372 15.9339 94.9177 15.9809 94.9177 16.03Z"
      fill="white" />
    <path
      d="M124.337 14.6505C124.135 14.7567 124.146 14.8297 124.372 14.8695C126.183 15.2052 126.565 16.5819 126.61 18.189C126.642 19.2756 126.676 20.3811 126.71 21.5056C126.727 22.0233 126.934 22.4414 127.279 22.8141C127.291 22.8279 127.3 22.8451 127.303 22.8636C127.306 22.8821 127.303 22.9011 127.296 22.9183C127.288 22.9355 127.276 22.9501 127.26 22.9604C127.245 22.9707 127.226 22.9762 127.207 22.9762L122.523 22.9563C122.456 22.9564 122.391 22.9342 122.338 22.893C122.285 22.8518 122.247 22.794 122.23 22.7287C122.125 22.3229 122.069 21.9266 122.059 21.5398C122.023 20.1043 121.977 18.7664 121.92 17.5262C121.897 17.0427 121.655 16.7251 121.194 16.5734C120.961 16.4956 120.727 16.4188 120.492 16.343C120.044 16.1969 119.821 16.3591 119.823 16.8294L119.84 22.7998C119.84 22.9022 119.789 22.9534 119.687 22.9534L115.292 22.9819C115.248 22.9819 115.206 22.9645 115.176 22.9336C115.145 22.9026 115.127 22.8607 115.127 22.8169L115.124 6.51824C115.124 6.39119 115.188 6.32767 115.315 6.32767C117.424 6.32008 119.601 6.32482 121.849 6.34189C123.126 6.35327 124.645 6.58936 125.595 7.47967C127.108 8.8962 127.236 12.7447 125.501 14.0617C125.145 14.3319 124.73 14.4457 124.337 14.6505ZM119.829 9.78082L119.818 13.0519C119.818 13.1002 119.837 13.1465 119.871 13.1807C119.905 13.2148 119.951 13.234 120 13.234H120.341C120.567 13.2348 120.792 13.1943 121.001 13.1148C121.211 13.0353 121.401 12.9184 121.562 12.7708C121.722 12.6231 121.85 12.4476 121.937 12.2543C122.024 12.0609 122.07 11.8535 122.07 11.6439V11.2002C122.072 10.7771 121.892 10.3706 121.569 10.0703C121.247 9.77002 120.809 9.6004 120.352 9.59878H120.011C119.963 9.59878 119.916 9.61796 119.882 9.6521C119.848 9.68624 119.829 9.73254 119.829 9.78082Z"
      fill="white" />
    <path
      d="M132.757 6.32358L128.092 6.33172C128.012 6.33186 127.947 6.39693 127.947 6.47704L127.975 22.8326C127.976 22.9127 128.041 22.9775 128.121 22.9774L132.786 22.9692C132.866 22.9691 132.931 22.904 132.93 22.8239L132.902 6.4684C132.902 6.38828 132.837 6.32344 132.757 6.32358Z"
      fill="white" />
  </g>
  <defs>
    <clipPath id="clip0_1400_7684">
      <rect width="72.3682" height="24" fill="white" transform="translate(63.7635 4.5)" />
    </clipPath>
  </defs>
</svg>