<svg width="163" height="40" viewBox="0 0 163 40" fill="none" xmlns="http://www.w3.org/2000/svg">
  <g clip-path="url(#clip0_1226_1284)">
  <path d="M5.19608 10.3757C4.31949 10.2628 3.72232 10.2072 3.40459 10.2089C2.45565 10.2149 1.56544 10.2915 1.19863 11.323C0.369694 13.6574 0.0888429 16.3034 0.0454386 18.7647C0.0292683 19.66 0.352673 20.1672 0.999482 20.7476C1.02104 20.7669 1.03267 20.7913 1.03438 20.8208C1.04516 21.0359 1.05962 21.2512 1.07778 21.4668C1.2548 23.5757 2.54331 25.2464 4.07268 26.6421C4.43183 26.9706 4.68119 27.2923 4.95438 27.6659C4.97044 27.6886 4.97906 27.7157 4.97906 27.7434C4.96204 28.757 5.03012 29.7672 5.31268 30.7459C5.34842 30.8708 5.3592 30.9996 5.34502 31.1323C5.19523 32.5042 5.5697 33.8668 7.20034 33.9332C7.36119 33.9391 7.56715 33.9076 7.75523 33.9127C7.7824 33.9133 7.80883 33.9222 7.83098 33.9383C8.25141 34.2441 8.68346 34.5323 9.12715 34.803C9.35183 34.9397 9.61027 35.1181 9.90247 35.3383C10.1794 35.5465 10.4687 35.7371 10.7706 35.9102C12.1226 36.6864 13.547 37.292 15.0438 37.7272C15.1697 37.7638 15.4344 37.7757 15.5467 37.8779C16.8046 39.0285 18.4165 39.8838 20.0855 39.9366C21.5306 39.9817 23.0097 39.6549 24.4174 39.1519C24.6897 39.054 24.9893 39.0489 25.2608 38.9638C28.0276 38.0974 30.6395 36.403 32.7621 34.4549C33.2738 33.9857 33.6523 33.5652 33.8974 33.1936C34.3178 32.557 34.5459 31.8804 34.7595 31.1468C34.8021 31.0004 34.8631 30.8509 34.9425 30.6983C35.557 29.523 35.9127 28.2098 36.2387 26.9349C36.2433 26.9168 36.2514 26.8998 36.2627 26.8849C36.2739 26.87 36.288 26.8575 36.3042 26.8481C37.1485 26.363 37.4157 25.3817 37.2974 24.4634C37.294 24.4356 37.3014 24.4106 37.3195 24.3885C39.0685 22.3247 40.2651 19.7264 39.2744 17.0166C38.7459 15.5732 37.6787 14.3408 36.5493 13.3085C36.214 13.0021 35.9757 12.6796 35.717 12.3281C35.6897 12.2912 35.6767 12.2495 35.6778 12.203C35.7306 10.2617 35.4429 8.33998 33.9289 6.96466C33.1811 6.28551 32.3737 5.68864 31.5067 5.17403C31.071 4.9153 30.6727 4.56211 30.2233 4.28807C28.7079 3.36495 27.094 2.67275 25.3816 2.21147C25.2585 2.178 25.1476 2.12041 25.0489 2.03871C23.5204 0.766366 21.9944 -0.00895284 19.9587 0.0625365C18.816 0.10282 17.635 0.345373 16.4157 0.790196C16.0429 0.926366 15.6293 0.962962 15.2352 1.09062C12.5127 1.97658 9.93737 3.66254 7.8497 5.60041C7.368 6.04693 7.01055 6.44778 6.77736 6.80296C6.368 7.42679 6.13311 8.08381 5.93055 8.80211C5.88232 8.97119 5.81452 9.13942 5.72715 9.30679C5.5524 9.64154 5.39693 9.98509 5.26076 10.3374C5.24942 10.3669 5.22786 10.3797 5.19608 10.3757Z" stroke="white" stroke-width="0.170213"/>
  <path d="M66.4254 15.5939V17.85C66.4254 17.8784 66.4396 17.8926 66.468 17.8926H68.2552C68.2836 17.8926 68.2978 17.8784 68.2978 17.85V10.5522C68.2978 10.5238 68.2836 10.5096 68.2552 10.5096H61.1275C61.0992 10.5096 61.085 10.5238 61.085 10.5522V12.3819C61.085 12.3961 61.0921 12.4032 61.1063 12.4032H66.1071C66.1406 12.4032 66.1528 12.4194 66.1437 12.4517C65.4765 14.8943 63.2373 16.3811 60.7284 16.0764C56.3658 15.5471 54.862 10.0322 57.6518 6.9879C59.8194 4.62194 63.725 4.77343 65.4067 7.64492C65.4203 7.66819 65.4407 7.67982 65.468 7.67982H67.7437C67.7795 7.67982 67.7905 7.66308 67.7769 7.6296C66.6705 4.8696 64.0203 3.21684 61.056 3.37003C56.7777 3.59045 53.8016 7.07811 54.096 11.3258C54.3803 15.4305 57.7931 18.3845 61.8722 18.0636C63.7854 17.913 65.2161 17.0577 66.3871 15.5802C66.4126 15.5479 66.4254 15.5524 66.4254 15.5939Z" stroke="white" stroke-width="0.170213"/>
  <path d="M99.0662 11.7018H111.169C111.195 11.7018 111.208 11.6893 111.209 11.6644C111.304 10.1418 111.081 8.60308 110.442 7.21755C109.213 4.55287 106.272 3.12563 103.384 3.39372C100.075 3.70095 97.5615 6.05074 96.993 9.30095C96.2253 13.6941 99.1343 17.8712 103.703 18.0831C106.863 18.2295 109.692 16.4133 110.77 13.4405C110.779 13.4161 110.771 13.4039 110.744 13.4039H108.659C108.628 13.4039 108.606 13.4167 108.59 13.4422C108.495 13.6011 108.396 13.7574 108.295 13.9112C107.14 15.6686 105.08 16.4941 103.02 16.0422C100.916 15.581 99.3623 13.8746 99.0304 11.7435C99.0264 11.7157 99.0384 11.7018 99.0662 11.7018Z" stroke="white" stroke-width="0.170213"/>
  <path d="M72.1306 17.8932C72.1366 17.8932 72.1425 17.8914 72.1475 17.8881C72.1525 17.8848 72.1564 17.88 72.1587 17.8745L73.894 13.8813C73.8957 13.8775 73.8981 13.8741 73.9011 13.8712C73.9041 13.8684 73.9077 13.8662 73.9116 13.8647C73.9155 13.8633 73.9197 13.8627 73.9238 13.8629C73.928 13.8631 73.932 13.8642 73.9357 13.866L77.4609 15.5384C77.4649 15.5402 77.4692 15.5411 77.4736 15.5411C77.478 15.5411 77.4824 15.5402 77.4864 15.5384L80.9306 13.9069C80.9344 13.905 80.9384 13.904 80.9426 13.9037C80.9467 13.9035 80.9509 13.9041 80.9548 13.9056C80.9587 13.907 80.9623 13.9092 80.9653 13.9121C80.9683 13.9149 80.9707 13.9184 80.9723 13.9222L82.666 17.8745C82.6683 17.88 82.6722 17.8848 82.6772 17.8881C82.6822 17.8914 82.6881 17.8932 82.6941 17.8932H85.0064C85.0116 17.8933 85.0166 17.892 85.0212 17.8896C85.0257 17.8871 85.0296 17.8836 85.0324 17.8793C85.0352 17.8749 85.0368 17.87 85.0372 17.8648C85.0376 17.8597 85.0366 17.8545 85.0345 17.8498L78.6396 3.59197C78.6371 3.5866 78.6332 3.58206 78.6282 3.57889C78.6232 3.57572 78.6174 3.57405 78.6115 3.5741H76.3366C76.3307 3.57405 76.3249 3.57572 76.3199 3.57889C76.3149 3.58206 76.311 3.5866 76.3085 3.59197L69.9136 17.8498C69.9115 17.8545 69.9105 17.8597 69.9109 17.8648C69.9113 17.87 69.9129 17.8749 69.9157 17.8793C69.9185 17.8836 69.9224 17.8871 69.9269 17.8896C69.9315 17.892 69.9365 17.8933 69.9417 17.8932H72.1306Z" stroke="white" stroke-width="0.170213"/>
  <path d="M89.1637 15.9145C89.159 15.9145 89.1544 15.9136 89.15 15.9118C89.1457 15.91 89.1418 15.9074 89.1385 15.9041C89.1351 15.9007 89.1325 15.8968 89.1307 15.8925C89.1289 15.8881 89.128 15.8835 89.128 15.8788V3.60984C89.128 3.60036 89.1242 3.59127 89.1175 3.58457C89.1108 3.57786 89.1017 3.5741 89.0922 3.5741H87.0999C87.0904 3.5741 87.0813 3.57786 87.0746 3.58457C87.0679 3.59127 87.0641 3.60036 87.0641 3.60984V17.8575C87.0641 17.867 87.0679 17.8761 87.0746 17.8828C87.0813 17.8895 87.0904 17.8932 87.0999 17.8932H96.6454C96.6549 17.8932 96.664 17.8895 96.6707 17.8828C96.6774 17.8761 96.6812 17.867 96.6812 17.8575V15.9503C96.6812 15.9408 96.6774 15.9317 96.6707 15.925C96.664 15.9183 96.6549 15.9145 96.6454 15.9145H89.1637Z" stroke="white" stroke-width="0.170213"/>
  <path d="M115.993 17.8932C116 17.8932 116.008 17.8902 116.013 17.8848C116.019 17.8793 116.022 17.872 116.022 17.8643V6.3775C116.021 6.37128 116.023 6.36517 116.027 6.3601C116.031 6.35503 116.036 6.35126 116.042 6.34935C116.048 6.34743 116.054 6.34749 116.06 6.34949C116.066 6.3515 116.071 6.35535 116.074 6.36048L124.376 17.8813C124.378 17.885 124.382 17.8879 124.386 17.89C124.39 17.8921 124.394 17.8932 124.399 17.8932H126.61C126.617 17.8932 126.625 17.8902 126.63 17.8848C126.636 17.8793 126.639 17.872 126.639 17.8643V3.60303C126.639 3.59536 126.636 3.588 126.63 3.58257C126.625 3.57715 126.617 3.5741 126.61 3.5741H124.604C124.596 3.5741 124.589 3.57715 124.583 3.58257C124.578 3.588 124.575 3.59536 124.575 3.60303V14.7511C124.575 14.7573 124.573 14.7634 124.569 14.7685C124.566 14.7736 124.561 14.7774 124.555 14.7793C124.549 14.7812 124.542 14.7811 124.537 14.7791C124.531 14.7771 124.526 14.7733 124.522 14.7681L116.509 3.58601C116.507 3.58238 116.503 3.57941 116.499 3.57734C116.495 3.57527 116.491 3.57416 116.486 3.5741H113.987C113.979 3.5741 113.972 3.57715 113.966 3.58257C113.961 3.588 113.958 3.59536 113.958 3.60303V17.8643C113.958 17.872 113.961 17.8793 113.966 17.8848C113.972 17.8902 113.979 17.8932 113.987 17.8932H115.993Z" stroke="white" stroke-width="0.170213"/>
  <path d="M71.9009 32.0474C69.6992 29.2686 70.7222 24.7937 74.1265 23.5308C75.3049 23.0933 76.4737 23.0871 77.6329 23.512C78.8924 23.9733 79.8329 24.9206 80.3895 26.1325C80.4008 26.1574 80.4201 26.1699 80.4473 26.1699H82.6576C82.6825 26.1699 82.6913 26.1583 82.6839 26.135C81.8346 23.4286 79.5495 21.5963 76.7656 21.2848C71.7392 20.7223 67.906 24.9359 68.6746 29.8516C68.9997 31.9316 70.2073 33.7835 72.0048 34.8814C75.9495 37.2916 81.2473 35.5989 82.6831 31.0763C82.6905 31.0536 82.6822 31.0423 82.6584 31.0423H80.4473C80.4348 31.0422 80.4225 31.0458 80.4118 31.0526C80.4011 31.0593 80.3925 31.069 80.3869 31.0806C79.7052 32.4831 78.632 33.4763 77.1375 33.8389C75.1912 34.3112 73.1495 33.6227 71.9009 32.0474Z" stroke="white" stroke-width="0.170213"/>
  <path d="M56.8703 32.51C56.8722 32.5039 56.8761 32.4985 56.8813 32.4947C56.8865 32.4909 56.8928 32.4888 56.8992 32.4887H64.4907C64.4971 32.4888 64.5034 32.4909 64.5086 32.4947C64.5138 32.4985 64.5177 32.5039 64.5196 32.51L65.5298 35.744C65.5318 35.7502 65.5357 35.7555 65.5409 35.7594C65.5461 35.7632 65.5523 35.7653 65.5588 35.7653H67.6473C67.6521 35.7653 67.6568 35.7641 67.6611 35.7619C67.6654 35.7597 67.6691 35.7565 67.6719 35.7526C67.6747 35.7487 67.6766 35.7442 67.6773 35.7395C67.6781 35.7347 67.6777 35.7299 67.6762 35.7253L63.175 21.4674C63.173 21.4613 63.1691 21.4559 63.1639 21.4521C63.1587 21.4483 63.1525 21.4462 63.146 21.4462H58.3043C58.2979 21.4462 58.2916 21.4483 58.2864 21.4521C58.2812 21.4559 58.2773 21.4613 58.2754 21.4674L53.7732 35.7253C53.7718 35.7299 53.7714 35.7347 53.7722 35.7395C53.7729 35.7442 53.7748 35.7487 53.7776 35.7526C53.7804 35.7565 53.7841 35.7597 53.7884 35.7619C53.7926 35.7641 53.7974 35.7653 53.8022 35.7653H55.8311C55.8376 35.7653 55.8438 35.7632 55.849 35.7594C55.8542 35.7555 55.8581 35.7502 55.86 35.744L56.8703 32.51Z" stroke="white" stroke-width="0.170213"/>
  <path d="M86.4856 32.51C86.4874 32.5038 86.4912 32.4984 86.4965 32.4945C86.5017 32.4907 86.508 32.4886 86.5145 32.4887H94.1077C94.1142 32.4886 94.1205 32.4907 94.1257 32.4945C94.1309 32.4984 94.1348 32.5038 94.1366 32.51L95.1468 35.744C95.1487 35.7503 95.1525 35.7557 95.1577 35.7595C95.163 35.7634 95.1693 35.7654 95.1758 35.7653H97.2651C97.2699 35.7654 97.2746 35.7644 97.2789 35.7623C97.2832 35.7602 97.2869 35.7571 97.2897 35.7532C97.2926 35.7494 97.2945 35.745 97.2952 35.7402C97.296 35.7355 97.2956 35.7307 97.2941 35.7262L92.7919 21.4666C92.7899 21.4605 92.786 21.4553 92.7808 21.4516C92.7756 21.4479 92.7694 21.446 92.763 21.4462H87.9205C87.9141 21.446 87.9078 21.4479 87.9026 21.4516C87.8974 21.4553 87.8935 21.4605 87.8915 21.4666L83.3902 35.7262C83.3887 35.7307 83.3883 35.7355 83.3891 35.7402C83.3898 35.745 83.3917 35.7494 83.3946 35.7532C83.3974 35.7571 83.4011 35.7602 83.4054 35.7623C83.4097 35.7644 83.4144 35.7654 83.4192 35.7653H85.4473C85.4537 35.7654 85.4601 35.7634 85.4653 35.7595C85.4705 35.7557 85.4743 35.7503 85.4762 35.744L86.4856 32.51Z" stroke="white" stroke-width="0.170213"/>
  <path d="M104.68 35.7722C108.555 35.7713 111.685 33.4207 112.065 29.4036C112.498 24.8249 109.386 21.4488 104.786 21.4453C103.116 21.4436 101.442 21.4448 99.7652 21.4487C99.7373 21.4487 99.7234 21.4624 99.7234 21.4896V35.7211C99.7234 35.7472 99.7365 35.7602 99.7626 35.7602C101.402 35.7687 103.041 35.7727 104.68 35.7722Z" stroke="white" stroke-width="0.170213"/>
  <path d="M116.915 29.6045C116.915 29.5963 116.918 29.5885 116.924 29.5828C116.93 29.5771 116.938 29.5738 116.946 29.5738H123.815C123.823 29.5738 123.831 29.5706 123.836 29.5649C123.842 29.5591 123.845 29.5513 123.845 29.5432L123.853 27.6683C123.853 27.6643 123.852 27.6603 123.851 27.6566C123.849 27.6529 123.847 27.6495 123.844 27.6466C123.841 27.6438 123.838 27.6415 123.834 27.64C123.83 27.6384 123.826 27.6377 123.822 27.6377H116.946C116.938 27.6377 116.93 27.6344 116.924 27.6287C116.918 27.6229 116.915 27.6151 116.915 27.607V23.413C116.915 23.4048 116.918 23.3971 116.924 23.3913C116.93 23.3856 116.938 23.3823 116.946 23.3823H124.438C124.446 23.3823 124.454 23.3791 124.459 23.3734C124.465 23.3676 124.468 23.3598 124.468 23.3517V21.4768C124.468 21.4687 124.465 21.4609 124.459 21.4551C124.454 21.4494 124.446 21.4462 124.438 21.4462H114.882C114.874 21.4462 114.866 21.4494 114.86 21.4551C114.855 21.4609 114.851 21.4687 114.851 21.4768V35.7347C114.851 35.7428 114.855 35.7506 114.86 35.7563C114.866 35.7621 114.874 35.7653 114.882 35.7653H124.438C124.446 35.7653 124.454 35.7621 124.459 35.7563C124.465 35.7506 124.468 35.7428 124.468 35.7347L124.469 33.8598C124.469 33.8558 124.468 33.8518 124.467 33.8481C124.465 33.8443 124.463 33.841 124.46 33.8381C124.457 33.8353 124.454 33.833 124.45 33.8315C124.447 33.8299 124.443 33.8291 124.439 33.8291H116.946C116.938 33.8291 116.93 33.8259 116.924 33.8202C116.918 33.8144 116.915 33.8066 116.915 33.7985V29.6045Z" stroke="white" stroke-width="0.170213"/>
  <path d="M144.627 23.4249C144.636 23.4249 144.644 23.4284 144.651 23.4346C144.657 23.4408 144.66 23.4493 144.66 23.4581V35.7321C144.66 35.7409 144.664 35.7494 144.67 35.7556C144.676 35.7618 144.685 35.7653 144.693 35.7653H146.69C146.699 35.7653 146.707 35.7618 146.714 35.7556C146.72 35.7494 146.723 35.7409 146.723 35.7321L146.722 21.4802C146.722 21.4759 146.722 21.4715 146.72 21.4675C146.718 21.4635 146.716 21.4598 146.713 21.4567C146.71 21.4537 146.706 21.4512 146.702 21.4495C146.698 21.4479 146.694 21.447 146.689 21.447L127.544 21.4462C127.536 21.4462 127.527 21.4497 127.521 21.4559C127.515 21.4621 127.511 21.4706 127.511 21.4794V35.7321C127.511 35.7409 127.515 35.7494 127.521 35.7556C127.527 35.7618 127.536 35.7653 127.544 35.7653H129.542C129.551 35.7653 129.559 35.7618 129.565 35.7556C129.572 35.7494 129.575 35.7409 129.575 35.7321V23.4572C129.575 23.4529 129.576 23.4486 129.578 23.4445C129.579 23.4405 129.582 23.4368 129.585 23.4338C129.588 23.4307 129.592 23.4282 129.596 23.4266C129.6 23.4249 129.604 23.424 129.608 23.424L136.053 23.4249C136.057 23.4249 136.061 23.4257 136.065 23.4274C136.069 23.4291 136.073 23.4315 136.076 23.4346C136.079 23.4377 136.082 23.4414 136.083 23.4454C136.085 23.4494 136.086 23.4537 136.086 23.4581V35.7321C136.086 35.7409 136.089 35.7494 136.095 35.7556C136.102 35.7618 136.11 35.7653 136.119 35.7653L138.116 35.7645C138.124 35.7645 138.133 35.761 138.139 35.7547C138.145 35.7485 138.149 35.7401 138.149 35.7313L138.15 23.4581C138.15 23.4537 138.15 23.4494 138.152 23.4454C138.154 23.4414 138.156 23.4377 138.159 23.4346C138.162 23.4315 138.166 23.4291 138.17 23.4274C138.174 23.4257 138.178 23.4249 138.183 23.4249H144.627Z" stroke="white" stroke-width="0.170213"/>
  <path d="M156.745 30.1568C156.745 30.1489 156.748 30.1413 156.754 30.1357C156.759 30.1302 156.767 30.127 156.775 30.127H157.961C157.967 30.1271 157.972 30.1257 157.977 30.123C157.981 30.1203 157.985 30.1164 157.988 30.1117L162.643 21.4913C162.646 21.4867 162.647 21.4816 162.647 21.4764C162.647 21.4711 162.645 21.466 162.643 21.4616C162.64 21.4571 162.636 21.4534 162.632 21.4508C162.627 21.4483 162.622 21.447 162.617 21.447L160.323 21.4462C160.318 21.4462 160.312 21.4477 160.308 21.4506C160.303 21.4534 160.299 21.4575 160.297 21.4623L156.726 28.2385C156.724 28.2434 156.72 28.2474 156.715 28.2503C156.711 28.2531 156.705 28.2547 156.7 28.2547H154.705C154.7 28.2547 154.694 28.2531 154.69 28.2503C154.685 28.2474 154.681 28.2434 154.679 28.2385L151.109 21.4623C151.107 21.4575 151.103 21.4534 151.098 21.4506C151.094 21.4477 151.088 21.4462 151.083 21.4462H148.788C148.783 21.4461 148.778 21.4474 148.774 21.45C148.769 21.4525 148.765 21.4562 148.763 21.4607C148.76 21.4652 148.758 21.4703 148.758 21.4755C148.758 21.4807 148.76 21.4859 148.762 21.4904L153.418 30.1117C153.421 30.1164 153.425 30.1203 153.429 30.123C153.434 30.1257 153.439 30.1271 153.445 30.127H154.651C154.659 30.127 154.667 30.1302 154.673 30.1357C154.678 30.1413 154.681 30.1489 154.681 30.1568V35.7355C154.681 35.7434 154.684 35.751 154.69 35.7566C154.696 35.7622 154.703 35.7653 154.711 35.7653H156.715C156.723 35.7653 156.731 35.7622 156.736 35.7566C156.742 35.751 156.745 35.7434 156.745 35.7355V30.1568Z" stroke="white" stroke-width="0.170213"/>
  <path d="M18.3302 1.15924C18.1458 1.19839 18.0136 1.22024 17.9336 1.22478C17.9257 1.22534 17.9217 1.2296 17.9217 1.23754C17.9217 1.24549 17.9254 1.24974 17.9328 1.25031C17.9833 1.25428 18.0335 1.25173 18.0834 1.24265C19.0695 1.06166 20.0618 1.00492 21.0604 1.07244C21.2979 1.08861 21.577 1.14222 21.8374 1.16605C21.8391 1.16605 21.8403 1.1652 21.8408 1.1635C21.8584 1.11073 21.8581 1.10988 21.84 1.16095C21.8394 1.16208 21.8386 1.16236 21.8374 1.1618C20.6902 0.823925 19.4953 0.909883 18.3302 1.15924Z" stroke="white" stroke-width="0.170213"/>
  <path d="M17.3396 2.32227C17.5552 2.39546 17.7489 2.40568 17.9208 2.35291C17.9254 2.35135 17.9295 2.34851 17.9325 2.34473C17.9356 2.34095 17.9375 2.33638 17.938 2.33155C17.9385 2.32673 17.9377 2.32186 17.9355 2.3175C17.9334 2.31314 17.9301 2.30948 17.9259 2.30695L17.7787 2.22185C17.7628 2.21277 17.7458 2.2105 17.7276 2.21504L17.3404 2.30951C17.3391 2.3099 17.3379 2.31069 17.337 2.31178C17.3361 2.31287 17.3356 2.3142 17.3355 2.31559C17.3354 2.31698 17.3358 2.31837 17.3365 2.31957C17.3372 2.32076 17.3383 2.32171 17.3396 2.32227Z" stroke="white" stroke-width="0.170213"/>
  <path d="M20.1492 2.75694C20.1242 2.7558 20.1205 2.76431 20.1381 2.78247C20.3815 3.03523 20.8649 2.91949 21.1713 2.86672C21.4198 2.82417 21.4195 2.79892 21.1704 2.79098L20.1492 2.75694Z" stroke="white" stroke-width="0.170213"/>
  <path d="M16.0649 3.01161C15.6467 2.94807 15.2492 3.00849 14.8725 3.19289C14.8715 3.19352 14.8708 3.19445 14.8704 3.19555C14.8701 3.19665 14.8701 3.19784 14.8705 3.19893C14.8709 3.20002 14.8716 3.20094 14.8726 3.20154C14.8736 3.20215 14.8748 3.2024 14.8759 3.20225C15.3287 3.09331 15.7014 3.04565 16.2436 3.038C16.2736 3.03743 16.2745 3.03175 16.2461 3.02097C16.2155 3.00906 16.1826 3.00594 16.1474 3.01161C16.1202 3.01558 16.0927 3.01558 16.0649 3.01161Z" stroke="white" stroke-width="0.170213"/>
  <path d="M14.9697 4.08459C14.2922 4.23523 13.8863 4.43778 13.7305 5.17565C13.7231 5.21026 13.7325 5.21565 13.7586 5.19182L14.9765 4.0982C14.9912 4.08459 14.989 4.08005 14.9697 4.08459Z" stroke="white" stroke-width="0.170213"/>
  <path d="M27.8355 4.34608C27.8334 4.34473 27.8308 4.34428 27.8283 4.34484C27.8258 4.3454 27.8237 4.34692 27.8223 4.34906C27.821 4.35121 27.8205 4.3538 27.8211 4.35627C27.8216 4.35875 27.8232 4.3609 27.8253 4.36225C28.2219 4.70778 28.6193 5.1597 29.09 5.40225C29.6818 5.7058 30.2571 6.02693 30.8159 6.36566C30.867 6.3963 30.8829 6.38353 30.8636 6.32736C30.7862 6.10693 30.6287 5.67459 30.4193 5.5597C29.6375 5.13076 28.7762 4.72622 27.8355 4.34608Z" stroke="white" stroke-width="0.170213"/>
  <path d="M9.26082 6.87719C9.24493 6.89251 9.23217 6.90783 9.22252 6.92315C9.2217 6.92452 9.22133 6.92611 9.22146 6.9277C9.22159 6.9293 9.22222 6.93081 9.22325 6.93203C9.22428 6.93324 9.22567 6.93411 9.22721 6.9345C9.22876 6.9349 9.23039 6.93479 9.23188 6.93421C9.8855 6.72996 10.6727 6.45081 11.1859 5.99379C11.671 5.5606 12.0574 4.97847 12.4668 4.43804C12.4872 4.41138 12.4832 4.40684 12.4549 4.42443C11.319 5.13251 10.2543 5.9501 9.26082 6.87719Z" stroke="white" stroke-width="0.170213"/>
  <path d="M17.6078 4.71228C16.7321 4.87058 16.0027 5.21526 15.2376 5.65696C15.2302 5.6615 15.2282 5.66746 15.2317 5.67483L15.2325 5.67568C15.2348 5.68079 15.2433 5.68079 15.258 5.67568C16.0529 5.38405 16.8365 5.06377 17.6087 4.71483C17.6144 4.71199 17.6141 4.71114 17.6078 4.71228Z" stroke="white" stroke-width="0.170213"/>
  <path d="M9.4658 11.9676C8.7858 12.8799 8.34835 13.9318 8.05218 15.022C7.67941 16.394 7.36962 17.7829 6.84111 19.108C6.80877 19.1891 6.79062 19.2734 6.78665 19.3608C6.72253 20.655 6.58551 21.9418 6.37558 23.2212C6.37048 23.2501 6.37899 23.2745 6.40111 23.2944C7.0709 23.8893 7.45643 24.5191 7.41984 25.4476C7.40055 25.9423 7.33048 26.4348 7.20962 26.925C7.20523 26.9433 7.20694 26.9624 7.21448 26.9795C7.22203 26.9966 7.23498 27.0107 7.25133 27.0195C8.01331 27.4337 8.7458 27.9026 9.44878 28.4263C10.562 29.2561 11.3296 30.3403 12.0352 31.5114C12.0493 31.5352 12.0695 31.5423 12.0956 31.5327C12.8318 31.2603 13.5696 31.0203 14.3637 30.9344C15.0701 30.8578 15.6567 31.0723 16.1237 31.5778C16.7688 32.2765 17.2062 33.1046 17.5884 33.9684C17.6139 34.0252 17.6545 34.0677 17.7101 34.0961C18.2292 34.3571 18.7206 34.6629 19.1841 35.0135C19.209 35.0323 19.2394 35.0424 19.2709 35.0425C19.8624 35.0391 20.5007 35.0757 21.0454 34.982C22.4139 34.7446 23.625 34.0093 24.9526 33.5616C25.7024 33.3089 26.4599 33.091 27.2062 32.8246C27.2936 32.7928 27.381 32.7228 27.4684 32.6144C27.7305 32.2867 28.0479 31.9812 28.0922 31.5974C28.183 30.8053 28.3481 30.0297 28.5875 29.2706C29.0675 27.7497 30.322 27.205 31.8028 26.9684C31.8311 26.9637 31.8577 26.9521 31.8803 26.9347C31.9029 26.9174 31.9207 26.8947 31.9322 26.8689C32.7628 24.9829 33.048 22.9591 33.779 21.034C33.842 20.8677 33.878 20.6969 33.8871 20.5216C33.985 18.6382 34.2403 17.1072 34.5552 14.9778C34.5645 14.9165 34.5569 14.8067 34.5228 14.7361C34.2579 14.1846 33.9549 13.6547 33.6139 13.1463C33.5697 13.0799 33.5376 13.0416 33.5177 13.0314C31.9177 12.1565 30.4684 11.2297 29.4241 9.68928C29.0692 9.16503 28.2641 9.0246 27.6803 9.03652C27.2457 9.04503 26.8111 9.05609 26.3765 9.06971C24.7586 9.12077 23.5867 8.51481 22.802 7.08588C22.4684 6.47822 22.137 5.86886 21.8079 5.25779C21.7228 5.09949 21.4701 4.95907 21.2633 4.95737C20.7024 4.95311 20.1092 4.92758 19.5833 5.02205C18.6752 5.1846 17.8028 5.57183 16.933 5.97183C15.9654 6.41609 14.7339 6.74034 13.6709 7.1029C13.6504 7.10981 13.6327 7.12334 13.6207 7.14136C13.6087 7.15938 13.603 7.18087 13.6045 7.20247C13.6476 7.83737 13.6542 8.4751 13.6241 9.11566C13.5929 9.77949 13.457 10.3659 13.2164 10.8748C12.9021 11.5392 12.3546 11.9035 11.5739 11.9676C10.8102 12.03 10.1302 12.0203 9.53388 11.9386C9.50551 11.9347 9.48282 11.9443 9.4658 11.9676Z" stroke="white" stroke-width="0.170213"/>
  <path d="M23.3177 5.08561C23.9415 5.44305 24.9424 5.57327 25.676 5.59625C25.798 5.60022 25.8008 5.58348 25.6845 5.54603C24.9157 5.29752 24.1291 5.13724 23.3245 5.06518C23.2905 5.06178 23.2882 5.06859 23.3177 5.08561Z" stroke="white" stroke-width="0.170213"/>
  <path d="M8.15758 8.25065C7.63928 8.44214 6.98992 10.0566 6.81034 10.5732C6.80787 10.5805 6.80699 10.5883 6.80777 10.596C6.80855 10.6037 6.81096 10.6111 6.81484 10.6178C6.81872 10.6244 6.82398 10.6301 6.83026 10.6344C6.83653 10.6388 6.84368 10.6417 6.85119 10.643L7.86907 10.8149C7.90402 10.8209 7.94 10.8164 7.97243 10.8018C8.00486 10.7873 8.03228 10.7634 8.05119 10.7332C8.4007 10.1749 8.77006 9.6359 9.15928 9.11618C9.97034 8.03363 10.9806 7.32725 12.1959 6.75363C12.3519 6.67987 12.5233 6.52072 12.7099 6.27618C12.7258 6.25576 12.7346 6.23306 12.7363 6.2081L12.7848 5.54937C12.7877 5.50795 12.7769 5.50398 12.7525 5.53746C11.9806 6.59873 11.2214 7.22512 9.95673 7.61661C9.62481 7.7193 9.0251 7.93065 8.15758 8.25065Z" stroke="white" stroke-width="0.170213"/>
  <path d="M23.2402 6.06449C23.681 6.89938 24.1976 7.77938 25.1729 8.05002C25.5389 8.15158 25.8146 8.20037 26.0002 8.1964C26.807 8.17853 27.6172 8.13683 28.4206 8.21513C28.4518 8.21796 28.4595 8.20576 28.4436 8.17853C28.0941 7.5703 27.8152 7.11073 27.607 6.79981C27.51 6.65513 27.3593 6.55385 27.1687 6.54959C25.8827 6.51981 24.5185 6.473 23.2589 6.04236C23.2339 6.03385 23.2277 6.04123 23.2402 6.06449Z" stroke="white" stroke-width="0.170213"/>
  <path d="M32.0615 7.25362C33.1559 8.15405 34.1117 9.09958 34.6674 10.4358C34.7003 10.514 34.7123 10.5109 34.7032 10.4264C34.6306 9.75064 34.4291 9.13107 34.0989 8.56767C33.6053 7.72426 32.6785 6.9983 31.8342 6.43065C31.8144 6.41703 31.807 6.42213 31.8121 6.44596L31.9338 7.04171C31.9514 7.12738 31.994 7.19802 32.0615 7.25362Z" stroke="white" stroke-width="0.170213"/>
  <path d="M12.4358 10.4531C12.7506 9.73136 12.7813 8.78498 12.737 8.02412C12.7348 7.98725 12.7231 7.98384 12.7021 8.01391C12.1064 8.8593 11.4746 9.67632 10.8068 10.465C10.6417 10.6599 10.4102 10.8641 10.2272 11.0803C10.2091 11.1019 10.2142 11.1141 10.2426 11.1169C10.7101 11.1674 11.1753 11.1535 11.6383 11.0752C12.0167 11.0111 12.2826 10.8037 12.4358 10.4531Z" stroke="white" stroke-width="0.170213"/>
  <path d="M1.19928 19.5917C1.61715 17.8495 2.63503 16.3015 3.90311 15.0087C4.07503 14.8342 4.08694 14.7449 4.08439 14.51C4.08326 14.4169 4.11758 14.241 4.18737 13.9823C4.43021 13.0773 4.67702 12.1761 4.9278 11.2785C4.93574 11.2495 4.92467 11.2331 4.8946 11.2291C4.30737 11.1451 3.72552 11.1034 3.14907 11.104C2.78481 11.1049 2.26141 11.0912 2.08609 11.4981C1.75673 12.2598 1.56098 13.1219 1.4129 13.9363C1.10992 15.5959 0.944245 17.2694 0.915876 18.9568C0.912472 19.1854 0.992188 19.4005 1.15503 19.6019C1.17659 19.6285 1.19134 19.6251 1.19928 19.5917Z" stroke="white" stroke-width="0.170213"/>
  <path d="M6.73064 11.5182C6.72303 11.5169 6.71526 11.5173 6.70781 11.5192C6.70037 11.5212 6.69342 11.5246 6.68741 11.5293C6.6814 11.534 6.67646 11.54 6.67292 11.5467C6.66937 11.5534 6.66729 11.5608 6.66681 11.5684L6.62256 12.193C6.62085 12.2231 6.63022 12.2271 6.65064 12.205L7.18511 11.6305C7.20781 11.6061 7.2027 11.5913 7.16979 11.5862L6.73064 11.5182Z" stroke="white" stroke-width="0.170213"/>
  <path d="M8.20889 12.242C7.70761 12.6676 7.46165 13.4633 7.2974 14.0854C7.08576 14.8866 6.88037 15.6923 6.68123 16.5025C6.67782 16.5161 6.68321 16.5246 6.6974 16.528L6.71867 16.534C6.72141 16.5346 6.72425 16.5347 6.72702 16.5342C6.72979 16.5337 6.73243 16.5327 6.73481 16.5312C6.73718 16.5297 6.73923 16.5277 6.74085 16.5254C6.74246 16.5231 6.7436 16.5205 6.7442 16.5178C7.10761 15.0386 7.47612 13.5944 8.2191 12.2506C8.23045 12.229 8.22704 12.2262 8.20889 12.242Z" stroke="white" stroke-width="0.170213"/>
  <path d="M36.2823 21.3449C36.7254 20.4479 37.0644 19.6238 37.2993 18.8726C37.402 18.5457 37.4451 18.3111 37.4286 18.1687C37.297 17.017 36.952 15.9406 36.3937 14.9398C36.3813 14.9177 36.3773 14.9191 36.3818 14.944C36.6116 16.3075 36.6133 17.7262 36.5946 19.1057C36.5861 19.7293 36.434 20.3602 36.1384 20.9985C36.1277 21.0216 36.1219 21.0466 36.1215 21.0719C36.121 21.0973 36.1259 21.1224 36.1359 21.1457L36.2176 21.3423C36.2374 21.3906 36.259 21.3914 36.2823 21.3449Z" stroke="white" stroke-width="0.170213"/>
  <path d="M37.5946 22.5506C38.5946 20.9565 39.118 19.142 38.438 17.3012C38.4323 17.2859 38.4275 17.2862 38.4235 17.302C38.4161 17.331 38.4119 17.3577 38.4107 17.382C38.3903 17.8893 38.3307 18.365 38.3282 18.8876C38.3225 20.1528 38.0709 21.3701 37.5733 22.5395C37.5705 22.5463 37.5722 22.5514 37.5784 22.5548H37.5792C37.5855 22.5582 37.5906 22.5568 37.5946 22.5506Z" stroke="white" stroke-width="0.170213"/>
  <path d="M3.06893 17.4716C2.49305 18.3471 2.1217 19.304 1.95489 20.3423C1.94978 20.374 1.96056 20.3996 1.98723 20.4188L2.30723 20.6452C2.33617 20.6657 2.35177 20.658 2.35404 20.6223C2.42212 19.5218 2.68085 18.4861 3.08766 17.4631C3.08879 17.4603 3.08737 17.4583 3.0834 17.4571C3.08113 17.4566 3.07943 17.456 3.0783 17.4554C3.07546 17.4543 3.07376 17.4552 3.07319 17.458C3.07262 17.4597 3.07234 17.4611 3.07234 17.4623C3.07177 17.4657 3.07064 17.4688 3.06893 17.4716Z" stroke="white" stroke-width="0.170213"/>
  <path d="M4.47423 18.459C4.03593 19.3612 3.60274 20.3118 3.33721 21.2786C3.33323 21.2928 3.33777 21.3039 3.35082 21.3118L4.06657 21.7348C4.06879 21.7362 4.07136 21.7369 4.07398 21.737C4.07661 21.737 4.07919 21.7363 4.08147 21.735C4.08374 21.7337 4.08561 21.7318 4.08689 21.7295C4.08816 21.7272 4.08879 21.7246 4.0887 21.722C4.08359 21.2548 4.05806 20.7475 4.1355 20.3067C4.21834 19.8346 4.3582 19.3787 4.55508 18.939C4.64785 18.7314 4.63423 18.579 4.60104 18.3663C4.59139 18.3067 4.56898 18.3013 4.5338 18.3501C4.52019 18.3682 4.50033 18.4046 4.47423 18.459Z" stroke="white" stroke-width="0.170213"/>
  <path d="M2.25981 22.7441C2.26151 22.7487 2.26293 22.7524 2.26407 22.7552C2.26422 22.7556 2.26444 22.7561 2.26469 22.7565C2.26494 22.7569 2.26522 22.7573 2.26549 22.7576C2.26576 22.7578 2.26601 22.758 2.26621 22.758C2.26641 22.7581 2.26655 22.758 2.26662 22.7578C2.24506 22.4332 2.26407 22.111 2.32364 21.791C2.32721 21.7731 2.32531 21.7546 2.31818 21.7377C2.31105 21.7209 2.29902 21.7065 2.28364 21.6965L2.00024 21.5101C1.9679 21.4891 1.95371 21.4976 1.95768 21.5356C2.00137 21.9544 2.10208 22.3572 2.25981 22.7441Z" stroke="white" stroke-width="0.170213"/>
  <path d="M3.98475 22.7166C3.77085 22.5895 3.55978 22.4627 3.35156 22.3361C3.34807 22.3339 3.34401 22.3328 3.33989 22.3329C3.33577 22.333 3.33175 22.3344 3.32832 22.3368C3.3249 22.3392 3.32221 22.3426 3.3206 22.3466C3.31898 22.3506 3.3185 22.3549 3.31922 22.3591C3.49 23.3185 3.81283 24.2229 4.28773 25.0723C4.29624 25.0871 4.29907 25.0862 4.29624 25.0697C4.17198 24.3583 4.10929 23.6363 4.10815 22.9038C4.10759 22.8278 4.06645 22.7654 3.98475 22.7166Z" stroke="white" stroke-width="0.170213"/>
  <path d="M33.9179 23.4997C33.6387 24.6605 33.3758 25.6767 32.9519 26.7406C32.9332 26.7871 32.9482 26.8041 32.997 26.7916L33.0311 26.7831C33.0776 26.7712 33.1091 26.7428 33.1255 26.698C33.4796 25.7159 33.677 24.7031 33.9468 23.7031C33.9604 23.652 33.9556 23.5842 33.9324 23.4997C33.9272 23.4804 33.9224 23.4804 33.9179 23.4997Z" stroke="white" stroke-width="0.170213"/>
  <path d="M6.47601 25.9104C6.47852 25.9156 6.48273 25.9198 6.48793 25.9223C6.49314 25.9248 6.49903 25.9254 6.50466 25.9242C6.51029 25.9229 6.51532 25.9197 6.51893 25.9152C6.52253 25.9107 6.5245 25.9051 6.52452 25.8993L6.53303 24.9504C6.53302 24.9466 6.53215 24.9428 6.53048 24.9393L6.25984 24.3887C6.2575 24.3837 6.25359 24.3795 6.24869 24.3769C6.24379 24.3743 6.23817 24.3733 6.23269 24.3742C6.22721 24.3751 6.22215 24.3777 6.2183 24.3817C6.21444 24.3857 6.212 24.3908 6.21133 24.3964L6.10154 25.1495C6.10095 25.1545 6.10184 25.1595 6.10409 25.164L6.47601 25.9104Z" stroke="white" stroke-width="0.170213"/>
  <path d="M33.6526 29.9858C33.9428 29.3067 34.016 28.5671 34.0415 27.8454C34.0438 27.7938 34.0273 27.7869 33.9921 27.825C33.6086 28.2408 33.2157 28.6553 32.8134 29.0684C32.6909 29.1935 32.5411 29.3824 32.4304 29.5594C32.0883 30.1086 31.7141 30.6349 31.3079 31.1382C30.6143 31.9986 29.7709 32.5969 28.7913 33.0939C28.751 33.1138 28.7255 33.1455 28.7147 33.1892L28.6253 33.5501C28.6157 33.5904 28.6256 33.596 28.6551 33.5671C29.57 32.6709 30.8568 32.316 32.0466 31.9118C32.3309 31.8147 32.6628 31.7535 32.8415 31.4803C33.1746 30.9696 33.4449 30.4715 33.6526 29.9858Z" stroke="white" stroke-width="0.170213"/>
  <path d="M31.1776 28.0192C29.9214 28.3128 29.4763 29.0864 29.2185 30.2694C29.2088 30.3148 29.2187 30.3196 29.2482 30.2838C29.7036 29.7417 30.1359 29.2243 30.6423 28.7247C30.7682 28.6004 30.9532 28.3749 31.1972 28.0481C31.2176 28.0209 31.2111 28.0112 31.1776 28.0192Z" stroke="white" stroke-width="0.170213"/>
  <path d="M10.3567 30.5879C9.78024 29.8021 9.09769 29.172 8.30904 28.6977C8.3087 28.6973 8.30824 28.6971 8.30776 28.6971C8.30728 28.6971 8.30682 28.6973 8.30648 28.6977C8.30614 28.698 8.30595 28.6985 8.30595 28.6989C8.30595 28.6994 8.30614 28.6999 8.30648 28.7002C8.50733 28.9802 8.70053 29.1972 8.98989 29.4236C9.46251 29.7941 9.915 30.185 10.3473 30.5964C10.3484 30.5976 10.3497 30.5984 10.3512 30.5985C10.3527 30.5986 10.3542 30.5981 10.3554 30.597C10.3566 30.5959 10.3574 30.5944 10.3576 30.5927C10.3578 30.591 10.3575 30.5893 10.3567 30.5879Z" stroke="white" stroke-width="0.170213"/>
  <path d="M6.3556 31.0043C6.67646 31.7992 7.29603 32.3967 8.00412 32.9482C8.00995 32.9527 8.01671 32.9559 8.02392 32.9575C8.03113 32.9591 8.03861 32.9591 8.04582 32.9575L8.65774 32.8103C8.65996 32.8098 8.662 32.8086 8.66359 32.807C8.66518 32.8053 8.66627 32.8033 8.66672 32.801C8.66716 32.7988 8.66696 32.7965 8.66612 32.7943C8.66528 32.7922 8.66385 32.7904 8.66199 32.789C7.77433 32.0631 6.9888 31.3209 6.40582 30.3558C6.39334 30.3348 6.38227 30.3357 6.37263 30.3584C6.27674 30.5797 6.27107 30.795 6.3556 31.0043Z" stroke="white" stroke-width="0.170213"/>
  <path d="M16.4563 33.6574C16.205 33.1592 15.9307 32.7155 15.6334 32.3263C15.302 31.8923 14.862 31.7229 14.3134 31.8182C13.7176 31.9215 13.1369 32.0846 12.5712 32.3076C12.5463 32.3172 12.5403 32.334 12.5534 32.3578C12.7417 32.7079 12.9275 33.0052 13.1108 33.2497C13.2044 33.3748 13.3261 33.4446 13.4938 33.4489C14.4776 33.4752 15.4674 33.5101 16.4359 33.6846C16.4614 33.6891 16.4682 33.6801 16.4563 33.6574Z" stroke="white" stroke-width="0.170213"/>
  <path d="M30.1658 33.5669C29.3071 33.9788 28.725 34.8027 28.2262 35.5584C28.2143 35.5771 28.2177 35.5805 28.2364 35.5686C29.3894 34.8407 30.4617 34.0089 31.4535 33.0733C31.4665 33.0608 31.4645 33.0574 31.4475 33.0631C31.0123 33.197 30.5851 33.3649 30.1658 33.5669Z" stroke="white" stroke-width="0.170213"/>
  <path d="M10.3269 34.4818C11.1287 34.9209 11.9729 35.3082 12.8189 35.6435C12.854 35.6571 12.8574 35.6511 12.8291 35.6256C12.4299 35.2665 12.0333 34.8282 11.5474 34.5805C10.8929 34.2486 10.3704 33.9277 9.83674 33.6231C9.80099 33.6026 9.78936 33.612 9.80184 33.6511C9.89546 33.9439 10.0435 34.3269 10.3269 34.4818Z" stroke="white" stroke-width="0.170213"/>
  <path d="M25.3576 34.321L23.0393 35.2674C23.0385 35.2679 23.0379 35.2687 23.0376 35.2696C23.0373 35.2706 23.0373 35.2716 23.0376 35.2725C23.0449 35.2912 23.082 35.2974 23.1468 35.291C23.2116 35.2845 23.3029 35.2655 23.4154 35.2349C23.5279 35.2043 23.6594 35.1628 23.8024 35.1127C23.9454 35.0626 24.097 35.005 24.2487 34.9431L24.2674 34.9355C24.4189 34.8736 24.5675 34.8088 24.7046 34.7445C24.8417 34.6803 24.9647 34.618 25.0665 34.5612C25.1683 34.5044 25.2469 34.4541 25.2979 34.4134C25.3489 34.3726 25.3712 34.3421 25.3636 34.3236C25.3634 34.323 25.3631 34.3224 25.3627 34.322C25.3623 34.3215 25.3618 34.3211 25.3612 34.3209C25.3606 34.3207 25.36 34.3205 25.3594 34.3206C25.3588 34.3206 25.3582 34.3207 25.3576 34.321Z" stroke="white" stroke-width="0.170213"/>
  <path d="M14.9621 34.4421C15.6191 34.6634 16.2926 34.8115 16.9825 34.8864C17.0097 34.8898 17.0222 34.8776 17.02 34.8498C17.0143 34.7874 16.9828 34.7471 16.9255 34.7289C16.273 34.519 15.6205 34.4118 14.968 34.4072C14.8926 34.4067 14.8906 34.4183 14.9621 34.4421Z" stroke="white" stroke-width="0.170213"/>
  <path d="M24.9815 37.0035C25.8351 36.9967 26.424 36.4043 26.9355 35.8077C26.9747 35.7618 26.967 35.7516 26.9125 35.7771C26.2385 36.098 25.5781 36.5558 24.9696 36.9677C24.9332 36.9921 24.9372 37.0041 24.9815 37.0035Z" stroke="white" stroke-width="0.170213"/>
  <path d="M23.9679 36.0478L22.5134 36.5125C22.4493 36.5329 22.4507 36.5482 22.5177 36.5585C22.63 36.5763 22.8377 36.6751 22.9577 36.6163C23.3179 36.4404 23.6561 36.2538 23.9721 36.0563C23.9931 36.0433 23.9917 36.0404 23.9679 36.0478Z" stroke="white" stroke-width="0.170213"/>
  <path d="M20.5001 37.239C20.5086 37.243 20.5165 37.2447 20.5239 37.2441C20.5455 37.243 20.5492 37.2345 20.535 37.2186C20.2907 36.9394 19.6465 37.1071 19.3145 37.1565C19.3106 37.157 19.3106 37.1576 19.3145 37.1582C19.392 37.1692 19.4567 37.2007 19.5324 37.205C19.8462 37.2248 20.1602 37.2342 20.4745 37.2331C20.4836 37.2331 20.4921 37.235 20.5001 37.239Z" stroke="white" stroke-width="0.170213"/>
  <path d="M20.8274 39.0181C20.7831 39.0266 20.7383 39.0308 20.6929 39.0308C20.6918 39.0308 20.6912 39.0308 20.6912 39.0308C20.6918 39.0291 20.6926 39.0283 20.6938 39.0283C21.3372 39.0802 22.1227 38.8972 22.7491 38.7602C22.7803 38.7534 22.78 38.7491 22.7482 38.7474C22.5457 38.7355 22.3048 38.7994 22.1576 38.8164C21.7122 38.868 21.2688 38.9352 20.8274 39.0181Z" stroke="white" stroke-width="0.170213"/>
  <path d="M19.9413 39.0249C19.942 39.0206 19.9286 39.014 19.902 39.0055C19.8753 38.9969 19.8359 38.9866 19.7859 38.9751C19.7359 38.9636 19.6763 38.9512 19.6106 38.9385C19.5449 38.9258 19.4743 38.9131 19.4028 38.9012C19.3314 38.8892 19.2605 38.8782 19.1942 38.8688C19.128 38.8594 19.0676 38.8518 19.0166 38.8464C18.9656 38.841 18.9249 38.8379 18.8969 38.8373C18.8689 38.8367 18.8541 38.8386 18.8534 38.8429C18.8527 38.8472 18.866 38.8538 18.8927 38.8623C18.9194 38.8709 18.9588 38.8812 19.0088 38.8927C19.0588 38.9042 19.1184 38.9166 19.1841 38.9293C19.2498 38.942 19.3204 38.9547 19.3919 38.9666C19.4633 38.9786 19.5342 38.9896 19.6005 38.999C19.6667 39.0084 19.7271 39.016 19.7781 39.0214C19.8291 39.0268 19.8698 39.0299 19.8978 39.0305C19.9258 39.0311 19.9406 39.0292 19.9413 39.0249Z" stroke="white" stroke-width="0.170213"/>
  <path d="M109.055 9.72658C108.804 6.93509 106.096 5.03721 103.405 5.34019C100.969 5.61509 99.3416 7.36913 99.0003 9.73764C98.9998 9.74106 99 9.74454 99.001 9.74784C99.0019 9.75115 99.0035 9.75421 99.0057 9.7568C99.0079 9.75939 99.0106 9.76145 99.0136 9.76284C99.0167 9.76424 99.02 9.76493 99.0233 9.76487H109.02C109.045 9.76487 109.057 9.75211 109.055 9.72658Z" stroke="white" stroke-width="0.170213"/>
  <path d="M77.4589 5.78048C77.4567 5.7754 77.4529 5.77109 77.4483 5.76806C77.4436 5.76504 77.4381 5.76343 77.4326 5.76343C77.427 5.76343 77.4215 5.76504 77.4169 5.76806C77.4122 5.77109 77.4085 5.7754 77.4062 5.78048L74.6436 12.166C74.6407 12.1729 74.6406 12.1807 74.6433 12.1877C74.646 12.1946 74.6513 12.2003 74.6581 12.2035L77.4811 13.5243C77.4848 13.526 77.4889 13.5269 77.493 13.5269C77.4971 13.5269 77.5012 13.526 77.5049 13.5243L80.2079 12.2452C80.2147 12.242 80.22 12.2363 80.2227 12.2294C80.2254 12.2224 80.2252 12.2146 80.2223 12.2077L77.4589 5.78048Z" stroke="white" stroke-width="0.170213"/>
  <path d="M57.4853 30.5559C57.4838 30.5604 57.4834 30.5653 57.4841 30.57C57.4849 30.5747 57.4868 30.5791 57.4896 30.583C57.4924 30.5868 57.4962 30.5899 57.5004 30.592C57.5047 30.5941 57.5094 30.5952 57.5142 30.595H63.8946C63.8993 30.5951 63.9039 30.5941 63.9081 30.592C63.9123 30.59 63.916 30.5869 63.9188 30.5832C63.9216 30.5795 63.9235 30.5752 63.9243 30.5706C63.9252 30.566 63.9249 30.5612 63.9236 30.5567L61.6802 23.361C61.6783 23.3548 61.6745 23.3494 61.6693 23.3455C61.6641 23.3417 61.6577 23.3396 61.6512 23.3397H59.778C59.7717 23.3396 59.7654 23.3415 59.7602 23.3452C59.755 23.3488 59.7511 23.3541 59.7491 23.3602L57.4853 30.5559Z" stroke="white" stroke-width="0.170213"/>
  <path d="M87.1019 30.561C87.1007 30.5649 87.1005 30.569 87.1011 30.573C87.1018 30.577 87.1034 30.5809 87.1058 30.5842C87.1082 30.5874 87.1113 30.5901 87.1149 30.592C87.1185 30.5939 87.1225 30.595 87.1266 30.595H93.5172C93.5213 30.595 93.5253 30.5939 93.5289 30.592C93.5325 30.5901 93.5356 30.5874 93.538 30.5842C93.5404 30.5809 93.542 30.577 93.5427 30.573C93.5434 30.569 93.5431 30.5649 93.5419 30.561L91.2968 23.3584C91.2951 23.353 91.2918 23.3482 91.2872 23.3448C91.2826 23.3415 91.277 23.3397 91.2713 23.3397H89.3921C89.3864 23.3397 89.3808 23.3415 89.3762 23.3448C89.3716 23.3482 89.3683 23.353 89.3666 23.3584L87.1019 30.561Z" stroke="white" stroke-width="0.170213"/>
  <path d="M107.167 23.9471C106.429 23.6101 105.721 23.4385 105.042 23.4322C103.962 23.422 102.884 23.42 101.808 23.4263C101.802 23.4263 101.797 23.4285 101.793 23.4325C101.789 23.4365 101.787 23.4419 101.787 23.4476L101.785 33.7429C101.785 33.7544 101.789 33.7654 101.798 33.7736C101.806 33.7817 101.817 33.7863 101.828 33.7863C102.703 33.788 103.583 33.7871 104.468 33.7837C105.91 33.7786 107.31 33.4714 108.397 32.4714C109.849 31.1369 110.213 28.9829 109.762 27.108C109.406 25.6288 108.541 24.5752 107.167 23.9471Z" stroke="white" stroke-width="0.170213"/>
  <path d="M5.26082 10.338C5.397 9.9857 5.55246 9.64215 5.72721 9.3074C5.81458 9.14003 5.88239 8.9718 5.93061 8.80272C6.13317 8.08442 6.36806 7.4274 6.77742 6.80357C7.01061 6.4484 7.36806 6.04754 7.84976 5.60102C9.93743 3.66315 12.5127 1.97719 15.2353 1.09123C15.6293 0.963572 16.043 0.926977 16.4157 0.790806C17.635 0.345984 18.816 0.103431 19.9587 0.0631469C21.9945 -0.00834249 23.5204 0.766977 25.0489 2.03932C25.1477 2.12102 25.2586 2.17861 25.3817 2.21208C27.094 2.67336 28.7079 3.36556 30.2234 4.28868C30.6728 4.56272 31.0711 4.91591 31.5068 5.17464C32.3738 5.68925 33.1811 6.28613 33.9289 6.96527C35.443 8.34059 35.7306 10.2623 35.6779 12.2036C35.6767 12.2501 35.6898 12.2918 35.717 12.3287C35.9758 12.6802 36.2141 13.0027 36.5494 13.3091C37.6787 14.3414 38.746 15.5738 39.2745 17.0172C40.2651 19.727 39.0685 22.3253 37.3196 24.3891C37.3014 24.4112 37.294 24.4362 37.2975 24.464C37.4158 25.3823 37.1485 26.3636 36.3043 26.8487C36.2881 26.8581 36.274 26.8707 36.2627 26.8856C36.2515 26.9005 36.2433 26.9174 36.2387 26.9355C35.9128 28.2104 35.557 29.5236 34.9426 30.6989C34.8631 30.8515 34.8021 31.001 34.7596 31.1474C34.546 31.881 34.3179 32.5576 33.8975 33.1942C33.6523 33.5658 33.2739 33.9863 32.7621 34.4555C30.6396 36.4036 28.0277 38.098 25.2608 38.9644C24.9894 39.0495 24.6898 39.0546 24.4174 39.1525C23.0098 39.6555 21.5306 39.9823 20.0855 39.9372C18.4166 39.8844 16.8047 39.0291 15.5468 37.8785C15.4345 37.7763 15.1698 37.7644 15.0438 37.7278C13.5471 37.2926 12.1227 36.687 10.7706 35.9108C10.4688 35.7378 10.1794 35.5471 9.90253 35.3389C9.61033 35.1188 9.35189 34.9403 9.12721 34.8036C8.68352 34.5329 8.25147 34.2447 7.83104 33.9389C7.80889 33.9228 7.78246 33.9139 7.7553 33.9134C7.56721 33.9083 7.36125 33.9397 7.2004 33.9338C5.56976 33.8674 5.19529 32.5048 5.34508 31.1329C5.35926 31.0002 5.34848 30.8714 5.31274 30.7465C5.03019 29.7678 4.9621 28.7576 4.97912 27.744C4.97913 27.7163 4.9705 27.6892 4.95444 27.6665C4.68125 27.2929 4.43189 26.9712 4.07274 26.6427C2.54337 25.247 1.25486 23.5763 1.07784 21.4674C1.05969 21.2518 1.04522 21.0365 1.03444 20.8214C1.03273 20.7919 1.0211 20.7675 0.999543 20.7483C0.352734 20.1678 0.0293294 19.6606 0.0454996 18.7653C0.0889039 16.304 0.369755 13.658 1.19869 11.3236C1.5655 10.2921 2.45571 10.2155 3.40465 10.2095C3.72238 10.2078 4.31955 10.2634 5.19614 10.3763C5.22792 10.3803 5.24948 10.3675 5.26082 10.338ZM18.3306 1.16017C18.1462 1.19932 18.014 1.22116 17.934 1.2257C17.9261 1.22627 17.9221 1.23052 17.9221 1.23847C17.9221 1.24641 17.9258 1.25066 17.9332 1.25123C17.9837 1.2552 18.0339 1.25265 18.0838 1.24357C19.0699 1.06258 20.0623 1.00584 21.0608 1.07336C21.2983 1.08953 21.5774 1.14315 21.8379 1.16698C21.8396 1.16698 21.8407 1.16613 21.8413 1.16442C21.8589 1.11166 21.8586 1.11081 21.8404 1.16187C21.8398 1.163 21.839 1.16329 21.8379 1.16272C20.6906 0.824849 19.4957 0.910806 18.3306 1.16017ZM17.34 2.32357C17.5556 2.39676 17.7493 2.40698 17.9213 2.35421C17.9259 2.35265 17.9299 2.34981 17.933 2.34603C17.936 2.34225 17.9379 2.33768 17.9384 2.33286C17.939 2.32803 17.9381 2.32316 17.936 2.3188C17.9338 2.31444 17.9305 2.31078 17.9264 2.30825L17.7791 2.22315C17.7633 2.21407 17.7462 2.2118 17.7281 2.21634L17.3408 2.31081C17.3395 2.3112 17.3383 2.31199 17.3374 2.31308C17.3366 2.31417 17.336 2.3155 17.3359 2.31689C17.3359 2.31829 17.3362 2.31967 17.3369 2.32087C17.3376 2.32206 17.3387 2.32301 17.34 2.32357ZM20.1494 2.75762C20.1244 2.75648 20.1207 2.76499 20.1383 2.78315C20.3817 3.03591 20.8651 2.92017 21.1715 2.8674C21.42 2.82485 21.4197 2.7996 21.1706 2.79166L20.1494 2.75762ZM16.0651 3.01208C15.6469 2.94854 15.2495 3.00896 14.8728 3.19336C14.8718 3.19399 14.871 3.19492 14.8707 3.19602C14.8703 3.19712 14.8703 3.19831 14.8707 3.1994C14.8711 3.20049 14.8719 3.20141 14.8729 3.20201C14.8738 3.20262 14.875 3.20287 14.8762 3.20272C15.3289 3.09379 15.7017 3.04613 16.2438 3.03847C16.2739 3.0379 16.2747 3.03222 16.2464 3.02144C16.2157 3.00953 16.1828 3.00641 16.1476 3.01208C16.1204 3.01605 16.0929 3.01605 16.0651 3.01208ZM14.9698 4.08527C14.2923 4.23591 13.8864 4.43847 13.7306 5.17634C13.7232 5.21095 13.7326 5.21634 13.7587 5.19251L14.9766 4.09889C14.9913 4.08527 14.9891 4.08074 14.9698 4.08527ZM27.8353 4.34655C27.8332 4.3452 27.8306 4.34475 27.8281 4.34531C27.8256 4.34587 27.8235 4.34739 27.8221 4.34953C27.8208 4.35167 27.8203 4.35427 27.8209 4.35674C27.8214 4.35922 27.823 4.36137 27.8251 4.36272C28.2217 4.70825 28.6191 5.16017 29.0898 5.40272C29.6816 5.70627 30.2569 6.0274 30.8157 6.36613C30.8668 6.39676 30.8827 6.384 30.8634 6.32783C30.786 6.1074 30.6285 5.67506 30.4191 5.56017C29.6373 5.13123 28.776 4.72669 27.8353 4.34655ZM9.26083 6.87761C9.24494 6.89293 9.23218 6.90825 9.22253 6.92357C9.22171 6.92494 9.22134 6.92654 9.22147 6.92813C9.2216 6.92972 9.22223 6.93123 9.22326 6.93245C9.22429 6.93367 9.22568 6.93453 9.22723 6.93493C9.22877 6.93532 9.23041 6.93522 9.23189 6.93464C9.88551 6.73038 10.6727 6.45123 11.1859 5.99421C11.671 5.56102 12.0574 4.97889 12.4668 4.43847C12.4872 4.4118 12.4832 4.40726 12.4549 4.42485C11.319 5.13293 10.2543 5.95052 9.26083 6.87761ZM17.6081 4.71336C16.7323 4.87166 16.003 5.21634 15.2379 5.65804C15.2305 5.66258 15.2285 5.66854 15.2319 5.67591L15.2327 5.67676C15.235 5.68187 15.2435 5.68187 15.2583 5.67676C16.0532 5.38513 16.8367 5.06485 17.6089 4.71591C17.6146 4.71308 17.6143 4.71222 17.6081 4.71336ZM9.46594 11.9687C8.78594 12.881 8.34849 13.9329 8.05232 15.0231C7.67955 16.3951 7.36976 17.784 6.84125 19.1091C6.80891 19.1902 6.79076 19.2745 6.78678 19.3619C6.72267 20.6561 6.58565 21.9429 6.37572 23.2223C6.37061 23.2512 6.37912 23.2756 6.40125 23.2955C7.07104 23.8904 7.45657 24.5202 7.41998 25.4487C7.40069 25.9434 7.33061 26.4359 7.20976 26.9261C7.20537 26.9444 7.20708 26.9635 7.21462 26.9806C7.22216 26.9977 7.23512 27.0118 7.25146 27.0206C8.01345 27.4348 8.74593 27.9037 9.44891 28.4274C10.5621 29.2572 11.3298 30.3414 12.0353 31.5125C12.0495 31.5363 12.0696 31.5434 12.0957 31.5338C12.8319 31.2614 13.5698 31.0214 14.3638 30.9355C15.0702 30.8589 15.6569 31.0734 16.1238 31.5789C16.7689 32.2776 17.2064 33.1057 17.5885 33.9695C17.614 34.0263 17.6546 34.0688 17.7102 34.0972C18.2293 34.3582 18.7207 34.664 19.1842 35.0146C19.2091 35.0334 19.2396 35.0435 19.2711 35.0436C19.8625 35.0402 20.5008 35.0768 21.0455 34.9831C22.414 34.7457 23.6251 34.0104 24.9528 33.5627C25.7025 33.31 26.46 33.0921 27.2064 32.8257C27.2938 32.7939 27.3811 32.7239 27.4685 32.6155C27.7306 32.2878 28.0481 31.9823 28.0923 31.5985C28.1831 30.8064 28.3482 30.0308 28.5877 29.2717C29.0677 27.7508 30.3221 27.2061 31.803 26.9695C31.8313 26.9648 31.8579 26.9532 31.8804 26.9358C31.903 26.9185 31.9208 26.8958 31.9323 26.87C32.763 24.984 33.0481 22.9602 33.7792 21.0351C33.8421 20.8688 33.8782 20.698 33.8872 20.5227C33.9851 18.6393 34.2404 17.1083 34.5553 14.9789C34.5647 14.9176 34.557 14.8078 34.523 14.7372C34.258 14.1857 33.955 13.6558 33.614 13.1474C33.5698 13.081 33.5377 13.0427 33.5179 13.0325C31.9179 12.1576 30.4685 11.2308 29.4243 9.69038C29.0694 9.16613 28.2643 9.0257 27.6804 9.03761C27.2458 9.04613 26.8112 9.05719 26.3766 9.07081C24.7587 9.12187 23.5868 8.51591 22.8021 7.08698C22.4685 6.47932 22.1372 5.86996 21.8081 5.25889C21.723 5.10059 21.4702 4.96017 21.2634 4.95847C20.7025 4.95421 20.1094 4.92868 19.5834 5.02315C18.6753 5.1857 17.803 5.57293 16.9332 5.97293C15.9655 6.41719 14.734 6.74144 13.671 7.104C13.6505 7.11091 13.6329 7.12444 13.6209 7.14246C13.6089 7.16048 13.6032 7.18197 13.6047 7.20357C13.6478 7.83847 13.6543 8.4762 13.6242 9.11676C13.593 9.78059 13.4571 10.367 13.2166 10.8759C12.9023 11.5403 12.3547 11.9046 11.574 11.9687C10.8103 12.0311 10.1303 12.0214 9.53402 11.9397C9.50565 11.9358 9.48296 11.9454 9.46594 11.9687ZM23.3179 5.08698C23.9417 5.44442 24.9425 5.57464 25.6762 5.59761C25.7982 5.60159 25.801 5.58485 25.6847 5.5474C24.9159 5.29889 24.1292 5.13861 23.3247 5.06655C23.2906 5.06315 23.2884 5.06996 23.3179 5.08698ZM8.15785 8.25123C7.63955 8.44272 6.99019 10.0572 6.81061 10.5738C6.80814 10.5811 6.80727 10.5889 6.80804 10.5966C6.80882 10.6043 6.81123 10.6117 6.81511 10.6183C6.819 10.625 6.82426 10.6307 6.83053 10.635C6.83681 10.6394 6.84395 10.6423 6.85146 10.6436L7.86934 10.8155C7.90429 10.8215 7.94027 10.817 7.9727 10.8024C8.00514 10.7879 8.03255 10.764 8.05147 10.7338C8.40097 10.1755 8.77033 9.63648 9.15955 9.11676C9.97062 8.03421 10.9808 7.32783 12.1962 6.75421C12.3522 6.68045 12.5235 6.5213 12.7102 6.27676C12.7261 6.25634 12.7349 6.23364 12.7366 6.20868L12.7851 5.54996C12.7879 5.50854 12.7771 5.50457 12.7527 5.53804C11.9808 6.59932 11.2217 7.2257 9.957 7.61719C9.62508 7.71988 9.02537 7.93123 8.15785 8.25123ZM23.2404 6.06485C23.6813 6.89974 24.1979 7.77974 25.1732 8.05038C25.5391 8.15194 25.8149 8.20074 26.0004 8.19676C26.8072 8.17889 27.6174 8.13719 28.4208 8.21549C28.4521 8.21832 28.4597 8.20613 28.4438 8.17889C28.0943 7.57066 27.8155 7.11109 27.6072 6.80017C27.5102 6.65549 27.3596 6.55421 27.1689 6.54995C25.883 6.52017 24.5187 6.47336 23.2591 6.04272C23.2342 6.03421 23.2279 6.04159 23.2404 6.06485ZM32.0617 7.25464C33.1562 8.15506 34.1119 9.10059 34.6677 10.4368C34.7006 10.5151 34.7125 10.5119 34.7034 10.4274C34.6308 9.75166 34.4294 9.13208 34.0992 8.56868C33.6055 7.72527 32.6787 6.99932 31.8345 6.43166C31.8146 6.41804 31.8072 6.42315 31.8123 6.44698L31.934 7.04272C31.9516 7.1284 31.9942 7.19903 32.0617 7.25464ZM12.4362 10.4538C12.751 9.73208 12.7817 8.7857 12.7374 8.02485C12.7352 7.98797 12.7235 7.98456 12.7025 8.01464C12.1068 8.86003 11.475 9.67705 10.8072 10.4657C10.6421 10.6606 10.4106 10.8648 10.2276 11.081C10.2095 11.1026 10.2146 11.1148 10.243 11.1176C10.7105 11.1681 11.1757 11.1542 11.6387 11.0759C12.0171 11.0118 12.283 10.8044 12.4362 10.4538ZM1.19954 19.5925C1.61742 17.8504 2.63529 16.3023 3.90338 15.0095C4.07529 14.8351 4.08721 14.7457 4.08465 14.5108C4.08352 14.4178 4.11784 14.2419 4.18763 13.9831C4.43047 13.0782 4.67728 12.1769 4.92806 11.2793C4.936 11.2504 4.92494 11.2339 4.89487 11.23C4.30763 11.146 3.72579 11.1043 3.14933 11.1048C2.78508 11.1057 2.26167 11.0921 2.08635 11.4989C1.75699 12.2606 1.56125 13.1227 1.41316 13.9372C1.11018 15.5968 0.944508 17.2702 0.916139 18.9576C0.912735 19.1863 0.992451 19.4013 1.15529 19.6027C1.17685 19.6294 1.1916 19.626 1.19954 19.5925ZM6.73061 11.5185C6.723 11.5173 6.71523 11.5176 6.70778 11.5195C6.70034 11.5215 6.69339 11.5249 6.68738 11.5296C6.68137 11.5344 6.67643 11.5403 6.67289 11.547C6.66934 11.5537 6.66726 11.5611 6.66678 11.5687L6.62253 12.1934C6.62083 12.2234 6.63019 12.2274 6.65061 12.2053L7.18508 11.6308C7.20778 11.6064 7.20267 11.5917 7.16976 11.5865L6.73061 11.5185ZM8.20891 12.2427C7.70764 12.6683 7.46168 13.464 7.29742 14.0861C7.08579 14.8873 6.8804 15.6929 6.68125 16.5031C6.67785 16.5168 6.68324 16.5253 6.69742 16.5287L6.7187 16.5346C6.72144 16.5353 6.72427 16.5353 6.72704 16.5349C6.72981 16.5344 6.73246 16.5334 6.73483 16.5319C6.73721 16.5304 6.73926 16.5284 6.74087 16.5261C6.74249 16.5238 6.74363 16.5212 6.74423 16.5185C7.10764 15.0393 7.47615 13.5951 8.21913 12.2512C8.23047 12.2297 8.22707 12.2268 8.20891 12.2427ZM36.2821 21.3457C36.7253 20.4487 37.0643 19.6246 37.2992 18.8734C37.4019 18.5465 37.445 18.3119 37.4285 18.1695C37.2969 17.0178 36.9519 15.9414 36.3936 14.9406C36.3811 14.9185 36.3772 14.9199 36.3817 14.9448C36.6115 16.3083 36.6132 17.727 36.5945 19.1066C36.586 19.7301 36.4339 20.361 36.1383 20.9993C36.1276 21.0224 36.1218 21.0474 36.1214 21.0727C36.1209 21.0981 36.1258 21.1233 36.1357 21.1465L36.2175 21.3431C36.2373 21.3914 36.2589 21.3922 36.2821 21.3457ZM37.5953 22.5517C38.5953 20.9576 39.1187 19.1431 38.4387 17.3023C38.4331 17.287 38.4282 17.2873 38.4243 17.3031C38.4169 17.3321 38.4126 17.3587 38.4115 17.3831C38.3911 17.8904 38.3315 18.3661 38.3289 18.8887C38.3233 20.1539 38.0716 21.3712 37.5741 22.5406C37.5712 22.5474 37.5729 22.5525 37.5792 22.5559H37.58C37.5863 22.5593 37.5914 22.5579 37.5953 22.5517ZM3.06933 17.4725C2.49345 18.348 2.1221 19.3048 1.95529 20.3431C1.95018 20.3749 1.96096 20.4004 1.98763 20.4197L2.30763 20.6461C2.33657 20.6665 2.35217 20.6589 2.35444 20.6231C2.42252 19.5227 2.68125 18.487 3.08806 17.464C3.08919 17.4612 3.08777 17.4592 3.0838 17.458C3.08153 17.4575 3.07983 17.4569 3.07869 17.4563C3.07586 17.4552 3.07416 17.4561 3.07359 17.4589C3.07302 17.4606 3.07274 17.462 3.07274 17.4631C3.07217 17.4666 3.07103 17.4697 3.06933 17.4725ZM4.47444 18.4597C4.03614 19.3619 3.60295 20.3125 3.33742 21.2793C3.33345 21.2935 3.33799 21.3046 3.35104 21.3125L4.06678 21.7355C4.06901 21.7369 4.07157 21.7376 4.07419 21.7377C4.07682 21.7377 4.0794 21.7371 4.08168 21.7358C4.08395 21.7344 4.08583 21.7325 4.0871 21.7302C4.08837 21.7279 4.089 21.7253 4.08891 21.7227C4.0838 21.2555 4.05827 20.7483 4.13572 20.3074C4.21855 19.8353 4.35841 19.3795 4.55529 18.9397C4.64806 18.7321 4.63444 18.5797 4.60125 18.367C4.5916 18.3074 4.56919 18.302 4.53402 18.3508C4.5204 18.369 4.50054 18.4053 4.47444 18.4597ZM2.25997 22.7448C2.26167 22.7494 2.26309 22.7531 2.26423 22.7559C2.26438 22.7563 2.2646 22.7568 2.26485 22.7572C2.2651 22.7576 2.26538 22.758 2.26565 22.7583C2.26592 22.7585 2.26617 22.7587 2.26637 22.7587C2.26657 22.7588 2.26671 22.7587 2.26678 22.7585C2.24522 22.4339 2.26423 22.1117 2.3238 21.7917C2.32737 21.7738 2.32547 21.7553 2.31834 21.7384C2.31121 21.7216 2.29918 21.7072 2.2838 21.6972L2.0004 21.5108C1.96805 21.4898 1.95387 21.4983 1.95784 21.5363C2.00153 21.9551 2.10224 22.3579 2.25997 22.7448ZM3.98508 22.7168C3.77118 22.5897 3.56011 22.4629 3.35189 22.3363C3.3484 22.3341 3.34434 22.333 3.34022 22.3331C3.3361 22.3332 3.33208 22.3346 3.32865 22.337C3.32523 22.3394 3.32254 22.3428 3.32093 22.3468C3.31931 22.3508 3.31883 22.3551 3.31955 22.3593C3.49033 23.3188 3.81316 24.2231 4.28806 25.0725C4.29657 25.0873 4.29941 25.0864 4.29657 25.07C4.17231 24.3585 4.10962 23.6365 4.10848 22.904C4.10792 22.828 4.06678 22.7656 3.98508 22.7168ZM33.9179 23.4997C33.6387 24.6606 33.3757 25.6768 32.9519 26.7406C32.9332 26.7871 32.9482 26.8041 32.997 26.7917L33.0311 26.7831C33.0776 26.7712 33.1091 26.7429 33.1255 26.698C33.4796 25.7159 33.677 24.7031 33.9468 23.7031C33.9604 23.6521 33.9556 23.5843 33.9323 23.4997C33.9272 23.4805 33.9224 23.4805 33.9179 23.4997ZM6.47614 25.9108C6.47866 25.916 6.48287 25.9202 6.48807 25.9227C6.49327 25.9252 6.49917 25.9259 6.5048 25.9246C6.51043 25.9233 6.51546 25.9201 6.51906 25.9156C6.52267 25.9111 6.52464 25.9055 6.52466 25.8997L6.53317 24.9508C6.53316 24.947 6.53228 24.9432 6.53061 24.9397L6.25997 24.3891C6.25764 24.3841 6.25373 24.3799 6.24883 24.3773C6.24393 24.3747 6.23831 24.3738 6.23283 24.3746C6.22734 24.3755 6.22229 24.3781 6.21844 24.3821C6.21458 24.3861 6.21213 24.3913 6.21146 24.3968L6.10168 25.15C6.10109 25.1549 6.10198 25.16 6.10423 25.1644L6.47614 25.9108ZM33.6532 29.9866C33.9434 29.3074 34.0166 28.5678 34.0421 27.8461C34.0444 27.7945 34.0279 27.7877 33.9928 27.8257C33.6092 28.2416 33.2163 28.6561 32.814 29.0691C32.6915 29.1942 32.5417 29.3831 32.4311 29.5602C32.0889 30.1094 31.7148 30.6356 31.3085 31.1389C30.6149 31.9993 29.7715 32.5976 28.7919 33.0946C28.7516 33.1145 28.7261 33.1463 28.7153 33.19L28.626 33.5508C28.6163 33.5911 28.6262 33.5968 28.6557 33.5678C29.5706 32.6717 30.8574 32.3168 32.0472 31.9125C32.3315 31.8155 32.6634 31.7542 32.8421 31.481C33.1752 30.9704 33.4455 30.4722 33.6532 29.9866ZM31.1774 28.0197C29.9213 28.3134 29.4762 29.087 29.2183 30.27C29.2087 30.3153 29.2186 30.3202 29.2481 30.2844C29.7034 29.7423 30.1357 29.2248 30.6421 28.7253C30.7681 28.601 30.9531 28.3755 31.197 28.0487C31.2174 28.0214 31.2109 28.0118 31.1774 28.0197ZM10.357 30.5891C9.78055 29.8033 9.09799 29.1732 8.30934 28.6989C8.309 28.6986 8.30854 28.6984 8.30806 28.6984C8.30758 28.6984 8.30712 28.6986 8.30679 28.6989C8.30645 28.6992 8.30626 28.6997 8.30626 28.7002C8.30626 28.7006 8.30645 28.7011 8.30679 28.7014C8.50764 28.9814 8.70083 29.1985 8.99019 29.4248C9.46282 29.7953 9.9153 30.1863 10.3476 30.5976C10.3487 30.5989 10.35 30.5996 10.3515 30.5997C10.353 30.5998 10.3545 30.5993 10.3557 30.5982C10.3569 30.5972 10.3577 30.5956 10.3579 30.5939C10.3581 30.5922 10.3578 30.5905 10.357 30.5891ZM6.35529 31.0044C6.67615 31.7993 7.29572 32.3968 8.00381 32.9483C8.00964 32.9528 8.0164 32.956 8.02361 32.9576C8.03082 32.9592 8.0383 32.9592 8.04551 32.9576L8.65742 32.8104C8.65965 32.8099 8.66168 32.8087 8.66328 32.8071C8.66487 32.8054 8.66596 32.8034 8.6664 32.8011C8.66685 32.7989 8.66665 32.7965 8.66581 32.7944C8.66497 32.7923 8.66354 32.7904 8.66168 32.7891C7.77402 32.0631 6.98849 31.321 6.40551 30.3559C6.39302 30.3349 6.38196 30.3358 6.37232 30.3585C6.27643 30.5797 6.27075 30.7951 6.35529 31.0044ZM16.4566 33.658C16.2052 33.1599 15.9309 32.7162 15.6336 32.327C15.3023 31.8929 14.8623 31.7236 14.3136 31.8189C13.7179 31.9222 13.1371 32.0853 12.5715 32.3083C12.5465 32.3179 12.5405 32.3346 12.5536 32.3585C12.742 32.7085 12.9278 33.0058 13.111 33.2504C13.2047 33.3755 13.3264 33.4453 13.494 33.4495C14.4779 33.4759 15.4676 33.5108 16.4362 33.6853C16.4617 33.6898 16.4685 33.6807 16.4566 33.658ZM30.1655 33.567C29.3068 33.9789 28.7247 34.8027 28.226 35.5585C28.214 35.5772 28.2174 35.5806 28.2362 35.5687C29.3891 34.8407 30.4614 34.009 31.4532 33.0734C31.4662 33.0609 31.4643 33.0575 31.4472 33.0631C31.0121 33.197 30.5848 33.365 30.1655 33.567ZM10.3272 34.4827C11.1289 34.9219 11.9732 35.3091 12.8191 35.6444C12.8543 35.658 12.8577 35.6521 12.8293 35.6265C12.4302 35.2674 12.0336 34.8291 11.5476 34.5814C10.8932 34.2495 10.3706 33.9287 9.837 33.624C9.80126 33.6036 9.78962 33.6129 9.80211 33.6521C9.89572 33.9448 10.0438 34.3278 10.3272 34.4827ZM25.3579 34.3219L23.0396 35.2683C23.0387 35.2688 23.0381 35.2696 23.0378 35.2705C23.0375 35.2714 23.0375 35.2724 23.0379 35.2734C23.0451 35.292 23.0822 35.2983 23.1471 35.2919C23.2119 35.2854 23.3031 35.2663 23.4156 35.2357C23.5281 35.2052 23.6596 35.1636 23.8026 35.1136C23.9456 35.0635 24.0973 35.0059 24.2489 34.944L24.2677 34.9363C24.4192 34.8745 24.5677 34.8096 24.7048 34.7454C24.8419 34.6812 24.9649 34.6189 25.0667 34.5621C25.1685 34.5052 25.2471 34.455 25.2981 34.4142C25.3491 34.3734 25.3714 34.3429 25.3638 34.3244C25.3636 34.3238 25.3633 34.3233 25.3629 34.3228C25.3625 34.3224 25.362 34.322 25.3614 34.3218C25.3609 34.3215 25.3603 34.3214 25.3596 34.3214C25.359 34.3214 25.3584 34.3216 25.3579 34.3219ZM14.9621 34.4427C15.6191 34.664 16.2926 34.8121 16.9825 34.887C17.0098 34.8904 17.0223 34.8782 17.02 34.8504C17.0143 34.788 16.9828 34.7477 16.9255 34.7295C16.273 34.5196 15.6206 34.4124 14.9681 34.4078C14.8926 34.4073 14.8906 34.4189 14.9621 34.4427ZM24.9817 37.0044C25.8353 36.9976 26.4242 36.4053 26.9357 35.8087C26.9749 35.7627 26.9672 35.7525 26.9128 35.778C26.2387 36.0989 25.5783 36.5568 24.9698 36.9687C24.9335 36.9931 24.9374 37.005 24.9817 37.0044ZM23.9681 36.0487L22.5136 36.5134C22.4495 36.5338 22.4509 36.5491 22.5179 36.5593C22.6302 36.5772 22.8379 36.6759 22.9579 36.6172C23.3181 36.4413 23.6563 36.2546 23.9723 36.0572C23.9933 36.0441 23.9919 36.0413 23.9681 36.0487ZM20.5 37.2402C20.5085 37.2441 20.5164 37.2458 20.5238 37.2453C20.5454 37.2441 20.5491 37.2356 20.5349 37.2197C20.2906 36.9406 19.6464 37.1083 19.3145 37.1576C19.3105 37.1582 19.3105 37.1587 19.3145 37.1593C19.3919 37.1704 19.4566 37.2019 19.5323 37.2061C19.8461 37.226 20.1601 37.2353 20.4745 37.2342C20.4835 37.2342 20.492 37.2362 20.5 37.2402ZM20.8277 39.0189C20.7834 39.0274 20.7386 39.0317 20.6932 39.0317C20.692 39.0317 20.6915 39.0317 20.6915 39.0317C20.692 39.03 20.6929 39.0291 20.694 39.0291C21.3374 39.081 22.123 38.898 22.7494 38.761C22.7806 38.7542 22.7803 38.75 22.7485 38.7483C22.5459 38.7363 22.3051 38.8002 22.1579 38.8172C21.7125 38.8688 21.2691 38.9361 20.8277 39.0189ZM19.9409 39.0257C19.9417 39.0214 19.9283 39.0147 19.9016 39.0062C19.875 38.9977 19.8355 38.9873 19.7855 38.9759C19.7355 38.9644 19.676 38.9519 19.6102 38.9392C19.5445 38.9265 19.4739 38.9138 19.4025 38.9019C19.3311 38.8899 19.2602 38.879 19.1939 38.8696C19.1276 38.8602 19.0673 38.8525 19.0162 38.8471C18.9652 38.8417 18.9246 38.8386 18.8966 38.838C18.8686 38.8374 18.8538 38.8393 18.8531 38.8436C18.8524 38.8479 18.8657 38.8545 18.8924 38.8631C18.919 38.8716 18.9585 38.8819 19.0085 38.8934C19.0585 38.9049 19.1181 38.9174 19.1838 38.93C19.2495 38.9427 19.3201 38.9554 19.3915 38.9674C19.463 38.9793 19.5338 38.9903 19.6001 38.9997C19.6664 39.0091 19.7268 39.0167 19.7778 39.0222C19.8288 39.0276 19.8695 39.0307 19.8975 39.0313C19.9255 39.0319 19.9402 39.03 19.9409 39.0257Z" fill="white"/>
  <path d="M66.3877 15.5812C65.2166 17.0587 63.786 17.914 61.8728 18.0646C57.7936 18.3855 54.3809 15.4314 54.0966 11.3268C53.8021 7.07909 56.7783 3.59143 61.0566 3.37101C64.0209 3.21781 66.6711 4.87058 67.7775 7.63058C67.7911 7.66406 67.78 7.68079 67.7443 7.68079H65.4685C65.4413 7.68079 65.4209 7.66916 65.4073 7.6459C63.7256 4.77441 59.82 4.62292 57.6524 6.98888C54.8626 10.0331 56.3664 15.548 60.729 16.0774C63.2379 16.3821 65.477 14.8953 66.1443 12.4527C66.1534 12.4204 66.1412 12.4042 66.1077 12.4042H61.1068C61.0926 12.4042 61.0855 12.3971 61.0855 12.3829V10.5531C61.0855 10.5248 61.0997 10.5106 61.1281 10.5106H68.2558C68.2841 10.5106 68.2983 10.5248 68.2983 10.5531V17.851C68.2983 17.8794 68.2841 17.8936 68.2558 17.8936H66.4685C66.4402 17.8936 66.426 17.8794 66.426 17.851V15.5948C66.426 15.5534 66.4132 15.5489 66.3877 15.5812Z" fill="white"/>
  <path d="M99.0305 11.7436C99.3624 13.8747 100.916 15.5811 103.02 16.0424C105.08 16.4943 107.14 15.6687 108.295 13.9113C108.396 13.7575 108.495 13.6012 108.59 13.4424C108.606 13.4168 108.629 13.4041 108.659 13.4041H110.745C110.771 13.4041 110.779 13.4163 110.77 13.4406C109.692 16.4134 106.863 18.2296 103.703 18.0832C99.1343 17.8713 96.2254 13.6943 96.993 9.30108C97.5615 6.05086 100.075 3.70108 103.384 3.39384C106.272 3.12576 109.213 4.55299 110.442 7.21767C111.082 8.6032 111.305 10.1419 111.209 11.6645C111.208 11.6894 111.195 11.7019 111.169 11.7019H99.0662C99.0384 11.7019 99.0265 11.7158 99.0305 11.7436ZM109.055 9.72746C108.804 6.93597 106.096 5.0381 103.406 5.34108C100.969 5.61597 99.342 7.37001 99.0007 9.73852C99.0002 9.74194 99.0004 9.74542 99.0014 9.74873C99.0023 9.75203 99.0039 9.75509 99.0061 9.75768C99.0083 9.76027 99.011 9.76233 99.014 9.76373C99.0171 9.76512 99.0203 9.76581 99.0237 9.76576H109.02C109.046 9.76576 109.057 9.75299 109.055 9.72746Z" fill="white"/>
  <path d="M72.1307 17.894H69.9418C69.9366 17.894 69.9315 17.8928 69.927 17.8903C69.9225 17.8879 69.9186 17.8843 69.9158 17.88C69.913 17.8757 69.9113 17.8707 69.911 17.8656C69.9106 17.8604 69.9115 17.8553 69.9137 17.8506L76.3086 3.5927C76.311 3.58733 76.315 3.58279 76.32 3.57962C76.325 3.57645 76.3308 3.57479 76.3367 3.57483H78.6116C78.6175 3.57479 78.6233 3.57645 78.6282 3.57962C78.6332 3.58279 78.6372 3.58733 78.6396 3.5927L85.0345 17.8506C85.0367 17.8553 85.0376 17.8604 85.0373 17.8656C85.0369 17.8707 85.0352 17.8757 85.0324 17.88C85.0296 17.8843 85.0258 17.8879 85.0212 17.8903C85.0167 17.8928 85.0116 17.894 85.0065 17.894H82.6941C82.6881 17.8939 82.6823 17.8922 82.6773 17.8888C82.6723 17.8855 82.6684 17.8808 82.666 17.8753L80.9724 13.9229C80.9708 13.9191 80.9684 13.9157 80.9653 13.9128C80.9623 13.9099 80.9587 13.9077 80.9548 13.9063C80.9509 13.9049 80.9468 13.9042 80.9426 13.9045C80.9385 13.9047 80.9344 13.9058 80.9307 13.9076L77.4865 15.5391C77.4824 15.5409 77.4781 15.5419 77.4737 15.5419C77.4693 15.5419 77.4649 15.5409 77.4609 15.5391L73.9358 13.8667C73.9321 13.8649 73.928 13.8638 73.9239 13.8636C73.9197 13.8634 73.9156 13.864 73.9117 13.8655C73.9078 13.8669 73.9042 13.8691 73.9012 13.872C73.8982 13.8748 73.8958 13.8782 73.8941 13.8821L72.1588 17.8753C72.1565 17.8808 72.1525 17.8855 72.1476 17.8888C72.1426 17.8922 72.1367 17.8939 72.1307 17.894ZM77.4592 5.78164C77.4569 5.77656 77.4532 5.77224 77.4485 5.76922C77.4439 5.7662 77.4384 5.76459 77.4328 5.76459C77.4273 5.76459 77.4218 5.7662 77.4171 5.76922C77.4124 5.77224 77.4087 5.77656 77.4065 5.78164L74.6439 12.1672C74.641 12.1741 74.6409 12.1818 74.6436 12.1888C74.6463 12.1958 74.6516 12.2015 74.6584 12.2046L77.4813 13.5255C77.4851 13.5272 77.4891 13.528 77.4933 13.528C77.4974 13.528 77.5014 13.5272 77.5052 13.5255L80.2082 12.2463C80.2149 12.2432 80.2202 12.2375 80.2229 12.2305C80.2256 12.2235 80.2255 12.2158 80.2226 12.2089L77.4592 5.78164Z" fill="white"/>
  <path d="M89.1638 15.9153H96.6455C96.655 15.9153 96.6641 15.919 96.6708 15.9257C96.6775 15.9324 96.6812 15.9415 96.6812 15.951V17.8582C96.6812 17.8677 96.6775 17.8768 96.6708 17.8835C96.6641 17.8902 96.655 17.894 96.6455 17.894H87.1C87.0905 17.894 87.0814 17.8902 87.0747 17.8835C87.068 17.8768 87.0642 17.8677 87.0642 17.8582V3.61057C87.0642 3.60109 87.068 3.592 87.0747 3.5853C87.0814 3.5786 87.0905 3.57483 87.1 3.57483H89.0923C89.1018 3.57483 89.1109 3.5786 89.1176 3.5853C89.1243 3.592 89.128 3.60109 89.128 3.61057V15.8795C89.128 15.8842 89.129 15.8889 89.1308 15.8932C89.1326 15.8975 89.1352 15.9015 89.1385 15.9048C89.1418 15.9081 89.1458 15.9107 89.1501 15.9125C89.1544 15.9143 89.1591 15.9153 89.1638 15.9153Z" fill="white"/>
  <path d="M115.993 17.894H113.987C113.979 17.894 113.972 17.8909 113.966 17.8855C113.961 17.8801 113.958 17.8727 113.958 17.865V3.60377C113.958 3.59609 113.961 3.58873 113.966 3.5833C113.972 3.57788 113.979 3.57483 113.987 3.57483H116.486C116.491 3.57489 116.495 3.57601 116.499 3.57807C116.503 3.58014 116.507 3.58311 116.509 3.58674L124.522 14.7689C124.526 14.774 124.531 14.7779 124.537 14.7799C124.542 14.7819 124.549 14.7819 124.555 14.78C124.561 14.7781 124.566 14.7743 124.569 14.7692C124.573 14.7642 124.575 14.7581 124.575 14.7519V3.60377C124.575 3.59609 124.578 3.58873 124.583 3.5833C124.589 3.57788 124.596 3.57483 124.604 3.57483H126.61C126.617 3.57483 126.625 3.57788 126.63 3.5833C126.636 3.58873 126.639 3.59609 126.639 3.60377V17.865C126.639 17.8727 126.636 17.8801 126.63 17.8855C126.625 17.8909 126.617 17.894 126.61 17.894H124.399C124.394 17.8939 124.39 17.8928 124.386 17.8907C124.382 17.8887 124.378 17.8857 124.376 17.8821L116.074 6.36121C116.071 6.35608 116.066 6.35223 116.06 6.35022C116.054 6.34822 116.048 6.34817 116.042 6.35008C116.036 6.35199 116.031 6.35576 116.027 6.36083C116.023 6.36591 116.022 6.37201 116.022 6.37823V17.865C116.022 17.8727 116.019 17.8801 116.013 17.8855C116.008 17.8909 116 17.894 115.993 17.894Z" fill="white"/>
  <path d="M74.1263 23.5313C70.7221 24.7942 69.6991 29.2691 71.9008 32.0479C73.1493 33.6232 75.191 34.3117 77.1374 33.8393C78.6319 33.4768 79.705 32.4836 80.3867 31.081C80.3923 31.0695 80.401 31.0598 80.4117 31.0531C80.4224 31.0463 80.4347 31.0427 80.4472 31.0427H82.6582C82.6821 31.0427 82.6903 31.0541 82.6829 31.0768C81.2472 35.5993 75.9493 37.2921 72.0046 34.8819C70.2072 33.784 68.9995 31.9321 68.6744 29.8521C67.9059 24.9364 71.7391 20.7227 76.7655 21.2853C79.5493 21.5968 81.8344 23.4291 82.6838 26.1355C82.6911 26.1588 82.6823 26.1704 82.6574 26.1704H80.4472C80.4199 26.1704 80.4006 26.1579 80.3893 26.133C79.8327 24.921 78.8923 23.9738 77.6327 23.5125C76.4736 23.0876 75.3048 23.0938 74.1263 23.5313Z" fill="white"/>
  <path d="M56.8698 32.511L55.8596 35.745C55.8577 35.7512 55.8538 35.7565 55.8486 35.7603C55.8434 35.7642 55.8372 35.7662 55.8307 35.7663H53.8018C53.797 35.7663 53.7922 35.7651 53.788 35.7629C53.7837 35.7607 53.78 35.7575 53.7772 35.7536C53.7744 35.7497 53.7725 35.7452 53.7717 35.7405C53.771 35.7357 53.7714 35.7309 53.7728 35.7263L58.275 21.4684C58.2769 21.4623 58.2808 21.4569 58.286 21.4531C58.2912 21.4493 58.2974 21.4472 58.3039 21.4471H63.1456C63.1521 21.4472 63.1583 21.4493 63.1635 21.4531C63.1687 21.4569 63.1726 21.4623 63.1745 21.4684L67.6758 35.7263C67.6773 35.7309 67.6777 35.7357 67.6769 35.7405C67.6762 35.7452 67.6743 35.7497 67.6715 35.7536C67.6687 35.7575 67.665 35.7607 67.6607 35.7629C67.6564 35.7651 67.6517 35.7663 67.6469 35.7663H65.5584C65.5519 35.7662 65.5457 35.7642 65.5405 35.7603C65.5353 35.7565 65.5314 35.7512 65.5294 35.745L64.5192 32.511C64.5172 32.5048 64.5134 32.4995 64.5082 32.4956C64.503 32.4918 64.4967 32.4897 64.4903 32.4897H56.8988C56.8923 32.4897 56.8861 32.4918 56.8809 32.4956C56.8757 32.4995 56.8718 32.5048 56.8698 32.511ZM57.4852 30.5569C57.4837 30.5615 57.4833 30.5663 57.484 30.571C57.4848 30.5757 57.4867 30.5802 57.4895 30.584C57.4923 30.5878 57.496 30.5909 57.5003 30.593C57.5046 30.5951 57.5093 30.5962 57.5141 30.5961H63.8945C63.8992 30.5961 63.9038 30.5951 63.908 30.593C63.9122 30.591 63.9159 30.588 63.9187 30.5843C63.9215 30.5805 63.9234 30.5762 63.9242 30.5716C63.9251 30.567 63.9248 30.5623 63.9235 30.5578L61.6801 23.362C61.6782 23.3558 61.6744 23.3504 61.6692 23.3465C61.6639 23.3427 61.6576 23.3407 61.6511 23.3408H59.7779C59.7716 23.3406 59.7653 23.3425 59.7601 23.3462C59.7549 23.3499 59.751 23.3551 59.749 23.3612L57.4852 30.5569Z" fill="white"/>
  <path d="M86.4858 32.511L85.4765 35.745C85.4746 35.7512 85.4708 35.7567 85.4655 35.7605C85.4603 35.7644 85.454 35.7664 85.4475 35.7663H83.4194C83.4147 35.7664 83.4099 35.7654 83.4056 35.7633C83.4014 35.7612 83.3976 35.7581 83.3948 35.7542C83.392 35.7504 83.3901 35.7459 83.3893 35.7412C83.3886 35.7365 83.389 35.7317 83.3905 35.7272L87.8918 21.4676C87.8938 21.4615 87.8977 21.4563 87.9029 21.4526C87.9081 21.4489 87.9143 21.447 87.9207 21.4472H92.7633C92.7696 21.447 92.7759 21.4489 92.7811 21.4526C92.7863 21.4563 92.7902 21.4615 92.7922 21.4676L97.2943 35.7272C97.2958 35.7317 97.2962 35.7365 97.2955 35.7412C97.2947 35.7459 97.2928 35.7504 97.29 35.7542C97.2872 35.7581 97.2835 35.7612 97.2792 35.7633C97.2749 35.7654 97.2702 35.7664 97.2654 35.7663H95.176C95.1696 35.7664 95.1632 35.7644 95.158 35.7605C95.1528 35.7567 95.1489 35.7512 95.1471 35.745L94.1369 32.511C94.135 32.5048 94.1312 32.4993 94.126 32.4955C94.1208 32.4917 94.1144 32.4896 94.1079 32.4897H86.5147C86.5083 32.4896 86.5019 32.4917 86.4967 32.4955C86.4915 32.4993 86.4877 32.5048 86.4858 32.511ZM87.102 30.562C87.1008 30.5659 87.1005 30.5701 87.1012 30.5741C87.1019 30.5781 87.1035 30.5819 87.1059 30.5852C87.1083 30.5885 87.1114 30.5912 87.115 30.5931C87.1186 30.595 87.1226 30.596 87.1267 30.5961H93.5173C93.5214 30.596 93.5254 30.595 93.529 30.5931C93.5326 30.5912 93.5357 30.5885 93.5381 30.5852C93.5405 30.5819 93.5421 30.5781 93.5428 30.5741C93.5434 30.5701 93.5432 30.5659 93.542 30.562L91.2969 23.3595C91.2952 23.354 91.2918 23.3493 91.2872 23.3459C91.2826 23.3425 91.2771 23.3407 91.2714 23.3408H89.3922C89.3865 23.3407 89.3809 23.3425 89.3763 23.3459C89.3717 23.3493 89.3683 23.354 89.3667 23.3595L87.102 30.562Z" fill="white"/>
  <path d="M112.065 29.4038C111.685 33.4208 108.555 35.7714 104.68 35.7723C103.042 35.7728 101.402 35.7689 99.7627 35.7604C99.7366 35.7604 99.7235 35.7473 99.7235 35.7212V21.4897C99.7235 21.4625 99.7374 21.4489 99.7652 21.4489C101.442 21.4449 103.116 21.4438 104.786 21.4455C109.386 21.4489 112.498 24.825 112.065 29.4038ZM107.167 23.9476C106.429 23.6106 105.721 23.4389 105.042 23.4327C103.962 23.4225 102.884 23.4205 101.808 23.4267C101.802 23.4267 101.797 23.429 101.793 23.433C101.789 23.437 101.786 23.4424 101.786 23.448L101.785 33.7433C101.785 33.7549 101.789 33.7659 101.798 33.774C101.806 33.7822 101.817 33.7867 101.828 33.7867C102.703 33.7884 103.583 33.7876 104.468 33.7842C105.91 33.7791 107.31 33.4718 108.397 32.4718C109.849 31.1374 110.213 28.9833 109.762 27.1084C109.406 25.6293 108.541 24.5757 107.167 23.9476Z" fill="white"/>
  <path d="M116.915 29.6054V33.7995C116.915 33.8076 116.918 33.8154 116.924 33.8211C116.93 33.8269 116.938 33.8301 116.946 33.8301H124.439C124.443 33.8301 124.447 33.8309 124.45 33.8325C124.454 33.834 124.457 33.8363 124.46 33.8391C124.463 33.8419 124.465 33.8453 124.467 33.849C124.468 33.8528 124.469 33.8567 124.469 33.8608L124.468 35.7357C124.468 35.7438 124.465 35.7516 124.459 35.7573C124.454 35.7631 124.446 35.7663 124.438 35.7663H114.882C114.874 35.7663 114.866 35.7631 114.86 35.7573C114.855 35.7516 114.851 35.7438 114.851 35.7357V21.4778C114.851 21.4697 114.855 21.4619 114.86 21.4561C114.866 21.4504 114.874 21.4471 114.882 21.4471H124.438C124.446 21.4471 124.454 21.4504 124.459 21.4561C124.465 21.4619 124.468 21.4697 124.468 21.4778V23.3527C124.468 23.3608 124.465 23.3686 124.459 23.3743C124.454 23.3801 124.446 23.3833 124.438 23.3833H116.946C116.938 23.3833 116.93 23.3865 116.924 23.3923C116.918 23.398 116.915 23.4058 116.915 23.414V27.608C116.915 27.6161 116.918 27.6239 116.924 27.6297C116.93 27.6354 116.938 27.6386 116.946 27.6386H123.822C123.826 27.6386 123.83 27.6394 123.834 27.641C123.838 27.6425 123.841 27.6448 123.844 27.6476C123.847 27.6505 123.849 27.6538 123.851 27.6575C123.852 27.6613 123.853 27.6652 123.853 27.6693L123.845 29.5442C123.845 29.5523 123.842 29.5601 123.836 29.5658C123.831 29.5716 123.823 29.5748 123.815 29.5748H116.946C116.938 29.5748 116.93 29.578 116.924 29.5838C116.918 29.5895 116.915 29.5973 116.915 29.6054Z" fill="white"/>
  <path d="M144.627 23.4259H138.183C138.178 23.4259 138.174 23.4267 138.17 23.4284C138.166 23.4301 138.162 23.4325 138.159 23.4356C138.156 23.4387 138.154 23.4423 138.152 23.4464C138.15 23.4504 138.15 23.4547 138.15 23.4591L138.149 35.7323C138.149 35.7411 138.145 35.7495 138.139 35.7557C138.133 35.7619 138.124 35.7654 138.116 35.7654L136.119 35.7663C136.11 35.7663 136.102 35.7628 136.095 35.7566C136.089 35.7503 136.086 35.7419 136.086 35.7331V23.4591C136.086 23.4547 136.085 23.4504 136.083 23.4464C136.082 23.4423 136.079 23.4387 136.076 23.4356C136.073 23.4325 136.069 23.4301 136.065 23.4284C136.061 23.4267 136.057 23.4259 136.053 23.4259L129.608 23.425C129.604 23.425 129.6 23.4259 129.596 23.4275C129.592 23.4292 129.588 23.4317 129.585 23.4347C129.582 23.4378 129.579 23.4415 129.578 23.4455C129.576 23.4495 129.575 23.4538 129.575 23.4582V35.7331C129.575 35.7419 129.572 35.7503 129.565 35.7566C129.559 35.7628 129.551 35.7663 129.542 35.7663H127.544C127.536 35.7663 127.527 35.7628 127.521 35.7566C127.515 35.7503 127.511 35.7419 127.511 35.7331V21.4803C127.511 21.4715 127.515 21.4631 127.521 21.4569C127.527 21.4506 127.536 21.4471 127.544 21.4471L146.689 21.448C146.694 21.448 146.698 21.4489 146.702 21.4505C146.706 21.4522 146.71 21.4546 146.713 21.4577C146.716 21.4608 146.718 21.4645 146.72 21.4685C146.722 21.4725 146.722 21.4768 146.722 21.4812L146.723 35.7331C146.723 35.7419 146.72 35.7503 146.714 35.7566C146.707 35.7628 146.699 35.7663 146.69 35.7663H144.693C144.685 35.7663 144.676 35.7628 144.67 35.7566C144.664 35.7503 144.66 35.7419 144.66 35.7331V23.4591C144.66 23.4503 144.657 23.4418 144.651 23.4356C144.644 23.4294 144.636 23.4259 144.627 23.4259Z" fill="white"/>
  <path d="M156.745 30.1578V35.7365C156.745 35.7444 156.742 35.752 156.736 35.7576C156.731 35.7632 156.723 35.7663 156.715 35.7663H154.711C154.703 35.7663 154.695 35.7632 154.69 35.7576C154.684 35.752 154.681 35.7444 154.681 35.7365V30.1578C154.681 30.1499 154.678 30.1423 154.672 30.1367C154.667 30.1311 154.659 30.128 154.651 30.128H153.445C153.439 30.1281 153.434 30.1267 153.429 30.124C153.425 30.1213 153.421 30.1174 153.418 30.1127L148.762 21.4914C148.759 21.4868 148.758 21.4817 148.758 21.4765C148.758 21.4713 148.76 21.4662 148.762 21.4617C148.765 21.4572 148.769 21.4535 148.773 21.4509C148.778 21.4484 148.783 21.4471 148.788 21.4471H151.083C151.088 21.4472 151.094 21.4487 151.098 21.4515C151.103 21.4544 151.107 21.4585 151.109 21.4633L154.679 28.2395C154.681 28.2443 154.685 28.2484 154.69 28.2513C154.694 28.2541 154.7 28.2556 154.705 28.2557H156.7C156.705 28.2556 156.711 28.2541 156.715 28.2513C156.72 28.2484 156.724 28.2443 156.726 28.2395L160.296 21.4633C160.299 21.4585 160.303 21.4544 160.307 21.4515C160.312 21.4487 160.317 21.4472 160.323 21.4471L162.616 21.448C162.622 21.4479 162.627 21.4492 162.631 21.4518C162.636 21.4543 162.64 21.458 162.642 21.4625C162.645 21.467 162.647 21.4721 162.647 21.4773C162.647 21.4825 162.645 21.4877 162.643 21.4923L157.988 30.1127C157.985 30.1174 157.981 30.1213 157.976 30.124C157.972 30.1267 157.967 30.1281 157.961 30.128H156.775C156.767 30.128 156.759 30.1311 156.754 30.1367C156.748 30.1423 156.745 30.1499 156.745 30.1578Z" fill="white"/>
  </g>
  <defs>
  <clipPath id="clip0_1226_1284">
  <rect width="162.724" height="40" fill="white"/>
  </clipPath>
  </defs>
  </svg>
