<svg width="263" height="32" viewBox="0 0 263 32" fill="none" xmlns="http://www.w3.org/2000/svg">
  <g clip-path="url(#clip0_1184_3014)">
    <path
      d="M4.32557 8.30034C3.62429 8.21001 3.14656 8.16553 2.89237 8.16689C2.13322 8.17166 1.42105 8.23293 1.12761 9.05812C0.464457 10.9257 0.239775 13.0425 0.205052 15.0115C0.192116 15.7277 0.45084 16.1335 0.968287 16.5979C0.985535 16.6133 0.99484 16.6328 0.996202 16.6564C1.00483 16.8284 1.0164 17.0007 1.03093 17.1732C1.17254 18.8603 2.20335 20.1968 3.42684 21.3134C3.71416 21.5762 3.91365 21.8336 4.13221 22.1325C4.14505 22.1507 4.15195 22.1723 4.15195 22.1945C4.13833 23.0054 4.1928 23.8135 4.41884 24.5965C4.44744 24.6964 4.45606 24.7994 4.44472 24.9056C4.32489 26.0031 4.62446 27.0932 5.92897 27.1463C6.05765 27.1511 6.22242 27.1259 6.37289 27.13C6.39462 27.1304 6.41576 27.1375 6.43349 27.1504C6.76983 27.395 7.11547 27.6256 7.47042 27.8421C7.65017 27.9515 7.85692 28.0943 8.09068 28.2704C8.31218 28.437 8.54367 28.5895 8.78515 28.7279C9.86679 29.3488 11.0063 29.8334 12.2037 30.1815C12.3045 30.2108 12.5162 30.2203 12.6061 30.302C13.6124 31.2225 14.9019 31.9068 16.2371 31.949C17.3932 31.9851 18.5765 31.7237 19.7026 31.3213C19.9205 31.243 20.1601 31.2389 20.3773 31.1708C22.5908 30.4777 24.6803 29.1221 26.3784 27.5637C26.7878 27.1883 27.0905 26.8519 27.2866 26.5546C27.623 26.0454 27.8054 25.5041 27.9763 24.9172C28.0104 24.8001 28.0592 24.6805 28.1227 24.5584C28.6143 23.6181 28.8989 22.5676 29.1596 21.5477C29.1633 21.5332 29.1698 21.5196 29.1788 21.5077C29.1878 21.4958 29.1991 21.4858 29.2121 21.4782C29.8875 21.0901 30.1013 20.3051 30.0066 19.5705C30.0039 19.5482 30.0098 19.5283 30.0243 19.5105C31.4235 17.8595 32.3807 15.7808 31.5882 13.613C31.1654 12.4583 30.3116 11.4724 29.4082 10.6465C29.1399 10.4014 28.9493 10.1434 28.7423 9.86221C28.7205 9.83271 28.71 9.79934 28.711 9.76212C28.7532 8.2091 28.523 6.67174 27.3118 5.57149C26.7136 5.02817 26.0677 4.55066 25.3741 4.13898C25.0255 3.932 24.7069 3.64944 24.3474 3.43021C23.135 2.69171 21.8439 2.13796 20.474 1.76893C20.3755 1.74215 20.2868 1.69608 20.2078 1.63072C18.985 0.612849 17.7642 -0.00740641 16.1356 0.0497851C15.2215 0.082012 14.2767 0.276055 13.3012 0.631913C13.003 0.740849 12.6721 0.770125 12.3569 0.872253C10.1789 1.58102 8.11859 2.92978 6.44846 4.48008C6.0631 4.8373 5.77714 5.15798 5.59059 5.44212C5.2631 5.94119 5.07519 6.46681 4.91314 7.04144C4.87456 7.17671 4.82032 7.31129 4.75042 7.44519C4.61062 7.71299 4.48625 7.98783 4.37731 8.2697C4.36823 8.2933 4.35099 8.30351 4.32557 8.30034Z"
      stroke="#4242FF" stroke-width="0.13617" />
    <path
      d="M53.3145 12.4755V14.2804C53.3145 14.3031 53.3258 14.3145 53.3485 14.3145H54.7783C54.801 14.3145 54.8124 14.3031 54.8124 14.2804V8.44214C54.8124 8.41945 54.801 8.4081 54.7783 8.4081H49.0762C49.0535 8.4081 49.0421 8.41945 49.0421 8.44214V9.90597C49.0421 9.91732 49.0478 9.92299 49.0592 9.92299H53.0599C53.0866 9.92299 53.0964 9.93593 53.0891 9.9618C52.5553 11.9158 50.764 13.1053 48.7569 12.8615C45.2668 12.4381 44.0638 8.02614 46.2956 5.59074C48.0297 3.69797 51.1541 3.81916 52.4995 6.11635C52.5104 6.13496 52.5267 6.14427 52.5485 6.14427H54.3691C54.3977 6.14427 54.4066 6.13088 54.3957 6.1041C53.5106 3.8961 51.3904 2.57389 49.019 2.69644C45.5964 2.87278 43.2154 5.66291 43.451 9.06103C43.6784 12.3448 46.4086 14.708 49.6719 14.4513C51.2025 14.3308 52.347 13.6466 53.2839 12.4646C53.3043 12.4387 53.3145 12.4424 53.3145 12.4755Z"
      stroke="#000B28" stroke-width="0.13617" />
    <path
      d="M79.4183 9.36056H89.1007C89.1211 9.36056 89.1317 9.35058 89.1327 9.33061C89.2089 8.11256 89.0305 6.88159 88.5192 5.77316C87.5354 3.64142 85.183 2.49963 82.8722 2.7141C80.2251 2.95988 78.2145 4.83971 77.7597 7.43988C77.1456 10.9544 79.4727 14.2961 83.1275 14.4656C85.6555 14.5827 87.9187 13.1298 88.7813 10.7515C88.7886 10.732 88.7818 10.7223 88.7609 10.7223H87.0921C87.0681 10.7223 87.0499 10.7325 87.0377 10.7529C86.961 10.88 86.8822 11.005 86.8014 11.1281C85.8775 12.534 84.2292 13.1944 82.5815 12.8329C80.8984 12.4639 79.6552 11.0988 79.3897 9.39393C79.3865 9.37169 79.396 9.36056 79.4183 9.36056Z"
      stroke="#000B28" stroke-width="0.13617" />
    <path
      d="M57.8691 14.3145C57.8739 14.3145 57.8786 14.313 57.8826 14.3104C57.8866 14.3077 57.8897 14.3039 57.8916 14.2995L59.2798 11.1049C59.2812 11.1019 59.2831 11.0991 59.2855 11.0969C59.2879 11.0946 59.2908 11.0928 59.2939 11.0917C59.297 11.0905 59.3003 11.09 59.3036 11.0902C59.307 11.0904 59.3102 11.0912 59.3132 11.0927L62.1333 12.4306C62.1365 12.432 62.14 12.4328 62.1435 12.4328C62.147 12.4328 62.1505 12.432 62.1537 12.4306L64.9091 11.1254C64.9121 11.1239 64.9153 11.123 64.9187 11.1229C64.922 11.1227 64.9253 11.1232 64.9284 11.1243C64.9316 11.1255 64.9344 11.1273 64.9368 11.1295C64.9392 11.1318 64.9412 11.1346 64.9425 11.1376L66.2974 14.2995C66.2992 14.3039 66.3024 14.3077 66.3064 14.3104C66.3104 14.313 66.315 14.3145 66.3198 14.3145H68.1697C68.1738 14.3145 68.1779 14.3135 68.1815 14.3115C68.1852 14.3096 68.1882 14.3067 68.1905 14.3033C68.1927 14.2998 68.1941 14.2959 68.1944 14.2917C68.1947 14.2876 68.1939 14.2835 68.1922 14.2798L63.0763 2.87346C63.0743 2.86916 63.0711 2.86553 63.0671 2.86299C63.0632 2.86046 63.0585 2.85913 63.0538 2.85916H61.2339C61.2292 2.85913 61.2245 2.86046 61.2205 2.86299C61.2165 2.86553 61.2134 2.86916 61.2114 2.87346L56.0955 14.2798C56.0938 14.2835 56.093 14.2876 56.0933 14.2917C56.0936 14.2959 56.095 14.2998 56.0972 14.3033C56.0994 14.3067 56.1025 14.3096 56.1061 14.3115C56.1098 14.3135 56.1138 14.3145 56.118 14.3145H57.8691Z"
      stroke="#000B28" stroke-width="0.13617" />
    <path
      d="M71.5053 12.7315C71.5016 12.7315 71.4979 12.7307 71.4944 12.7293C71.4909 12.7279 71.4878 12.7258 71.4851 12.7231C71.4825 12.7204 71.4804 12.7173 71.4789 12.7138C71.4775 12.7103 71.4767 12.7066 71.4767 12.7029V2.88773C71.4767 2.88014 71.4737 2.87287 71.4684 2.86751C71.463 2.86214 71.4557 2.85913 71.4482 2.85913H69.8543C69.8467 2.85913 69.8394 2.86214 69.8341 2.86751C69.8287 2.87287 69.8257 2.88014 69.8257 2.88773V14.2859C69.8257 14.2934 69.8287 14.3007 69.8341 14.3061C69.8394 14.3114 69.8467 14.3144 69.8543 14.3144H77.4907C77.4983 14.3144 77.5056 14.3114 77.5109 14.3061C77.5163 14.3007 77.5193 14.2934 77.5193 14.2859V12.7601C77.5193 12.7525 77.5163 12.7452 77.5109 12.7398C77.5056 12.7345 77.4983 12.7315 77.4907 12.7315H71.5053Z"
      stroke="#000B28" stroke-width="0.13617" />
    <path
      d="M92.9614 14.3144C92.9676 14.3144 92.9734 14.312 92.9778 14.3077C92.9821 14.3033 92.9846 14.2974 92.9846 14.2913V5.10185C92.9845 5.09687 92.986 5.09199 92.9889 5.08793C92.9917 5.08388 92.9959 5.08086 93.0006 5.07933C93.0053 5.0778 93.0104 5.07784 93.0152 5.07945C93.0199 5.08105 93.024 5.08413 93.0268 5.08824L99.6678 14.3049C99.6699 14.3078 99.6727 14.3102 99.6759 14.3119C99.6791 14.3135 99.6826 14.3144 99.6862 14.3144H101.455C101.461 14.3144 101.467 14.312 101.471 14.3077C101.476 14.3033 101.478 14.2974 101.478 14.2913V2.88228C101.478 2.87614 101.476 2.87025 101.471 2.86591C101.467 2.86157 101.461 2.85913 101.455 2.85913H99.8503C99.8441 2.85913 99.8382 2.86157 99.8339 2.86591C99.8296 2.87025 99.8271 2.87614 99.8271 2.88228V11.8007C99.8272 11.8057 99.8257 11.8106 99.8228 11.8147C99.8199 11.8187 99.8158 11.8217 99.8111 11.8233C99.8063 11.8248 99.8012 11.8248 99.7965 11.8232C99.7918 11.8216 99.7877 11.8185 99.7849 11.8144L93.3747 2.86866C93.3726 2.86576 93.3698 2.86338 93.3666 2.86173C93.3634 2.86007 93.3599 2.85918 93.3563 2.85913H91.3566C91.3505 2.85913 91.3446 2.86157 91.3403 2.86591C91.3359 2.87025 91.3335 2.87614 91.3335 2.88228V14.2913C91.3335 14.2974 91.3359 14.3033 91.3403 14.3077C91.3446 14.312 91.3505 14.3144 91.3566 14.3144H92.9614Z"
      stroke="#000B28" stroke-width="0.13617" />
    <path
      d="M57.6885 25.6372C55.9271 23.4143 56.7455 19.8344 59.4689 18.824C60.4117 18.474 61.3467 18.469 62.274 18.809C63.2817 19.178 64.034 19.9358 64.4793 20.9053C64.4884 20.9253 64.5038 20.9353 64.5256 20.9353H66.2938C66.3137 20.9353 66.3208 20.926 66.3149 20.9074C65.6354 18.7423 63.8073 17.2764 61.5802 17.0272C57.5591 16.5772 54.4926 19.9481 55.1074 23.8807C55.3674 25.5447 56.3336 27.0262 57.7715 27.9045C60.9273 29.8326 65.1656 28.4784 66.3142 24.8604C66.3201 24.8422 66.3135 24.8332 66.2944 24.8332H64.5256C64.5156 24.8331 64.5057 24.836 64.4972 24.8414C64.4886 24.8468 64.4817 24.8546 64.4772 24.8638C63.9319 25.9858 63.0733 26.7804 61.8778 27.0704C60.3206 27.4483 58.6873 26.8975 57.6885 25.6372Z"
      stroke="#4242FF" stroke-width="0.13617" />
    <path
      d="M45.6658 26.0074C45.6674 26.0025 45.6705 25.9982 45.6746 25.9951C45.6788 25.9921 45.6838 25.9904 45.689 25.9904H51.7622C51.7673 25.9904 51.7723 25.9921 51.7765 25.9951C51.7806 25.9982 51.7837 26.0025 51.7853 26.0074L52.5935 28.5946C52.595 28.5995 52.5981 28.6038 52.6023 28.6069C52.6064 28.6099 52.6115 28.6116 52.6166 28.6116H54.2874C54.2913 28.6116 54.2951 28.6107 54.2985 28.6089C54.3019 28.6071 54.3048 28.6046 54.3071 28.6015C54.3094 28.5984 54.3108 28.5948 54.3114 28.591C54.3121 28.5872 54.3118 28.5833 54.3106 28.5796L50.7096 17.1733C50.708 17.1684 50.7049 17.1641 50.7007 17.1611C50.6966 17.158 50.6916 17.1564 50.6864 17.1563H46.813C46.8079 17.1564 46.8029 17.158 46.7987 17.1611C46.7946 17.1641 46.7915 17.1684 46.7899 17.1733L43.1882 28.5796C43.187 28.5833 43.1867 28.5872 43.1873 28.591C43.1879 28.5948 43.1894 28.5984 43.1917 28.6015C43.1939 28.6046 43.1969 28.6071 43.2003 28.6089C43.2037 28.6107 43.2075 28.6116 43.2113 28.6116H44.8345C44.8396 28.6116 44.8447 28.6099 44.8488 28.6069C44.853 28.6038 44.8561 28.5995 44.8576 28.5946L45.6658 26.0074Z"
      stroke="#4242FF" stroke-width="0.13617" />
    <path
      d="M69.3578 26.0081C69.3593 26.0031 69.3624 25.9987 69.3666 25.9957C69.3707 25.9926 69.3758 25.991 69.381 25.991H75.4555C75.4607 25.991 75.4658 25.9926 75.47 25.9957C75.4742 25.9987 75.4772 26.0031 75.4787 26.0081L76.2869 28.5953C76.2883 28.6003 76.2914 28.6046 76.2956 28.6077C76.2998 28.6107 76.3048 28.6124 76.31 28.6123H77.9815C77.9853 28.6124 77.9891 28.6116 77.9925 28.6099C77.996 28.6082 77.9989 28.6057 78.0012 28.6026C78.0035 28.5996 78.005 28.596 78.0056 28.5922C78.0062 28.5885 78.0059 28.5846 78.0047 28.581L74.403 17.1733C74.4014 17.1685 74.3982 17.1643 74.3941 17.1613C74.3899 17.1584 74.3849 17.1569 74.3798 17.157H70.5058C70.5007 17.1569 70.4957 17.1584 70.4915 17.1613C70.4873 17.1643 70.4842 17.1685 70.4826 17.1733L66.8816 28.581C66.8804 28.5846 66.8801 28.5885 66.8807 28.5922C66.8813 28.596 66.8828 28.5996 66.885 28.6026C66.8873 28.6057 66.8903 28.6082 66.8937 28.6099C66.8971 28.6116 66.9009 28.6124 66.9047 28.6123H68.5272C68.5324 28.6124 68.5375 28.6107 68.5416 28.6077C68.5458 28.6046 68.5489 28.6003 68.5504 28.5953L69.3578 26.0081Z"
      stroke="#4242FF" stroke-width="0.13617" />
    <path
      d="M83.916 28.6176C87.0159 28.6169 89.5201 26.7364 89.8237 23.5228C90.1703 19.8598 87.6804 17.1589 84.0011 17.1561C82.6648 17.1548 81.3258 17.1557 79.984 17.1589C79.9618 17.1589 79.9507 17.1697 79.9507 17.1915V28.5767C79.9507 28.5976 79.9611 28.608 79.982 28.608C81.2938 28.6149 82.6051 28.618 83.916 28.6176Z"
      stroke="#4242FF" stroke-width="0.13617" />
    <path
      d="M93.7053 23.6836C93.7053 23.6771 93.7078 23.6709 93.7124 23.6663C93.717 23.6617 93.7233 23.6591 93.7298 23.6591H99.2249C99.2314 23.6591 99.2377 23.6565 99.2423 23.6519C99.2469 23.6473 99.2494 23.6411 99.2494 23.6346L99.2556 22.1347C99.2556 22.1315 99.2549 22.1283 99.2537 22.1253C99.2525 22.1223 99.2507 22.1196 99.2484 22.1174C99.2461 22.1151 99.2434 22.1133 99.2404 22.112C99.2375 22.1108 99.2343 22.1102 99.2311 22.1102H93.7298C93.7233 22.1102 93.717 22.1076 93.7124 22.103C93.7078 22.0984 93.7053 22.0922 93.7053 22.0857V18.7304C93.7053 18.7239 93.7078 18.7177 93.7124 18.7131C93.717 18.7085 93.7233 18.7059 93.7298 18.7059H99.7233C99.7298 18.7059 99.736 18.7033 99.7406 18.6987C99.7452 18.6941 99.7478 18.6879 99.7478 18.6814V17.1815C99.7478 17.175 99.7452 17.1688 99.7406 17.1642C99.736 17.1596 99.7298 17.157 99.7233 17.157H92.0787C92.0722 17.157 92.066 17.1596 92.0614 17.1642C92.0568 17.1688 92.0542 17.175 92.0542 17.1815V28.5878C92.0542 28.5943 92.0568 28.6005 92.0614 28.6051C92.066 28.6097 92.0722 28.6123 92.0787 28.6123H99.7233C99.7298 28.6123 99.736 28.6097 99.7406 28.6051C99.7452 28.6005 99.7478 28.5943 99.7478 28.5878L99.7485 27.0879C99.7485 27.0847 99.7479 27.0815 99.7466 27.0785C99.7454 27.0755 99.7436 27.0728 99.7413 27.0705C99.739 27.0683 99.7363 27.0665 99.7334 27.0652C99.7304 27.064 99.7272 27.0634 99.724 27.0634H93.7298C93.7233 27.0634 93.717 27.0608 93.7124 27.0562C93.7078 27.0516 93.7053 27.0454 93.7053 27.0389V23.6836Z"
      stroke="#4242FF" stroke-width="0.13617" />
    <path
      d="M115.872 18.74C115.879 18.74 115.886 18.7428 115.891 18.7477C115.896 18.7527 115.898 18.7595 115.898 18.7665V28.5857C115.898 28.5928 115.901 28.5995 115.906 28.6045C115.911 28.6095 115.918 28.6123 115.925 28.6123H117.522C117.529 28.6123 117.536 28.6095 117.541 28.6045C117.546 28.5995 117.549 28.5928 117.549 28.5857L117.548 17.1842C117.548 17.1807 117.547 17.1773 117.546 17.1741C117.545 17.1708 117.543 17.1679 117.54 17.1654C117.538 17.163 117.535 17.161 117.532 17.1597C117.528 17.1584 117.525 17.1577 117.522 17.1577L102.206 17.157C102.199 17.157 102.192 17.1598 102.187 17.1648C102.182 17.1697 102.179 17.1765 102.179 17.1835V28.5857C102.179 28.5928 102.182 28.5995 102.187 28.6045C102.192 28.6095 102.199 28.6123 102.206 28.6123H103.804C103.811 28.6123 103.818 28.6095 103.822 28.6045C103.827 28.5995 103.83 28.5928 103.83 28.5857V18.7658C103.83 18.7623 103.831 18.7589 103.832 18.7557C103.834 18.7524 103.836 18.7495 103.838 18.7471C103.841 18.7446 103.843 18.7426 103.847 18.7413C103.85 18.74 103.853 18.7393 103.857 18.7393L109.012 18.74C109.016 18.74 109.019 18.7406 109.022 18.742C109.026 18.7433 109.029 18.7453 109.031 18.7477C109.033 18.7502 109.035 18.7531 109.037 18.7564C109.038 18.7596 109.039 18.763 109.039 18.7665V28.5857C109.039 28.5928 109.042 28.5995 109.047 28.6045C109.052 28.6095 109.058 28.6123 109.065 28.6123L110.663 28.6116C110.67 28.6116 110.676 28.6088 110.681 28.6038C110.686 28.5989 110.689 28.5921 110.689 28.5851L110.69 18.7665C110.69 18.763 110.691 18.7596 110.692 18.7564C110.693 18.7531 110.695 18.7502 110.698 18.7477C110.7 18.7453 110.703 18.7433 110.706 18.742C110.709 18.7406 110.713 18.74 110.716 18.74H115.872Z"
      stroke="#4242FF" stroke-width="0.13617" />
    <path
      d="M125.569 24.1255C125.569 24.1192 125.571 24.1131 125.576 24.1086C125.58 24.1042 125.586 24.1017 125.592 24.1017H126.542C126.546 24.1017 126.55 24.1006 126.554 24.0984C126.557 24.0963 126.561 24.0932 126.563 24.0894L130.287 17.1931C130.289 17.1894 130.29 17.1853 130.29 17.1811C130.29 17.177 130.289 17.1729 130.287 17.1693C130.284 17.1657 130.281 17.1627 130.278 17.1607C130.274 17.1587 130.27 17.1576 130.266 17.1577L128.431 17.157C128.427 17.157 128.422 17.1582 128.419 17.1605C128.415 17.1628 128.412 17.166 128.41 17.1699L125.554 22.5909C125.552 22.5947 125.549 22.598 125.545 22.6003C125.541 22.6026 125.537 22.6038 125.533 22.6038H123.937C123.932 22.6038 123.928 22.6026 123.924 22.6003C123.92 22.598 123.917 22.5947 123.915 22.5909L121.06 17.1699C121.058 17.166 121.055 17.1628 121.051 17.1605C121.048 17.1582 121.043 17.157 121.039 17.157H119.203C119.199 17.1569 119.195 17.158 119.191 17.16C119.188 17.1621 119.185 17.165 119.183 17.1686C119.18 17.1722 119.179 17.1763 119.179 17.1805C119.179 17.1846 119.18 17.1887 119.182 17.1924L122.907 24.0894C122.909 24.0932 122.912 24.0963 122.916 24.0984C122.92 24.1006 122.924 24.1017 122.928 24.1017H123.894C123.9 24.1017 123.906 24.1042 123.911 24.1086C123.915 24.1131 123.918 24.1192 123.918 24.1255V28.5885C123.918 28.5948 123.92 28.6009 123.925 28.6053C123.929 28.6098 123.935 28.6123 123.941 28.6123H125.545C125.551 28.6123 125.557 28.6098 125.562 28.6053C125.566 28.6009 125.569 28.5948 125.569 28.5885V24.1255Z"
      stroke="#4242FF" stroke-width="0.13617" />
    <path
      d="M14.8322 0.927005C14.6847 0.958324 14.5789 0.975799 14.5149 0.97943C14.5085 0.979884 14.5054 0.983289 14.5054 0.989643C14.5054 0.995998 14.5083 0.999402 14.5142 0.999856C14.5546 1.00303 14.5948 1.00099 14.6347 0.993728C15.4236 0.848934 16.2175 0.803544 17.0164 0.857558C17.2063 0.870494 17.4296 0.913388 17.638 0.932452C17.6393 0.932452 17.6402 0.931771 17.6407 0.930409C17.6548 0.888196 17.6545 0.887515 17.64 0.928367C17.6396 0.929274 17.6389 0.929501 17.638 0.929047C16.7202 0.658749 15.7643 0.727515 14.8322 0.927005Z"
      stroke="#4242FF" stroke-width="0.13617" />
    <path
      d="M14.0379 1.8586C14.2104 1.91715 14.3654 1.92532 14.5029 1.88311C14.5066 1.88186 14.5099 1.87959 14.5123 1.87656C14.5147 1.87354 14.5162 1.86988 14.5167 1.86603C14.5171 1.86217 14.5164 1.85827 14.5147 1.85478C14.513 1.8513 14.5103 1.84837 14.507 1.84634L14.3892 1.77826C14.3765 1.771 14.3629 1.76918 14.3484 1.77281L14.0386 1.84839C14.0375 1.8487 14.0366 1.84933 14.0359 1.8502C14.0352 1.85107 14.0348 1.85214 14.0347 1.85325C14.0346 1.85437 14.0349 1.85548 14.0355 1.85644C14.036 1.85739 14.0369 1.85815 14.0379 1.8586Z"
      stroke="#4242FF" stroke-width="0.13617" />
    <path
      d="M16.2866 2.20516C16.2666 2.20425 16.2637 2.21106 16.2778 2.22558C16.4725 2.4278 16.8592 2.3352 17.1043 2.29299C17.3031 2.25895 17.3029 2.23875 17.1036 2.23239L16.2866 2.20516Z"
      stroke="#4242FF" stroke-width="0.13617" />
    <path
      d="M13.0217 2.40919C12.6871 2.35836 12.3692 2.4067 12.0678 2.55421C12.067 2.55471 12.0664 2.55547 12.0661 2.55634C12.0658 2.55722 12.0658 2.55818 12.0662 2.55905C12.0665 2.55992 12.0671 2.56066 12.0679 2.56114C12.0687 2.56162 12.0696 2.56182 12.0705 2.5617C12.4327 2.47455 12.7309 2.43643 13.1646 2.4303C13.1887 2.42984 13.1894 2.42531 13.1667 2.41668C13.1422 2.40715 13.1159 2.40465 13.0877 2.40919C13.0659 2.41237 13.0439 2.41237 13.0217 2.40919Z"
      stroke="#4242FF" stroke-width="0.13617" />
    <path
      d="M12.147 3.26705C11.605 3.38756 11.2802 3.5496 11.1556 4.1399C11.1497 4.16759 11.1572 4.1719 11.1781 4.15283L12.1524 3.27794C12.1642 3.26705 12.1624 3.26342 12.147 3.26705Z"
      stroke="#4242FF" stroke-width="0.13617" />
    <path
      d="M22.439 3.47677C22.4373 3.47568 22.4352 3.47533 22.4332 3.47577C22.4312 3.47622 22.4295 3.47744 22.4284 3.47915C22.4273 3.48087 22.427 3.48294 22.4274 3.48492C22.4279 3.4869 22.4291 3.48862 22.4308 3.4897C22.7481 3.76613 23.066 4.12766 23.4426 4.3217C23.916 4.56454 24.3762 4.82145 24.8233 5.09243C24.8642 5.11694 24.8769 5.10673 24.8615 5.06179C24.7995 4.88545 24.6735 4.53958 24.506 4.44766C23.8806 4.10451 23.1915 3.78088 22.439 3.47677Z"
      stroke="#4242FF" stroke-width="0.13617" />
    <path
      d="M7.57399 5.50112C7.56128 5.51337 7.55106 5.52563 7.54335 5.53788C7.54269 5.53898 7.5424 5.54026 7.5425 5.54153C7.54261 5.5428 7.54311 5.54401 7.54393 5.54499C7.54476 5.54596 7.54586 5.54665 7.5471 5.54697C7.54834 5.54728 7.54965 5.5472 7.55084 5.54674C8.07373 5.38333 8.70352 5.16001 9.11407 4.7944C9.50216 4.44784 9.81127 3.98214 10.1388 3.5498C10.1551 3.52847 10.1519 3.52484 10.1292 3.53891C9.22051 4.10537 8.36877 4.75944 7.57399 5.50112Z"
      stroke="#4242FF" stroke-width="0.13617" />
    <path
      d="M14.2513 3.77041C13.5508 3.89705 12.9673 4.17279 12.3552 4.52615C12.3493 4.52978 12.3477 4.53455 12.3504 4.54045L12.3511 4.54113C12.3529 4.54522 12.3597 4.54522 12.3715 4.54113C13.0074 4.30783 13.6343 4.0516 14.252 3.77245C14.2566 3.77018 14.2563 3.7695 14.2513 3.77041Z"
      stroke="#4242FF" stroke-width="0.13617" />
    <path
      d="M7.74041 9.57392C7.19641 10.3038 6.84645 11.1453 6.60952 12.0175C6.3113 13.115 6.06347 14.2262 5.64066 15.2863C5.61479 15.3512 5.60027 15.4186 5.59709 15.4885C5.5458 16.5238 5.43618 17.5533 5.26824 18.5768C5.26415 18.6 5.27096 18.6195 5.28866 18.6354C5.82449 19.1113 6.13292 19.6151 6.10364 20.3579C6.08821 20.7537 6.03215 21.1477 5.93547 21.5399C5.93196 21.5545 5.93333 21.5698 5.93936 21.5835C5.94539 21.5971 5.95576 21.6084 5.96883 21.6154C6.57842 21.9468 7.16441 22.3219 7.72679 22.7409C8.61735 23.4047 9.23148 24.2721 9.7959 25.209C9.80725 25.228 9.82336 25.2337 9.84424 25.226C10.4332 25.0081 11.0235 24.8161 11.6587 24.7474C12.2238 24.6861 12.6932 24.8577 13.0667 25.2621C13.5828 25.8211 13.9328 26.4835 14.2385 27.1746C14.2589 27.22 14.2913 27.254 14.3358 27.2767C14.7511 27.4855 15.1442 27.7302 15.5151 28.0107C15.5349 28.0257 15.5593 28.0338 15.5845 28.0338C16.0577 28.0311 16.5683 28.0604 17.0041 27.9855C18.0989 27.7955 19.0677 27.2073 20.1299 26.8491C20.7297 26.6469 21.3357 26.4726 21.9328 26.2595C22.0027 26.2341 22.0726 26.1781 22.1425 26.0914C22.3522 25.8292 22.6061 25.5848 22.6415 25.2777C22.7142 24.6441 22.8462 24.0236 23.0378 23.4163C23.4218 22.1996 24.4254 21.7639 25.61 21.5746C25.6327 21.5708 25.654 21.5615 25.672 21.5476C25.6901 21.5337 25.7043 21.5156 25.7135 21.4949C26.3781 19.9862 26.6061 18.3671 27.191 16.827C27.2414 16.694 27.2702 16.5574 27.2775 16.4171C27.3558 14.9104 27.56 13.6856 27.8119 11.9821C27.8194 11.9331 27.8133 11.8452 27.7861 11.7887C27.5741 11.3475 27.3317 10.9236 27.0589 10.5169C27.0235 10.4638 26.9979 10.4332 26.982 10.425C25.702 9.72507 24.5425 8.98362 23.7071 7.75128C23.4232 7.33187 22.7791 7.21953 22.312 7.22907C21.9643 7.23587 21.6166 7.24472 21.2689 7.25562C19.9746 7.29647 19.0371 6.8117 18.4094 5.66855C18.1425 5.18243 17.8774 4.69494 17.6141 4.20609C17.546 4.07945 17.3438 3.96711 17.1784 3.96575C16.7297 3.96234 16.2551 3.94192 15.8344 4.01749C15.1079 4.14753 14.41 4.45732 13.7142 4.77732C12.9401 5.13272 11.9549 5.39213 11.1045 5.68217C11.0881 5.6877 11.074 5.69852 11.0644 5.71294C11.0547 5.72735 11.0502 5.74455 11.0514 5.76183C11.0859 6.26975 11.0911 6.77993 11.0671 7.29238C11.0421 7.82345 10.9334 8.29255 10.7409 8.6997C10.4895 9.23122 10.0515 9.52263 9.42688 9.57392C8.81593 9.62385 8.27193 9.61613 7.79488 9.55077C7.77218 9.54759 7.75403 9.55531 7.74041 9.57392Z"
      stroke="#4242FF" stroke-width="0.13617" />
    <path
      d="M18.8264 4.06915C19.3254 4.3551 20.1261 4.45927 20.713 4.47766C20.8106 4.48083 20.8129 4.46744 20.7198 4.43749C20.1048 4.23868 19.4755 4.11045 18.8318 4.0528C18.8046 4.05008 18.8028 4.05553 18.8264 4.06915Z"
      stroke="#4242FF" stroke-width="0.13617" />
    <path
      d="M6.69676 6.60013C6.28213 6.75332 5.76264 8.04489 5.61898 8.45817C5.617 8.46404 5.6163 8.47027 5.61692 8.47643C5.61754 8.48258 5.61947 8.48851 5.62258 8.49382C5.62568 8.49913 5.62989 8.50368 5.63491 8.50716C5.63993 8.51065 5.64564 8.51298 5.65166 8.514L6.46596 8.65153C6.49392 8.65635 6.5227 8.65271 6.54865 8.64107C6.57459 8.62943 6.59653 8.61032 6.61166 8.58617C6.89126 8.13953 7.18675 7.70833 7.49813 7.29255C8.14698 6.42651 8.95515 5.86141 9.92741 5.40251C10.0522 5.3435 10.1893 5.21619 10.3386 5.02055C10.3513 5.00421 10.3584 4.98606 10.3597 4.96609L10.3986 4.43911C10.4008 4.40597 10.3922 4.4028 10.3727 4.42958C9.75515 5.2786 9.14783 5.7797 8.13608 6.09289C7.87055 6.17505 7.39078 6.34413 6.69676 6.60013Z"
      stroke="#4242FF" stroke-width="0.13617" />
    <path
      d="M18.7604 4.851C19.113 5.51892 19.5263 6.22292 20.3066 6.43943C20.5993 6.52068 20.8199 6.55971 20.9684 6.55654C21.6138 6.54224 22.262 6.50888 22.9047 6.57151C22.9297 6.57378 22.9358 6.56403 22.9231 6.54224C22.6435 6.05566 22.4204 5.688 22.2538 5.43926C22.1762 5.32351 22.0557 5.24249 21.9032 5.23909C20.8744 5.21526 19.783 5.17781 18.7753 4.8333C18.7554 4.82649 18.7504 4.83239 18.7604 4.851Z"
      stroke="#4242FF" stroke-width="0.13617" />
    <path
      d="M25.8174 5.80348C26.693 6.52383 27.4576 7.28025 27.9022 8.34919C27.9285 8.41183 27.9381 8.40933 27.9308 8.3417C27.8727 7.8011 27.7116 7.30544 27.4474 6.85472C27.0525 6.18 26.3111 5.59923 25.6357 5.1451C25.6198 5.13421 25.6139 5.13829 25.618 5.15736L25.7153 5.63395C25.7294 5.70249 25.7634 5.759 25.8174 5.80348Z"
      stroke="#4242FF" stroke-width="0.13617" />
    <path
      d="M10.1165 8.36288C10.3684 7.78552 10.3929 7.02841 10.3575 6.41973C10.3557 6.39023 10.3464 6.38751 10.3296 6.41156C9.85301 7.08787 9.34759 7.74149 8.81335 8.37241C8.68126 8.52833 8.49607 8.69173 8.34969 8.86467C8.33516 8.88192 8.33925 8.89168 8.36194 8.89395C8.73596 8.93434 9.10816 8.92322 9.47854 8.86058C9.78129 8.80929 9.99395 8.64339 10.1165 8.36288Z"
      stroke="#4242FF" stroke-width="0.13617" />
    <path
      d="M1.1228 15.6729C1.4571 14.2792 2.2714 13.0408 3.28587 12.0066C3.4234 11.867 3.43293 11.7955 3.43089 11.6076C3.42998 11.5331 3.45744 11.3924 3.51327 11.1855C3.70754 10.4615 3.90499 9.74046 4.10562 9.02239C4.11197 8.99924 4.10312 8.98608 4.07906 8.9829C3.60927 8.91572 3.1438 8.88236 2.68263 8.88282C2.39123 8.8835 1.97251 8.8726 1.83225 9.19805C1.56876 9.80741 1.41217 10.4971 1.2937 11.1487C1.05131 12.4763 0.918775 13.8151 0.89608 15.165C0.893356 15.348 0.957129 15.52 1.0874 15.6811C1.10465 15.7024 1.11645 15.6997 1.1228 15.6729Z"
      stroke="#4242FF" stroke-width="0.13617" />
    <path
      d="M5.55281 9.21388C5.54672 9.21291 5.5405 9.2132 5.53455 9.21474C5.52859 9.21628 5.52303 9.21903 5.51822 9.22281C5.51342 9.22659 5.50947 9.23132 5.50663 9.2367C5.50379 9.24208 5.50213 9.24799 5.50175 9.25405L5.46634 9.75379C5.46498 9.77785 5.47247 9.78102 5.48881 9.76332L5.91639 9.30375C5.93454 9.28423 5.93046 9.27243 5.90413 9.26834L5.55281 9.21388Z"
      stroke="#4242FF" stroke-width="0.13617" />
    <path
      d="M6.73806 9.79398C6.33703 10.1344 6.14027 10.771 6.00886 11.2687C5.83956 11.9096 5.67525 12.5541 5.51593 13.2023C5.5132 13.2132 5.51752 13.22 5.52886 13.2227L5.54589 13.2275C5.54808 13.228 5.55034 13.2281 5.55256 13.2277C5.55478 13.2273 5.55689 13.2265 5.55879 13.2253C5.56069 13.2241 5.56233 13.2225 5.56362 13.2207C5.56491 13.2188 5.56583 13.2168 5.56631 13.2146C5.85703 12.0313 6.15184 10.8758 6.74623 9.80078C6.7553 9.78354 6.75258 9.78127 6.73806 9.79398Z"
      stroke="#4242FF" stroke-width="0.13617" />
    <path
      d="M29.1946 17.0755C29.5491 16.3579 29.8203 15.6986 30.0082 15.0977C30.0903 14.8362 30.1248 14.6485 30.1117 14.5346C30.0064 13.6132 29.7304 12.7521 29.2837 11.9514C29.2738 11.9337 29.2706 11.9349 29.2742 11.9548C29.458 13.0456 29.4594 14.1805 29.4444 15.2842C29.4376 15.783 29.316 16.2878 29.0795 16.7984C29.0709 16.8169 29.0663 16.8369 29.0659 16.8572C29.0656 16.8774 29.0695 16.8976 29.0775 16.9162L29.1428 17.0735C29.1587 17.1121 29.1759 17.1127 29.1946 17.0755Z"
      stroke="#4242FF" stroke-width="0.13617" />
    <path
      d="M30.2403 18.041C31.0403 16.7658 31.459 15.3142 30.915 13.8415C30.9104 13.8293 30.9066 13.8295 30.9034 13.8422C30.8975 13.8654 30.8941 13.8867 30.8932 13.9062C30.8768 14.312 30.8292 14.6926 30.8271 15.1107C30.8226 16.1228 30.6213 17.0967 30.2232 18.0322C30.221 18.0376 30.2223 18.0417 30.2273 18.0444H30.228C30.233 18.0472 30.2371 18.046 30.2403 18.041Z"
      stroke="#4242FF" stroke-width="0.13617" />
    <path
      d="M2.6222 13.9767C2.16149 14.6771 1.86441 15.4426 1.73097 16.2732C1.72688 16.2986 1.7355 16.3191 1.75684 16.3345L2.01284 16.5156C2.03599 16.5319 2.04847 16.5258 2.05028 16.4972C2.10475 15.6169 2.31173 14.7883 2.63718 13.9699C2.63809 13.9676 2.63695 13.966 2.63377 13.9651C2.63196 13.9647 2.6306 13.9642 2.62969 13.9638C2.62742 13.9629 2.62606 13.9635 2.6256 13.9658C2.62515 13.9672 2.62492 13.9683 2.62492 13.9692C2.62447 13.9719 2.62356 13.9744 2.6222 13.9767Z"
      stroke="#4242FF" stroke-width="0.13617" />
    <path
      d="M3.74423 14.7673C3.39359 15.489 3.04703 16.2495 2.83461 17.023C2.83143 17.0343 2.83506 17.0432 2.8455 17.0495L3.4181 17.3879C3.41988 17.389 3.42193 17.3896 3.42403 17.3897C3.42613 17.3897 3.4282 17.3892 3.43002 17.3881C3.43184 17.3871 3.43333 17.3856 3.43435 17.3837C3.43537 17.3819 3.43587 17.3798 3.4358 17.3777C3.43172 17.0039 3.41129 16.5981 3.47325 16.2454C3.53952 15.8678 3.6514 15.5031 3.80891 15.1513C3.88312 14.9852 3.87223 14.8633 3.84567 14.6931C3.83796 14.6454 3.82003 14.6411 3.79189 14.6802C3.78099 14.6947 3.76511 14.7237 3.74423 14.7673Z"
      stroke="#4242FF" stroke-width="0.13617" />
    <path
      d="M1.97416 18.1959C1.97552 18.1995 1.97665 18.2025 1.97756 18.2048C1.97769 18.2051 1.97786 18.2055 1.97806 18.2058C1.97826 18.2061 1.97849 18.2064 1.9787 18.2066C1.97892 18.2068 1.97912 18.207 1.97928 18.207C1.97944 18.207 1.97955 18.207 1.9796 18.2068C1.96236 17.9472 1.97756 17.6893 2.02522 17.4333C2.02808 17.4191 2.02656 17.4042 2.02086 17.3908C2.01515 17.3773 2.00553 17.3658 1.99322 17.3578L1.7665 17.2087C1.74063 17.1919 1.72928 17.1987 1.73245 17.2291C1.76741 17.5641 1.84797 17.8863 1.97416 18.1959Z"
      stroke="#4242FF" stroke-width="0.13617" />
    <path
      d="M3.35837 18.1731C3.18725 18.0715 3.0184 17.97 2.85181 17.8688C2.84902 17.867 2.84578 17.8661 2.84248 17.8662C2.83918 17.8663 2.83597 17.8674 2.83323 17.8693C2.83049 17.8713 2.82834 17.874 2.82705 17.8772C2.82575 17.8804 2.82537 17.8838 2.82594 17.8872C2.96257 18.6547 3.22084 19.3783 3.60075 20.0577C3.60756 20.0695 3.60983 20.0689 3.60756 20.0557C3.50815 19.4865 3.458 18.9089 3.45709 18.3229C3.45664 18.2621 3.42373 18.2122 3.35837 18.1731Z"
      stroke="#4242FF" stroke-width="0.13617" />
    <path
      d="M27.3 18.7997C27.0767 19.7283 26.8663 20.5413 26.5272 21.3923C26.5122 21.4296 26.5243 21.4432 26.5633 21.4332L26.5905 21.4264C26.6278 21.4169 26.653 21.3942 26.6661 21.3583C26.9494 20.5726 27.1073 19.7624 27.3231 18.9624C27.334 18.9215 27.3302 18.8673 27.3116 18.7997C27.3075 18.7842 27.3036 18.7842 27.3 18.7997Z"
      stroke="#4242FF" stroke-width="0.13617" />
    <path
      d="M5.35196 20.7282C5.35397 20.7324 5.35734 20.7357 5.3615 20.7377C5.36566 20.7397 5.37038 20.7403 5.37489 20.7392C5.37939 20.7382 5.38341 20.7357 5.3863 20.7321C5.38918 20.7285 5.39076 20.724 5.39077 20.7194L5.39758 19.9602C5.39757 19.9572 5.39687 19.9541 5.39554 19.9514L5.17902 19.5109C5.17716 19.5068 5.17403 19.5035 5.17011 19.5014C5.16619 19.4993 5.16169 19.4986 5.15731 19.4993C5.15292 19.5 5.14888 19.5021 5.14579 19.5053C5.14271 19.5085 5.14075 19.5126 5.14022 19.517L5.05239 20.1195C5.05192 20.1235 5.05263 20.1275 5.05443 20.1311L5.35196 20.7282Z"
      stroke="#4242FF" stroke-width="0.13617" />
    <path
      d="M27.0925 23.989C27.3247 23.4457 27.3832 22.854 27.4037 22.2767C27.4055 22.2353 27.3923 22.2299 27.3642 22.2603C27.0573 22.593 26.743 22.9246 26.4212 23.255C26.3232 23.3551 26.2033 23.5063 26.1148 23.6479C25.8411 24.0873 25.5418 24.5083 25.2168 24.9109C24.6619 25.5992 23.9871 26.0778 23.2035 26.4755C23.1713 26.4913 23.1508 26.5168 23.1422 26.5517L23.0707 26.8404C23.063 26.8726 23.071 26.8772 23.0946 26.854C23.8265 26.1371 24.8559 25.8532 25.8077 25.5298C26.0351 25.4521 26.3007 25.4031 26.4437 25.1846C26.7101 24.7761 26.9264 24.3775 27.0925 23.989Z"
      stroke="#4242FF" stroke-width="0.13617" />
    <path
      d="M25.1068 22.4152C24.1019 22.6501 23.7458 23.269 23.5395 24.2154C23.5318 24.2517 23.5397 24.2556 23.5633 24.227C23.9276 23.7933 24.2734 23.3793 24.6785 22.9797C24.7793 22.8803 24.9273 22.6998 25.1225 22.4384C25.1388 22.4166 25.1336 22.4089 25.1068 22.4152Z"
      stroke="#4242FF" stroke-width="0.13617" />
    <path
      d="M8.45651 24.4706C7.99535 23.8419 7.44931 23.3379 6.81838 22.9584C6.81811 22.9582 6.81775 22.958 6.81736 22.958C6.81698 22.958 6.81661 22.9582 6.81634 22.9584C6.81607 22.9587 6.81592 22.9591 6.81592 22.9595C6.81592 22.9598 6.81607 22.9602 6.81634 22.9605C6.97702 23.1845 7.13158 23.3581 7.36306 23.5392C7.74116 23.8356 8.10315 24.1483 8.44902 24.4774C8.44984 24.4784 8.45095 24.479 8.45214 24.4791C8.45333 24.4792 8.45452 24.4788 8.45546 24.4779C8.45641 24.477 8.45704 24.4758 8.45723 24.4745C8.45743 24.4731 8.45717 24.4717 8.45651 24.4706Z"
      stroke="#4242FF" stroke-width="0.13617" />
    <path
      d="M5.25212 24.8031C5.5088 25.439 6.00446 25.917 6.57093 26.3582C6.5756 26.3618 6.58101 26.3644 6.58678 26.3657C6.59254 26.367 6.59853 26.367 6.6043 26.3657L7.09383 26.2479C7.09561 26.2475 7.09724 26.2466 7.09851 26.2452C7.09978 26.2439 7.10065 26.2423 7.10101 26.2405C7.10137 26.2387 7.10121 26.2368 7.10054 26.2351C7.09986 26.2334 7.09872 26.2319 7.09723 26.2309C6.3871 25.6501 5.75868 25.0564 5.29229 24.2843C5.28231 24.2675 5.27346 24.2682 5.26574 24.2864C5.18903 24.4634 5.18449 24.6356 5.25212 24.8031Z"
      stroke="#4242FF" stroke-width="0.13617" />
    <path
      d="M13.3324 26.9262C13.1313 26.5277 12.9118 26.1728 12.674 25.8614C12.4089 25.5142 12.0569 25.3787 11.618 25.4549C11.1414 25.5375 10.6768 25.668 10.2243 25.8464C10.2043 25.8541 10.1995 25.8675 10.21 25.8866C10.3607 26.1666 10.5093 26.4045 10.6559 26.6001C10.7308 26.7002 10.8282 26.756 10.9623 26.7594C11.7494 26.7805 12.5412 26.8085 13.316 26.948C13.3364 26.9517 13.3419 26.9444 13.3324 26.9262Z"
      stroke="#4242FF" stroke-width="0.13617" />
    <path
      d="M24.3047 26.8524C23.6177 27.1819 23.152 27.841 22.753 28.4456C22.7435 28.4605 22.7462 28.4633 22.7612 28.4537C23.6835 27.8714 24.5414 27.206 25.3348 26.4575C25.3452 26.4475 25.3436 26.4448 25.33 26.4493C24.9819 26.5564 24.6401 26.6908 24.3047 26.8524Z"
      stroke="#4242FF" stroke-width="0.13617" />
    <path
      d="M8.43715 27.5853C9.07851 27.9366 9.75391 28.2464 10.4307 28.5146C10.4588 28.5255 10.4615 28.5208 10.4389 28.5003C10.1195 28.213 9.80225 27.8624 9.41349 27.6643C8.88991 27.3987 8.47187 27.142 8.04498 26.8983C8.01638 26.882 8.00707 26.8894 8.01706 26.9208C8.09195 27.155 8.21042 27.4614 8.43715 27.5853Z"
      stroke="#4242FF" stroke-width="0.13617" />
    <path
      d="M20.4534 27.4571L18.5988 28.2142C18.5981 28.2147 18.5976 28.2153 18.5973 28.216C18.5971 28.2168 18.5971 28.2176 18.5974 28.2183C18.6032 28.2333 18.6329 28.2383 18.6847 28.2331C18.7366 28.228 18.8096 28.2127 18.8996 28.1882C18.9896 28.1638 19.0948 28.1306 19.2092 28.0905C19.3236 28.0505 19.4449 28.0044 19.5662 27.9548L19.5812 27.9487C19.7024 27.8992 19.8213 27.8473 19.931 27.796C20.0407 27.7446 20.139 27.6947 20.2205 27.6493C20.3019 27.6038 20.3648 27.5636 20.4056 27.531C20.4464 27.4984 20.4642 27.474 20.4582 27.4592C20.458 27.4587 20.4578 27.4583 20.4574 27.4579C20.4571 27.4575 20.4567 27.4573 20.4562 27.4571C20.4558 27.4569 20.4553 27.4568 20.4548 27.4568C20.4543 27.4568 20.4538 27.4569 20.4534 27.4571Z"
      stroke="#4242FF" stroke-width="0.13617" />
    <path
      d="M12.1389 27.5533C12.6645 27.7303 13.2033 27.8488 13.7552 27.9087C13.777 27.9114 13.787 27.9017 13.7852 27.8794C13.7807 27.8295 13.7555 27.7973 13.7096 27.7828C13.1876 27.6148 12.6657 27.529 12.1437 27.5254C12.0833 27.525 12.0817 27.5343 12.1389 27.5533Z"
      stroke="#4242FF" stroke-width="0.13617" />
    <path
      d="M20.1576 29.6024C20.8405 29.597 21.3116 29.1231 21.7208 28.6458C21.7521 28.609 21.746 28.6009 21.7024 28.6213C21.1632 28.878 20.6349 29.2443 20.1481 29.5738C20.119 29.5933 20.1222 29.6029 20.1576 29.6024Z"
      stroke="#4242FF" stroke-width="0.13617" />
    <path
      d="M19.3433 28.8384L18.1797 29.2101C18.1284 29.2265 18.1296 29.2387 18.1831 29.2469C18.273 29.2612 18.4391 29.3402 18.5351 29.2932C18.8234 29.1525 19.0939 29.0032 19.3467 28.8452C19.3635 28.8348 19.3624 28.8325 19.3433 28.8384Z"
      stroke="#4242FF" stroke-width="0.13617" />
    <path
      d="M16.5732 29.7914C16.5801 29.7945 16.5864 29.7959 16.5923 29.7954C16.6096 29.7945 16.6125 29.7877 16.6012 29.775C16.4058 29.5517 15.8904 29.6858 15.6248 29.7253C15.6216 29.7258 15.6216 29.7262 15.6248 29.7267C15.6868 29.7355 15.7385 29.7607 15.7991 29.7641C16.0501 29.78 16.3014 29.7875 16.5528 29.7866C16.5601 29.7866 16.5669 29.7882 16.5732 29.7914Z"
      stroke="#4242FF" stroke-width="0.13617" />
    <path
      d="M16.8272 31.2149C16.7918 31.2217 16.7559 31.2251 16.7196 31.2251C16.7187 31.2251 16.7183 31.2251 16.7183 31.2251C16.7187 31.2237 16.7194 31.223 16.7203 31.223C17.235 31.2646 17.8635 31.1182 18.3646 31.0086C18.3895 31.0031 18.3893 30.9997 18.3639 30.9984C18.2018 30.9888 18.0092 31.0399 17.8914 31.0535C17.5351 31.0948 17.1803 31.1486 16.8272 31.2149Z"
      stroke="#4242FF" stroke-width="0.13617" />
    <path
      d="M16.1237 31.2198C16.1243 31.2163 16.1136 31.2111 16.0923 31.2042C16.071 31.1974 16.0394 31.1891 15.9994 31.1799C15.9594 31.1707 15.9117 31.1608 15.8592 31.1506C15.8066 31.1405 15.7501 31.1303 15.693 31.1208C15.6358 31.1112 15.5791 31.1024 15.5261 31.0949C15.4731 31.0874 15.4248 31.0813 15.384 31.077C15.3432 31.0726 15.3106 31.0701 15.2882 31.0697C15.2658 31.0692 15.254 31.0707 15.2534 31.0742C15.2529 31.0776 15.2635 31.0829 15.2849 31.0897C15.3062 31.0966 15.3378 31.1048 15.3778 31.114C15.4178 31.1232 15.4654 31.1331 15.518 31.1433C15.5706 31.1535 15.627 31.1636 15.6842 31.1732C15.7413 31.1827 15.798 31.1915 15.8511 31.199C15.9041 31.2066 15.9524 31.2127 15.9932 31.217C16.034 31.2213 16.0665 31.2238 16.0889 31.2243C16.1113 31.2248 16.1232 31.2232 16.1237 31.2198Z"
      stroke="#4242FF" stroke-width="0.13617" />
    <path
      d="M87.4162 7.78168C87.2154 5.54849 85.0489 4.03019 82.8967 4.27257C80.9475 4.49248 79.6457 5.89572 79.3726 7.79053C79.3722 7.79326 79.3724 7.79604 79.3732 7.79869C79.3739 7.80134 79.3752 7.80378 79.377 7.80585C79.3787 7.80792 79.3809 7.80957 79.3833 7.81069C79.3857 7.81181 79.3884 7.81236 79.391 7.81231H87.3883C87.4087 7.81231 87.418 7.8021 87.4162 7.78168Z"
      stroke="#000B28" stroke-width="0.13617" />
    <path
      d="M62.1423 4.62399C62.1404 4.61993 62.1375 4.61648 62.1337 4.61406C62.13 4.61164 62.1256 4.61035 62.1211 4.61035C62.1167 4.61035 62.1123 4.61164 62.1086 4.61406C62.1048 4.61648 62.1019 4.61993 62.1 4.62399L59.89 9.73242C59.8877 9.73794 59.8876 9.74415 59.8897 9.74973C59.8919 9.75532 59.8961 9.75985 59.9016 9.76238L62.16 10.8191C62.1629 10.8204 62.1662 10.8211 62.1695 10.8211C62.1728 10.8211 62.176 10.8204 62.179 10.8191L64.3414 9.79574C64.3468 9.79321 64.3511 9.78868 64.3532 9.78309C64.3554 9.77751 64.3553 9.7713 64.353 9.76578L62.1423 4.62399Z"
      stroke="#000B28" stroke-width="0.13617" />
    <path
      d="M46.157 24.4446C46.1558 24.4482 46.1555 24.4521 46.1561 24.4559C46.1567 24.4596 46.1582 24.4632 46.1604 24.4663C46.1627 24.4693 46.1657 24.4718 46.1691 24.4735C46.1725 24.4752 46.1763 24.476 46.1801 24.4759H51.2845C51.2882 24.476 51.2919 24.4751 51.2953 24.4735C51.2986 24.4719 51.3015 24.4694 51.3038 24.4665C51.306 24.4635 51.3076 24.46 51.3082 24.4563C51.3089 24.4527 51.3087 24.4489 51.3076 24.4453L49.5129 18.6887C49.5114 18.6837 49.5084 18.6794 49.5042 18.6763C49.5 18.6732 49.4949 18.6716 49.4897 18.6717H47.9912C47.9861 18.6716 47.9811 18.6731 47.9769 18.676C47.9728 18.679 47.9696 18.6832 47.968 18.688L46.157 24.4446Z"
      stroke="#4242FF" stroke-width="0.13617" />
    <path
      d="M69.8481 24.4487C69.8471 24.4518 69.8469 24.4551 69.8475 24.4583C69.848 24.4615 69.8493 24.4645 69.8512 24.4672C69.8531 24.4698 69.8556 24.472 69.8585 24.4735C69.8614 24.475 69.8646 24.4758 69.8678 24.4759H74.9803C74.9836 24.4758 74.9868 24.475 74.9897 24.4735C74.9926 24.472 74.9951 24.4698 74.997 24.4672C74.9989 24.4645 75.0002 24.4615 75.0007 24.4583C75.0012 24.4551 75.001 24.4518 75.0001 24.4487L73.204 18.6866C73.2027 18.6822 73.2 18.6784 73.1963 18.6757C73.1926 18.673 73.1881 18.6716 73.1836 18.6716H71.6802C71.6757 18.6716 71.6712 18.673 71.6675 18.6757C71.6639 18.6784 71.6612 18.6822 71.6598 18.6866L69.8481 24.4487Z"
      stroke="#4242FF" stroke-width="0.13617" />
    <path
      d="M85.9029 19.1585C85.3128 18.8889 84.7461 18.7516 84.2028 18.7466C83.3386 18.7385 82.4761 18.7369 81.6156 18.7419C81.611 18.7419 81.6067 18.7436 81.6035 18.7468C81.6003 18.75 81.5985 18.7544 81.5985 18.7589L81.5972 26.9951C81.5972 27.0043 81.6008 27.0132 81.6073 27.0197C81.6139 27.0262 81.6227 27.0299 81.6319 27.0299C82.3314 27.0312 83.0354 27.0305 83.7439 27.0278C84.8973 27.0237 86.0173 26.7779 86.8867 25.9779C88.0482 24.9104 88.3396 23.1871 87.9788 21.6872C87.6942 20.5039 87.0022 19.661 85.9029 19.1585Z"
      stroke="#4242FF" stroke-width="0.13617" />
    <path
      d="M4.36779 8.26994C4.47673 7.98807 4.6011 7.71323 4.7409 7.44543C4.8108 7.31153 4.86504 7.17695 4.90362 7.04169C5.06566 6.46705 5.25358 5.94143 5.58107 5.44237C5.76762 5.15823 6.05358 4.83755 6.43894 4.48033C8.10907 2.93003 10.1693 1.58126 12.3474 0.872497C12.6626 0.77037 12.9935 0.741093 13.2917 0.632157C14.2672 0.276299 15.2119 0.0822562 16.1261 0.0500292C17.7547 -0.00716227 18.9755 0.613093 20.1983 1.63097C20.2773 1.69633 20.366 1.7424 20.4645 1.76918C21.8344 2.1382 23.1255 2.69196 24.3379 3.43045C24.6973 3.64969 25.016 3.93224 25.3646 4.13922C26.0581 4.55091 26.704 5.02841 27.3023 5.57173C28.5135 6.67199 28.7436 8.20935 28.7014 9.76237C28.7005 9.79959 28.711 9.83295 28.7328 9.86245C28.9397 10.1436 29.1304 10.4017 29.3986 10.6468C30.3021 11.4727 31.1559 12.4585 31.5787 13.6133C32.3712 15.7811 31.4139 17.8597 30.0148 19.5108C30.0003 19.5285 29.9944 19.5485 29.9971 19.5707C30.0917 20.3053 29.8779 21.0904 29.2025 21.4785C29.1896 21.486 29.1783 21.496 29.1693 21.508C29.1603 21.5199 29.1538 21.5335 29.1501 21.5479C28.8893 22.5678 28.6048 23.6184 28.1132 24.5586C28.0496 24.6807 28.0008 24.8003 27.9668 24.9174C27.7959 25.5043 27.6134 26.0456 27.2771 26.5549C27.081 26.8522 26.7783 27.1885 26.3688 27.5639C24.6708 29.1224 22.5813 30.4779 20.3678 31.171C20.1506 31.2391 19.911 31.2432 19.6931 31.3215C18.567 31.7239 17.3836 31.9853 16.2275 31.9493C14.8924 31.907 13.6029 31.2228 12.5966 30.3023C12.5067 30.2206 12.2949 30.211 12.1942 30.1818C10.9968 29.8336 9.85727 29.3491 8.77563 28.7282C8.53415 28.5897 8.30266 28.4372 8.08116 28.2706C7.8474 28.0945 7.64065 27.9518 7.4609 27.8424C7.10595 27.6259 6.7603 27.3953 6.42396 27.1506C6.40624 27.1378 6.3851 27.1306 6.36337 27.1302C6.2129 27.1261 6.04813 27.1513 5.91945 27.1465C4.61494 27.0934 4.31536 26.0034 4.43519 24.9059C4.44654 24.7996 4.43792 24.6966 4.40932 24.5967C4.18328 23.8138 4.12881 23.0056 4.14243 22.1947C4.14243 22.1726 4.13553 22.1509 4.12268 22.1327C3.90413 21.8339 3.70464 21.5765 3.41732 21.3137C2.19383 20.1971 1.16302 18.8606 1.0214 17.1734C1.00688 17.0009 0.995305 16.8287 0.98668 16.6567C0.985319 16.6331 0.976014 16.6135 0.958766 16.5981C0.441318 16.1338 0.182594 15.728 0.195531 15.0117C0.230254 13.0427 0.454935 10.9259 1.11808 9.05837C1.41153 8.23318 2.1237 8.1719 2.88285 8.16713C3.13704 8.16577 3.61477 8.21025 4.31605 8.30058C4.34146 8.30376 4.35871 8.29355 4.36779 8.26994ZM14.8236 0.927646C14.6761 0.958965 14.5704 0.97644 14.5064 0.980072C14.5 0.980526 14.4968 0.98393 14.4968 0.990284C14.4968 0.996639 14.4998 1.00004 14.5057 1.0005C14.5461 1.00367 14.5862 1.00163 14.6262 0.99437C15.4151 0.849575 16.2089 0.804185 17.0078 0.858199C17.1978 0.871135 17.4211 0.914029 17.6294 0.933093C17.6308 0.933093 17.6317 0.932412 17.6321 0.93105C17.6462 0.888838 17.646 0.888157 17.6315 0.929008C17.631 0.929916 17.6303 0.930143 17.6294 0.929689C16.7116 0.659391 15.7557 0.728157 14.8236 0.927646ZM14.0311 1.85837C14.2036 1.91692 14.3586 1.92509 14.4961 1.88288C14.4998 1.88163 14.5031 1.87936 14.5055 1.87634C14.5079 1.87331 14.5094 1.86965 14.5099 1.8658C14.5103 1.86194 14.5096 1.85804 14.5079 1.85455C14.5062 1.85107 14.5035 1.84814 14.5002 1.84611L14.3824 1.77803C14.3697 1.77077 14.3561 1.76895 14.3416 1.77258L14.0318 1.84816C14.0307 1.84847 14.0298 1.8491 14.0291 1.84997C14.0284 1.85084 14.028 1.85191 14.0279 1.85302C14.0278 1.85414 14.0281 1.85525 14.0287 1.85621C14.0292 1.85716 14.0301 1.85792 14.0311 1.85837ZM16.2786 2.2056C16.2586 2.2047 16.2557 2.2115 16.2698 2.22603C16.4645 2.42824 16.8512 2.33565 17.0963 2.29343C17.2951 2.25939 17.2949 2.23919 17.0956 2.23284L16.2786 2.2056ZM13.0112 2.40918C12.6767 2.35834 12.3587 2.40668 12.0573 2.5542C12.0566 2.5547 12.056 2.55545 12.0557 2.55633C12.0554 2.55721 12.0554 2.55816 12.0557 2.55903C12.056 2.5599 12.0566 2.56064 12.0574 2.56112C12.0582 2.56161 12.0591 2.56181 12.0601 2.56169C12.4223 2.47454 12.7205 2.43641 13.1542 2.43028C13.1782 2.42983 13.1789 2.42529 13.1562 2.41667C13.1317 2.40714 13.1054 2.40464 13.0772 2.40918C13.0555 2.41236 13.0334 2.41236 13.0112 2.40918ZM12.1349 3.26773C11.593 3.38824 11.2682 3.55028 11.1436 4.14058C11.1377 4.16827 11.1452 4.17258 11.1661 4.15352L12.1404 3.27862C12.1522 3.26773 12.1504 3.2641 12.1349 3.26773ZM22.4274 3.47675C22.4257 3.47567 22.4236 3.47531 22.4216 3.47576C22.4196 3.4762 22.4179 3.47742 22.4168 3.47914C22.4157 3.48085 22.4154 3.48293 22.4158 3.48491C22.4163 3.48688 22.4175 3.4886 22.4192 3.48969C22.7365 3.76611 23.0544 4.12765 23.431 4.32169C23.9044 4.56453 24.3646 4.82143 24.8117 5.09241C24.8526 5.11692 24.8653 5.10671 24.8499 5.06177C24.7879 4.88543 24.6619 4.53956 24.4945 4.44765C23.869 4.1045 23.18 3.78087 22.4274 3.47675ZM7.56779 5.5016C7.55509 5.51386 7.54487 5.52611 7.53716 5.53837C7.5365 5.53947 7.5362 5.54074 7.53631 5.54201C7.53641 5.54329 7.53691 5.5445 7.53774 5.54547C7.53856 5.54645 7.53967 5.54714 7.54091 5.54745C7.54215 5.54777 7.54346 5.54769 7.54465 5.54722C8.06754 5.38382 8.69733 5.1605 9.10788 4.79488C9.49597 4.44833 9.80507 3.98262 10.1326 3.55028C10.1489 3.52895 10.1457 3.52532 10.123 3.53939C9.21432 4.10586 8.36258 4.75993 7.56779 5.5016ZM14.2456 3.7702C13.545 3.89684 12.9615 4.17258 12.3494 4.52594C12.3435 4.52957 12.3419 4.53434 12.3447 4.54024L12.3453 4.54092C12.3471 4.54501 12.354 4.54501 12.3658 4.54092C13.0017 4.30762 13.6285 4.05139 14.2463 3.77224C14.2508 3.76997 14.2506 3.76929 14.2456 3.7702ZM7.73188 9.57445C7.18788 10.3043 6.83792 11.1459 6.60099 12.018C6.30277 13.1156 6.05494 14.2267 5.63213 15.2868C5.60626 15.3517 5.59174 15.4191 5.58856 15.489C5.53727 16.5244 5.42765 17.5538 5.25971 18.5773C5.25562 18.6005 5.26243 18.62 5.28013 18.6359C5.81596 19.1118 6.12439 19.6156 6.09511 20.3585C6.07968 20.7543 6.02362 21.1482 5.92694 21.5404C5.92343 21.555 5.9248 21.5703 5.93083 21.584C5.93686 21.5977 5.94722 21.6089 5.9603 21.616C6.56989 21.9473 7.15588 22.3225 7.71826 22.7414C8.60882 23.4053 9.22295 24.2727 9.78737 25.2095C9.79872 25.2286 9.81483 25.2343 9.83571 25.2265C10.4246 25.0087 11.0149 24.8167 11.6502 24.7479C12.2153 24.6866 12.6846 24.8582 13.0582 25.2626C13.5743 25.8216 13.9242 26.4841 14.2299 27.1751C14.2504 27.2205 14.2828 27.2546 14.3273 27.2773C14.7426 27.4861 15.1357 27.7307 15.5065 28.0112C15.5264 28.0262 15.5508 28.0343 15.576 28.0344C16.0492 28.0316 16.5598 28.0609 16.9956 27.986C18.0904 27.7961 19.0592 27.2078 20.1213 26.8497C20.7212 26.6475 21.3271 26.4732 21.9242 26.2601C21.9941 26.2347 22.064 26.1786 22.1339 26.0919C22.3436 25.8298 22.5976 25.5853 22.633 25.2783C22.7056 24.6446 22.8377 24.0242 23.0293 23.4168C23.4133 22.2002 24.4168 21.7644 25.6015 21.5751C25.6241 21.5713 25.6454 21.5621 25.6635 21.5482C25.6815 21.5343 25.6958 21.5162 25.705 21.4955C26.3695 19.9867 26.5976 18.3676 27.1825 16.8276C27.2328 16.6946 27.2617 16.5579 27.2689 16.4177C27.3472 14.911 27.5515 13.6861 27.8034 11.9826C27.8109 11.9336 27.8048 11.8458 27.7775 11.7893C27.5655 11.3481 27.3232 10.9241 27.0504 10.5174C27.015 10.4643 26.9893 10.4337 26.9734 10.4255C25.6934 9.7256 24.5339 8.98416 23.6985 7.75182C23.4146 7.33241 22.7705 7.22007 22.3035 7.2296C21.9558 7.23641 21.6081 7.24526 21.2604 7.25616C19.9661 7.29701 19.0286 6.81224 18.4008 5.66909C18.1339 5.18296 17.8689 4.69548 17.6056 4.20662C17.5375 4.07999 17.3353 3.96765 17.1698 3.96628C16.7212 3.96288 16.2466 3.94245 15.8258 4.01803C15.0994 4.14807 14.4015 4.45786 13.7057 4.77786C12.9315 5.13326 11.9464 5.39267 11.096 5.68271C11.0796 5.68824 11.0654 5.69906 11.0558 5.71348C11.0462 5.72789 11.0417 5.74509 11.0429 5.76237C11.0774 6.27028 11.0826 6.78047 11.0585 7.29292C11.0336 7.82399 10.9248 8.29309 10.7324 8.70024C10.4809 9.23176 10.0429 9.52316 9.41835 9.57445C8.8074 9.62438 8.2634 9.61666 7.78635 9.5513C7.76365 9.54813 7.7455 9.55584 7.73188 9.57445ZM18.8134 4.06909C19.3125 4.35505 20.1132 4.45922 20.7001 4.4776C20.7977 4.48078 20.7999 4.46739 20.7069 4.43743C20.0918 4.23862 19.4625 4.1104 18.8189 4.05275C18.7916 4.05003 18.7898 4.05548 18.8134 4.06909ZM6.68541 6.6005C6.27077 6.75369 5.75128 8.04526 5.60762 8.45854C5.60565 8.46441 5.60494 8.47064 5.60557 8.47679C5.60619 8.48295 5.60812 8.48888 5.61122 8.49419C5.61433 8.49949 5.61854 8.50404 5.62356 8.50753C5.62858 8.51101 5.63429 8.51335 5.6403 8.51437L6.4546 8.6519C6.48256 8.65672 6.51135 8.65308 6.53729 8.64144C6.56324 8.6298 6.58517 8.61069 6.6003 8.58654C6.87991 8.1399 7.1754 7.70869 7.48677 7.29292C8.13563 6.42688 8.9438 5.86177 9.91605 5.40288C10.0409 5.34387 10.178 5.21655 10.3273 5.02092C10.34 5.00458 10.347 4.98643 10.3484 4.96645L10.3872 4.43948C10.3895 4.40634 10.3808 4.40316 10.3613 4.42994C9.7438 5.27896 9.13648 5.78007 8.12473 6.09326C7.8592 6.17542 7.37943 6.3445 6.68541 6.6005ZM18.7515 4.85139C19.1041 5.51931 19.5174 6.2233 20.2977 6.43982C20.5904 6.52106 20.811 6.5601 20.9595 6.55692C21.6049 6.54262 22.2531 6.50926 22.8958 6.5719C22.9208 6.57417 22.9269 6.56441 22.9142 6.54262C22.6346 6.05604 22.4115 5.68838 22.2449 5.43965C22.1673 5.3239 22.0468 5.24288 21.8943 5.23948C20.8655 5.21565 19.7741 5.1782 18.7664 4.83369C18.7465 4.82688 18.7415 4.83278 18.7515 4.85139ZM25.8085 5.80322C26.6841 6.52356 27.4487 7.27999 27.8933 8.34892C27.9196 8.41156 27.9291 8.40906 27.9219 8.34143C27.8638 7.80084 27.7026 7.30518 27.4385 6.85445C27.0436 6.17973 26.3021 5.59896 25.6267 5.14484C25.6108 5.13394 25.6049 5.13803 25.609 5.15709L25.7064 5.63369C25.7204 5.70223 25.7545 5.75874 25.8085 5.80322ZM10.1081 8.36254C10.36 7.78518 10.3845 7.02807 10.3491 6.41939C10.3473 6.38989 10.338 6.38716 10.3212 6.41122C9.84456 7.08753 9.33914 7.74115 8.8049 8.37207C8.67282 8.52799 8.48763 8.69139 8.34124 8.86433C8.32672 8.88157 8.3308 8.89133 8.3535 8.8936C8.72751 8.934 9.09971 8.92288 9.47009 8.86024C9.77285 8.80895 9.9855 8.64305 10.1081 8.36254ZM1.11877 15.6735C1.45306 14.2798 2.26736 13.0413 3.28183 12.0071C3.41936 11.8676 3.4289 11.7961 3.42685 11.6082C3.42595 11.5337 3.45341 11.393 3.50924 11.186C3.70351 10.4621 3.90095 9.74103 4.10158 9.02296C4.10793 8.99981 4.09908 8.98665 4.07502 8.98347C3.60524 8.9163 3.13976 8.88293 2.6786 8.88339C2.38719 8.88407 1.96847 8.87318 1.82821 9.19862C1.56472 9.80798 1.40813 10.4977 1.28966 11.1493C1.04728 12.4769 0.914737 13.8157 0.892042 15.1656C0.889319 15.3485 0.953092 15.5206 1.08336 15.6817C1.10061 15.703 1.11241 15.7003 1.11877 15.6735ZM5.54362 9.21428C5.53753 9.21332 5.53131 9.21361 5.52536 9.21515C5.5194 9.21669 5.51384 9.21943 5.50903 9.22322C5.50423 9.227 5.50028 9.23173 5.49744 9.23711C5.4946 9.24249 5.49294 9.24839 5.49256 9.25445L5.45715 9.7542C5.45579 9.77825 5.46328 9.78143 5.47962 9.76373L5.9072 9.30416C5.92535 9.28464 5.92127 9.27284 5.89494 9.26875L5.54362 9.21428ZM6.72626 9.79369C6.32524 10.1341 6.12847 10.7707 5.99707 11.2684C5.82776 11.9093 5.66345 12.5539 5.50413 13.202C5.50141 13.2129 5.50572 13.2197 5.51707 13.2225L5.53409 13.2272C5.53628 13.2277 5.53855 13.2278 5.54077 13.2274C5.54298 13.227 5.5451 13.2262 5.547 13.225C5.5489 13.2238 5.55054 13.2222 5.55183 13.2204C5.55312 13.2186 5.55403 13.2165 5.55452 13.2143C5.84524 12.031 6.14005 10.8756 6.73443 9.8005C6.74351 9.78325 6.74079 9.78098 6.72626 9.79369ZM29.1848 17.0761C29.5393 16.3585 29.8105 15.6992 29.9985 15.0982C30.0806 14.8368 30.1151 14.6491 30.1019 14.5351C29.9966 13.6137 29.7207 12.7527 29.274 11.952C29.264 11.9343 29.2609 11.9354 29.2645 11.9554C29.4483 13.0461 29.4497 14.1811 29.4347 15.2847C29.4279 15.7836 29.3063 16.2883 29.0698 16.799C29.0612 16.8174 29.0566 16.8374 29.0562 16.8577C29.0559 16.878 29.0598 16.8981 29.0677 16.9167L29.1331 17.074C29.149 17.1126 29.1662 17.1133 29.1848 17.0761ZM30.2354 18.0408C31.0354 16.7656 31.4541 15.314 30.9101 13.8413C30.9056 13.8291 30.9017 13.8293 30.8985 13.842C30.8926 13.8652 30.8892 13.8865 30.8883 13.906C30.872 14.3118 30.8243 14.6924 30.8223 15.1105C30.8177 16.1227 30.6164 17.0965 30.2184 18.032C30.2161 18.0374 30.2175 18.0415 30.2225 18.0442H30.2231C30.2281 18.047 30.2322 18.0458 30.2354 18.0408ZM2.6146 13.9775C2.15389 14.6779 1.85681 15.4434 1.72336 16.274C1.71928 16.2994 1.7279 16.3199 1.74923 16.3353L2.00523 16.5164C2.02838 16.5327 2.04087 16.5266 2.04268 16.498C2.09715 15.6177 2.30413 14.7891 2.62958 13.9707C2.63048 13.9684 2.62935 13.9668 2.62617 13.9659C2.62436 13.9655 2.62299 13.965 2.62209 13.9646C2.61982 13.9637 2.61846 13.9644 2.618 13.9666C2.61755 13.968 2.61732 13.9691 2.61732 13.97C2.61687 13.9728 2.61596 13.9752 2.6146 13.9775ZM3.73868 14.7673C3.38804 15.489 3.04149 16.2495 2.82907 17.023C2.82589 17.0343 2.82952 17.0432 2.83996 17.0495L3.41256 17.3879C3.41434 17.389 3.41639 17.3896 3.41849 17.3897C3.42059 17.3897 3.42266 17.3892 3.42447 17.3881C3.42629 17.3871 3.42779 17.3855 3.42881 17.3837C3.42983 17.3819 3.43033 17.3798 3.43026 17.3777C3.42617 17.0039 3.40575 16.5981 3.4677 16.2454C3.53397 15.8678 3.64586 15.5031 3.80336 15.1513C3.87758 14.9852 3.86668 14.8633 3.84013 14.6931C3.83241 14.6454 3.81449 14.6411 3.78634 14.6802C3.77545 14.6947 3.75956 14.7237 3.73868 14.7673ZM1.96711 18.1954C1.96847 18.199 1.9696 18.202 1.97051 18.2042C1.97064 18.2046 1.97081 18.2049 1.97101 18.2053C1.97121 18.2056 1.97144 18.2059 1.97165 18.2061C1.97187 18.2063 1.97207 18.2065 1.97223 18.2065C1.97239 18.2065 1.9725 18.2064 1.97255 18.2063C1.95531 17.9467 1.97051 17.6888 2.01817 17.4328C2.02103 17.4186 2.01951 17.4037 2.01381 17.3902C2.0081 17.3768 1.99848 17.3653 1.98617 17.3573L1.75945 17.2082C1.73357 17.1914 1.72223 17.1982 1.7254 17.2286C1.76035 17.5636 1.84092 17.8858 1.96711 18.1954ZM3.34719 18.1729C3.17607 18.0712 3.00722 17.9698 2.84064 17.8686C2.83785 17.8668 2.83461 17.8659 2.83131 17.866C2.82801 17.8661 2.82479 17.8672 2.82205 17.8691C2.81931 17.8711 2.81717 17.8738 2.81587 17.877C2.81458 17.8801 2.8142 17.8836 2.81477 17.887C2.95139 18.6545 3.20966 19.378 3.58958 20.0575C3.59639 20.0693 3.59865 20.0686 3.59639 20.0555C3.49698 19.4863 3.44683 18.9087 3.44592 18.3227C3.44546 18.2619 3.41256 18.212 3.34719 18.1729ZM27.2934 18.7993C27.0701 19.728 26.8597 20.5409 26.5207 21.392C26.5057 21.4292 26.5177 21.4428 26.5568 21.4328L26.584 21.426C26.6212 21.4165 26.6464 21.3938 26.6596 21.3579C26.9428 20.5722 27.1008 19.762 27.3166 18.962C27.3275 18.9212 27.3236 18.8669 27.305 18.7993C27.3009 18.7839 27.2971 18.7839 27.2934 18.7993ZM5.34005 20.7282C5.34206 20.7323 5.34542 20.7357 5.34959 20.7377C5.35375 20.7397 5.35847 20.7402 5.36297 20.7392C5.36748 20.7381 5.3715 20.7356 5.37438 20.732C5.37727 20.7284 5.37884 20.7239 5.37886 20.7193L5.38566 19.9602C5.38566 19.9571 5.38496 19.9541 5.38362 19.9513L5.16711 19.5108C5.16524 19.5068 5.16211 19.5035 5.15819 19.5014C5.15427 19.4993 5.14978 19.4985 5.14539 19.4992C5.14101 19.4999 5.13696 19.502 5.13388 19.5052C5.1308 19.5084 5.12884 19.5125 5.1283 19.5169L5.04047 20.1195C5.04 20.1234 5.04072 20.1275 5.04252 20.131L5.34005 20.7282ZM27.0817 23.9888C27.3139 23.4454 27.3724 22.8538 27.3928 22.2764C27.3947 22.2351 27.3815 22.2297 27.3533 22.2601C27.0465 22.5928 26.7322 22.9244 26.4104 23.2548C26.3123 23.3549 26.1925 23.506 26.104 23.6476C25.8303 24.087 25.5309 24.508 25.2059 24.9106C24.651 25.599 23.9763 26.0776 23.1927 26.4752C23.1604 26.4911 23.14 26.5165 23.1314 26.5515L23.0599 26.8402C23.0522 26.8724 23.0601 26.8769 23.0837 26.8538C23.8156 26.1368 24.8451 25.8529 25.7969 25.5295C26.0243 25.4519 26.2899 25.4029 26.4328 25.1843C26.6993 24.7758 26.9156 24.3773 27.0817 23.9888ZM25.1011 22.4153C24.0962 22.6502 23.7401 23.2691 23.5338 24.2155C23.5261 24.2518 23.534 24.2556 23.5576 24.227C23.9219 23.7933 24.2677 23.3794 24.6728 22.9797C24.7736 22.8803 24.9216 22.6999 25.1168 22.4385C25.1331 22.4167 25.1279 22.4089 25.1011 22.4153ZM8.44473 24.4708C7.98357 23.8421 7.43752 23.3381 6.8066 22.9586C6.80633 22.9584 6.80596 22.9582 6.80558 22.9582C6.8052 22.9582 6.80483 22.9584 6.80456 22.9586C6.80429 22.9589 6.80414 22.9593 6.80414 22.9596C6.80414 22.96 6.80429 22.9604 6.80456 22.9607C6.96524 23.1847 7.11979 23.3583 7.35128 23.5394C7.72938 23.8358 8.09137 24.1485 8.43724 24.4776C8.43805 24.4786 8.43917 24.4792 8.44036 24.4793C8.44155 24.4794 8.44274 24.4789 8.44368 24.4781C8.44462 24.4772 8.44526 24.476 8.44545 24.4747C8.44565 24.4733 8.44539 24.4719 8.44473 24.4708ZM5.24337 24.803C5.50005 25.439 5.99571 25.9169 6.56218 26.3581C6.56684 26.3617 6.57225 26.3643 6.57802 26.3656C6.58379 26.3669 6.58977 26.3669 6.59554 26.3656L7.08507 26.2478C7.08685 26.2474 7.08848 26.2465 7.08975 26.2452C7.09103 26.2438 7.0919 26.2422 7.09226 26.2404C7.09261 26.2386 7.09245 26.2367 7.09178 26.235C7.09111 26.2333 7.08996 26.2319 7.08847 26.2308C6.37835 25.65 5.74992 25.0563 5.28354 24.2842C5.27355 24.2674 5.2647 24.2681 5.25698 24.2863C5.18027 24.4633 5.17573 24.6356 5.24337 24.803ZM13.3244 26.9259C13.1233 26.5274 12.9039 26.1725 12.666 25.8611C12.4009 25.5139 12.0489 25.3784 11.61 25.4546C11.1334 25.5372 10.6688 25.6677 10.2163 25.8461C10.1963 25.8538 10.1916 25.8672 10.202 25.8863C10.3527 26.1663 10.5014 26.4042 10.648 26.5998C10.7229 26.6999 10.8202 26.7557 10.9544 26.7591C11.7414 26.7802 12.5332 26.8082 13.3081 26.9477C13.3285 26.9514 13.3339 26.9441 13.3244 26.9259ZM24.2916 26.8531C23.6046 27.1826 23.1389 27.8417 22.7399 28.4463C22.7304 28.4613 22.7331 28.464 22.7481 28.4545C23.6704 27.8721 24.5283 27.2067 25.3217 26.4582C25.3321 26.4482 25.3305 26.4455 25.3169 26.45C24.9688 26.5571 24.627 26.6915 24.2916 26.8531ZM8.4209 27.5857C9.06226 27.937 9.73767 28.2468 10.4144 28.515C10.4426 28.5259 10.4453 28.5212 10.4226 28.5007C10.1033 28.2134 9.78601 27.8628 9.39724 27.6647C8.87367 27.3991 8.45563 27.1425 8.02873 26.8987C8.00014 26.8824 7.99083 26.8899 8.00082 26.9212C8.07571 27.1554 8.19418 27.4618 8.4209 27.5857ZM20.4454 27.457L18.5908 28.2141C18.5901 28.2145 18.5896 28.2152 18.5894 28.2159C18.5891 28.2167 18.5891 28.2175 18.5894 28.2182C18.5952 28.2331 18.6249 28.2382 18.6768 28.233C18.7286 28.2278 18.8016 28.2126 18.8916 28.1881C18.9816 28.1636 19.0868 28.1304 19.2012 28.0904C19.3156 28.0503 19.4369 28.0042 19.5583 27.9547L19.5733 27.9486C19.6945 27.8991 19.8133 27.8472 19.923 27.7958C20.0327 27.7445 20.1311 27.6946 20.2125 27.6492C20.2939 27.6037 20.3568 27.5635 20.3976 27.5309C20.4384 27.4983 20.4563 27.4739 20.4502 27.459C20.45 27.4586 20.4498 27.4581 20.4495 27.4578C20.4491 27.4574 20.4487 27.4571 20.4483 27.4569C20.4478 27.4567 20.4473 27.4566 20.4468 27.4567C20.4464 27.4567 20.4459 27.4568 20.4454 27.457ZM12.1288 27.5537C12.6544 27.7307 13.1932 27.8492 13.7452 27.9091C13.767 27.9118 13.7769 27.9021 13.7751 27.8798C13.7706 27.8299 13.7454 27.7977 13.6995 27.7831C13.1776 27.6152 12.6556 27.5294 12.1336 27.5258C12.0732 27.5253 12.0716 27.5346 12.1288 27.5537ZM20.1445 29.603C20.8274 29.5976 21.2985 29.1237 21.7077 28.6465C21.739 28.6097 21.7329 28.6015 21.6893 28.6219C21.1501 28.8786 20.6218 29.2449 20.135 29.5745C20.1059 29.594 20.1091 29.6035 20.1445 29.603ZM19.3336 28.8385L18.17 29.2102C18.1187 29.2265 18.1199 29.2388 18.1734 29.247C18.2633 29.2613 18.4294 29.3402 18.5254 29.2933C18.8137 29.1525 19.0842 29.0032 19.337 28.8453C19.3538 28.8348 19.3527 28.8326 19.3336 28.8385ZM16.5591 29.7916C16.5659 29.7948 16.5723 29.7962 16.5782 29.7957C16.5954 29.7948 16.5984 29.788 16.587 29.7753C16.3916 29.552 15.8762 29.6861 15.6107 29.7256C15.6075 29.7261 15.6075 29.7265 15.6107 29.727C15.6727 29.7358 15.7244 29.761 15.785 29.7644C16.036 29.7803 16.2872 29.7878 16.5387 29.7869C16.546 29.7869 16.5528 29.7885 16.5591 29.7916ZM16.8213 31.2146C16.7858 31.2214 16.75 31.2248 16.7137 31.2248C16.7128 31.2248 16.7123 31.2248 16.7123 31.2248C16.7128 31.2235 16.7134 31.2228 16.7144 31.2228C17.2291 31.2643 17.8575 31.1179 18.3586 31.0083C18.3836 31.0029 18.3834 30.9995 18.3579 30.9981C18.1959 30.9886 18.0032 31.0396 17.8854 31.0533C17.5291 31.0946 17.1744 31.1484 16.8213 31.2146ZM16.1119 31.22C16.1125 31.2166 16.1018 31.2113 16.0805 31.2045C16.0591 31.1976 16.0275 31.1894 15.9875 31.1802C15.9475 31.171 15.8999 31.161 15.8473 31.1509C15.7947 31.1407 15.7383 31.1306 15.6811 31.121C15.624 31.1115 15.5673 31.1027 15.5143 31.0951C15.4612 31.0876 15.4129 31.0815 15.3721 31.0772C15.3313 31.0729 15.2988 31.0704 15.2764 31.0699C15.254 31.0694 15.2422 31.071 15.2416 31.0744C15.241 31.0778 15.2517 31.0831 15.273 31.09C15.2944 31.0968 15.3259 31.1051 15.3659 31.1142C15.4059 31.1234 15.4536 31.1334 15.5062 31.1435C15.5587 31.1537 15.6152 31.1638 15.6724 31.1734C15.7295 31.183 15.7862 31.1918 15.8392 31.1993C15.8922 31.2068 15.9405 31.2129 15.9814 31.2172C16.0222 31.2216 16.0547 31.224 16.0771 31.2245C16.0995 31.225 16.1113 31.2235 16.1119 31.22Z"
      fill="#4242FF" />
    <path
      d="M53.2725 12.4647C52.3356 13.6467 51.1911 14.3309 49.6606 14.4515C46.3973 14.7081 43.667 12.3449 43.4396 9.06116C43.2041 5.66303 45.585 2.8729 49.0076 2.69656C51.379 2.57401 53.4992 3.89622 54.3843 6.10422C54.3952 6.131 54.3864 6.14439 54.3578 6.14439H52.5372C52.5154 6.14439 52.4991 6.13509 52.4882 6.11648C51.1428 3.81928 48.0184 3.69809 46.2842 5.59086C44.0524 8.02626 45.2555 12.4382 48.7455 12.8617C50.7527 13.1054 52.544 11.916 53.0778 9.96192C53.085 9.93605 53.0753 9.92311 53.0485 9.92311H49.0478C49.0365 9.92311 49.0308 9.91744 49.0308 9.90609V8.44226C49.0308 8.41957 49.0421 8.40822 49.0648 8.40822H54.767C54.7897 8.40822 54.801 8.41957 54.801 8.44226V14.2806C54.801 14.3033 54.7897 14.3146 54.767 14.3146H53.3372C53.3145 14.3146 53.3031 14.3033 53.3031 14.2806V12.4756C53.3031 12.4425 53.2929 12.4389 53.2725 12.4647Z"
      fill="#000B28" />
    <path
      d="M79.3821 9.3949C79.6476 11.0998 80.8909 12.4649 82.5739 12.8339C84.2216 13.1954 85.8699 12.535 86.7939 11.129C86.8746 11.006 86.9534 10.881 87.0301 10.7539C87.0424 10.7335 87.0605 10.7232 87.0846 10.7232H88.7533C88.7742 10.7232 88.781 10.733 88.7738 10.7525C87.9111 13.1307 85.648 14.5837 83.12 14.4666C79.4652 14.297 77.138 10.9554 77.7521 7.44086C78.207 4.84069 80.2175 2.96086 82.8647 2.71507C85.1755 2.5006 87.5278 3.64239 88.5116 5.77414C89.023 6.88256 89.2013 8.11354 89.1251 9.33158C89.1242 9.35155 89.1135 9.36154 89.0931 9.36154H79.4107C79.3885 9.36154 79.3789 9.37266 79.3821 9.3949ZM87.4019 7.78197C87.201 5.54878 85.0345 4.03048 82.8824 4.27286C80.9331 4.49277 79.6313 5.89601 79.3583 7.79082C79.3579 7.79355 79.3581 7.79633 79.3588 7.79898C79.3595 7.80163 79.3608 7.80407 79.3626 7.80614C79.3643 7.80821 79.3665 7.80986 79.3689 7.81098C79.3714 7.8121 79.374 7.81265 79.3767 7.8126H87.3739C87.3944 7.8126 87.4037 7.80239 87.4019 7.78197Z"
      fill="#000B28" />
    <path
      d="M57.8635 14.3147H56.1123C56.1082 14.3147 56.1042 14.3137 56.1005 14.3118C56.0969 14.3098 56.0938 14.307 56.0916 14.3035C56.0893 14.3 56.088 14.2961 56.0877 14.292C56.0874 14.2878 56.0882 14.2837 56.0899 14.28L61.2058 2.87367C61.2078 2.86938 61.2109 2.86574 61.2149 2.86321C61.2189 2.86067 61.2235 2.85934 61.2283 2.85938H63.0482C63.0529 2.85934 63.0575 2.86067 63.0615 2.86321C63.0655 2.86574 63.0687 2.86938 63.0707 2.87367L68.1866 14.28C68.1883 14.2837 68.189 14.2878 68.1887 14.292C68.1884 14.2961 68.1871 14.3 68.1849 14.3035C68.1826 14.307 68.1796 14.3098 68.1759 14.3118C68.1723 14.3137 68.1682 14.3147 68.1641 14.3147H66.3142C66.3094 14.3147 66.3047 14.3132 66.3007 14.3106C66.2968 14.3079 66.2936 14.3041 66.2918 14.2997L64.9369 11.1378C64.9355 11.1348 64.9336 11.132 64.9312 11.1298C64.9288 11.1275 64.9259 11.1257 64.9228 11.1246C64.9197 11.1234 64.9164 11.1229 64.9131 11.1231C64.9097 11.1233 64.9065 11.1241 64.9035 11.1256L62.1481 12.4308C62.1449 12.4322 62.1414 12.433 62.1379 12.433C62.1344 12.433 62.1309 12.4322 62.1277 12.4308L59.3076 11.0929C59.3046 11.0914 59.3014 11.0906 59.298 11.0904C59.2947 11.0902 59.2914 11.0907 59.2883 11.0919C59.2851 11.093 59.2823 11.0948 59.2799 11.0971C59.2775 11.0994 59.2755 11.1021 59.2742 11.1052L57.886 14.2997C57.8841 14.3041 57.881 14.3079 57.877 14.3106C57.873 14.3132 57.8683 14.3147 57.8635 14.3147ZM62.1263 4.62482C62.1245 4.62076 62.1215 4.61731 62.1178 4.61489C62.114 4.61247 62.1097 4.61118 62.1052 4.61118C62.1007 4.61118 62.0964 4.61247 62.0926 4.61489C62.0889 4.61731 62.0859 4.62076 62.0841 4.62482L59.8741 9.73325C59.8717 9.73877 59.8716 9.74497 59.8738 9.75056C59.876 9.75615 59.8802 9.76068 59.8856 9.7632L62.144 10.8199C62.147 10.8212 62.1503 10.8219 62.1535 10.8219C62.1568 10.8219 62.1601 10.8212 62.1631 10.8199L64.3255 9.79657C64.3309 9.79404 64.3351 9.78951 64.3373 9.78392C64.3394 9.77834 64.3394 9.77213 64.337 9.76661L62.1263 4.62482Z"
      fill="#000B28" />
    <path
      d="M71.4939 12.7317H77.4792C77.4868 12.7317 77.4941 12.7347 77.4995 12.7401C77.5048 12.7455 77.5078 12.7527 77.5078 12.7603V14.2861C77.5078 14.2937 77.5048 14.301 77.4995 14.3063C77.4941 14.3117 77.4868 14.3147 77.4792 14.3147H69.8428C69.8352 14.3147 69.8279 14.3117 69.8226 14.3063C69.8172 14.301 69.8142 14.2937 69.8142 14.2861V2.88797C69.8142 2.88039 69.8172 2.87311 69.8226 2.86775C69.8279 2.86239 69.8352 2.85938 69.8428 2.85938H71.4367C71.4443 2.85938 71.4515 2.86239 71.4569 2.86775C71.4623 2.87311 71.4653 2.88039 71.4653 2.88797V12.7031C71.4653 12.7069 71.466 12.7106 71.4675 12.7141C71.4689 12.7175 71.471 12.7207 71.4737 12.7233C71.4763 12.726 71.4795 12.7281 71.4829 12.7295C71.4864 12.731 71.4901 12.7317 71.4939 12.7317Z"
      fill="#000B28" />
    <path
      d="M92.9499 14.3147H91.3452C91.339 14.3147 91.3331 14.3123 91.3288 14.3079C91.3245 14.3036 91.322 14.2977 91.322 14.2915V2.88252C91.322 2.87638 91.3245 2.8705 91.3288 2.86616C91.3331 2.86181 91.339 2.85938 91.3452 2.85938H93.3448C93.3484 2.85943 93.352 2.86032 93.3552 2.86197C93.3583 2.86363 93.3611 2.866 93.3632 2.86891L99.7734 11.8146C99.7763 11.8187 99.7803 11.8218 99.785 11.8234C99.7898 11.825 99.7949 11.825 99.7996 11.8235C99.8043 11.822 99.8085 11.819 99.8114 11.8149C99.8142 11.8109 99.8158 11.806 99.8156 11.801V2.88252C99.8156 2.87638 99.8181 2.8705 99.8224 2.86616C99.8268 2.86181 99.8327 2.85937 99.8388 2.85938H101.444C101.45 2.85938 101.456 2.86181 101.46 2.86616C101.464 2.8705 101.467 2.87638 101.467 2.88252V14.2915C101.467 14.2977 101.464 14.3036 101.46 14.3079C101.456 14.3123 101.45 14.3147 101.444 14.3147H99.6747C99.6711 14.3146 99.6676 14.3138 99.6644 14.3121C99.6612 14.3104 99.6584 14.3081 99.6563 14.3052L93.0153 5.08848C93.0125 5.08438 93.0084 5.0813 93.0037 5.07969C92.999 5.07809 92.9939 5.07804 92.9891 5.07957C92.9844 5.0811 92.9803 5.08412 92.9774 5.08818C92.9745 5.09224 92.973 5.09712 92.9731 5.1021V14.2915C92.9731 14.2977 92.9706 14.3036 92.9663 14.3079C92.962 14.3123 92.9561 14.3147 92.9499 14.3147Z"
      fill="#000B28" />
    <path
      d="M59.4595 18.8243C56.7361 19.8347 55.9177 23.4146 57.6791 25.6376C58.6779 26.8978 60.3112 27.4486 61.8684 27.0707C63.0639 26.7807 63.9225 25.9861 64.4678 24.8641C64.4723 24.8549 64.4792 24.8471 64.4878 24.8417C64.4963 24.8363 64.5062 24.8334 64.5162 24.8335H66.285C66.3041 24.8335 66.3107 24.8425 66.3048 24.8607C65.1562 28.4787 60.9179 29.833 57.7621 27.9048C56.3242 27.0265 55.358 25.545 55.098 23.881C54.4832 19.9484 57.5497 16.5775 61.5708 17.0275C63.7979 17.2767 65.626 18.7426 66.3055 20.9077C66.3114 20.9263 66.3043 20.9356 66.2844 20.9356H64.5162C64.4944 20.9356 64.479 20.9256 64.4699 20.9056C64.0246 19.9361 63.2723 19.1783 62.2646 18.8093C61.3373 18.4693 60.4023 18.4743 59.4595 18.8243Z"
      fill="#4242FF" />
    <path
      d="M45.6582 26.008L44.8501 28.5953C44.8485 28.6002 44.8454 28.6045 44.8412 28.6075C44.8371 28.6106 44.8321 28.6123 44.8269 28.6123H43.2038C43.1999 28.6123 43.1961 28.6113 43.1927 28.6096C43.1893 28.6078 43.1863 28.6053 43.1841 28.6022C43.1818 28.599 43.1804 28.5954 43.1797 28.5916C43.1791 28.5878 43.1794 28.584 43.1806 28.5803L46.7823 17.174C46.7839 17.1691 46.787 17.1648 46.7911 17.1617C46.7953 17.1587 46.8003 17.157 46.8055 17.157H50.6788C50.684 17.157 50.689 17.1587 50.6932 17.1617C50.6973 17.1648 50.7004 17.1691 50.702 17.174L54.303 28.5803C54.3042 28.584 54.3045 28.5878 54.3039 28.5916C54.3033 28.5954 54.3018 28.599 54.2995 28.6022C54.2973 28.6053 54.2943 28.6078 54.2909 28.6096C54.2875 28.6113 54.2837 28.6123 54.2799 28.6123H52.6091C52.6039 28.6123 52.5989 28.6106 52.5947 28.6075C52.5906 28.6045 52.5875 28.6002 52.5859 28.5953L51.7777 26.008C51.7762 26.0031 51.7731 25.9988 51.7689 25.9958C51.7648 25.9927 51.7597 25.9911 51.7546 25.991H45.6814C45.6762 25.9911 45.6712 25.9927 45.6671 25.9958C45.6629 25.9988 45.6598 26.0031 45.6582 26.008ZM46.1505 24.4448C46.1493 24.4484 46.149 24.4523 46.1496 24.4561C46.1502 24.4598 46.1517 24.4634 46.1539 24.4665C46.1562 24.4695 46.1592 24.472 46.1626 24.4737C46.166 24.4754 46.1698 24.4762 46.1736 24.4761H51.278C51.2817 24.4762 51.2854 24.4753 51.2888 24.4737C51.2921 24.4721 51.2951 24.4697 51.2973 24.4667C51.2996 24.4637 51.3011 24.4602 51.3017 24.4565C51.3024 24.4529 51.3022 24.4491 51.3011 24.4455L49.5064 18.6889C49.5049 18.6839 49.5019 18.6796 49.4977 18.6765C49.4935 18.6734 49.4884 18.6718 49.4833 18.6719H47.9847C47.9796 18.6718 47.9746 18.6733 47.9704 18.6762C47.9663 18.6792 47.9632 18.6834 47.9616 18.6882L46.1505 24.4448Z"
      fill="#4242FF" />
    <path
      d="M69.3483 26.0081L68.5408 28.5953C68.5393 28.6003 68.5363 28.6046 68.5321 28.6077C68.5279 28.6107 68.5229 28.6124 68.5177 28.6123H66.8952C66.8914 28.6124 66.8876 28.6116 66.8842 28.6099C66.8808 28.6082 66.8778 28.6057 66.8755 28.6026C66.8732 28.5996 66.8717 28.596 66.8711 28.5922C66.8705 28.5885 66.8709 28.5846 66.8721 28.581L70.4731 17.1733C70.4747 17.1685 70.4778 17.1643 70.482 17.1613C70.4861 17.1584 70.4911 17.1569 70.4962 17.157H74.3703C74.3754 17.1569 74.3804 17.1584 74.3845 17.1613C74.3887 17.1643 74.3918 17.1685 74.3934 17.1733L77.9951 28.581C77.9963 28.5846 77.9966 28.5885 77.996 28.5922C77.9954 28.596 77.9939 28.5996 77.9917 28.6026C77.9894 28.6057 77.9864 28.6082 77.983 28.6099C77.9796 28.6116 77.9758 28.6124 77.972 28.6123H76.3005C76.2953 28.6124 76.2902 28.6107 76.2861 28.6077C76.2819 28.6046 76.2788 28.6003 76.2773 28.5953L75.4692 26.0081C75.4677 26.0031 75.4646 25.9987 75.4605 25.9957C75.4563 25.9926 75.4512 25.991 75.446 25.991H69.3715C69.3663 25.991 69.3612 25.9926 69.357 25.9957C69.3529 25.9987 69.3498 26.0031 69.3483 26.0081ZM69.8413 24.4489C69.8403 24.452 69.8401 24.4553 69.8406 24.4585C69.8412 24.4617 69.8425 24.4648 69.8444 24.4674C69.8463 24.4701 69.8488 24.4722 69.8517 24.4737C69.8545 24.4752 69.8577 24.4761 69.861 24.4761H74.9735C74.9768 24.4761 74.98 24.4752 74.9829 24.4737C74.9857 24.4722 74.9882 24.4701 74.9902 24.4674C74.9921 24.4648 74.9933 24.4617 74.9939 24.4585C74.9944 24.4553 74.9942 24.452 74.9933 24.4489L73.1972 18.6869C73.1958 18.6825 73.1931 18.6787 73.1895 18.676C73.1858 18.6733 73.1813 18.6718 73.1768 18.6719H71.6734C71.6689 18.6718 71.6644 18.6733 71.6607 18.676C71.657 18.6787 71.6543 18.6825 71.653 18.6869L69.8413 24.4489Z"
      fill="#4242FF" />
    <path
      d="M89.8122 23.5235C89.5086 26.7371 87.0044 28.6176 83.9045 28.6183C82.5936 28.6188 81.2823 28.6156 79.9705 28.6088C79.9496 28.6088 79.9392 28.5983 79.9392 28.5775V17.1923C79.9392 17.1705 79.9503 17.1596 79.9726 17.1596C81.3143 17.1564 82.6533 17.1555 83.9896 17.1569C87.6689 17.1596 90.1588 19.8605 89.8122 23.5235ZM85.8939 19.1586C85.3039 18.8889 84.7372 18.7516 84.1939 18.7466C83.3296 18.7385 82.4672 18.7369 81.6066 18.7419C81.6021 18.7419 81.5978 18.7437 81.5946 18.7469C81.5914 18.7501 81.5896 18.7544 81.5896 18.7589L81.5882 26.9952C81.5882 27.0044 81.5919 27.0132 81.5984 27.0197C81.6049 27.0262 81.6137 27.0299 81.623 27.0299C82.3224 27.0312 83.0264 27.0306 83.735 27.0278C84.8883 27.0238 86.0083 26.778 86.8778 25.978C88.0393 24.9104 88.3307 23.1872 87.9699 21.6872C87.6853 20.5039 86.9933 19.661 85.8939 19.1586Z"
      fill="#4242FF" />
    <path
      d="M93.6899 23.6836V27.0389C93.6899 27.0454 93.6925 27.0516 93.6971 27.0562C93.7017 27.0608 93.7079 27.0634 93.7144 27.0634H99.7086C99.7118 27.0634 99.715 27.064 99.718 27.0652C99.721 27.0665 99.7237 27.0683 99.7259 27.0705C99.7282 27.0728 99.73 27.0755 99.7313 27.0785C99.7325 27.0815 99.7331 27.0847 99.7331 27.0879L99.7324 28.5878C99.7324 28.5943 99.7299 28.6005 99.7253 28.6051C99.7207 28.6097 99.7144 28.6123 99.7079 28.6123H92.0633C92.0568 28.6123 92.0506 28.6097 92.046 28.6051C92.0414 28.6005 92.0388 28.5943 92.0388 28.5878V17.1815C92.0388 17.175 92.0414 17.1688 92.046 17.1642C92.0506 17.1596 92.0568 17.157 92.0633 17.157H99.7079C99.7144 17.157 99.7207 17.1596 99.7253 17.1642C99.7299 17.1688 99.7324 17.175 99.7324 17.1815V18.6814C99.7324 18.6879 99.7299 18.6941 99.7253 18.6987C99.7207 18.7033 99.7144 18.7059 99.7079 18.7059H93.7144C93.7079 18.7059 93.7017 18.7085 93.6971 18.7131C93.6925 18.7177 93.6899 18.7239 93.6899 18.7304V22.0857C93.6899 22.0922 93.6925 22.0984 93.6971 22.103C93.7017 22.1076 93.7079 22.1102 93.7144 22.1102H99.2157C99.2189 22.1102 99.2221 22.1108 99.2251 22.112C99.228 22.1133 99.2307 22.1151 99.233 22.1174C99.2353 22.1196 99.2371 22.1223 99.2383 22.1253C99.2396 22.1283 99.2402 22.1315 99.2402 22.1347L99.2341 23.6346C99.2341 23.6411 99.2315 23.6473 99.2269 23.6519C99.2223 23.6565 99.216 23.6591 99.2095 23.6591H93.7144C93.7079 23.6591 93.7017 23.6617 93.6971 23.6663C93.6925 23.6709 93.6899 23.6771 93.6899 23.6836Z"
      fill="#4242FF" />
    <path
      d="M115.86 18.74H110.705C110.701 18.74 110.698 18.7406 110.695 18.742C110.692 18.7433 110.689 18.7453 110.686 18.7477C110.684 18.7502 110.682 18.7531 110.68 18.7564C110.679 18.7596 110.678 18.763 110.678 18.7665L110.678 28.5851C110.678 28.5921 110.675 28.5989 110.67 28.6038C110.665 28.6088 110.658 28.6116 110.651 28.6116L109.054 28.6123C109.047 28.6123 109.04 28.6095 109.035 28.6045C109.03 28.5995 109.027 28.5928 109.027 28.5857V18.7665C109.027 18.763 109.027 18.7596 109.025 18.7564C109.024 18.7531 109.022 18.7502 109.02 18.7477C109.017 18.7453 109.014 18.7433 109.011 18.742C109.008 18.7406 109.004 18.74 109.001 18.74L103.845 18.7393C103.842 18.7393 103.838 18.74 103.835 18.7413C103.832 18.7426 103.829 18.7446 103.827 18.7471C103.824 18.7495 103.822 18.7524 103.821 18.7557C103.819 18.7589 103.819 18.7623 103.819 18.7658V28.5857C103.819 28.5928 103.816 28.5995 103.811 28.6045C103.806 28.6095 103.799 28.6123 103.792 28.6123H102.194C102.187 28.6123 102.18 28.6095 102.176 28.6045C102.171 28.5995 102.168 28.5928 102.168 28.5857V17.1835C102.168 17.1765 102.171 17.1697 102.176 17.1648C102.18 17.1598 102.187 17.157 102.194 17.157L117.51 17.1577C117.514 17.1577 117.517 17.1584 117.52 17.1597C117.523 17.161 117.526 17.163 117.529 17.1654C117.531 17.1679 117.533 17.1708 117.535 17.1741C117.536 17.1773 117.537 17.1807 117.537 17.1842L117.537 28.5857C117.537 28.5928 117.534 28.5995 117.529 28.6045C117.525 28.6095 117.518 28.6123 117.511 28.6123H115.913C115.906 28.6123 115.9 28.6095 115.895 28.6045C115.89 28.5995 115.887 28.5928 115.887 28.5857V18.7665C115.887 18.7595 115.884 18.7527 115.879 18.7477C115.874 18.7428 115.867 18.74 115.86 18.74Z"
      fill="#4242FF" />
    <path
      d="M125.553 24.1255V28.5885C125.553 28.5948 125.551 28.6009 125.546 28.6053C125.542 28.6098 125.536 28.6123 125.529 28.6123H123.926C123.92 28.6123 123.914 28.6098 123.909 28.6053C123.905 28.6009 123.902 28.5948 123.902 28.5885V24.1255C123.902 24.1192 123.9 24.1131 123.895 24.1086C123.891 24.1042 123.885 24.1017 123.878 24.1017H122.913C122.909 24.1017 122.904 24.1006 122.901 24.0984C122.897 24.0963 122.894 24.0932 122.892 24.0894L119.167 17.1924C119.165 17.1887 119.164 17.1846 119.164 17.1805C119.164 17.1763 119.165 17.1722 119.167 17.1686C119.169 17.165 119.172 17.1621 119.176 17.16C119.18 17.158 119.184 17.1569 119.188 17.157H121.023C121.028 17.157 121.032 17.1582 121.036 17.1605C121.04 17.1628 121.043 17.166 121.045 17.1699L123.9 22.5909C123.902 22.5947 123.905 22.598 123.909 22.6003C123.913 22.6026 123.917 22.6038 123.921 22.6038H125.517C125.521 22.6038 125.526 22.6026 125.529 22.6003C125.533 22.598 125.536 22.5947 125.538 22.5909L128.394 17.1699C128.396 17.166 128.399 17.1628 128.403 17.1605C128.407 17.1582 128.411 17.157 128.416 17.157L130.25 17.1577C130.255 17.1576 130.259 17.1587 130.262 17.1607C130.266 17.1627 130.269 17.1657 130.271 17.1693C130.273 17.1729 130.274 17.177 130.275 17.1811C130.275 17.1853 130.274 17.1894 130.272 17.1931L126.547 24.0894C126.545 24.0932 126.542 24.0963 126.538 24.0984C126.535 24.1006 126.53 24.1017 126.526 24.1017H125.577C125.571 24.1017 125.565 24.1042 125.56 24.1086C125.556 24.1131 125.553 24.1192 125.553 24.1255Z"
      fill="#4242FF" />
  </g>
  <line x1="151.288" y1="2.67004" x2="151.288" y2="29.33" stroke="#D6DBE1" stroke-width="1.26951" />
  <g clip-path="url(#clip1_1184_3014)">
    <path
      d="M228.544 6.81529C227.313 6.02807 226.63 7.53389 226.609 8.53055C226.522 12.4089 226.524 15.7864 226.616 18.6632C226.634 19.2157 226.789 20.0896 227.244 20.4543C227.829 20.9238 228.707 20.7324 229.039 20.0463C229.548 18.9882 229.451 16.8974 229.371 15.7563C229.369 15.7257 229.373 15.695 229.384 15.6662C229.394 15.6373 229.41 15.6109 229.43 15.5885C229.451 15.5662 229.476 15.5484 229.504 15.5362C229.531 15.5241 229.561 15.5179 229.591 15.518L234.806 15.5144C234.86 15.5144 234.913 15.5251 234.963 15.5458C235.013 15.5665 235.058 15.5969 235.096 15.6352C235.134 15.6734 235.164 15.7189 235.184 15.7688C235.204 15.8187 235.214 15.8722 235.214 15.926C235.174 19.566 234.661 23.5779 230.415 24.4229C225.861 25.3257 221.062 24.2135 220.64 18.7463C220.391 15.518 220.344 12.1416 220.633 8.87722C220.932 5.47197 222.702 3.15004 226.36 2.78171C232.802 2.12811 235.041 4.49336 235.03 10.7297C235.03 10.7872 235.007 10.8423 234.966 10.8829C234.926 10.9235 234.87 10.9464 234.813 10.9464L229.494 10.95C229.46 10.9506 229.427 10.9441 229.396 10.9309C229.365 10.9177 229.337 10.8981 229.314 10.8733C229.291 10.8484 229.273 10.819 229.262 10.7868C229.25 10.7546 229.246 10.7204 229.248 10.6864C229.321 9.71499 229.469 7.40751 228.544 6.81529Z"
      fill="#231E20" />
    <path
      d="M173.065 2.99899L179.341 2.98816C179.314 6.41628 179.963 9.72162 181.287 12.9042C181.843 14.2379 182.618 15.4223 183.613 16.4575C185.736 18.6747 188.87 19.0647 191.196 16.898C191.304 16.7969 191.432 16.7452 191.578 16.7428C191.594 16.7428 191.609 16.7466 191.623 16.7539C191.636 16.7612 191.648 16.7717 191.657 16.7846C191.665 16.7974 191.67 16.8122 191.672 16.8276C191.673 16.843 191.671 16.8585 191.665 16.8728C190.51 19.7002 188.101 23.3258 185.039 24.1419C180.626 25.3191 177.448 20.9388 175.939 17.5228C173.845 12.785 173.234 8.18451 173.065 2.99899Z"
      fill="#FEDE00" />
    <path
      d="M180.99 2.97742L194.25 2.98103C194.286 6.87377 193.163 14.3379 189.266 16.324C186.591 17.689 184.283 15.3381 183.182 13.1246C181.619 9.98051 180.889 6.59813 180.99 2.97742Z"
      fill="#3AB449" />
    <path
      d="M195.775 2.98108H202.163C202.195 2.98108 202.226 2.98736 202.255 2.99956C202.284 3.01176 202.311 3.02964 202.333 3.05216C202.355 3.07467 202.372 3.10137 202.384 3.13071C202.396 3.16004 202.402 3.19142 202.401 3.22302C202.375 9.38353 201.376 14.9927 199.404 20.0507C197.526 24.8715 194.515 29.3817 189.485 30.9164C187.109 31.6422 183.934 30.1942 181.999 28.6198C179.941 26.9442 178.287 24.9196 177.037 22.5459C177.379 22.8131 177.703 23.0936 178.009 23.3873C182.541 27.7206 187.881 26.0776 191.045 21.2351C194.515 15.9196 195.818 9.28964 195.775 2.98108Z"
      fill="#01529B" />
    <path
      d="M216.113 13.1965C216.298 13.3265 216.504 13.4132 216.73 13.4565C219.009 13.8826 219.713 16.7896 219.583 18.6637C219.332 22.2363 217.344 24.0683 213.617 24.1598C211.174 24.22 208.218 24.2332 204.749 24.1995C204.706 24.1986 204.666 24.181 204.636 24.1507C204.606 24.1203 204.59 24.0795 204.59 24.037L204.586 3.32745C204.586 3.26295 204.612 3.20103 204.657 3.15508C204.702 3.10914 204.764 3.08285 204.828 3.0819C207.51 3.07949 210.148 3.0831 212.743 3.09273C214.881 3.10357 217.593 3.68856 218.561 5.89132C219.659 8.39019 219.084 12.0627 216.16 12.9185C216.131 12.9263 216.106 12.9418 216.087 12.9635C216.068 12.9851 216.055 13.0119 216.05 13.0409C216.045 13.0698 216.048 13.0998 216.059 13.1273C216.07 13.1548 216.089 13.1788 216.113 13.1965ZM210.523 7.5452L210.501 11.0552C210.501 11.1193 210.527 11.1809 210.572 11.2262C210.617 11.2716 210.679 11.2971 210.743 11.2971L211.017 11.3007C211.296 11.3023 211.572 11.2559 211.83 11.1642C212.088 11.0725 212.322 10.9373 212.52 10.7663C212.718 10.5952 212.875 10.3917 212.983 10.1675C213.091 9.94316 213.147 9.70245 213.148 9.45907V9.17018C213.15 8.67909 212.93 8.20694 212.534 7.85754C212.139 7.50813 211.601 7.31006 211.039 7.30686L210.765 7.30325C210.7 7.30325 210.639 7.32874 210.594 7.37412C210.548 7.41949 210.523 7.48103 210.523 7.5452ZM210.519 15.4029L210.512 19.6712C210.512 19.7335 210.537 19.7932 210.581 19.8372C210.625 19.8812 210.684 19.9059 210.747 19.9059L211.093 19.9095C211.399 19.9101 211.702 19.8553 211.985 19.7483C212.268 19.6413 212.525 19.4843 212.741 19.2861C212.958 19.0879 213.13 18.8525 213.247 18.5933C213.365 18.3341 213.426 18.0562 213.426 17.7754V17.3132C213.427 16.7463 213.182 16.2022 212.746 15.8006C212.31 15.399 211.718 15.1728 211.1 15.1718L210.754 15.1682C210.692 15.1682 210.632 15.1929 210.588 15.2369C210.544 15.281 210.519 15.3407 210.519 15.4029Z"
      fill="#231E20" />
    <path
      d="M247.864 13.6516C247.607 13.7865 247.621 13.8791 247.908 13.9297C250.208 14.3558 250.692 16.1036 250.75 18.1438C250.79 19.5233 250.833 20.9268 250.876 22.3544C250.898 23.0116 251.161 23.5424 251.598 24.0155C251.614 24.033 251.625 24.0549 251.629 24.0784C251.633 24.1019 251.63 24.126 251.62 24.1478C251.611 24.1696 251.595 24.1882 251.575 24.2013C251.555 24.2143 251.532 24.2213 251.508 24.2213L245.561 24.196C245.476 24.1962 245.393 24.1679 245.326 24.1156C245.258 24.0633 245.21 23.99 245.189 23.9071C245.056 23.3919 244.984 22.8888 244.972 22.3977C244.926 20.5753 244.867 18.8769 244.795 17.3025C244.766 16.6886 244.459 16.2853 243.874 16.0927C243.578 15.994 243.281 15.8965 242.982 15.8002C242.414 15.6149 242.131 15.8207 242.134 16.4177L242.155 23.9974C242.155 24.1274 242.09 24.1924 241.96 24.1924L236.381 24.2285C236.326 24.2285 236.272 24.2064 236.233 24.1672C236.194 24.1279 236.172 24.0746 236.172 24.0191L236.168 3.32756C236.168 3.16627 236.249 3.08562 236.41 3.08562C239.087 3.07599 241.852 3.08201 244.705 3.10368C246.326 3.11812 248.254 3.41784 249.46 4.54811C251.381 6.34643 251.544 11.2322 249.341 12.9042C248.89 13.2472 248.363 13.3916 247.864 13.6516ZM242.141 7.46948L242.126 11.6222C242.126 11.6835 242.151 11.7423 242.194 11.7856C242.237 11.829 242.296 11.8533 242.358 11.8533H242.791C243.078 11.8544 243.363 11.8029 243.629 11.702C243.895 11.6012 244.137 11.4527 244.341 11.2653C244.544 11.0778 244.706 10.855 244.817 10.6096C244.928 10.3641 244.985 10.1008 244.986 9.83473V9.2714C244.988 8.73422 244.759 8.21827 244.35 7.83701C243.941 7.45576 243.386 7.24043 242.805 7.23837H242.372C242.311 7.23837 242.252 7.26271 242.209 7.30606C242.165 7.3494 242.141 7.40818 242.141 7.46948Z"
      fill="#231E20" />
    <path
      d="M258.554 3.08053L252.632 3.09087C252.53 3.09104 252.448 3.17364 252.448 3.27535L252.484 24.039C252.484 24.1408 252.567 24.2231 252.669 24.2229L258.591 24.2125C258.692 24.2124 258.775 24.1298 258.774 24.0281L258.738 3.26437C258.738 3.16266 258.655 3.08035 258.554 3.08053Z"
      fill="#231E20" />
  </g>
  <defs>
    <clipPath id="clip0_1184_3014">
      <rect width="130.179" height="32" fill="white" transform="translate(0.161865)" />
    </clipPath>
    <clipPath id="clip1_1184_3014">
      <rect width="91.873" height="30.4685" fill="white" transform="translate(170.965 0.765747)" />
    </clipPath>
  </defs>
</svg>