<svg width="32" height="32" viewBox="0 0 32 32" fill="none" xmlns="http://www.w3.org/2000/svg">
<g id="moculo accordion icons">
<mask id="mask0_1345_1438" style="mask-type:alpha" maskUnits="userSpaceOnUse" x="0" y="0" width="32" height="32">
<rect id="Bounding box" width="32" height="32" fill="#D9D9D9"/>
</mask>
<g mask="url(#mask0_1345_1438)">
<path id="clinical_notes" d="M22.6667 21.3333C21.5556 21.3333 20.6111 20.9444 19.8333 20.1667C19.0556 19.3889 18.6667 18.4444 18.6667 17.3333C18.6667 16.2222 19.0556 15.2778 19.8333 14.5C20.6111 13.7222 21.5556 13.3333 22.6667 13.3333C23.7778 13.3333 24.7222 13.7222 25.5 14.5C26.2778 15.2778 26.6667 16.2222 26.6667 17.3333C26.6667 18.4444 26.2778 19.3889 25.5 20.1667C24.7222 20.9444 23.7778 21.3333 22.6667 21.3333ZM22.6667 18.6667C23.0444 18.6667 23.3611 18.5389 23.6167 18.2833C23.8722 18.0278 24 17.7111 24 17.3333C24 16.9556 23.8722 16.6389 23.6167 16.3833C23.3611 16.1278 23.0444 16 22.6667 16C22.2889 16 21.9722 16.1278 21.7167 16.3833C21.4611 16.6389 21.3333 16.9556 21.3333 17.3333C21.3333 17.7111 21.4611 18.0278 21.7167 18.2833C21.9722 18.5389 22.2889 18.6667 22.6667 18.6667ZM14.6667 30.6667V26.8C14.6667 26.3333 14.7778 25.8944 15 25.4833C15.2222 25.0722 15.5333 24.7444 15.9333 24.5C16.6444 24.0778 17.3944 23.7278 18.1833 23.45C18.9722 23.1722 19.7778 22.9667 20.6 22.8333L22.6667 25.3333L24.7333 22.8333C25.5556 22.9667 26.3556 23.1722 27.1333 23.45C27.9111 23.7278 28.6556 24.0778 29.3667 24.5C29.7667 24.7444 30.0833 25.0722 30.3167 25.4833C30.55 25.8944 30.6667 26.3333 30.6667 26.8V30.6667H14.6667ZM17.3 28H21.4L19.6 25.8C19.2 25.9111 18.8111 26.0556 18.4333 26.2333C18.0556 26.4111 17.6778 26.6 17.3 26.8V28ZM23.9333 28H28V26.8C27.6444 26.5778 27.2778 26.3833 26.9 26.2167C26.5222 26.05 26.1333 25.9111 25.7333 25.8L23.9333 28ZM6.66667 28C5.93333 28 5.30556 27.7389 4.78333 27.2167C4.26111 26.6944 4 26.0667 4 25.3333V6.66667C4 5.93333 4.26111 5.30556 4.78333 4.78333C5.30556 4.26111 5.93333 4 6.66667 4H25.3333C26.0667 4 26.6944 4.26111 27.2167 4.78333C27.7389 5.30556 28 5.93333 28 6.66667V13.3333C27.6444 12.8889 27.2556 12.4667 26.8333 12.0667C26.4111 11.6667 25.9111 11.4 25.3333 11.2667V6.66667H6.66667V25.3333H12.2C12.1333 25.5778 12.0833 25.8222 12.05 26.0667C12.0167 26.3111 12 26.5556 12 26.8V28H6.66667ZM9.33333 12H18.6667C19.2444 11.5556 19.8778 11.2222 20.5667 11C21.2556 10.7778 21.9556 10.6667 22.6667 10.6667V9.33333H9.33333V12ZM9.33333 17.3333H16C16 16.8667 16.05 16.4111 16.15 15.9667C16.25 15.5222 16.3889 15.0889 16.5667 14.6667H9.33333V17.3333ZM9.33333 22.6667H13.9333C14.1778 22.4667 14.4389 22.2889 14.7167 22.1333C14.9944 21.9778 15.2778 21.8333 15.5667 21.7V20H9.33333V22.6667ZM6.66667 25.3333V6.66667V11.2333V10.6667V25.3333Z" fill="#4242FF"/>
</g>
</g>
</svg>
