<svg width="1440" height="505" viewBox="0 0 1440 505" fill="none" xmlns="http://www.w3.org/2000/svg">
  <g opacity="0.4" clip-path="url(#clip0_1_2)">
  <circle cx="505" cy="505.725" r="503.389" transform="rotate(-90 505 505.725)" stroke="#4242FF" stroke-width="3.22169"/>
  <circle cx="505" cy="505.725" r="503.389" transform="rotate(-90 505 505.725)" stroke="#4242FF" stroke-width="3.22169"/>
  <circle cx="505.805" cy="506.531" r="497.751" transform="rotate(-90 505.805 506.531)" stroke="#4242FF" stroke-width="3.22169"/>
  <circle cx="505.805" cy="506.53" r="491.308" transform="rotate(-90 505.805 506.53)" stroke="#4242FF" stroke-width="3.22169"/>
  <circle cx="505.805" cy="506.531" r="484.864" transform="rotate(-90 505.805 506.531)" stroke="#4242FF" stroke-width="3.22169"/>
  <circle cx="505.806" cy="506.53" r="478.421" transform="rotate(-90 505.806 506.53)" stroke="#4242FF" stroke-width="3.22169"/>
  <circle cx="505.806" cy="506.53" r="471.978" transform="rotate(-90 505.806 506.53)" stroke="#4242FF" stroke-width="3.22169"/>
  <circle cx="505.805" cy="506.53" r="465.534" transform="rotate(-90 505.805 506.53)" stroke="#4242FF" stroke-width="3.22169"/>
  <circle cx="505.805" cy="506.53" r="459.091" transform="rotate(-90 505.805 506.53)" stroke="#4242FF" stroke-width="3.22169"/>
  <circle cx="505.805" cy="506.53" r="452.648" transform="rotate(-90 505.805 506.53)" stroke="#4242FF" stroke-width="3.22169"/>
  <circle cx="505.805" cy="506.53" r="446.204" transform="rotate(-90 505.805 506.53)" stroke="#4242FF" stroke-width="3.22169"/>
  <circle cx="505.806" cy="506.53" r="439.761" transform="rotate(-90 505.806 506.53)" stroke="#4242FF" stroke-width="3.22169"/>
  <circle cx="505.806" cy="506.53" r="433.317" transform="rotate(-90 505.806 506.53)" stroke="#4242FF" stroke-width="3.22169"/>
  <circle cx="505.806" cy="506.53" r="426.874" transform="rotate(-90 505.806 506.53)" stroke="#4242FF" stroke-width="3.22169"/>
  <circle cx="505.805" cy="506.53" r="420.431" transform="rotate(-90 505.805 506.53)" stroke="#4242FF" stroke-width="3.22169"/>
  <circle cx="505.805" cy="506.53" r="413.987" transform="rotate(-90 505.805 506.53)" stroke="#4242FF" stroke-width="3.22169"/>
  <circle cx="505.805" cy="506.53" r="407.544" transform="rotate(-90 505.805 506.53)" stroke="#4242FF" stroke-width="3.22169"/>
  <circle cx="505.806" cy="506.53" r="401.1" transform="rotate(-90 505.806 506.53)" stroke="#4242FF" stroke-width="3.22169"/>
  <circle cx="505.806" cy="506.53" r="394.657" transform="rotate(-90 505.806 506.53)" stroke="#4242FF" stroke-width="3.22169"/>
  <circle cx="505.806" cy="506.53" r="388.214" transform="rotate(-90 505.806 506.53)" stroke="#4242FF" stroke-width="3.22169"/>
  <circle cx="505.805" cy="506.53" r="381.77" transform="rotate(-90 505.805 506.53)" stroke="#4242FF" stroke-width="3.22169"/>
  <circle cx="505.805" cy="506.53" r="375.327" transform="rotate(-90 505.805 506.53)" stroke="#4242FF" stroke-width="3.22169"/>
  <circle cx="505.805" cy="506.53" r="368.884" transform="rotate(-90 505.805 506.53)" stroke="#4242FF" stroke-width="3.22169"/>
  <circle cx="505.805" cy="506.53" r="362.44" transform="rotate(-90 505.805 506.53)" stroke="#4242FF" stroke-width="3.22169"/>
  <circle cx="505.806" cy="506.53" r="355.997" transform="rotate(-90 505.806 506.53)" stroke="#4242FF" stroke-width="3.22169"/>
  <circle cx="505.806" cy="506.531" r="349.553" transform="rotate(-90 505.806 506.531)" stroke="#4242FF" stroke-width="3.22169"/>
  <circle cx="505.805" cy="506.53" r="343.11" transform="rotate(-90 505.805 506.53)" stroke="#4242FF" stroke-width="3.22169"/>
  <circle cx="505.805" cy="506.53" r="336.667" transform="rotate(-90 505.805 506.53)" stroke="#4242FF" stroke-width="3.22169"/>
  <circle cx="505.805" cy="506.531" r="330.223" transform="rotate(-90 505.805 506.531)" stroke="#4242FF" stroke-width="3.22169"/>
  <circle cx="505.805" cy="506.53" r="323.78" transform="rotate(-90 505.805 506.53)" stroke="#4242FF" stroke-width="3.22169"/>
  <circle cx="505.806" cy="506.531" r="317.337" transform="rotate(-90 505.806 506.531)" stroke="#4242FF" stroke-width="3.22169"/>
  <circle cx="505.806" cy="506.53" r="310.893" transform="rotate(-90 505.806 506.53)" stroke="#4242FF" stroke-width="3.22169"/>
  <circle cx="505.805" cy="506.53" r="304.45" transform="rotate(-90 505.805 506.53)" stroke="#4242FF" stroke-width="3.22169"/>
  <circle cx="505.805" cy="506.53" r="298.006" transform="rotate(-90 505.805 506.53)" stroke="#4242FF" stroke-width="3.22169"/>
  <circle cx="505.805" cy="506.53" r="291.563" transform="rotate(-90 505.805 506.53)" stroke="#4242FF" stroke-width="3.22169"/>
  <circle cx="505.805" cy="506.53" r="285.12" transform="rotate(-90 505.805 506.53)" stroke="#4242FF" stroke-width="3.22169"/>
  <circle cx="505.806" cy="506.53" r="278.676" transform="rotate(-90 505.806 506.53)" stroke="#4242FF" stroke-width="3.22169"/>
  <circle cx="505.806" cy="506.53" r="272.233" transform="rotate(-90 505.806 506.53)" stroke="#4242FF" stroke-width="3.22169"/>
  <circle cx="505.806" cy="506.53" r="265.789" transform="rotate(-90 505.806 506.53)" stroke="#4242FF" stroke-width="3.22169"/>
  <circle cx="505.805" cy="506.53" r="259.346" transform="rotate(-90 505.805 506.53)" stroke="#4242FF" stroke-width="3.22169"/>
  <circle cx="505.805" cy="506.53" r="252.903" transform="rotate(-90 505.805 506.53)" stroke="#4242FF" stroke-width="3.22169"/>
  <circle cx="505.805" cy="506.53" r="246.459" transform="rotate(-90 505.805 506.53)" stroke="#4242FF" stroke-width="3.22169"/>
  <circle cx="505.805" cy="506.53" r="240.016" transform="rotate(-90 505.805 506.53)" stroke="#4242FF" stroke-width="3.22169"/>
  <circle cx="505.806" cy="506.53" r="233.573" transform="rotate(-90 505.806 506.53)" stroke="#4242FF" stroke-width="3.22169"/>
  <circle cx="505.806" cy="506.53" r="227.129" transform="rotate(-90 505.806 506.53)" stroke="#4242FF" stroke-width="3.22169"/>
  <circle cx="505.805" cy="506.531" r="220.686" transform="rotate(-90 505.805 506.531)" stroke="#4242FF" stroke-width="3.22169"/>
  <circle cx="505.805" cy="506.53" r="214.242" transform="rotate(-90 505.805 506.53)" stroke="#4242FF" stroke-width="3.22169"/>
  <circle cx="505.805" cy="506.531" r="207.799" transform="rotate(-90 505.805 506.531)" stroke="#4242FF" stroke-width="3.22169"/>
  <circle cx="505.805" cy="506.53" r="201.356" transform="rotate(-90 505.805 506.53)" stroke="#4242FF" stroke-width="3.22169"/>
  <circle cx="505.806" cy="506.531" r="194.912" transform="rotate(-90 505.806 506.531)" stroke="#4242FF" stroke-width="3.22169"/>
  <circle cx="505.806" cy="506.53" r="188.469" transform="rotate(-90 505.806 506.53)" stroke="#4242FF" stroke-width="3.22169"/>
  <circle cx="505.805" cy="506.531" r="182.026" transform="rotate(-90 505.805 506.531)" stroke="#4242FF" stroke-width="3.22169"/>
  <circle cx="505.805" cy="506.53" r="175.582" transform="rotate(-90 505.805 506.53)" stroke="#4242FF" stroke-width="3.22169"/>
  <circle cx="505.805" cy="506.53" r="169.139" transform="rotate(-90 505.805 506.53)" stroke="#4242FF" stroke-width="3.22169"/>
  <circle cx="505.805" cy="506.53" r="162.695" transform="rotate(-90 505.805 506.53)" stroke="#4242FF" stroke-width="3.22169"/>
  <circle cx="505.806" cy="506.53" r="156.252" transform="rotate(-90 505.806 506.53)" stroke="#4242FF" stroke-width="3.22169"/>
  <circle cx="505.806" cy="506.53" r="149.809" transform="rotate(-90 505.806 506.53)" stroke="#4242FF" stroke-width="3.22169"/>
  <circle cx="505.806" cy="506.53" r="143.365" transform="rotate(-90 505.806 506.53)" stroke="#4242FF" stroke-width="3.22169"/>
  <circle cx="505.805" cy="506.53" r="136.922" transform="rotate(-90 505.805 506.53)" stroke="#4242FF" stroke-width="3.22169"/>
  <circle cx="505.805" cy="506.53" r="130.478" transform="rotate(-90 505.805 506.53)" stroke="#4242FF" stroke-width="3.22169"/>
  <circle cx="505.805" cy="506.53" r="124.035" transform="rotate(-90 505.805 506.53)" stroke="#4242FF" stroke-width="3.22169"/>
  <circle cx="505.805" cy="506.53" r="117.592" transform="rotate(-90 505.805 506.53)" stroke="#4242FF" stroke-width="3.22169"/>
  <circle cx="505.806" cy="506.53" r="111.148" transform="rotate(-90 505.806 506.53)" stroke="#4242FF" stroke-width="3.22169"/>
  <circle cx="505.806" cy="506.53" r="104.705" transform="rotate(-90 505.806 506.53)" stroke="#4242FF" stroke-width="3.22169"/>
  <circle cx="505.805" cy="506.53" r="98.2616" transform="rotate(-90 505.805 506.53)" stroke="#4242FF" stroke-width="3.22169"/>
  <circle cx="505.805" cy="506.53" r="91.8182" transform="rotate(-90 505.805 506.53)" stroke="#4242FF" stroke-width="3.22169"/>
  <circle cx="505.805" cy="506.53" r="85.3748" transform="rotate(-90 505.805 506.53)" stroke="#4242FF" stroke-width="3.22169"/>
  <circle cx="505.805" cy="506.53" r="78.9314" transform="rotate(-90 505.805 506.53)" stroke="#4242FF" stroke-width="3.22169"/>
  <circle cx="505.806" cy="506.531" r="72.488" transform="rotate(-90 505.806 506.531)" stroke="#4242FF" stroke-width="3.22169"/>
  <circle cx="505.806" cy="506.53" r="66.0447" transform="rotate(-90 505.806 506.53)" stroke="#4242FF" stroke-width="3.22169"/>
  <circle cx="505.805" cy="506.531" r="59.6013" transform="rotate(-90 505.805 506.531)" stroke="#4242FF" stroke-width="3.22169"/>
  <circle cx="505.805" cy="506.53" r="53.1579" transform="rotate(-90 505.805 506.53)" stroke="#4242FF" stroke-width="3.22169"/>
  <circle cx="505.805" cy="506.53" r="46.7145" transform="rotate(-90 505.805 506.53)" stroke="#4242FF" stroke-width="3.22169"/>
  <circle cx="505.805" cy="506.53" r="40.2711" transform="rotate(-90 505.805 506.53)" stroke="#4242FF" stroke-width="3.22169"/>
  <circle cx="505.805" cy="506.53" r="33.8278" transform="rotate(-90 505.805 506.53)" stroke="#4242FF" stroke-width="3.22169"/>
  <circle cx="505.806" cy="506.531" r="27.3844" transform="rotate(-90 505.806 506.531)" stroke="#4242FF" stroke-width="3.22169"/>
  <circle cx="505.805" cy="506.531" r="14.4976" transform="rotate(-90 505.805 506.531)" stroke="#4242FF" stroke-width="3.22169"/>
  <circle cx="505.805" cy="506.53" r="8.05423" transform="rotate(-90 505.805 506.53)" stroke="#4242FF" stroke-width="3.22169"/>
  <circle cx="505.806" cy="506.53" r="20.941" transform="rotate(-90 505.806 506.53)" stroke="#4242FF" stroke-width="3.22169"/>
  <circle cx="505.805" cy="506.53" r="1.61085" transform="rotate(-90 505.805 506.53)" stroke="#4242FF" stroke-width="3.22169"/>
  <circle cx="505" cy="505.725" r="505" transform="rotate(-90 505 505.725)" fill="url(#paint0_radial_1_2)"/>
  </g>
  <g opacity="0.24" clip-path="url(#clip1_1_2)">
  <circle cx="1692" cy="692.725" r="503.389" transform="rotate(-90 1692 692.725)" stroke="#4242FF" stroke-width="3.22169"/>
  <circle cx="1692" cy="692.725" r="503.389" transform="rotate(-90 1692 692.725)" stroke="#4242FF" stroke-width="3.22169"/>
  <circle cx="1692.81" cy="693.531" r="497.751" transform="rotate(-90 1692.81 693.531)" stroke="#4242FF" stroke-width="3.22169"/>
  <circle cx="1692.81" cy="693.53" r="491.308" transform="rotate(-90 1692.81 693.53)" stroke="#4242FF" stroke-width="3.22169"/>
  <circle cx="1692.81" cy="693.531" r="484.864" transform="rotate(-90 1692.81 693.531)" stroke="#4242FF" stroke-width="3.22169"/>
  <circle cx="1692.81" cy="693.53" r="478.421" transform="rotate(-90 1692.81 693.53)" stroke="#4242FF" stroke-width="3.22169"/>
  <circle cx="1692.81" cy="693.53" r="471.978" transform="rotate(-90 1692.81 693.53)" stroke="#4242FF" stroke-width="3.22169"/>
  <circle cx="1692.81" cy="693.53" r="465.534" transform="rotate(-90 1692.81 693.53)" stroke="#4242FF" stroke-width="3.22169"/>
  <circle cx="1692.81" cy="693.53" r="459.091" transform="rotate(-90 1692.81 693.53)" stroke="#4242FF" stroke-width="3.22169"/>
  <circle cx="1692.81" cy="693.53" r="452.648" transform="rotate(-90 1692.81 693.53)" stroke="#4242FF" stroke-width="3.22169"/>
  <circle cx="1692.81" cy="693.53" r="446.204" transform="rotate(-90 1692.81 693.53)" stroke="#4242FF" stroke-width="3.22169"/>
  <circle cx="1692.81" cy="693.53" r="439.761" transform="rotate(-90 1692.81 693.53)" stroke="#4242FF" stroke-width="3.22169"/>
  <circle cx="1692.81" cy="693.53" r="433.317" transform="rotate(-90 1692.81 693.53)" stroke="#4242FF" stroke-width="3.22169"/>
  <circle cx="1692.81" cy="693.53" r="426.874" transform="rotate(-90 1692.81 693.53)" stroke="#4242FF" stroke-width="3.22169"/>
  <circle cx="1692.81" cy="693.53" r="420.431" transform="rotate(-90 1692.81 693.53)" stroke="#4242FF" stroke-width="3.22169"/>
  <circle cx="1692.81" cy="693.53" r="413.987" transform="rotate(-90 1692.81 693.53)" stroke="#4242FF" stroke-width="3.22169"/>
  <circle cx="1692.81" cy="693.53" r="407.544" transform="rotate(-90 1692.81 693.53)" stroke="#4242FF" stroke-width="3.22169"/>
  <circle cx="1692.81" cy="693.53" r="401.1" transform="rotate(-90 1692.81 693.53)" stroke="#4242FF" stroke-width="3.22169"/>
  <circle cx="1692.81" cy="693.53" r="394.657" transform="rotate(-90 1692.81 693.53)" stroke="#4242FF" stroke-width="3.22169"/>
  <circle cx="1692.81" cy="693.53" r="388.214" transform="rotate(-90 1692.81 693.53)" stroke="#4242FF" stroke-width="3.22169"/>
  <circle cx="1692.81" cy="693.53" r="381.77" transform="rotate(-90 1692.81 693.53)" stroke="#4242FF" stroke-width="3.22169"/>
  <circle cx="1692.81" cy="693.53" r="375.327" transform="rotate(-90 1692.81 693.53)" stroke="#4242FF" stroke-width="3.22169"/>
  <circle cx="1692.81" cy="693.53" r="368.884" transform="rotate(-90 1692.81 693.53)" stroke="#4242FF" stroke-width="3.22169"/>
  <circle cx="1692.81" cy="693.531" r="362.44" transform="rotate(-90 1692.81 693.531)" stroke="#4242FF" stroke-width="3.22169"/>
  <circle cx="1692.81" cy="693.53" r="355.997" transform="rotate(-90 1692.81 693.53)" stroke="#4242FF" stroke-width="3.22169"/>
  <circle cx="1692.81" cy="693.531" r="349.553" transform="rotate(-90 1692.81 693.531)" stroke="#4242FF" stroke-width="3.22169"/>
  <circle cx="1692.81" cy="693.53" r="343.11" transform="rotate(-90 1692.81 693.53)" stroke="#4242FF" stroke-width="3.22169"/>
  <circle cx="1692.81" cy="693.53" r="336.667" transform="rotate(-90 1692.81 693.53)" stroke="#4242FF" stroke-width="3.22169"/>
  <circle cx="1692.81" cy="693.531" r="330.223" transform="rotate(-90 1692.81 693.531)" stroke="#4242FF" stroke-width="3.22169"/>
  <circle cx="1692.81" cy="693.53" r="323.78" transform="rotate(-90 1692.81 693.53)" stroke="#4242FF" stroke-width="3.22169"/>
  <circle cx="1692.81" cy="693.531" r="317.337" transform="rotate(-90 1692.81 693.531)" stroke="#4242FF" stroke-width="3.22169"/>
  <circle cx="1692.81" cy="693.53" r="310.893" transform="rotate(-90 1692.81 693.53)" stroke="#4242FF" stroke-width="3.22169"/>
  <circle cx="1692.81" cy="693.53" r="304.45" transform="rotate(-90 1692.81 693.53)" stroke="#4242FF" stroke-width="3.22169"/>
  <circle cx="1692.81" cy="693.53" r="298.006" transform="rotate(-90 1692.81 693.53)" stroke="#4242FF" stroke-width="3.22169"/>
  <circle cx="1692.81" cy="693.53" r="291.563" transform="rotate(-90 1692.81 693.53)" stroke="#4242FF" stroke-width="3.22169"/>
  <circle cx="1692.81" cy="693.53" r="285.12" transform="rotate(-90 1692.81 693.53)" stroke="#4242FF" stroke-width="3.22169"/>
  <circle cx="1692.81" cy="693.53" r="278.676" transform="rotate(-90 1692.81 693.53)" stroke="#4242FF" stroke-width="3.22169"/>
  <circle cx="1692.81" cy="693.53" r="272.233" transform="rotate(-90 1692.81 693.53)" stroke="#4242FF" stroke-width="3.22169"/>
  <circle cx="1692.81" cy="693.53" r="265.789" transform="rotate(-90 1692.81 693.53)" stroke="#4242FF" stroke-width="3.22169"/>
  <circle cx="1692.81" cy="693.53" r="259.346" transform="rotate(-90 1692.81 693.53)" stroke="#4242FF" stroke-width="3.22169"/>
  <circle cx="1692.81" cy="693.53" r="252.903" transform="rotate(-90 1692.81 693.53)" stroke="#4242FF" stroke-width="3.22169"/>
  <circle cx="1692" cy="692.725" r="505" transform="rotate(-90 1692 692.725)" fill="url(#paint1_radial_1_2)"/>
  </g>
  <g opacity="0.4" clip-path="url(#clip2_1_2)">
  <circle cx="505" cy="505" r="503.389" transform="matrix(-4.37114e-08 1 1 4.37114e-08 503 -505.725)" stroke="#4242FF" stroke-width="3.22169"/>
  <circle cx="505" cy="505" r="503.389" transform="matrix(-4.37114e-08 1 1 4.37114e-08 503 -505.725)" stroke="#4242FF" stroke-width="3.22169"/>
  <circle cx="499.362" cy="499.362" r="497.751" transform="matrix(-4.37114e-08 1 1 4.37114e-08 509.443 -500.893)" stroke="#4242FF" stroke-width="3.22169"/>
  <circle cx="492.919" cy="492.919" r="491.308" transform="matrix(-4.37114e-08 1 1 4.37114e-08 515.887 -494.449)" stroke="#4242FF" stroke-width="3.22169"/>
  <circle cx="486.475" cy="486.475" r="484.864" transform="matrix(-4.37114e-08 1 1 4.37114e-08 522.33 -488.006)" stroke="#4242FF" stroke-width="3.22169"/>
  <circle cx="480.032" cy="480.032" r="478.421" transform="matrix(-4.37114e-08 1 1 4.37114e-08 528.774 -481.562)" stroke="#4242FF" stroke-width="3.22169"/>
  <circle cx="473.589" cy="473.589" r="471.978" transform="matrix(-4.37114e-08 1 1 4.37114e-08 535.217 -475.119)" stroke="#4242FF" stroke-width="3.22169"/>
  <circle cx="467.145" cy="467.145" r="465.534" transform="matrix(-4.37114e-08 1 1 4.37114e-08 541.66 -468.675)" stroke="#4242FF" stroke-width="3.22169"/>
  <circle cx="460.702" cy="460.702" r="459.091" transform="matrix(-4.37114e-08 1 1 4.37114e-08 548.104 -462.232)" stroke="#4242FF" stroke-width="3.22169"/>
  <circle cx="454.258" cy="454.258" r="452.648" transform="matrix(-4.37114e-08 1 1 4.37114e-08 554.547 -455.789)" stroke="#4242FF" stroke-width="3.22169"/>
  <circle cx="447.815" cy="447.815" r="446.204" transform="matrix(-4.37114e-08 1 1 4.37114e-08 560.99 -449.345)" stroke="#4242FF" stroke-width="3.22169"/>
  <circle cx="441.372" cy="441.372" r="439.761" transform="matrix(-4.37114e-08 1 1 4.37114e-08 567.434 -442.902)" stroke="#4242FF" stroke-width="3.22169"/>
  <circle cx="434.928" cy="434.928" r="433.317" transform="matrix(-4.37114e-08 1 1 4.37114e-08 573.877 -436.458)" stroke="#4242FF" stroke-width="3.22169"/>
  <circle cx="428.485" cy="428.485" r="426.874" transform="matrix(-4.37114e-08 1 1 4.37114e-08 580.321 -430.015)" stroke="#4242FF" stroke-width="3.22169"/>
  <circle cx="422.041" cy="422.041" r="420.431" transform="matrix(-4.37114e-08 1 1 4.37114e-08 586.764 -423.572)" stroke="#4242FF" stroke-width="3.22169"/>
  <circle cx="415.598" cy="415.598" r="413.987" transform="matrix(-4.37114e-08 1 1 4.37114e-08 593.207 -417.128)" stroke="#4242FF" stroke-width="3.22169"/>
  <circle cx="409.155" cy="409.155" r="407.544" transform="matrix(-4.37114e-08 1 1 4.37114e-08 599.651 -410.685)" stroke="#4242FF" stroke-width="3.22169"/>
  <circle cx="402.711" cy="402.711" r="401.1" transform="matrix(-4.37114e-08 1 1 4.37114e-08 606.094 -404.242)" stroke="#4242FF" stroke-width="3.22169"/>
  <circle cx="396.268" cy="396.268" r="394.657" transform="matrix(-4.37114e-08 1 1 4.37114e-08 612.538 -397.798)" stroke="#4242FF" stroke-width="3.22169"/>
  <circle cx="389.825" cy="389.825" r="388.214" transform="matrix(-4.37114e-08 1 1 4.37114e-08 618.981 -391.355)" stroke="#4242FF" stroke-width="3.22169"/>
  <circle cx="383.381" cy="383.381" r="381.77" transform="matrix(-4.37114e-08 1 1 4.37114e-08 625.424 -384.911)" stroke="#4242FF" stroke-width="3.22169"/>
  <circle cx="376.938" cy="376.938" r="375.327" transform="matrix(-4.37114e-08 1 1 4.37114e-08 631.868 -378.468)" stroke="#4242FF" stroke-width="3.22169"/>
  <circle cx="370.494" cy="370.494" r="368.884" transform="matrix(-4.37114e-08 1 1 4.37114e-08 638.311 -372.024)" stroke="#4242FF" stroke-width="3.22169"/>
  <circle cx="364.051" cy="364.051" r="362.44" transform="matrix(-4.37114e-08 1 1 4.37114e-08 644.754 -365.582)" stroke="#4242FF" stroke-width="3.22169"/>
  <circle cx="357.608" cy="357.608" r="355.997" transform="matrix(-4.37114e-08 1 1 4.37114e-08 651.198 -359.138)" stroke="#4242FF" stroke-width="3.22169"/>
  <circle cx="351.164" cy="351.164" r="349.553" transform="matrix(-4.37114e-08 1 1 4.37114e-08 657.641 -352.695)" stroke="#4242FF" stroke-width="3.22169"/>
  <circle cx="344.721" cy="344.721" r="343.11" transform="matrix(-4.37114e-08 1 1 4.37114e-08 664.085 -346.251)" stroke="#4242FF" stroke-width="3.22169"/>
  <circle cx="338.277" cy="338.277" r="336.667" transform="matrix(-4.37114e-08 1 1 4.37114e-08 670.528 -339.808)" stroke="#4242FF" stroke-width="3.22169"/>
  <circle cx="331.834" cy="331.834" r="330.223" transform="matrix(-4.37114e-08 1 1 4.37114e-08 676.971 -333.365)" stroke="#4242FF" stroke-width="3.22169"/>
  <circle cx="325.391" cy="325.391" r="323.78" transform="matrix(-4.37114e-08 1 1 4.37114e-08 683.414 -326.921)" stroke="#4242FF" stroke-width="3.22169"/>
  <circle cx="318.947" cy="318.947" r="317.337" transform="matrix(-4.37114e-08 1 1 4.37114e-08 689.858 -320.478)" stroke="#4242FF" stroke-width="3.22169"/>
  <circle cx="312.504" cy="312.504" r="310.893" transform="matrix(-4.37114e-08 1 1 4.37114e-08 696.302 -314.034)" stroke="#4242FF" stroke-width="3.22169"/>
  <circle cx="306.061" cy="306.061" r="304.45" transform="matrix(-4.37114e-08 1 1 4.37114e-08 702.745 -307.591)" stroke="#4242FF" stroke-width="3.22169"/>
  <circle cx="299.617" cy="299.617" r="298.006" transform="matrix(-4.37114e-08 1 1 4.37114e-08 709.188 -301.147)" stroke="#4242FF" stroke-width="3.22169"/>
  <circle cx="293.174" cy="293.174" r="291.563" transform="matrix(-4.37114e-08 1 1 4.37114e-08 715.631 -294.704)" stroke="#4242FF" stroke-width="3.22169"/>
  <circle cx="286.73" cy="286.73" r="285.12" transform="matrix(-4.37114e-08 1 1 4.37114e-08 722.075 -288.261)" stroke="#4242FF" stroke-width="3.22169"/>
  <circle cx="280.287" cy="280.287" r="278.676" transform="matrix(-4.37114e-08 1 1 4.37114e-08 728.519 -281.817)" stroke="#4242FF" stroke-width="3.22169"/>
  <circle cx="273.844" cy="273.844" r="272.233" transform="matrix(-4.37114e-08 1 1 4.37114e-08 734.962 -275.374)" stroke="#4242FF" stroke-width="3.22169"/>
  <circle cx="267.4" cy="267.4" r="265.789" transform="matrix(-4.37114e-08 1 1 4.37114e-08 741.405 -268.931)" stroke="#4242FF" stroke-width="3.22169"/>
  <circle cx="260.957" cy="260.957" r="259.346" transform="matrix(-4.37114e-08 1 1 4.37114e-08 747.849 -262.487)" stroke="#4242FF" stroke-width="3.22169"/>
  <circle cx="254.514" cy="254.514" r="252.903" transform="matrix(-4.37114e-08 1 1 4.37114e-08 754.292 -256.044)" stroke="#4242FF" stroke-width="3.22169"/>
  <circle cx="248.07" cy="248.07" r="246.459" transform="matrix(-4.37114e-08 1 1 4.37114e-08 760.735 -249.601)" stroke="#4242FF" stroke-width="3.22169"/>
  <circle cx="241.627" cy="241.627" r="240.016" transform="matrix(-4.37114e-08 1 1 4.37114e-08 767.178 -243.157)" stroke="#4242FF" stroke-width="3.22169"/>
  <circle cx="235.183" cy="235.183" r="233.573" transform="matrix(-4.37114e-08 1 1 4.37114e-08 773.622 -236.714)" stroke="#4242FF" stroke-width="3.22169"/>
  <circle cx="228.74" cy="228.74" r="227.129" transform="matrix(-4.37114e-08 1 1 4.37114e-08 780.066 -230.271)" stroke="#4242FF" stroke-width="3.22169"/>
  <circle cx="222.297" cy="222.297" r="220.686" transform="matrix(-4.37114e-08 1 1 4.37114e-08 786.509 -223.827)" stroke="#4242FF" stroke-width="3.22169"/>
  <circle cx="215.853" cy="215.853" r="214.242" transform="matrix(-4.37114e-08 1 1 4.37114e-08 792.952 -217.383)" stroke="#4242FF" stroke-width="3.22169"/>
  <circle cx="209.41" cy="209.41" r="207.799" transform="matrix(-4.37114e-08 1 1 4.37114e-08 799.395 -210.94)" stroke="#4242FF" stroke-width="3.22169"/>
  <circle cx="202.966" cy="202.966" r="201.356" transform="matrix(-4.37114e-08 1 1 4.37114e-08 805.839 -204.497)" stroke="#4242FF" stroke-width="3.22169"/>
  <circle cx="196.523" cy="196.523" r="194.912" transform="matrix(-4.37114e-08 1 1 4.37114e-08 812.283 -198.054)" stroke="#4242FF" stroke-width="3.22169"/>
  <circle cx="190.08" cy="190.08" r="188.469" transform="matrix(-4.37114e-08 1 1 4.37114e-08 818.726 -191.61)" stroke="#4242FF" stroke-width="3.22169"/>
  <circle cx="183.636" cy="183.636" r="182.026" transform="matrix(-4.37114e-08 1 1 4.37114e-08 825.169 -185.167)" stroke="#4242FF" stroke-width="3.22169"/>
  <circle cx="177.193" cy="177.193" r="175.582" transform="matrix(-4.37114e-08 1 1 4.37114e-08 831.612 -178.723)" stroke="#4242FF" stroke-width="3.22169"/>
  <circle cx="170.75" cy="170.75" r="169.139" transform="matrix(-4.37114e-08 1 1 4.37114e-08 838.056 -172.28)" stroke="#4242FF" stroke-width="3.22169"/>
  <circle cx="164.306" cy="164.306" r="162.695" transform="matrix(-4.37114e-08 1 1 4.37114e-08 844.499 -165.836)" stroke="#4242FF" stroke-width="3.22169"/>
  <circle cx="157.863" cy="157.863" r="156.252" transform="matrix(-4.37114e-08 1 1 4.37114e-08 850.943 -159.393)" stroke="#4242FF" stroke-width="3.22169"/>
  <circle cx="151.419" cy="151.419" r="149.809" transform="matrix(-4.37114e-08 1 1 4.37114e-08 857.386 -152.95)" stroke="#4242FF" stroke-width="3.22169"/>
  <circle cx="144.976" cy="144.976" r="143.365" transform="matrix(-4.37114e-08 1 1 4.37114e-08 863.83 -146.506)" stroke="#4242FF" stroke-width="3.22169"/>
  <circle cx="138.533" cy="138.533" r="136.922" transform="matrix(-4.37114e-08 1 1 4.37114e-08 870.273 -140.063)" stroke="#4242FF" stroke-width="3.22169"/>
  <circle cx="132.089" cy="132.089" r="130.478" transform="matrix(-4.37114e-08 1 1 4.37114e-08 876.716 -133.62)" stroke="#4242FF" stroke-width="3.22169"/>
  <circle cx="125.646" cy="125.646" r="124.035" transform="matrix(-4.37114e-08 1 1 4.37114e-08 883.159 -127.176)" stroke="#4242FF" stroke-width="3.22169"/>
  <circle cx="119.203" cy="119.203" r="117.592" transform="matrix(-4.37114e-08 1 1 4.37114e-08 889.603 -120.733)" stroke="#4242FF" stroke-width="3.22169"/>
  <circle cx="112.759" cy="112.759" r="111.148" transform="matrix(-4.37114e-08 1 1 4.37114e-08 896.047 -114.29)" stroke="#4242FF" stroke-width="3.22169"/>
  <circle cx="106.316" cy="106.316" r="104.705" transform="matrix(-4.37114e-08 1 1 4.37114e-08 902.49 -107.846)" stroke="#4242FF" stroke-width="3.22169"/>
  <circle cx="99.8724" cy="99.8724" r="98.2616" transform="matrix(-4.37114e-08 1 1 4.37114e-08 908.933 -101.403)" stroke="#4242FF" stroke-width="3.22169"/>
  <circle cx="93.429" cy="93.429" r="91.8182" transform="matrix(-4.37114e-08 1 1 4.37114e-08 915.376 -94.959)" stroke="#4242FF" stroke-width="3.22169"/>
  <circle cx="86.9856" cy="86.9856" r="85.3748" transform="matrix(-4.37114e-08 1 1 4.37114e-08 921.82 -88.5161)" stroke="#4242FF" stroke-width="3.22169"/>
  <circle cx="80.5423" cy="80.5423" r="78.9314" transform="matrix(-4.37114e-08 1 1 4.37114e-08 928.263 -82.0723)" stroke="#4242FF" stroke-width="3.22169"/>
  <circle cx="74.0989" cy="74.0989" r="72.488" transform="matrix(-4.37114e-08 1 1 4.37114e-08 934.707 -75.6294)" stroke="#4242FF" stroke-width="3.22169"/>
  <circle cx="67.6555" cy="67.6555" r="66.0447" transform="matrix(-4.37114e-08 1 1 4.37114e-08 941.15 -69.1855)" stroke="#4242FF" stroke-width="3.22169"/>
  <circle cx="61.2121" cy="61.2121" r="59.6013" transform="matrix(-4.37114e-08 1 1 4.37114e-08 947.593 -62.7427)" stroke="#4242FF" stroke-width="3.22169"/>
  <circle cx="54.7687" cy="54.7687" r="53.1579" transform="matrix(-4.37114e-08 1 1 4.37114e-08 954.037 -56.2988)" stroke="#4242FF" stroke-width="3.22169"/>
  <circle cx="48.3254" cy="48.3254" r="46.7145" transform="matrix(-4.37114e-08 1 1 4.37114e-08 960.48 -49.8555)" stroke="#4242FF" stroke-width="3.22169"/>
  <circle cx="41.882" cy="41.882" r="40.2711" transform="matrix(-4.37114e-08 1 1 4.37114e-08 966.923 -43.4121)" stroke="#4242FF" stroke-width="3.22169"/>
  <circle cx="35.4386" cy="35.4386" r="33.8278" transform="matrix(-4.37114e-08 1 1 4.37114e-08 973.366 -36.9688)" stroke="#4242FF" stroke-width="3.22169"/>
  <circle cx="28.9952" cy="28.9952" r="27.3844" transform="matrix(-4.37114e-08 1 1 4.37114e-08 979.81 -30.5259)" stroke="#4242FF" stroke-width="3.22169"/>
  <circle cx="16.1085" cy="16.1085" r="14.4976" transform="matrix(-4.37114e-08 1 1 4.37114e-08 992.697 -17.6392)" stroke="#4242FF" stroke-width="3.22169"/>
  <circle cx="9.66507" cy="9.66507" r="8.05423" transform="matrix(-4.37114e-08 1 1 4.37114e-08 999.14 -11.1953)" stroke="#4242FF" stroke-width="3.22169"/>
  <circle cx="22.5518" cy="22.5518" r="20.941" transform="matrix(-4.37114e-08 1 1 4.37114e-08 986.254 -24.082)" stroke="#4242FF" stroke-width="3.22169"/>
  <circle cx="3.22169" cy="3.22169" r="1.61085" transform="matrix(-4.37114e-08 1 1 4.37114e-08 1005.58 -4.75195)" stroke="#4242FF" stroke-width="3.22169"/>
  <circle cx="505" cy="505" r="505" transform="matrix(-4.37114e-08 1 1 4.37114e-08 503 -505.725)" fill="url(#paint2_radial_1_2)"/>
  </g>
  <defs>
  <radialGradient id="paint0_radial_1_2" cx="0" cy="0" r="1" gradientUnits="userSpaceOnUse" gradientTransform="translate(505 505.725) scale(996.308)">
  <stop offset="0.114912" stop-color="#F7F7F8"/>
  <stop offset="1" stop-color="#F7F7F8" stop-opacity="0"/>
  </radialGradient>
  <radialGradient id="paint1_radial_1_2" cx="0" cy="0" r="1" gradientUnits="userSpaceOnUse" gradientTransform="translate(1692 692.725) scale(996.308)">
  <stop offset="0.114912" stop-color="#F7F7F8"/>
  <stop offset="1" stop-color="#F7F7F8" stop-opacity="0"/>
  </radialGradient>
  <radialGradient id="paint2_radial_1_2" cx="0" cy="0" r="1" gradientUnits="userSpaceOnUse" gradientTransform="translate(505 505) scale(996.308)">
  <stop offset="0.114912" stop-color="#F7F7F8"/>
  <stop offset="1" stop-color="#F7F7F8" stop-opacity="0"/>
  </radialGradient>
  <clipPath id="clip0_1_2">
  <rect width="505" height="505" fill="white" transform="translate(0 505) rotate(-90)"/>
  </clipPath>
  <clipPath id="clip1_1_2">
  <rect width="505" height="505" fill="white" transform="translate(1187 692) rotate(-90)"/>
  </clipPath>
  <clipPath id="clip2_1_2">
  <rect width="505" height="505" fill="white" transform="matrix(-4.37114e-08 1 1 4.37114e-08 503 0)"/>
  </clipPath>
  </defs>
  </svg>
