<svg width="422" height="909" viewBox="0 0 422 909" fill="none" xmlns="http://www.w3.org/2000/svg">
  <g opacity="0.4" clip-path="url(#clip0_1226_4863)">
    <circle cx="-110.764" cy="532" r="530.303" stroke="#4242FF" stroke-width="3.39394" />
    <circle cx="-110.764" cy="532" r="530.303" stroke="#4242FF" stroke-width="3.39394" />
    <circle cx="-111.612" cy="532.848" r="524.364" stroke="#4242FF" stroke-width="3.39394" />
    <circle cx="-111.612" cy="532.848" r="517.576" stroke="#4242FF" stroke-width="3.39394" />
    <circle cx="-111.612" cy="532.848" r="510.788" stroke="#4242FF" stroke-width="3.39394" />
    <circle cx="-111.612" cy="532.849" r="504" stroke="#4242FF" stroke-width="3.39394" />
    <circle cx="-111.612" cy="532.849" r="497.212" stroke="#4242FF" stroke-width="3.39394" />
    <circle cx="-111.612" cy="532.849" r="490.424" stroke="#4242FF" stroke-width="3.39394" />
    <circle cx="-111.612" cy="532.849" r="483.636" stroke="#4242FF" stroke-width="3.39394" />
    <circle cx="-111.612" cy="532.848" r="476.848" stroke="#4242FF" stroke-width="3.39394" />
    <circle cx="-111.612" cy="532.848" r="470.061" stroke="#4242FF" stroke-width="3.39394" />
    <circle cx="-111.612" cy="532.849" r="463.273" stroke="#4242FF" stroke-width="3.39394" />
    <circle cx="-111.612" cy="532.849" r="456.485" stroke="#4242FF" stroke-width="3.39394" />
    <circle cx="-111.612" cy="532.849" r="449.697" stroke="#4242FF" stroke-width="3.39394" />
    <circle cx="-111.612" cy="532.849" r="442.909" stroke="#4242FF" stroke-width="3.39394" />
    <circle cx="-111.612" cy="532.848" r="436.121" stroke="#4242FF" stroke-width="3.39394" />
    <circle cx="-111.612" cy="532.848" r="429.333" stroke="#4242FF" stroke-width="3.39394" />
    <circle cx="-111.612" cy="532.849" r="422.545" stroke="#4242FF" stroke-width="3.39394" />
    <circle cx="-111.612" cy="532.849" r="415.758" stroke="#4242FF" stroke-width="3.39394" />
    <circle cx="-111.612" cy="532.849" r="408.97" stroke="#4242FF" stroke-width="3.39394" />
    <circle cx="-111.612" cy="532.849" r="402.182" stroke="#4242FF" stroke-width="3.39394" />
    <circle cx="-111.612" cy="532.848" r="395.394" stroke="#4242FF" stroke-width="3.39394" />
    <circle cx="-111.612" cy="532.848" r="388.606" stroke="#4242FF" stroke-width="3.39394" />
    <circle cx="-111.612" cy="532.848" r="381.818" stroke="#4242FF" stroke-width="3.39394" />
    <circle cx="-111.612" cy="532.849" r="375.03" stroke="#4242FF" stroke-width="3.39394" />
    <circle cx="-111.612" cy="532.849" r="368.242" stroke="#4242FF" stroke-width="3.39394" />
    <circle cx="-111.612" cy="532.849" r="361.455" stroke="#4242FF" stroke-width="3.39394" />
    <circle cx="-111.612" cy="532.849" r="354.667" stroke="#4242FF" stroke-width="3.39394" />
    <circle cx="-111.612" cy="532.848" r="347.879" stroke="#4242FF" stroke-width="3.39394" />
    <circle cx="-111.612" cy="532.848" r="341.091" stroke="#4242FF" stroke-width="3.39394" />
    <circle cx="-111.612" cy="532.849" r="334.303" stroke="#4242FF" stroke-width="3.39394" />
    <circle cx="-111.612" cy="532.849" r="327.515" stroke="#4242FF" stroke-width="3.39394" />
    <circle cx="-111.612" cy="532.849" r="320.727" stroke="#4242FF" stroke-width="3.39394" />
    <circle cx="-111.612" cy="532.849" r="313.939" stroke="#4242FF" stroke-width="3.39394" />
    <circle cx="-111.612" cy="532.848" r="307.152" stroke="#4242FF" stroke-width="3.39394" />
    <circle cx="-111.612" cy="532.848" r="300.364" stroke="#4242FF" stroke-width="3.39394" />
    <circle cx="-111.612" cy="532.849" r="293.576" stroke="#4242FF" stroke-width="3.39394" />
    <circle cx="-111.612" cy="532.849" r="286.788" stroke="#4242FF" stroke-width="3.39394" />
    <circle cx="-111.612" cy="532.849" r="280" stroke="#4242FF" stroke-width="3.39394" />
    <circle cx="-111.612" cy="532.849" r="273.212" stroke="#4242FF" stroke-width="3.39394" />
    <circle cx="-111.612" cy="532.848" r="266.424" stroke="#4242FF" stroke-width="3.39394" />
    <circle cx="-111.612" cy="532.848" r="259.636" stroke="#4242FF" stroke-width="3.39394" />
    <circle cx="-111.612" cy="532.848" r="252.848" stroke="#4242FF" stroke-width="3.39394" />
    <circle cx="-111.612" cy="532.849" r="246.061" stroke="#4242FF" stroke-width="3.39394" />
    <circle cx="-111.612" cy="532.849" r="239.273" stroke="#4242FF" stroke-width="3.39394" />
    <circle cx="-111.612" cy="532.849" r="232.485" stroke="#4242FF" stroke-width="3.39394" />
    <circle cx="-111.612" cy="532.849" r="225.697" stroke="#4242FF" stroke-width="3.39394" />
    <circle cx="-111.612" cy="532.848" r="218.909" stroke="#4242FF" stroke-width="3.39394" />
    <circle cx="-111.612" cy="532.848" r="212.121" stroke="#4242FF" stroke-width="3.39394" />
    <circle cx="-111.612" cy="532.849" r="205.333" stroke="#4242FF" stroke-width="3.39394" />
    <circle cx="-111.612" cy="532.849" r="198.545" stroke="#4242FF" stroke-width="3.39394" />
    <circle cx="-111.612" cy="532.849" r="191.758" stroke="#4242FF" stroke-width="3.39394" />
    <circle cx="-111.612" cy="532.848" r="184.97" stroke="#4242FF" stroke-width="3.39394" />
    <circle cx="-111.612" cy="532.848" r="178.182" stroke="#4242FF" stroke-width="3.39394" />
    <circle cx="-111.612" cy="532.848" r="171.394" stroke="#4242FF" stroke-width="3.39394" />
    <circle cx="-111.612" cy="532.849" r="164.606" stroke="#4242FF" stroke-width="3.39394" />
    <circle cx="-111.612" cy="532.849" r="157.818" stroke="#4242FF" stroke-width="3.39394" />
    <circle cx="-111.612" cy="532.849" r="151.03" stroke="#4242FF" stroke-width="3.39394" />
    <circle cx="-111.612" cy="532.849" r="144.242" stroke="#4242FF" stroke-width="3.39394" />
    <circle cx="-111.612" cy="532.848" r="137.455" stroke="#4242FF" stroke-width="3.39394" />
    <circle cx="-111.612" cy="532.848" r="130.667" stroke="#4242FF" stroke-width="3.39394" />
    <circle cx="-111.612" cy="532.848" r="123.879" stroke="#4242FF" stroke-width="3.39394" />
    <circle cx="-111.612" cy="532.849" r="117.091" stroke="#4242FF" stroke-width="3.39394" />
    <circle cx="-111.612" cy="532.849" r="110.303" stroke="#4242FF" stroke-width="3.39394" />
    <circle cx="-110.764" cy="532" r="532" fill="url(#paint0_radial_1226_4863)" />
  </g>
  <defs>
    <radialGradient id="paint0_radial_1226_4863" cx="0" cy="0" r="1" gradientUnits="userSpaceOnUse"
      gradientTransform="translate(-110.764 532) scale(1049.58)">
      <stop offset="0.114912" stop-color="#F7F7F8" />
      <stop offset="1" stop-color="#F7F7F8" stop-opacity="0" />
    </radialGradient>
    <clipPath id="clip0_1226_4863">
      <rect width="532" height="1064" fill="white" transform="translate(-110)" />
    </clipPath>
  </defs>
</svg>