<svg width="191" height="1008" viewBox="0 0 191 1008" fill="none" xmlns="http://www.w3.org/2000/svg">
  <g opacity="0.64">
    <g opacity="0.4" clip-path="url(#clip0_1226_6286)">
      <circle cx="505" cy="505" r="503.389" transform="matrix(-1 0 0 1 696.725 0)" stroke="#4242FF"
        stroke-width="3.22169" />
      <circle cx="505" cy="505" r="503.389" transform="matrix(-1 0 0 1 696.725 0)" stroke="#4242FF"
        stroke-width="3.22169" />
      <circle cx="499.362" cy="499.362" r="497.751" transform="matrix(-1 0 0 1 691.892 6.44324)"
        stroke="#4242FF" stroke-width="3.22169" />
      <circle cx="492.919" cy="492.919" r="491.308" transform="matrix(-1 0 0 1 685.449 12.8865)"
        stroke="#4242FF" stroke-width="3.22169" />
      <circle cx="486.475" cy="486.475" r="484.864" transform="matrix(-1 0 0 1 679.006 19.3298)"
        stroke="#4242FF" stroke-width="3.22169" />
      <circle cx="480.032" cy="480.032" r="478.421" transform="matrix(-1 0 0 1 672.562 25.7738)"
        stroke="#4242FF" stroke-width="3.22169" />
      <circle cx="473.589" cy="473.589" r="471.978" transform="matrix(-1 0 0 1 666.119 32.217)"
        stroke="#4242FF" stroke-width="3.22169" />
      <circle cx="467.145" cy="467.145" r="465.534" transform="matrix(-1 0 0 1 659.676 38.6603)"
        stroke="#4242FF" stroke-width="3.22169" />
      <circle cx="460.702" cy="460.702" r="459.091" transform="matrix(-1 0 0 1 653.232 45.1036)"
        stroke="#4242FF" stroke-width="3.22169" />
      <circle cx="454.258" cy="454.258" r="452.648" transform="matrix(-1 0 0 1 646.789 51.5469)"
        stroke="#4242FF" stroke-width="3.22169" />
      <circle cx="447.815" cy="447.815" r="446.204" transform="matrix(-1 0 0 1 640.345 57.9901)"
        stroke="#4242FF" stroke-width="3.22169" />
      <circle cx="441.372" cy="441.372" r="439.761" transform="matrix(-1 0 0 1 633.902 64.4341)"
        stroke="#4242FF" stroke-width="3.22169" />
      <circle cx="434.928" cy="434.928" r="433.317" transform="matrix(-1 0 0 1 627.459 70.8774)"
        stroke="#4242FF" stroke-width="3.22169" />
      <circle cx="428.485" cy="428.485" r="426.874" transform="matrix(-1 0 0 1 621.015 77.3207)"
        stroke="#4242FF" stroke-width="3.22169" />
      <circle cx="422.041" cy="422.041" r="420.431" transform="matrix(-1 0 0 1 614.572 83.7639)"
        stroke="#4242FF" stroke-width="3.22169" />
      <circle cx="415.598" cy="415.598" r="413.987" transform="matrix(-1 0 0 1 608.128 90.2072)"
        stroke="#4242FF" stroke-width="3.22169" />
      <circle cx="409.155" cy="409.155" r="407.544" transform="matrix(-1 0 0 1 601.685 96.6504)"
        stroke="#4242FF" stroke-width="3.22169" />
      <circle cx="402.711" cy="402.711" r="401.1" transform="matrix(-1 0 0 1 595.242 103.094)"
        stroke="#4242FF" stroke-width="3.22169" />
      <circle cx="396.268" cy="396.268" r="394.657" transform="matrix(-1 0 0 1 588.798 109.538)"
        stroke="#4242FF" stroke-width="3.22169" />
      <circle cx="389.825" cy="389.825" r="388.214" transform="matrix(-1 0 0 1 582.355 115.981)"
        stroke="#4242FF" stroke-width="3.22169" />
      <circle cx="383.381" cy="383.381" r="381.77" transform="matrix(-1 0 0 1 575.911 122.424)"
        stroke="#4242FF" stroke-width="3.22169" />
      <circle cx="376.938" cy="376.938" r="375.327" transform="matrix(-1 0 0 1 569.468 128.867)"
        stroke="#4242FF" stroke-width="3.22169" />
      <circle cx="370.494" cy="370.494" r="368.884" transform="matrix(-1 0 0 1 563.025 135.311)"
        stroke="#4242FF" stroke-width="3.22169" />
      <circle cx="364.051" cy="364.051" r="362.44" transform="matrix(-1 0 0 1 556.582 141.754)"
        stroke="#4242FF" stroke-width="3.22169" />
      <circle cx="357.608" cy="357.608" r="355.997" transform="matrix(-1 0 0 1 550.138 148.198)"
        stroke="#4242FF" stroke-width="3.22169" />
      <circle cx="351.164" cy="351.164" r="349.553" transform="matrix(-1 0 0 1 543.695 154.641)"
        stroke="#4242FF" stroke-width="3.22169" />
      <circle cx="344.721" cy="344.721" r="343.11" transform="matrix(-1 0 0 1 537.251 161.085)"
        stroke="#4242FF" stroke-width="3.22169" />
      <circle cx="338.277" cy="338.277" r="336.667" transform="matrix(-1 0 0 1 530.808 167.528)"
        stroke="#4242FF" stroke-width="3.22169" />
      <circle cx="331.834" cy="331.834" r="330.223" transform="matrix(-1 0 0 1 524.365 173.971)"
        stroke="#4242FF" stroke-width="3.22169" />
      <circle cx="325.391" cy="325.391" r="323.78" transform="matrix(-1 0 0 1 517.921 180.414)"
        stroke="#4242FF" stroke-width="3.22169" />
      <circle cx="318.947" cy="318.947" r="317.337" transform="matrix(-1 0 0 1 511.478 186.858)"
        stroke="#4242FF" stroke-width="3.22169" />
      <circle cx="312.504" cy="312.504" r="310.893" transform="matrix(-1 0 0 1 505.034 193.302)"
        stroke="#4242FF" stroke-width="3.22169" />
      <circle cx="306.061" cy="306.061" r="304.45" transform="matrix(-1 0 0 1 498.591 199.745)"
        stroke="#4242FF" stroke-width="3.22169" />
      <circle cx="299.617" cy="299.617" r="298.006" transform="matrix(-1 0 0 1 492.148 206.188)"
        stroke="#4242FF" stroke-width="3.22169" />
      <circle cx="293.174" cy="293.174" r="291.563" transform="matrix(-1 0 0 1 485.704 212.631)"
        stroke="#4242FF" stroke-width="3.22169" />
      <circle cx="286.73" cy="286.73" r="285.12" transform="matrix(-1 0 0 1 479.261 219.075)"
        stroke="#4242FF" stroke-width="3.22169" />
      <circle cx="280.287" cy="280.287" r="278.676" transform="matrix(-1 0 0 1 472.817 225.519)"
        stroke="#4242FF" stroke-width="3.22169" />
      <circle cx="273.844" cy="273.844" r="272.233" transform="matrix(-1 0 0 1 466.374 231.962)"
        stroke="#4242FF" stroke-width="3.22169" />
      <circle cx="267.4" cy="267.4" r="265.789" transform="matrix(-1 0 0 1 459.931 238.405)"
        stroke="#4242FF" stroke-width="3.22169" />
      <circle cx="260.957" cy="260.957" r="259.346" transform="matrix(-1 0 0 1 453.487 244.849)"
        stroke="#4242FF" stroke-width="3.22169" />
      <circle cx="254.514" cy="254.514" r="252.903" transform="matrix(-1 0 0 1 447.044 251.292)"
        stroke="#4242FF" stroke-width="3.22169" />
      <circle cx="248.07" cy="248.07" r="246.459" transform="matrix(-1 0 0 1 440.6 257.735)"
        stroke="#4242FF" stroke-width="3.22169" />
      <circle cx="241.627" cy="241.627" r="240.016" transform="matrix(-1 0 0 1 434.157 264.178)"
        stroke="#4242FF" stroke-width="3.22169" />
      <circle cx="235.183" cy="235.183" r="233.573" transform="matrix(-1 0 0 1 427.714 270.622)"
        stroke="#4242FF" stroke-width="3.22169" />
      <circle cx="228.74" cy="228.74" r="227.129" transform="matrix(-1 0 0 1 421.271 277.066)"
        stroke="#4242FF" stroke-width="3.22169" />
      <circle cx="222.297" cy="222.297" r="220.686" transform="matrix(-1 0 0 1 414.827 283.509)"
        stroke="#4242FF" stroke-width="3.22169" />
      <circle cx="215.853" cy="215.853" r="214.242" transform="matrix(-1 0 0 1 408.383 289.952)"
        stroke="#4242FF" stroke-width="3.22169" />
      <circle cx="209.41" cy="209.41" r="207.799" transform="matrix(-1 0 0 1 401.94 296.395)"
        stroke="#4242FF" stroke-width="3.22169" />
      <circle cx="202.966" cy="202.966" r="201.356" transform="matrix(-1 0 0 1 395.497 302.839)"
        stroke="#4242FF" stroke-width="3.22169" />
      <circle cx="196.523" cy="196.523" r="194.912" transform="matrix(-1 0 0 1 389.054 309.283)"
        stroke="#4242FF" stroke-width="3.22169" />
      <circle cx="190.08" cy="190.08" r="188.469" transform="matrix(-1 0 0 1 382.61 315.726)"
        stroke="#4242FF" stroke-width="3.22169" />
      <circle cx="183.636" cy="183.636" r="182.026" transform="matrix(-1 0 0 1 376.167 322.169)"
        stroke="#4242FF" stroke-width="3.22169" />
      <circle cx="177.193" cy="177.193" r="175.582" transform="matrix(-1 0 0 1 369.723 328.612)"
        stroke="#4242FF" stroke-width="3.22169" />
      <circle cx="170.75" cy="170.75" r="169.139" transform="matrix(-1 0 0 1 363.28 335.056)"
        stroke="#4242FF" stroke-width="3.22169" />
      <circle cx="164.306" cy="164.306" r="162.695" transform="matrix(-1 0 0 1 356.837 341.499)"
        stroke="#4242FF" stroke-width="3.22169" />
      <circle cx="157.863" cy="157.863" r="156.252" transform="matrix(-1 0 0 1 350.393 347.943)"
        stroke="#4242FF" stroke-width="3.22169" />
      <circle cx="151.419" cy="151.419" r="149.809" transform="matrix(-1 0 0 1 343.95 354.386)"
        stroke="#4242FF" stroke-width="3.22169" />
      <circle cx="144.976" cy="144.976" r="143.365" transform="matrix(-1 0 0 1 337.506 360.829)"
        stroke="#4242FF" stroke-width="3.22169" />
      <circle cx="138.533" cy="138.533" r="136.922" transform="matrix(-1 0 0 1 331.063 367.273)"
        stroke="#4242FF" stroke-width="3.22169" />
      <circle cx="132.089" cy="132.089" r="130.478" transform="matrix(-1 0 0 1 324.62 373.716)"
        stroke="#4242FF" stroke-width="3.22169" />
      <circle cx="125.646" cy="125.646" r="124.035" transform="matrix(-1 0 0 1 318.176 380.159)"
        stroke="#4242FF" stroke-width="3.22169" />
      <circle cx="119.203" cy="119.203" r="117.592" transform="matrix(-1 0 0 1 311.733 386.603)"
        stroke="#4242FF" stroke-width="3.22169" />
      <circle cx="112.759" cy="112.759" r="111.148" transform="matrix(-1 0 0 1 305.289 393.047)"
        stroke="#4242FF" stroke-width="3.22169" />
      <circle cx="106.316" cy="106.316" r="104.705" transform="matrix(-1 0 0 1 298.846 399.49)"
        stroke="#4242FF" stroke-width="3.22169" />
      <circle cx="99.8724" cy="99.8724" r="98.2616" transform="matrix(-1 0 0 1 292.403 405.933)"
        stroke="#4242FF" stroke-width="3.22169" />
      <circle cx="93.429" cy="93.429" r="91.8182" transform="matrix(-1 0 0 1 285.959 412.376)"
        stroke="#4242FF" stroke-width="3.22169" />
      <circle cx="86.9856" cy="86.9856" r="85.3748" transform="matrix(-1 0 0 1 279.516 418.82)"
        stroke="#4242FF" stroke-width="3.22169" />
      <circle cx="80.5423" cy="80.5423" r="78.9314" transform="matrix(-1 0 0 1 273.072 425.263)"
        stroke="#4242FF" stroke-width="3.22169" />
      <circle cx="74.0989" cy="74.0989" r="72.488" transform="matrix(-1 0 0 1 266.629 431.707)"
        stroke="#4242FF" stroke-width="3.22169" />
      <circle cx="67.6555" cy="67.6555" r="66.0447" transform="matrix(-1 0 0 1 260.186 438.15)"
        stroke="#4242FF" stroke-width="3.22169" />
      <circle cx="61.2121" cy="61.2121" r="59.6013" transform="matrix(-1 0 0 1 253.743 444.593)"
        stroke="#4242FF" stroke-width="3.22169" />
      <circle cx="54.7687" cy="54.7687" r="53.1579" transform="matrix(-1 0 0 1 247.299 451.037)"
        stroke="#4242FF" stroke-width="3.22169" />
      <circle cx="48.3254" cy="48.3254" r="46.7145" transform="matrix(-1 0 0 1 240.855 457.48)"
        stroke="#4242FF" stroke-width="3.22169" />
      <circle cx="41.882" cy="41.882" r="40.2711" transform="matrix(-1 0 0 1 234.412 463.923)"
        stroke="#4242FF" stroke-width="3.22169" />
      <circle cx="35.4386" cy="35.4386" r="33.8278" transform="matrix(-1 0 0 1 227.969 470.366)"
        stroke="#4242FF" stroke-width="3.22169" />
      <circle cx="28.9952" cy="28.9952" r="27.3844" transform="matrix(-1 0 0 1 221.526 476.81)"
        stroke="#4242FF" stroke-width="3.22169" />
      <circle cx="16.1085" cy="16.1085" r="14.4976" transform="matrix(-1 0 0 1 208.639 489.697)"
        stroke="#4242FF" stroke-width="3.22169" />
      <circle cx="9.66507" cy="9.66507" r="8.05423" transform="matrix(-1 0 0 1 202.195 496.14)"
        stroke="#4242FF" stroke-width="3.22169" />
      <circle cx="22.5518" cy="22.5518" r="20.941" transform="matrix(-1 0 0 1 215.082 483.254)"
        stroke="#4242FF" stroke-width="3.22169" />
      <circle cx="3.22169" cy="3.22169" r="1.61085" transform="matrix(-1 0 0 1 195.752 502.583)"
        stroke="#4242FF" stroke-width="3.22169" />
      <circle cx="505" cy="505" r="505" transform="matrix(-1 0 0 1 696.725 0)"
        fill="url(#paint0_radial_1226_6286)" />
    </g>
    <g opacity="0.4" clip-path="url(#clip1_1226_6286)">
      <circle cx="-314.725" cy="1008" r="503.389" stroke="#4242FF" stroke-width="3.22169" />
      <circle cx="-314.725" cy="1008" r="503.389" stroke="#4242FF" stroke-width="3.22169" />
      <circle cx="-315.53" cy="1008.81" r="497.751" stroke="#4242FF" stroke-width="3.22169" />
      <circle cx="-315.53" cy="1008.81" r="491.308" stroke="#4242FF" stroke-width="3.22169" />
      <circle cx="-315.53" cy="1008.81" r="484.864" stroke="#4242FF" stroke-width="3.22169" />
      <circle cx="-315.53" cy="1008.81" r="478.421" stroke="#4242FF" stroke-width="3.22169" />
      <circle cx="-315.53" cy="1008.81" r="471.978" stroke="#4242FF" stroke-width="3.22169" />
      <circle cx="-315.53" cy="1008.81" r="465.534" stroke="#4242FF" stroke-width="3.22169" />
      <circle cx="-315.53" cy="1008.81" r="459.091" stroke="#4242FF" stroke-width="3.22169" />
      <circle cx="-315.53" cy="1008.81" r="452.648" stroke="#4242FF" stroke-width="3.22169" />
      <circle cx="-315.53" cy="1008.81" r="446.204" stroke="#4242FF" stroke-width="3.22169" />
      <circle cx="-315.53" cy="1008.81" r="439.761" stroke="#4242FF" stroke-width="3.22169" />
      <circle cx="-315.53" cy="1008.81" r="433.317" stroke="#4242FF" stroke-width="3.22169" />
      <circle cx="-315.53" cy="1008.81" r="426.874" stroke="#4242FF" stroke-width="3.22169" />
      <circle cx="-315.53" cy="1008.81" r="420.431" stroke="#4242FF" stroke-width="3.22169" />
      <circle cx="-315.53" cy="1008.81" r="413.987" stroke="#4242FF" stroke-width="3.22169" />
      <circle cx="-315.53" cy="1008.81" r="407.544" stroke="#4242FF" stroke-width="3.22169" />
      <circle cx="-315.53" cy="1008.81" r="401.1" stroke="#4242FF" stroke-width="3.22169" />
      <circle cx="-315.53" cy="1008.81" r="394.657" stroke="#4242FF" stroke-width="3.22169" />
      <circle cx="-315.53" cy="1008.81" r="388.214" stroke="#4242FF" stroke-width="3.22169" />
      <circle cx="-315.53" cy="1008.81" r="381.77" stroke="#4242FF" stroke-width="3.22169" />
      <circle cx="-315.53" cy="1008.81" r="375.327" stroke="#4242FF" stroke-width="3.22169" />
      <circle cx="-315.53" cy="1008.81" r="368.884" stroke="#4242FF" stroke-width="3.22169" />
      <circle cx="-315.53" cy="1008.81" r="362.44" stroke="#4242FF" stroke-width="3.22169" />
      <circle cx="-315.53" cy="1008.81" r="355.997" stroke="#4242FF" stroke-width="3.22169" />
      <circle cx="-315.53" cy="1008.81" r="349.553" stroke="#4242FF" stroke-width="3.22169" />
      <circle cx="-315.53" cy="1008.81" r="343.11" stroke="#4242FF" stroke-width="3.22169" />
      <circle cx="-315.53" cy="1008.81" r="336.667" stroke="#4242FF" stroke-width="3.22169" />
      <circle cx="-315.53" cy="1008.81" r="330.223" stroke="#4242FF" stroke-width="3.22169" />
      <circle cx="-315.53" cy="1008.81" r="323.78" stroke="#4242FF" stroke-width="3.22169" />
      <circle cx="-315.53" cy="1008.81" r="317.337" stroke="#4242FF" stroke-width="3.22169" />
      <circle cx="-314.725" cy="1008" r="505" fill="url(#paint1_radial_1226_6286)" />
    </g>
  </g>
  <defs>
    <radialGradient id="paint0_radial_1226_6286" cx="0" cy="0" r="1" gradientUnits="userSpaceOnUse"
      gradientTransform="translate(505 505) scale(996.308)">
      <stop offset="0.114912" stop-color="#F7F7F8" />
      <stop offset="1" stop-color="#F7F7F8" stop-opacity="0" />
    </radialGradient>
    <radialGradient id="paint1_radial_1226_6286" cx="0" cy="0" r="1" gradientUnits="userSpaceOnUse"
      gradientTransform="translate(-314.725 1008) scale(996.308)">
      <stop offset="0.114912" stop-color="#F7F7F8" />
      <stop offset="1" stop-color="#F7F7F8" stop-opacity="0" />
    </radialGradient>
    <clipPath id="clip0_1226_6286">
      <rect width="505" height="505" fill="white" transform="matrix(-1 0 0 1 191 0)" />
    </clipPath>
    <clipPath id="clip1_1226_6286">
      <rect width="505" height="505" fill="white" transform="translate(-314 503)" />
    </clipPath>
  </defs>
</svg>