<svg width="32" height="32" viewBox="0 0 32 32" fill="none" xmlns="http://www.w3.org/2000/svg">
<g id="moculo accordion icons">
<mask id="mask0_1345_1445" style="mask-type:alpha" maskUnits="userSpaceOnUse" x="0" y="0" width="32" height="32">
<rect id="Bounding box" width="32" height="32" fill="#D9D9D9"/>
</mask>
<g mask="url(#mask0_1345_1445)">
<path id="admin_panel_settings" d="M22.6663 22.6665C23.2219 22.6665 23.6941 22.4721 24.083 22.0832C24.4719 21.6943 24.6663 21.2221 24.6663 20.6665C24.6663 20.1109 24.4719 19.6387 24.083 19.2498C23.6941 18.8609 23.2219 18.6665 22.6663 18.6665C22.1108 18.6665 21.6386 18.8609 21.2497 19.2498C20.8608 19.6387 20.6663 20.1109 20.6663 20.6665C20.6663 21.2221 20.8608 21.6943 21.2497 22.0832C21.6386 22.4721 22.1108 22.6665 22.6663 22.6665ZM22.6663 26.6665C23.3552 26.6665 23.9886 26.5054 24.5663 26.1832C25.1441 25.8609 25.6108 25.4332 25.9663 24.8998C25.4775 24.6109 24.9552 24.3887 24.3997 24.2332C23.8441 24.0776 23.2663 23.9998 22.6663 23.9998C22.0663 23.9998 21.4886 24.0776 20.933 24.2332C20.3775 24.3887 19.8552 24.6109 19.3663 24.8998C19.7219 25.4332 20.1886 25.8609 20.7663 26.1832C21.3441 26.5054 21.9775 26.6665 22.6663 26.6665ZM15.9997 29.3332C12.9108 28.5554 10.3608 26.7832 8.34967 24.0165C6.33856 21.2498 5.33301 18.1776 5.33301 14.7998V6.6665L15.9997 2.6665L26.6663 6.6665V14.2332C26.2441 14.0554 25.8108 13.8943 25.3663 13.7498C24.9219 13.6054 24.4663 13.4998 23.9997 13.4332V8.53317L15.9997 5.53317L7.99967 8.53317V14.7998C7.99967 15.8443 8.13856 16.8887 8.41634 17.9332C8.69412 18.9776 9.08301 19.9721 9.58301 20.9165C10.083 21.8609 10.6886 22.7332 11.3997 23.5332C12.1108 24.3332 12.8997 24.9998 13.7663 25.5332C14.0108 26.2443 14.333 26.9221 14.733 27.5665C15.133 28.2109 15.5886 28.7887 16.0997 29.2998C16.0775 29.2998 16.0608 29.3054 16.0497 29.3165C16.0386 29.3276 16.0219 29.3332 15.9997 29.3332ZM22.6663 29.3332C20.8219 29.3332 19.2497 28.6832 17.9497 27.3832C16.6497 26.0832 15.9997 24.5109 15.9997 22.6665C15.9997 20.8221 16.6497 19.2498 17.9497 17.9498C19.2497 16.6498 20.8219 15.9998 22.6663 15.9998C24.5108 15.9998 26.083 16.6498 27.383 17.9498C28.683 19.2498 29.333 20.8221 29.333 22.6665C29.333 24.5109 28.683 26.0832 27.383 27.3832C26.083 28.6832 24.5108 29.3332 22.6663 29.3332Z" fill="#4242FF"/>
</g>
</g>
</svg>
